M48
; DRILL file {KiCad 8.0.5} date 2024-11-26T11:55:41+0000
; FORMAT={-:-/ absolute / inch / decimal}
; #@! TF.CreationDate,2024-11-26T11:55:41+00:00
; #@! TF.GenerationSoftware,Kicad,Pcbnew,8.0.5
; #@! TF.FileFunction,Plated,1,2,PTH
FMAT,2
INCH
; #@! TA.AperFunction,Plated,PTH,ViaDrill
T1C0.0118
; #@! TA.AperFunction,Plated,PTH,ComponentDrill
T2C0.0118
; #@! TA.AperFunction,Plated,PTH,ComponentDrill
T3C0.0236
; #@! TA.AperFunction,Plated,PTH,ComponentDrill
T4C0.0354
; #@! TA.AperFunction,Plated,PTH,ComponentDrill
T5C0.0394
; #@! TA.AperFunction,Plated,PTH,ComponentDrill
T6C0.0591
%
G90
G05
T1
X4.0598Y-1.5083
X4.2047Y-1.5173
X4.2354Y-2.2736
X4.2354Y-2.7906
X4.2972Y-1.4976
X4.3516Y-3.028
X4.3882Y-1.378
X4.4902Y-1.5
X4.4909Y-2.2984
X4.4992Y-2.7417
X4.5654Y-2.0898
X4.5657Y-2.0236
X4.6429Y-2.4
X4.6461Y-1.9244
X4.6654Y-1.4689
X4.7014Y-1.9008
X4.7185Y-1.2618
X4.7402Y-1.6685
X4.7441Y-2.3261
X4.7472Y-1.502
X4.7535Y-2.2453
X4.7586Y-2.3547
X4.7854Y-2.2256
X4.8043Y-1.3555
X4.8101Y-1.8983
X4.8119Y-2.2583
X4.8228Y-1.765
X4.8326Y-2.2845
X4.8531Y-2.1094
X4.8543Y-3.0831
X4.8583Y-2.25
X4.8732Y-2.5425
X4.9433Y-2.0134
X4.9512Y-1.6496
X5.0055Y-1.4169
X5.0205Y-2.8244
X5.0453Y-1.5878
X5.0575Y-2.6835
X5.0579Y-2.3287
X5.0988Y-1.8858
X5.1081Y-2.1705
X5.1441Y-1.6496
X5.1457Y-1.548
X5.1647Y-2.0041
X5.1823Y-2.2665
X5.1825Y-2.1691
X5.1827Y-2.2014
X5.2051Y-2.0795
X5.2631Y-2.0055
X5.2656Y-2.4156
X5.2677Y-2.5606
X5.298Y-2.3023
X5.3067Y-2.4787
X5.3146Y-3.024
X5.315Y-2.0272
X5.3315Y-2.343
X5.3819Y-1.8433
X5.407Y-2.0652
X5.4248Y-1.7795
X5.4587Y-2.6228
X5.474Y-1.4
X5.4838Y-2.1879
X5.4916Y-2.4426
X5.52Y-2.1197
X5.8295Y-2.2012
X5.8323Y-2.1442
X5.8709Y-2.3295
X5.872Y-1.9898
X5.9493Y-1.9894
T2
X4.5059Y-2.5472
X4.5059Y-2.6142
X4.5638Y-2.5472
X4.5642Y-2.6142
X5.2835Y-2.1406
X5.2835Y-2.1957
X5.3386Y-2.1406
X5.3386Y-2.1957
X5.6693Y-2.1654
X7.0079Y-2.2244
X7.126Y-2.1063
T4
X5.1429Y-1.2783
X5.2217Y-1.2783
X5.3004Y-1.2783
T5
X5.2118Y-2.8744
X5.4086Y-2.8744
T6
X5.0602Y-1.2783
X5.3831Y-1.2783
T3
G00X4.2197Y-1.3189
M15
G01X4.2197Y-1.2677
M16
G05
G00X4.2197Y-1.4636
M15
G01X4.2197Y-1.4242
M16
G05
G00X4.5598Y-1.3189
M15
G01X4.5598Y-1.2677
M16
G05
G00X4.5598Y-1.4636
M15
G01X4.5598Y-1.4242
M16
G05
M30
