%TF.GenerationSoftware,KiCad,Pcbnew,8.0.5*%
%TF.CreationDate,2024-11-26T11:55:41+00:00*%
%TF.ProjectId,NFC_ESP32,4e46435f-4553-4503-9332-2e6b69636164,rev?*%
%TF.SameCoordinates,Original*%
%TF.FileFunction,Copper,L2,Bot*%
%TF.FilePolarity,Positive*%
%FSLAX46Y46*%
G04 Gerber Fmt 4.6, Leading zero omitted, Abs format (unit mm)*
G04 Created by KiCad (PCBNEW 8.0.5) date 2024-11-26 11:55:41*
%MOMM*%
%LPD*%
G01*
G04 APERTURE LIST*
%TA.AperFunction,EtchedComponent*%
%ADD10C,0.600000*%
%TD*%
%TA.AperFunction,ComponentPad*%
%ADD11C,0.600000*%
%TD*%
%TA.AperFunction,ComponentPad*%
%ADD12O,1.300000X2.300000*%
%TD*%
%TA.AperFunction,ComponentPad*%
%ADD13O,1.300000X2.600000*%
%TD*%
%TA.AperFunction,HeatsinkPad*%
%ADD14C,0.600000*%
%TD*%
%TA.AperFunction,ComponentPad*%
%ADD15R,2.000000X2.000000*%
%TD*%
%TA.AperFunction,ComponentPad*%
%ADD16C,2.000000*%
%TD*%
%TA.AperFunction,ComponentPad*%
%ADD17O,2.200000X3.500000*%
%TD*%
%TA.AperFunction,ComponentPad*%
%ADD18R,1.500000X2.500000*%
%TD*%
%TA.AperFunction,ComponentPad*%
%ADD19O,1.500000X2.500000*%
%TD*%
%TA.AperFunction,HeatsinkPad*%
%ADD20C,0.500000*%
%TD*%
%TA.AperFunction,HeatsinkPad*%
%ADD21R,3.100000X3.100000*%
%TD*%
%TA.AperFunction,ViaPad*%
%ADD22C,0.600000*%
%TD*%
%TA.AperFunction,Conductor*%
%ADD23C,0.600000*%
%TD*%
%TA.AperFunction,Conductor*%
%ADD24C,0.500000*%
%TD*%
%TA.AperFunction,Conductor*%
%ADD25C,0.300000*%
%TD*%
G04 APERTURE END LIST*
D10*
%TO.C,ANT1*%
X178000000Y-56500000D02*
X181000000Y-53500000D01*
%TD*%
D11*
%TO.P,ANT1,1,L1*%
%TO.N,Net-(ANT1-L1)*%
X181000000Y-53500000D03*
X178000000Y-56500000D03*
%TO.P,ANT1,3,M*%
%TO.N,GND*%
X144000000Y-55000000D03*
%TD*%
D12*
%TO.P,J1,S1,SHIELD*%
%TO.N,GND*%
X115820000Y-36675000D03*
D13*
X115820000Y-32850000D03*
D12*
X107180000Y-36675000D03*
D13*
X107180000Y-32850000D03*
%TD*%
D14*
%TO.P,U1,39,GND*%
%TO.N,GND*%
X114450000Y-66400000D03*
X115930000Y-66400000D03*
X114450000Y-64700000D03*
X115920000Y-64700000D03*
%TD*%
D15*
%TO.P,LS1,1,1*%
%TO.N,+3.3V*%
X132379216Y-73010000D03*
D16*
%TO.P,LS1,2,2*%
%TO.N,Net-(Q5-C)*%
X137379216Y-73010000D03*
%TD*%
D17*
%TO.P,SW1,*%
%TO.N,*%
X136730000Y-32470000D03*
X128530000Y-32470000D03*
D18*
%TO.P,SW1,1,A*%
%TO.N,Net-(D2-K)*%
X134630000Y-32470000D03*
D19*
%TO.P,SW1,2,B*%
%TO.N,Net-(D3-A)*%
X132630000Y-32470000D03*
%TO.P,SW1,3*%
%TO.N,N/C*%
X130630000Y-32470000D03*
%TD*%
D20*
%TO.P,U5,33,PAD*%
%TO.N,GND*%
X134200000Y-54370000D03*
X134200000Y-55770000D03*
D21*
X134900000Y-55070000D03*
D20*
X135600000Y-54370000D03*
X135600000Y-55770000D03*
%TD*%
D22*
%TO.N,Net-(D2-K)*%
X127140000Y-35990000D03*
%TO.N,+5V*%
X109150000Y-38040000D03*
X114050000Y-38100000D03*
X115970000Y-51400000D03*
X118500000Y-37310000D03*
X118010000Y-48880000D03*
%TO.N,Net-(Q1-G)*%
X119415000Y-48280000D03*
X120400000Y-42380000D03*
%TO.N,Net-(Q1-D)*%
X123270000Y-53580000D03*
X122500000Y-44830000D03*
%TO.N,Net-(Q2-D)*%
X122177500Y-48217500D03*
X120740025Y-57030025D03*
%TO.N,Net-(J2-Pin_1)*%
X120580000Y-38150000D03*
X128150000Y-40330000D03*
X119850000Y-32050000D03*
%TO.N,GND*%
X128460000Y-68160000D03*
X127520000Y-71740000D03*
X114070000Y-58380000D03*
X114280000Y-69640000D03*
X125560000Y-51140000D03*
X107580000Y-57750000D03*
X125760000Y-41900000D03*
X123300000Y-78310000D03*
X117930000Y-60960000D03*
X107580000Y-70880000D03*
X106800000Y-38540000D03*
X115960000Y-53080000D03*
X130700000Y-39320000D03*
X130660000Y-41900000D03*
X149149972Y-50539978D03*
X133800000Y-65040000D03*
X131636514Y-55094819D03*
X128470000Y-59150000D03*
X139486495Y-62042756D03*
X139040000Y-35560000D03*
X136700000Y-46820000D03*
X132210000Y-52820000D03*
X111460000Y-35000000D03*
X103120000Y-38310000D03*
X137790000Y-45200000D03*
X138650000Y-66620000D03*
X134791250Y-62958668D03*
X129745371Y-55130143D03*
X122030000Y-34430000D03*
X129510000Y-47900000D03*
X139288286Y-55573796D03*
X149120000Y-59170000D03*
X110530000Y-76910000D03*
X123780000Y-64580000D03*
%TO.N,+3.3V*%
X134568277Y-58477785D03*
X131630000Y-57570000D03*
%TO.N,Net-(ANT1-L1)*%
X151112500Y-50530000D03*
X140208298Y-53840000D03*
%TO.N,Net-(C11-Pad1)*%
X135420000Y-59512985D03*
X148139571Y-54462080D03*
%TO.N,Net-(C12-Pad2)*%
X133746263Y-61356263D03*
X148070000Y-55910000D03*
%TO.N,Net-(D4-DIN)*%
X134990000Y-76810000D03*
X121550000Y-56530000D03*
%TO.N,/RST*%
X131641005Y-55914364D03*
X120868281Y-59810000D03*
%TO.N,/MISO*%
X131182558Y-50904651D03*
X123400000Y-57150000D03*
%TO.N,/CS*%
X120501058Y-59083416D03*
X137337500Y-52455000D03*
%TO.N,/MOSI*%
X122221169Y-57359904D03*
X133682500Y-50940000D03*
%TO.N,/SCK*%
X122748127Y-58026852D03*
X135000000Y-51490000D03*
%TD*%
D23*
%TO.N,Net-(D2-K)*%
X127140000Y-35990000D02*
X131610000Y-35990000D01*
X134630000Y-32970000D02*
X134630000Y-32470000D01*
X131610000Y-35990000D02*
X134630000Y-32970000D01*
D24*
%TO.N,+5V*%
X114225000Y-38275000D02*
X117535000Y-38275000D01*
X113990000Y-38040000D02*
X114050000Y-38100000D01*
X109150000Y-38040000D02*
X113990000Y-38040000D01*
X117535000Y-38275000D02*
X118500000Y-37310000D01*
D23*
X118010000Y-37800000D02*
X118500000Y-37310000D01*
D24*
X114050000Y-38100000D02*
X114225000Y-38275000D01*
D23*
X115970000Y-51400000D02*
X115970000Y-50920000D01*
X115970000Y-50920000D02*
X118010000Y-48880000D01*
X118010000Y-48880000D02*
X118010000Y-37800000D01*
D25*
%TO.N,Net-(Q1-G)*%
X119415000Y-48280000D02*
X119415000Y-43365000D01*
X119415000Y-43365000D02*
X120400000Y-42380000D01*
%TO.N,Net-(Q1-D)*%
X123270000Y-45600000D02*
X122500000Y-44830000D01*
X123270000Y-53580000D02*
X123270000Y-45600000D01*
%TO.N,Net-(Q2-D)*%
X120740025Y-49654975D02*
X120740025Y-57030025D01*
X122177500Y-48217500D02*
X120740025Y-49654975D01*
D23*
%TO.N,Net-(J2-Pin_1)*%
X125970000Y-38150000D02*
X128150000Y-40330000D01*
X120580000Y-38150000D02*
X125970000Y-38150000D01*
X119850000Y-37420000D02*
X120580000Y-38150000D01*
X119850000Y-32050000D02*
X119850000Y-37420000D01*
D25*
X128130000Y-40350000D02*
X128150000Y-40330000D01*
D23*
%TO.N,GND*%
X129782030Y-55094819D02*
X129749394Y-55127455D01*
D25*
X144000000Y-55000000D02*
X144114842Y-55114842D01*
X139812082Y-55050000D02*
X139288286Y-55573796D01*
X144000000Y-55000000D02*
X143950000Y-55050000D01*
D23*
X131636514Y-55094819D02*
X129782030Y-55094819D01*
D25*
X144114842Y-55114842D02*
X149005158Y-55114842D01*
D23*
X149120000Y-50569950D02*
X149149972Y-50539978D01*
D25*
X143950000Y-55050000D02*
X139812082Y-55050000D01*
X149120000Y-55000000D02*
X149120000Y-59170000D01*
X149120000Y-55000000D02*
X149120000Y-50630006D01*
D23*
X149120000Y-50630006D02*
X149120000Y-50569950D01*
D25*
X149005158Y-55114842D02*
X149120000Y-55000000D01*
%TO.N,+3.3V*%
X132537785Y-58477785D02*
X131630000Y-57570000D01*
D23*
X132379216Y-58319216D02*
X131630000Y-57570000D01*
D25*
X134568277Y-58477785D02*
X132537785Y-58477785D01*
D23*
X132379216Y-73010000D02*
X132379216Y-58319216D01*
D25*
%TO.N,Net-(ANT1-L1)*%
X148890000Y-49810000D02*
X144860000Y-53840000D01*
X144860000Y-53840000D02*
X140208298Y-53840000D01*
X150392500Y-49810000D02*
X148890000Y-49810000D01*
X151112500Y-50530000D02*
X150392500Y-49810000D01*
%TO.N,Net-(C11-Pad1)*%
X142949950Y-54340000D02*
X142779950Y-54510000D01*
X139150000Y-54510000D02*
X135420000Y-58240000D01*
X148139571Y-54462080D02*
X148017491Y-54340000D01*
X142779950Y-54510000D02*
X139150000Y-54510000D01*
X148017491Y-54340000D02*
X142949950Y-54340000D01*
X135420000Y-58240000D02*
X135420000Y-59512985D01*
%TO.N,Net-(C12-Pad2)*%
X135403737Y-61356263D02*
X133746263Y-61356263D01*
X148070000Y-55910000D02*
X140850000Y-55910000D01*
X140850000Y-55910000D02*
X135403737Y-61356263D01*
%TO.N,Net-(D4-DIN)*%
X120211108Y-58383416D02*
X120306584Y-58383416D01*
X134990000Y-76810000D02*
X130640000Y-76810000D01*
X130640000Y-76810000D02*
X119801058Y-65971058D01*
X119801058Y-65971058D02*
X119801058Y-58793466D01*
X121550000Y-57140000D02*
X121550000Y-56530000D01*
X120306584Y-58383416D02*
X121550000Y-57140000D01*
X119801058Y-58793466D02*
X120211108Y-58383416D01*
%TO.N,/RST*%
X123160000Y-59810000D02*
X120868281Y-59810000D01*
X127085636Y-55884364D02*
X123160000Y-59810000D01*
X131611005Y-55884364D02*
X131641005Y-55914364D01*
X127085636Y-55884364D02*
X131611005Y-55884364D01*
%TO.N,/MISO*%
X123400000Y-56970000D02*
X129170000Y-51200000D01*
X130887209Y-51200000D02*
X131182558Y-50904651D01*
X123400000Y-57150000D02*
X123400000Y-56970000D01*
X129170000Y-51200000D02*
X130887209Y-51200000D01*
%TO.N,/CS*%
X137337500Y-52455000D02*
X134975050Y-52455000D01*
X129247106Y-53000000D02*
X123163690Y-59083416D01*
X131750000Y-52130000D02*
X130850000Y-53030000D01*
X130820000Y-53000000D02*
X130850000Y-53030000D01*
X134975050Y-52455000D02*
X134650050Y-52130000D01*
X123163690Y-59083416D02*
X120501058Y-59083416D01*
X129247106Y-53000000D02*
X130820000Y-53000000D01*
X134650050Y-52130000D02*
X131750000Y-52130000D01*
%TO.N,/MOSI*%
X130517259Y-50520000D02*
X130547259Y-50550000D01*
X130892608Y-50204651D02*
X132947151Y-50204651D01*
X129061073Y-50520000D02*
X130517259Y-50520000D01*
X132947151Y-50204651D02*
X133682500Y-50940000D01*
X122221169Y-57359904D02*
X129061073Y-50520000D01*
X130547259Y-50550000D02*
X130892608Y-50204651D01*
%TO.N,/SCK*%
X134900000Y-51590000D02*
X135000000Y-51490000D01*
X130920100Y-52130000D02*
X131460100Y-51590000D01*
X131460100Y-51590000D02*
X134900000Y-51590000D01*
X123513148Y-58026852D02*
X129440000Y-52100000D01*
X122748127Y-58026852D02*
X123513148Y-58026852D01*
X129440000Y-52100000D02*
X130890100Y-52100000D01*
X130890100Y-52100000D02*
X130920100Y-52130000D01*
%TD*%
%TA.AperFunction,Conductor*%
%TO.N,GND*%
G36*
X127733586Y-30220185D02*
G01*
X127779341Y-30272989D01*
X127789285Y-30342147D01*
X127760260Y-30405703D01*
X127722841Y-30434985D01*
X127691153Y-30451130D01*
X127487350Y-30599201D01*
X127487345Y-30599205D01*
X127309205Y-30777345D01*
X127309201Y-30777350D01*
X127161132Y-30981151D01*
X127046760Y-31205616D01*
X126968910Y-31445214D01*
X126929500Y-31694038D01*
X126929500Y-33245961D01*
X126968910Y-33494785D01*
X127046760Y-33734383D01*
X127125413Y-33888747D01*
X127152265Y-33941447D01*
X127161132Y-33958848D01*
X127309201Y-34162649D01*
X127309205Y-34162654D01*
X127487345Y-34340794D01*
X127487350Y-34340798D01*
X127665117Y-34469952D01*
X127691155Y-34488870D01*
X127834184Y-34561747D01*
X127915616Y-34603239D01*
X127915618Y-34603239D01*
X127915621Y-34603241D01*
X128155215Y-34681090D01*
X128404038Y-34720500D01*
X128404039Y-34720500D01*
X128655961Y-34720500D01*
X128655962Y-34720500D01*
X128904785Y-34681090D01*
X129144379Y-34603241D01*
X129368845Y-34488870D01*
X129572656Y-34340793D01*
X129750793Y-34162656D01*
X129756321Y-34155048D01*
X129785259Y-34115217D01*
X129814298Y-34075247D01*
X129869628Y-34032581D01*
X129939241Y-34026602D01*
X129970912Y-34037647D01*
X129974593Y-34039522D01*
X129974595Y-34039524D01*
X130044708Y-34075248D01*
X130149970Y-34128882D01*
X130149972Y-34128882D01*
X130149975Y-34128884D01*
X130230499Y-34155048D01*
X130337173Y-34189709D01*
X130531578Y-34220500D01*
X130531583Y-34220500D01*
X130728422Y-34220500D01*
X130922826Y-34189709D01*
X131004436Y-34163192D01*
X131110025Y-34128884D01*
X131285405Y-34039524D01*
X131444646Y-33923828D01*
X131542319Y-33826155D01*
X131603642Y-33792670D01*
X131673334Y-33797654D01*
X131717681Y-33826155D01*
X131815354Y-33923828D01*
X131974595Y-34039524D01*
X132044708Y-34075248D01*
X132123151Y-34115217D01*
X132173947Y-34163192D01*
X132190742Y-34231013D01*
X132168205Y-34297147D01*
X132154537Y-34313383D01*
X131314741Y-35153181D01*
X131253418Y-35186666D01*
X131227060Y-35189500D01*
X127191915Y-35189500D01*
X127178031Y-35188720D01*
X127140002Y-35184435D01*
X127139998Y-35184435D01*
X127101969Y-35188720D01*
X127088085Y-35189500D01*
X127061152Y-35189500D01*
X127021994Y-35197288D01*
X127011696Y-35198890D01*
X126960742Y-35204632D01*
X126960735Y-35204634D01*
X126936898Y-35212975D01*
X126920140Y-35217550D01*
X126906502Y-35220263D01*
X126906496Y-35220264D01*
X126857631Y-35240504D01*
X126851140Y-35242982D01*
X126790477Y-35264210D01*
X126790474Y-35264212D01*
X126780127Y-35270713D01*
X126761639Y-35280266D01*
X126760832Y-35280600D01*
X126760824Y-35280604D01*
X126706047Y-35317204D01*
X126703132Y-35319092D01*
X126637742Y-35360180D01*
X126637735Y-35360186D01*
X126510186Y-35487735D01*
X126510180Y-35487742D01*
X126469092Y-35553132D01*
X126467204Y-35556047D01*
X126430604Y-35610824D01*
X126430600Y-35610832D01*
X126430266Y-35611639D01*
X126420713Y-35630127D01*
X126414212Y-35640474D01*
X126414210Y-35640477D01*
X126392982Y-35701140D01*
X126390504Y-35707631D01*
X126370264Y-35756496D01*
X126370263Y-35756502D01*
X126367550Y-35770140D01*
X126362975Y-35786898D01*
X126354634Y-35810735D01*
X126354632Y-35810742D01*
X126348890Y-35861696D01*
X126347288Y-35871994D01*
X126339500Y-35911152D01*
X126339500Y-35938085D01*
X126338720Y-35951969D01*
X126334435Y-35989998D01*
X126334435Y-35990001D01*
X126338720Y-36028029D01*
X126339500Y-36041914D01*
X126339500Y-36068844D01*
X126347288Y-36108003D01*
X126348890Y-36118303D01*
X126353869Y-36162488D01*
X126354632Y-36169252D01*
X126354633Y-36169260D01*
X126362976Y-36193104D01*
X126367550Y-36209860D01*
X126370262Y-36223496D01*
X126390509Y-36272377D01*
X126392988Y-36278872D01*
X126414212Y-36339524D01*
X126420709Y-36349865D01*
X126430268Y-36368365D01*
X126430603Y-36369173D01*
X126430605Y-36369179D01*
X126467223Y-36423982D01*
X126469114Y-36426900D01*
X126510180Y-36492257D01*
X126510182Y-36492260D01*
X126510184Y-36492262D01*
X126637738Y-36619816D01*
X126668416Y-36639092D01*
X126703131Y-36660905D01*
X126706040Y-36662790D01*
X126760821Y-36699394D01*
X126761606Y-36699719D01*
X126780134Y-36709289D01*
X126790478Y-36715789D01*
X126851175Y-36737028D01*
X126857607Y-36739484D01*
X126886021Y-36751253D01*
X126906497Y-36759735D01*
X126906498Y-36759735D01*
X126906503Y-36759737D01*
X126920139Y-36762449D01*
X126936898Y-36767023D01*
X126960745Y-36775368D01*
X127011714Y-36781110D01*
X127021992Y-36782709D01*
X127049140Y-36788109D01*
X127061157Y-36790500D01*
X127061158Y-36790500D01*
X127088085Y-36790500D01*
X127101969Y-36791280D01*
X127139998Y-36795565D01*
X127140000Y-36795565D01*
X127140002Y-36795565D01*
X127178031Y-36791280D01*
X127191915Y-36790500D01*
X131688844Y-36790500D01*
X131688845Y-36790499D01*
X131843497Y-36759737D01*
X131989179Y-36699394D01*
X132120289Y-36611789D01*
X134475259Y-34256817D01*
X134536582Y-34223333D01*
X134562940Y-34220499D01*
X135427871Y-34220499D01*
X135427872Y-34220499D01*
X135487483Y-34214091D01*
X135487486Y-34214089D01*
X135494554Y-34213330D01*
X135563314Y-34225736D01*
X135595490Y-34248939D01*
X135687345Y-34340794D01*
X135687350Y-34340798D01*
X135865117Y-34469952D01*
X135891155Y-34488870D01*
X136034184Y-34561747D01*
X136115616Y-34603239D01*
X136115618Y-34603239D01*
X136115621Y-34603241D01*
X136355215Y-34681090D01*
X136604038Y-34720500D01*
X136604039Y-34720500D01*
X136855961Y-34720500D01*
X136855962Y-34720500D01*
X137104785Y-34681090D01*
X137344379Y-34603241D01*
X137568845Y-34488870D01*
X137772656Y-34340793D01*
X137950793Y-34162656D01*
X138098870Y-33958845D01*
X138213241Y-33734379D01*
X138291090Y-33494785D01*
X138330500Y-33245962D01*
X138330500Y-31694038D01*
X138291090Y-31445215D01*
X138213241Y-31205621D01*
X138213239Y-31205618D01*
X138213239Y-31205616D01*
X138146819Y-31075260D01*
X138098870Y-30981155D01*
X138050986Y-30915248D01*
X137950798Y-30777350D01*
X137950794Y-30777345D01*
X137772654Y-30599205D01*
X137772649Y-30599201D01*
X137568846Y-30451130D01*
X137537159Y-30434985D01*
X137486362Y-30387011D01*
X137469567Y-30319190D01*
X137492104Y-30253055D01*
X137546819Y-30209603D01*
X137593453Y-30200500D01*
X138675500Y-30200500D01*
X138742539Y-30220185D01*
X138788294Y-30272989D01*
X138799500Y-30324500D01*
X138799500Y-32855032D01*
X138835975Y-33061898D01*
X138893496Y-33219934D01*
X138907821Y-33259291D01*
X139012851Y-33441209D01*
X139147876Y-33602124D01*
X139308791Y-33737149D01*
X139490709Y-33842179D01*
X139688101Y-33914024D01*
X139807532Y-33935082D01*
X139870134Y-33966108D01*
X139906025Y-34026055D01*
X139910000Y-34057198D01*
X139910000Y-53013492D01*
X139890315Y-53080531D01*
X139851972Y-53118486D01*
X139706035Y-53210184D01*
X139578482Y-53337737D01*
X139482509Y-53490476D01*
X139422929Y-53660745D01*
X139422928Y-53660749D01*
X139412942Y-53749384D01*
X139385875Y-53813798D01*
X139328280Y-53853353D01*
X139289722Y-53859500D01*
X139085929Y-53859500D01*
X138960261Y-53884497D01*
X138960255Y-53884499D01*
X138913010Y-53904069D01*
X138913009Y-53904069D01*
X138841881Y-53933530D01*
X138841863Y-53933540D01*
X138735332Y-54004721D01*
X138735325Y-54004727D01*
X136445205Y-56294847D01*
X136383882Y-56328332D01*
X136314190Y-56323348D01*
X136258257Y-56281476D01*
X136233840Y-56216012D01*
X136248692Y-56147739D01*
X136252531Y-56141193D01*
X136280003Y-56097472D01*
X136335822Y-55937949D01*
X136335824Y-55937941D01*
X136354746Y-55770003D01*
X136354746Y-55769996D01*
X136335824Y-55602056D01*
X136280266Y-55443285D01*
X135600000Y-56123553D01*
X135273285Y-56450266D01*
X135432056Y-56505824D01*
X135599996Y-56524746D01*
X135600004Y-56524746D01*
X135767941Y-56505824D01*
X135767949Y-56505822D01*
X135927472Y-56450003D01*
X135971193Y-56422531D01*
X136038429Y-56403530D01*
X136105265Y-56423897D01*
X136150479Y-56477164D01*
X136159718Y-56546420D01*
X136130047Y-56609677D01*
X136124847Y-56615205D01*
X135024939Y-57715113D01*
X134963616Y-57748598D01*
X134896304Y-57744474D01*
X134747534Y-57692417D01*
X134747526Y-57692415D01*
X134568281Y-57672220D01*
X134568273Y-57672220D01*
X134389027Y-57692415D01*
X134389014Y-57692418D01*
X134218758Y-57751994D01*
X134218754Y-57751995D01*
X134129181Y-57808279D01*
X134063209Y-57827285D01*
X133070725Y-57827285D01*
X133003686Y-57807600D01*
X132983044Y-57790966D01*
X132132260Y-56940182D01*
X132132257Y-56940180D01*
X132066900Y-56899114D01*
X132063982Y-56897223D01*
X132009179Y-56860605D01*
X132009173Y-56860603D01*
X132008365Y-56860268D01*
X131989953Y-56850765D01*
X131989835Y-56850691D01*
X131943498Y-56798397D01*
X131932789Y-56729353D01*
X131961108Y-56665479D01*
X131989743Y-56640645D01*
X131990524Y-56640153D01*
X131990527Y-56640153D01*
X132143267Y-56544180D01*
X132237181Y-56450266D01*
X133873285Y-56450266D01*
X134032056Y-56505824D01*
X134199996Y-56524746D01*
X134200004Y-56524746D01*
X134367943Y-56505824D01*
X134526713Y-56450267D01*
X134526714Y-56450266D01*
X134200001Y-56123553D01*
X134200000Y-56123553D01*
X133873285Y-56450266D01*
X132237181Y-56450266D01*
X132270821Y-56416626D01*
X132366794Y-56263886D01*
X132426373Y-56093619D01*
X132443913Y-55937949D01*
X132446570Y-55914367D01*
X132446570Y-55914360D01*
X132430304Y-55769996D01*
X133445254Y-55769996D01*
X133445254Y-55770003D01*
X133464175Y-55937938D01*
X133464176Y-55937943D01*
X133519732Y-56096714D01*
X133846447Y-55770000D01*
X133816610Y-55740163D01*
X134050000Y-55740163D01*
X134050000Y-55799837D01*
X134072836Y-55854968D01*
X134115032Y-55897164D01*
X134170163Y-55920000D01*
X134229837Y-55920000D01*
X134284968Y-55897164D01*
X134327164Y-55854968D01*
X134350000Y-55799837D01*
X134350000Y-55769999D01*
X134553553Y-55769999D01*
X134553553Y-55770001D01*
X134882060Y-56098508D01*
X134917938Y-56098508D01*
X135246447Y-55770000D01*
X135246447Y-55769999D01*
X135216611Y-55740163D01*
X135450000Y-55740163D01*
X135450000Y-55799837D01*
X135472836Y-55854968D01*
X135515032Y-55897164D01*
X135570163Y-55920000D01*
X135629837Y-55920000D01*
X135684968Y-55897164D01*
X135727164Y-55854968D01*
X135750000Y-55799837D01*
X135750000Y-55740163D01*
X135727164Y-55685032D01*
X135684968Y-55642836D01*
X135629837Y-55620000D01*
X135570163Y-55620000D01*
X135515032Y-55642836D01*
X135472836Y-55685032D01*
X135450000Y-55740163D01*
X135216611Y-55740163D01*
X134917938Y-55441490D01*
X134882060Y-55441490D01*
X134553553Y-55769999D01*
X134350000Y-55769999D01*
X134350000Y-55740163D01*
X134327164Y-55685032D01*
X134284968Y-55642836D01*
X134229837Y-55620000D01*
X134170163Y-55620000D01*
X134115032Y-55642836D01*
X134072836Y-55685032D01*
X134050000Y-55740163D01*
X133816610Y-55740163D01*
X133519732Y-55443285D01*
X133464176Y-55602053D01*
X133464175Y-55602058D01*
X133445254Y-55769996D01*
X132430304Y-55769996D01*
X132426374Y-55735114D01*
X132426373Y-55735109D01*
X132394085Y-55642836D01*
X132366794Y-55564842D01*
X132270821Y-55412102D01*
X132143267Y-55284548D01*
X132062604Y-55233864D01*
X131990528Y-55188575D01*
X131820259Y-55128995D01*
X131820254Y-55128994D01*
X131641009Y-55108799D01*
X131641001Y-55108799D01*
X131461755Y-55128994D01*
X131461750Y-55128995D01*
X131291480Y-55188575D01*
X131249655Y-55214857D01*
X131183682Y-55233864D01*
X128232550Y-55233864D01*
X128165511Y-55214179D01*
X128119756Y-55161375D01*
X128109812Y-55092217D01*
X128128151Y-55052060D01*
X133871490Y-55052060D01*
X133871490Y-55087938D01*
X134200000Y-55416447D01*
X134200001Y-55416447D01*
X134528508Y-55087938D01*
X134528508Y-55052060D01*
X135271490Y-55052060D01*
X135271490Y-55087938D01*
X135600000Y-55416447D01*
X135600001Y-55416447D01*
X135928508Y-55087938D01*
X135928508Y-55052060D01*
X135600001Y-54723553D01*
X135600000Y-54723553D01*
X135271490Y-55052060D01*
X134528508Y-55052060D01*
X134200001Y-54723553D01*
X134200000Y-54723553D01*
X133871490Y-55052060D01*
X128128151Y-55052060D01*
X128138837Y-55028661D01*
X128144869Y-55022183D01*
X128797056Y-54369996D01*
X133445254Y-54369996D01*
X133445254Y-54370003D01*
X133464175Y-54537938D01*
X133464176Y-54537943D01*
X133519732Y-54696714D01*
X133846447Y-54370000D01*
X133816610Y-54340163D01*
X134050000Y-54340163D01*
X134050000Y-54399837D01*
X134072836Y-54454968D01*
X134115032Y-54497164D01*
X134170163Y-54520000D01*
X134229837Y-54520000D01*
X134284968Y-54497164D01*
X134327164Y-54454968D01*
X134350000Y-54399837D01*
X134350000Y-54369999D01*
X134553553Y-54369999D01*
X134553553Y-54370001D01*
X134882060Y-54698508D01*
X134917938Y-54698508D01*
X135246447Y-54370000D01*
X135246447Y-54369999D01*
X135216611Y-54340163D01*
X135450000Y-54340163D01*
X135450000Y-54399837D01*
X135472836Y-54454968D01*
X135515032Y-54497164D01*
X135570163Y-54520000D01*
X135629837Y-54520000D01*
X135684968Y-54497164D01*
X135727164Y-54454968D01*
X135750000Y-54399837D01*
X135750000Y-54369999D01*
X135953553Y-54369999D01*
X135953553Y-54370001D01*
X136280266Y-54696714D01*
X136280267Y-54696713D01*
X136335824Y-54537943D01*
X136354746Y-54370003D01*
X136354746Y-54369996D01*
X136335824Y-54202056D01*
X136280266Y-54043285D01*
X135953553Y-54369999D01*
X135750000Y-54369999D01*
X135750000Y-54340163D01*
X135727164Y-54285032D01*
X135684968Y-54242836D01*
X135629837Y-54220000D01*
X135570163Y-54220000D01*
X135515032Y-54242836D01*
X135472836Y-54285032D01*
X135450000Y-54340163D01*
X135216611Y-54340163D01*
X134917938Y-54041490D01*
X134882060Y-54041490D01*
X134553553Y-54369999D01*
X134350000Y-54369999D01*
X134350000Y-54340163D01*
X134327164Y-54285032D01*
X134284968Y-54242836D01*
X134229837Y-54220000D01*
X134170163Y-54220000D01*
X134115032Y-54242836D01*
X134072836Y-54285032D01*
X134050000Y-54340163D01*
X133816610Y-54340163D01*
X133519732Y-54043285D01*
X133464176Y-54202053D01*
X133464175Y-54202058D01*
X133445254Y-54369996D01*
X128797056Y-54369996D01*
X129477320Y-53689732D01*
X133873285Y-53689732D01*
X134200000Y-54016447D01*
X134200001Y-54016447D01*
X134526714Y-53689732D01*
X135273285Y-53689732D01*
X135600000Y-54016447D01*
X135600001Y-54016447D01*
X135926714Y-53689732D01*
X135767943Y-53634176D01*
X135767938Y-53634175D01*
X135600004Y-53615254D01*
X135599996Y-53615254D01*
X135432058Y-53634175D01*
X135432053Y-53634176D01*
X135273285Y-53689732D01*
X134526714Y-53689732D01*
X134367943Y-53634176D01*
X134367938Y-53634175D01*
X134200004Y-53615254D01*
X134199996Y-53615254D01*
X134032058Y-53634175D01*
X134032053Y-53634176D01*
X133873285Y-53689732D01*
X129477320Y-53689732D01*
X129480233Y-53686819D01*
X129541556Y-53653334D01*
X129567914Y-53650500D01*
X130625376Y-53650500D01*
X130654189Y-53654774D01*
X130654281Y-53654313D01*
X130785926Y-53680498D01*
X130785930Y-53680499D01*
X130785931Y-53680499D01*
X130914070Y-53680499D01*
X130914071Y-53680498D01*
X131039744Y-53655501D01*
X131158127Y-53606465D01*
X131264669Y-53535277D01*
X131983126Y-52816818D01*
X132044449Y-52783334D01*
X132070807Y-52780500D01*
X134329242Y-52780500D01*
X134396281Y-52800185D01*
X134416918Y-52816814D01*
X134557366Y-52957262D01*
X134560379Y-52960275D01*
X134611277Y-52994284D01*
X134666916Y-53031461D01*
X134666922Y-53031464D01*
X134666923Y-53031465D01*
X134785306Y-53080501D01*
X134785310Y-53080501D01*
X134785311Y-53080502D01*
X134910978Y-53105500D01*
X134910981Y-53105500D01*
X136832432Y-53105500D01*
X136898404Y-53124506D01*
X136987977Y-53180789D01*
X136987981Y-53180790D01*
X137158237Y-53240366D01*
X137158243Y-53240367D01*
X137158245Y-53240368D01*
X137158246Y-53240368D01*
X137158250Y-53240369D01*
X137337496Y-53260565D01*
X137337500Y-53260565D01*
X137337504Y-53260565D01*
X137516749Y-53240369D01*
X137516752Y-53240368D01*
X137516755Y-53240368D01*
X137687022Y-53180789D01*
X137839762Y-53084816D01*
X137967316Y-52957262D01*
X138063289Y-52804522D01*
X138122868Y-52634255D01*
X138143065Y-52455000D01*
X138122868Y-52275745D01*
X138063289Y-52105478D01*
X138041551Y-52070883D01*
X137967315Y-51952737D01*
X137839762Y-51825184D01*
X137687023Y-51729211D01*
X137516754Y-51669631D01*
X137516749Y-51669630D01*
X137337504Y-51649435D01*
X137337496Y-51649435D01*
X137158250Y-51669630D01*
X137158237Y-51669633D01*
X136987981Y-51729209D01*
X136987977Y-51729210D01*
X136898404Y-51785494D01*
X136832432Y-51804500D01*
X135908886Y-51804500D01*
X135841847Y-51784815D01*
X135796092Y-51732011D01*
X135785666Y-51666617D01*
X135805565Y-51490003D01*
X135805565Y-51489996D01*
X135785369Y-51310750D01*
X135785368Y-51310745D01*
X135782637Y-51302940D01*
X135725789Y-51140478D01*
X135629816Y-50987738D01*
X135502262Y-50860184D01*
X135494252Y-50855151D01*
X135349523Y-50764211D01*
X135179254Y-50704631D01*
X135179249Y-50704630D01*
X135000004Y-50684435D01*
X134999996Y-50684435D01*
X134820750Y-50704630D01*
X134820745Y-50704631D01*
X134650473Y-50764212D01*
X134633430Y-50774921D01*
X134566193Y-50793920D01*
X134499358Y-50773551D01*
X134454146Y-50720282D01*
X134450419Y-50710880D01*
X134448232Y-50704631D01*
X134408289Y-50590478D01*
X134312316Y-50437738D01*
X134184762Y-50310184D01*
X134165707Y-50298211D01*
X134032021Y-50214210D01*
X133861755Y-50154632D01*
X133861746Y-50154630D01*
X133854512Y-50153815D01*
X133790100Y-50126744D01*
X133780723Y-50118277D01*
X133361825Y-49699378D01*
X133361824Y-49699377D01*
X133361820Y-49699374D01*
X133255278Y-49628186D01*
X133165276Y-49590906D01*
X133136895Y-49579150D01*
X133136889Y-49579148D01*
X133011222Y-49554151D01*
X133011220Y-49554151D01*
X130828539Y-49554151D01*
X130828537Y-49554151D01*
X130702869Y-49579148D01*
X130702863Y-49579150D01*
X130584478Y-49628186D01*
X130477939Y-49699373D01*
X130477938Y-49699374D01*
X130411035Y-49766277D01*
X130344130Y-49833182D01*
X130282810Y-49866666D01*
X130256451Y-49869500D01*
X128997002Y-49869500D01*
X128871334Y-49894497D01*
X128871328Y-49894499D01*
X128752947Y-49943534D01*
X128646399Y-50014726D01*
X122464788Y-56196337D01*
X122403465Y-56229822D01*
X122333773Y-56224838D01*
X122277840Y-56182966D01*
X122272113Y-56174628D01*
X122179816Y-56027738D01*
X122052262Y-55900184D01*
X122018056Y-55878691D01*
X121899523Y-55804211D01*
X121729254Y-55744631D01*
X121729249Y-55744630D01*
X121550004Y-55724435D01*
X121550003Y-55724435D01*
X121550001Y-55724435D01*
X121550000Y-55724435D01*
X121528406Y-55726868D01*
X121459585Y-55714812D01*
X121408206Y-55667462D01*
X121390525Y-55603647D01*
X121390525Y-49975782D01*
X121410210Y-49908743D01*
X121426840Y-49888105D01*
X122275724Y-49039220D01*
X122337045Y-49005737D01*
X122349519Y-49003683D01*
X122356755Y-49002868D01*
X122356762Y-49002866D01*
X122454545Y-48968650D01*
X122524323Y-48965087D01*
X122584951Y-48999816D01*
X122617179Y-49061809D01*
X122619500Y-49085691D01*
X122619500Y-53074931D01*
X122600494Y-53140903D01*
X122544211Y-53230477D01*
X122544209Y-53230481D01*
X122484633Y-53400737D01*
X122484630Y-53400750D01*
X122464435Y-53579996D01*
X122464435Y-53580003D01*
X122484630Y-53759249D01*
X122484631Y-53759254D01*
X122544211Y-53929523D01*
X122607185Y-54029744D01*
X122640184Y-54082262D01*
X122767738Y-54209816D01*
X122920478Y-54305789D01*
X123090745Y-54365368D01*
X123090750Y-54365369D01*
X123269996Y-54385565D01*
X123270000Y-54385565D01*
X123270004Y-54385565D01*
X123449249Y-54365369D01*
X123449252Y-54365368D01*
X123449255Y-54365368D01*
X123619522Y-54305789D01*
X123772262Y-54209816D01*
X123899816Y-54082262D01*
X123995789Y-53929522D01*
X124055368Y-53759255D01*
X124055369Y-53759249D01*
X124075565Y-53580003D01*
X124075565Y-53579996D01*
X124055369Y-53400750D01*
X124055366Y-53400737D01*
X123995790Y-53230481D01*
X123995789Y-53230478D01*
X123964568Y-53180790D01*
X123939506Y-53140903D01*
X123920500Y-53074931D01*
X123920500Y-45535928D01*
X123895502Y-45410261D01*
X123895501Y-45410260D01*
X123895501Y-45410256D01*
X123846465Y-45291873D01*
X123828196Y-45264531D01*
X123828195Y-45264529D01*
X123775277Y-45185331D01*
X123775271Y-45185324D01*
X123321722Y-44731776D01*
X123288237Y-44670453D01*
X123286182Y-44657973D01*
X123285368Y-44650745D01*
X123225789Y-44480478D01*
X123129816Y-44327738D01*
X123002262Y-44200184D01*
X122849523Y-44104211D01*
X122679254Y-44044631D01*
X122679249Y-44044630D01*
X122500004Y-44024435D01*
X122499996Y-44024435D01*
X122320750Y-44044630D01*
X122320745Y-44044631D01*
X122150476Y-44104211D01*
X121997737Y-44200184D01*
X121870184Y-44327737D01*
X121774211Y-44480476D01*
X121714631Y-44650745D01*
X121714630Y-44650750D01*
X121694435Y-44829996D01*
X121694435Y-44830003D01*
X121714630Y-45009249D01*
X121714631Y-45009254D01*
X121774211Y-45179523D01*
X121844801Y-45291865D01*
X121870184Y-45332262D01*
X121997738Y-45459816D01*
X122150478Y-45555789D01*
X122320745Y-45615368D01*
X122327974Y-45616182D01*
X122392388Y-45643246D01*
X122401776Y-45651722D01*
X122583181Y-45833127D01*
X122616666Y-45894450D01*
X122619500Y-45920808D01*
X122619500Y-47349308D01*
X122599815Y-47416347D01*
X122547011Y-47462102D01*
X122477853Y-47472046D01*
X122454546Y-47466350D01*
X122356757Y-47432132D01*
X122356749Y-47432130D01*
X122177504Y-47411935D01*
X122177496Y-47411935D01*
X121998250Y-47432130D01*
X121998245Y-47432131D01*
X121827976Y-47491711D01*
X121675237Y-47587684D01*
X121547684Y-47715237D01*
X121451710Y-47867978D01*
X121392132Y-48038244D01*
X121392130Y-48038252D01*
X121391315Y-48045488D01*
X121364243Y-48109900D01*
X121355777Y-48119275D01*
X120234749Y-49240304D01*
X120222138Y-49259179D01*
X120163559Y-49346849D01*
X120114524Y-49465230D01*
X120114522Y-49465236D01*
X120089525Y-49590903D01*
X120089525Y-56524956D01*
X120070519Y-56590928D01*
X120014236Y-56680502D01*
X120014234Y-56680506D01*
X119954658Y-56850762D01*
X119954655Y-56850775D01*
X119934460Y-57030021D01*
X119934460Y-57030028D01*
X119954655Y-57209274D01*
X119954656Y-57209279D01*
X120014236Y-57379548D01*
X120106819Y-57526892D01*
X120125819Y-57594129D01*
X120105451Y-57660964D01*
X120089506Y-57680545D01*
X120023054Y-57746997D01*
X119982827Y-57773877D01*
X119902977Y-57806952D01*
X119796439Y-57878138D01*
X119796432Y-57878144D01*
X119295785Y-58378791D01*
X119295779Y-58378798D01*
X119234360Y-58470718D01*
X119234361Y-58470719D01*
X119224593Y-58485337D01*
X119175557Y-58603721D01*
X119175555Y-58603727D01*
X119150558Y-58729394D01*
X119150558Y-58729397D01*
X119150558Y-66035127D01*
X119150558Y-66035129D01*
X119150557Y-66035129D01*
X119175555Y-66160796D01*
X119175557Y-66160802D01*
X119224592Y-66279183D01*
X119295784Y-66385731D01*
X130225326Y-77315273D01*
X130225329Y-77315275D01*
X130225331Y-77315277D01*
X130331873Y-77386465D01*
X130450256Y-77435501D01*
X130450260Y-77435501D01*
X130450261Y-77435502D01*
X130575928Y-77460500D01*
X130575931Y-77460500D01*
X130704069Y-77460500D01*
X134484932Y-77460500D01*
X134550904Y-77479506D01*
X134640477Y-77535789D01*
X134640481Y-77535790D01*
X134810737Y-77595366D01*
X134810743Y-77595367D01*
X134810745Y-77595368D01*
X134810746Y-77595368D01*
X134810750Y-77595369D01*
X134989996Y-77615565D01*
X134990000Y-77615565D01*
X134990004Y-77615565D01*
X135169249Y-77595369D01*
X135169252Y-77595368D01*
X135169255Y-77595368D01*
X135339522Y-77535789D01*
X135492262Y-77439816D01*
X135619816Y-77312262D01*
X135715789Y-77159522D01*
X135775368Y-76989255D01*
X135795565Y-76810000D01*
X135775368Y-76630745D01*
X135715789Y-76460478D01*
X135619816Y-76307738D01*
X135492262Y-76180184D01*
X135429096Y-76140494D01*
X135339523Y-76084211D01*
X135169254Y-76024631D01*
X135169249Y-76024630D01*
X134990004Y-76004435D01*
X134989996Y-76004435D01*
X134810750Y-76024630D01*
X134810737Y-76024633D01*
X134640481Y-76084209D01*
X134640477Y-76084210D01*
X134550904Y-76140494D01*
X134484932Y-76159500D01*
X130960808Y-76159500D01*
X130893769Y-76139815D01*
X130873127Y-76123181D01*
X120487877Y-65737931D01*
X120454392Y-65676608D01*
X120451558Y-65650250D01*
X120451558Y-60687036D01*
X120471243Y-60619997D01*
X120524047Y-60574242D01*
X120593205Y-60564298D01*
X120616513Y-60569995D01*
X120689018Y-60595366D01*
X120689024Y-60595367D01*
X120689026Y-60595368D01*
X120689027Y-60595368D01*
X120689031Y-60595369D01*
X120868277Y-60615565D01*
X120868281Y-60615565D01*
X120868285Y-60615565D01*
X121047530Y-60595369D01*
X121047532Y-60595368D01*
X121047536Y-60595368D01*
X121047539Y-60595366D01*
X121047543Y-60595366D01*
X121137658Y-60563832D01*
X121217803Y-60535789D01*
X121307377Y-60479505D01*
X121373349Y-60460500D01*
X123224071Y-60460500D01*
X123308615Y-60443682D01*
X123349744Y-60435501D01*
X123468127Y-60386465D01*
X123574669Y-60315277D01*
X127318763Y-56571183D01*
X127380086Y-56537698D01*
X127406444Y-56534864D01*
X131088193Y-56534864D01*
X131154164Y-56553869D01*
X131181718Y-56571183D01*
X131281261Y-56633730D01*
X131327552Y-56686065D01*
X131338200Y-56755118D01*
X131309825Y-56818967D01*
X131281259Y-56843719D01*
X131270134Y-56850709D01*
X131251639Y-56860266D01*
X131250832Y-56860600D01*
X131250824Y-56860604D01*
X131196047Y-56897204D01*
X131193132Y-56899092D01*
X131127742Y-56940180D01*
X131127735Y-56940186D01*
X131000186Y-57067735D01*
X131000180Y-57067742D01*
X130959092Y-57133132D01*
X130957204Y-57136047D01*
X130920604Y-57190824D01*
X130920600Y-57190832D01*
X130920266Y-57191639D01*
X130910713Y-57210127D01*
X130904212Y-57220474D01*
X130904210Y-57220477D01*
X130882982Y-57281140D01*
X130880504Y-57287631D01*
X130860264Y-57336496D01*
X130860263Y-57336502D01*
X130857550Y-57350140D01*
X130852975Y-57366898D01*
X130844634Y-57390735D01*
X130844632Y-57390742D01*
X130838890Y-57441696D01*
X130837288Y-57451994D01*
X130829500Y-57491152D01*
X130829500Y-57518085D01*
X130828720Y-57531969D01*
X130824435Y-57569998D01*
X130824435Y-57570001D01*
X130828720Y-57608029D01*
X130829500Y-57621914D01*
X130829500Y-57648844D01*
X130837288Y-57688003D01*
X130838890Y-57698303D01*
X130844093Y-57744474D01*
X130844632Y-57749252D01*
X130844633Y-57749260D01*
X130852976Y-57773104D01*
X130857550Y-57789860D01*
X130860262Y-57803496D01*
X130880509Y-57852377D01*
X130882988Y-57858872D01*
X130904212Y-57919524D01*
X130910709Y-57929865D01*
X130920268Y-57948365D01*
X130920603Y-57949173D01*
X130920605Y-57949179D01*
X130957223Y-58003982D01*
X130959114Y-58006900D01*
X131000180Y-58072257D01*
X131000182Y-58072260D01*
X131542397Y-58614475D01*
X131575882Y-58675798D01*
X131578716Y-58702156D01*
X131578716Y-71385500D01*
X131559031Y-71452539D01*
X131506227Y-71498294D01*
X131454717Y-71509500D01*
X131331346Y-71509500D01*
X131331339Y-71509501D01*
X131271732Y-71515908D01*
X131136887Y-71566202D01*
X131136880Y-71566206D01*
X131021671Y-71652452D01*
X131021668Y-71652455D01*
X130935422Y-71767664D01*
X130935418Y-71767671D01*
X130885124Y-71902517D01*
X130878717Y-71962116D01*
X130878717Y-71962123D01*
X130878716Y-71962135D01*
X130878716Y-74057870D01*
X130878717Y-74057876D01*
X130885124Y-74117483D01*
X130935418Y-74252328D01*
X130935422Y-74252335D01*
X131021668Y-74367544D01*
X131021671Y-74367547D01*
X131136880Y-74453793D01*
X131136887Y-74453797D01*
X131271733Y-74504091D01*
X131271732Y-74504091D01*
X131278660Y-74504835D01*
X131331343Y-74510500D01*
X133427088Y-74510499D01*
X133486699Y-74504091D01*
X133621547Y-74453796D01*
X133736762Y-74367546D01*
X133823012Y-74252331D01*
X133873307Y-74117483D01*
X133879716Y-74057873D01*
X133879715Y-73009994D01*
X135873573Y-73009994D01*
X135873573Y-73010005D01*
X135894106Y-73257812D01*
X135894108Y-73257824D01*
X135955152Y-73498881D01*
X136055042Y-73726606D01*
X136191049Y-73934782D01*
X136191052Y-73934785D01*
X136359472Y-74117738D01*
X136555707Y-74270474D01*
X136774406Y-74388828D01*
X137009602Y-74469571D01*
X137254881Y-74510500D01*
X137503551Y-74510500D01*
X137748830Y-74469571D01*
X137984026Y-74388828D01*
X138202725Y-74270474D01*
X138398960Y-74117738D01*
X138567380Y-73934785D01*
X138703389Y-73726607D01*
X138803279Y-73498881D01*
X138864324Y-73257821D01*
X138884859Y-73010000D01*
X138864324Y-72762179D01*
X138803279Y-72521119D01*
X138703389Y-72293393D01*
X138567382Y-72085217D01*
X138545773Y-72061744D01*
X138398960Y-71902262D01*
X138202725Y-71749526D01*
X138202723Y-71749525D01*
X138202722Y-71749524D01*
X137984027Y-71631172D01*
X137984018Y-71631169D01*
X137748832Y-71550429D01*
X137503551Y-71509500D01*
X137254881Y-71509500D01*
X137009599Y-71550429D01*
X136774413Y-71631169D01*
X136774404Y-71631172D01*
X136555709Y-71749524D01*
X136359473Y-71902261D01*
X136191049Y-72085217D01*
X136055042Y-72293393D01*
X135955152Y-72521118D01*
X135894108Y-72762175D01*
X135894106Y-72762187D01*
X135873573Y-73009994D01*
X133879715Y-73009994D01*
X133879715Y-71962128D01*
X133873307Y-71902517D01*
X133823012Y-71767669D01*
X133823011Y-71767668D01*
X133823009Y-71767664D01*
X133736763Y-71652455D01*
X133736760Y-71652452D01*
X133621551Y-71566206D01*
X133621544Y-71566202D01*
X133486698Y-71515908D01*
X133486699Y-71515908D01*
X133427099Y-71509501D01*
X133427097Y-71509500D01*
X133427089Y-71509500D01*
X133427081Y-71509500D01*
X133303716Y-71509500D01*
X133236677Y-71489815D01*
X133190922Y-71437011D01*
X133179716Y-71385500D01*
X133179716Y-62170047D01*
X133199401Y-62103008D01*
X133252205Y-62057253D01*
X133321363Y-62047309D01*
X133369687Y-62065052D01*
X133396741Y-62082052D01*
X133567008Y-62141631D01*
X133567013Y-62141632D01*
X133746259Y-62161828D01*
X133746263Y-62161828D01*
X133746267Y-62161828D01*
X133925512Y-62141632D01*
X133925514Y-62141631D01*
X133925518Y-62141631D01*
X133925521Y-62141629D01*
X133925525Y-62141629D01*
X134035896Y-62103008D01*
X134095785Y-62082052D01*
X134185359Y-62025768D01*
X134251331Y-62006763D01*
X135467808Y-62006763D01*
X135552352Y-61989945D01*
X135593481Y-61981764D01*
X135711864Y-61932728D01*
X135818406Y-61861540D01*
X139698319Y-57981627D01*
X139759642Y-57948142D01*
X139829334Y-57953126D01*
X139885267Y-57994998D01*
X139909684Y-58060462D01*
X139910000Y-58069308D01*
X139910000Y-79675500D01*
X139890315Y-79742539D01*
X139837511Y-79788294D01*
X139786000Y-79799500D01*
X106324000Y-79799500D01*
X106256961Y-79779815D01*
X106211206Y-79727011D01*
X106200000Y-79675500D01*
X106200000Y-73554609D01*
X106200500Y-73549534D01*
X106200500Y-67116660D01*
X114086892Y-67116660D01*
X114086892Y-67116661D01*
X114100692Y-67125333D01*
X114100691Y-67125333D01*
X114270861Y-67184878D01*
X114449997Y-67205062D01*
X114450003Y-67205062D01*
X114629138Y-67184878D01*
X114629141Y-67184877D01*
X114799305Y-67125334D01*
X114799306Y-67125334D01*
X114813106Y-67116661D01*
X114813106Y-67116660D01*
X115566892Y-67116660D01*
X115566892Y-67116661D01*
X115580692Y-67125333D01*
X115580691Y-67125333D01*
X115750861Y-67184878D01*
X115929997Y-67205062D01*
X115930003Y-67205062D01*
X116109138Y-67184878D01*
X116109141Y-67184877D01*
X116279305Y-67125334D01*
X116279306Y-67125334D01*
X116293106Y-67116661D01*
X116293106Y-67116660D01*
X115930001Y-66753553D01*
X115930000Y-66753553D01*
X115566892Y-67116660D01*
X114813106Y-67116660D01*
X114450001Y-66753553D01*
X114450000Y-66753553D01*
X114086892Y-67116660D01*
X106200500Y-67116660D01*
X106200500Y-66399997D01*
X113644938Y-66399997D01*
X113644938Y-66400002D01*
X113665121Y-66579138D01*
X113724665Y-66749304D01*
X113733338Y-66763107D01*
X114096446Y-66400000D01*
X114096446Y-66399999D01*
X114066610Y-66370163D01*
X114300000Y-66370163D01*
X114300000Y-66429837D01*
X114322836Y-66484968D01*
X114365032Y-66527164D01*
X114420163Y-66550000D01*
X114479837Y-66550000D01*
X114534968Y-66527164D01*
X114577164Y-66484968D01*
X114600000Y-66429837D01*
X114600000Y-66400000D01*
X114803553Y-66400000D01*
X115166660Y-66763106D01*
X115176120Y-66762041D01*
X115203882Y-66762042D01*
X115213338Y-66763107D01*
X115576446Y-66400000D01*
X115576446Y-66399999D01*
X115546610Y-66370163D01*
X115780000Y-66370163D01*
X115780000Y-66429837D01*
X115802836Y-66484968D01*
X115845032Y-66527164D01*
X115900163Y-66550000D01*
X115959837Y-66550000D01*
X116014968Y-66527164D01*
X116057164Y-66484968D01*
X116080000Y-66429837D01*
X116080000Y-66400000D01*
X116283553Y-66400000D01*
X116646660Y-66763106D01*
X116646661Y-66763106D01*
X116655334Y-66749306D01*
X116655334Y-66749305D01*
X116714877Y-66579141D01*
X116714878Y-66579138D01*
X116735062Y-66400002D01*
X116735062Y-66399997D01*
X116714878Y-66220861D01*
X116655333Y-66050692D01*
X116646661Y-66036892D01*
X116646660Y-66036892D01*
X116283553Y-66400000D01*
X116080000Y-66400000D01*
X116080000Y-66370163D01*
X116057164Y-66315032D01*
X116014968Y-66272836D01*
X115959837Y-66250000D01*
X115900163Y-66250000D01*
X115845032Y-66272836D01*
X115802836Y-66315032D01*
X115780000Y-66370163D01*
X115546610Y-66370163D01*
X115213337Y-66036890D01*
X115203882Y-66037956D01*
X115176120Y-66037957D01*
X115166661Y-66036891D01*
X114803553Y-66400000D01*
X114600000Y-66400000D01*
X114600000Y-66370163D01*
X114577164Y-66315032D01*
X114534968Y-66272836D01*
X114479837Y-66250000D01*
X114420163Y-66250000D01*
X114365032Y-66272836D01*
X114322836Y-66315032D01*
X114300000Y-66370163D01*
X114066610Y-66370163D01*
X113733338Y-66036891D01*
X113733337Y-66036891D01*
X113724667Y-66050691D01*
X113724662Y-66050701D01*
X113665122Y-66220858D01*
X113665121Y-66220861D01*
X113644938Y-66399997D01*
X106200500Y-66399997D01*
X106200500Y-65683337D01*
X114086891Y-65683337D01*
X114086891Y-65683338D01*
X114450000Y-66046446D01*
X114450001Y-66046446D01*
X114813107Y-65683338D01*
X114799301Y-65674663D01*
X114777518Y-65667041D01*
X114720742Y-65626320D01*
X114694995Y-65561367D01*
X114708451Y-65492805D01*
X114756839Y-65442402D01*
X114777519Y-65432958D01*
X114799305Y-65425334D01*
X114799306Y-65425334D01*
X114813106Y-65416661D01*
X114813106Y-65416660D01*
X115556892Y-65416660D01*
X115556892Y-65416661D01*
X115570692Y-65425333D01*
X115570694Y-65425334D01*
X115597480Y-65434707D01*
X115654256Y-65475429D01*
X115680004Y-65540381D01*
X115666548Y-65608943D01*
X115618161Y-65659346D01*
X115597482Y-65668790D01*
X115580704Y-65674660D01*
X115580691Y-65674667D01*
X115566891Y-65683337D01*
X115566891Y-65683338D01*
X115930000Y-66046446D01*
X115930001Y-66046446D01*
X116293107Y-65683338D01*
X116279302Y-65674664D01*
X116252517Y-65665291D01*
X116195741Y-65624568D01*
X116169995Y-65559615D01*
X116183452Y-65491054D01*
X116231840Y-65440652D01*
X116252521Y-65431207D01*
X116269307Y-65425333D01*
X116283106Y-65416661D01*
X116283106Y-65416660D01*
X115920001Y-65053553D01*
X115920000Y-65053553D01*
X115556892Y-65416660D01*
X114813106Y-65416660D01*
X114450001Y-65053553D01*
X114450000Y-65053553D01*
X114086892Y-65416660D01*
X114086892Y-65416661D01*
X114100692Y-65425333D01*
X114100696Y-65425335D01*
X114122479Y-65432957D01*
X114179255Y-65473677D01*
X114205004Y-65538630D01*
X114191549Y-65607192D01*
X114143162Y-65657595D01*
X114122484Y-65667039D01*
X114100707Y-65674659D01*
X114100691Y-65674667D01*
X114086891Y-65683337D01*
X106200500Y-65683337D01*
X106200500Y-64699997D01*
X113644938Y-64699997D01*
X113644938Y-64700002D01*
X113665121Y-64879138D01*
X113724665Y-65049304D01*
X113733338Y-65063107D01*
X114096446Y-64700000D01*
X114096446Y-64699999D01*
X114066610Y-64670163D01*
X114300000Y-64670163D01*
X114300000Y-64729837D01*
X114322836Y-64784968D01*
X114365032Y-64827164D01*
X114420163Y-64850000D01*
X114479837Y-64850000D01*
X114534968Y-64827164D01*
X114577164Y-64784968D01*
X114600000Y-64729837D01*
X114600000Y-64700000D01*
X114803553Y-64700000D01*
X115166659Y-65063106D01*
X115171118Y-65062604D01*
X115198881Y-65062605D01*
X115203338Y-65063107D01*
X115566446Y-64700000D01*
X115566446Y-64699999D01*
X115536610Y-64670163D01*
X115770000Y-64670163D01*
X115770000Y-64729837D01*
X115792836Y-64784968D01*
X115835032Y-64827164D01*
X115890163Y-64850000D01*
X115949837Y-64850000D01*
X116004968Y-64827164D01*
X116047164Y-64784968D01*
X116070000Y-64729837D01*
X116070000Y-64700000D01*
X116273553Y-64700000D01*
X116636660Y-65063106D01*
X116636661Y-65063106D01*
X116645334Y-65049306D01*
X116645334Y-65049305D01*
X116704877Y-64879141D01*
X116704878Y-64879138D01*
X116725062Y-64700002D01*
X116725062Y-64699997D01*
X116704878Y-64520861D01*
X116645333Y-64350692D01*
X116636661Y-64336892D01*
X116636660Y-64336892D01*
X116273553Y-64700000D01*
X116070000Y-64700000D01*
X116070000Y-64670163D01*
X116047164Y-64615032D01*
X116004968Y-64572836D01*
X115949837Y-64550000D01*
X115890163Y-64550000D01*
X115835032Y-64572836D01*
X115792836Y-64615032D01*
X115770000Y-64670163D01*
X115536610Y-64670163D01*
X115203337Y-64336890D01*
X115198881Y-64337393D01*
X115171118Y-64337394D01*
X115166661Y-64336891D01*
X114803553Y-64700000D01*
X114600000Y-64700000D01*
X114600000Y-64670163D01*
X114577164Y-64615032D01*
X114534968Y-64572836D01*
X114479837Y-64550000D01*
X114420163Y-64550000D01*
X114365032Y-64572836D01*
X114322836Y-64615032D01*
X114300000Y-64670163D01*
X114066610Y-64670163D01*
X113733338Y-64336891D01*
X113733337Y-64336891D01*
X113724667Y-64350691D01*
X113724662Y-64350701D01*
X113665122Y-64520858D01*
X113665121Y-64520861D01*
X113644938Y-64699997D01*
X106200500Y-64699997D01*
X106200500Y-63983337D01*
X114086891Y-63983337D01*
X114086891Y-63983338D01*
X114450000Y-64346446D01*
X114450001Y-64346446D01*
X114813107Y-63983338D01*
X114813105Y-63983337D01*
X115556891Y-63983337D01*
X115556891Y-63983338D01*
X115920000Y-64346446D01*
X115920001Y-64346446D01*
X116283107Y-63983338D01*
X116269304Y-63974665D01*
X116099138Y-63915121D01*
X115920003Y-63894938D01*
X115919997Y-63894938D01*
X115740861Y-63915121D01*
X115740858Y-63915122D01*
X115570701Y-63974662D01*
X115570691Y-63974667D01*
X115556891Y-63983337D01*
X114813105Y-63983337D01*
X114799304Y-63974665D01*
X114629138Y-63915121D01*
X114450003Y-63894938D01*
X114449997Y-63894938D01*
X114270861Y-63915121D01*
X114270858Y-63915122D01*
X114100701Y-63974662D01*
X114100691Y-63974667D01*
X114086891Y-63983337D01*
X106200500Y-63983337D01*
X106200500Y-54450479D01*
X106200000Y-54445397D01*
X106200000Y-40000000D01*
X100324500Y-40000000D01*
X100257461Y-39980315D01*
X100211706Y-39927511D01*
X100200500Y-39876000D01*
X100200500Y-36084493D01*
X106030000Y-36084493D01*
X106030000Y-36425000D01*
X106880000Y-36425000D01*
X106880000Y-36925000D01*
X106030000Y-36925000D01*
X106030000Y-37265506D01*
X106058317Y-37444293D01*
X106114251Y-37616444D01*
X106114252Y-37616447D01*
X106196434Y-37777734D01*
X106302823Y-37924169D01*
X106430830Y-38052176D01*
X106577265Y-38158565D01*
X106738552Y-38240747D01*
X106738555Y-38240748D01*
X106910699Y-38296680D01*
X106910712Y-38296683D01*
X106930000Y-38299738D01*
X106930000Y-37341988D01*
X106939940Y-37359205D01*
X106995795Y-37415060D01*
X107064204Y-37454556D01*
X107140504Y-37475000D01*
X107219496Y-37475000D01*
X107295796Y-37454556D01*
X107364205Y-37415060D01*
X107420060Y-37359205D01*
X107430000Y-37341988D01*
X107430000Y-38299737D01*
X107449287Y-38296683D01*
X107449300Y-38296680D01*
X107621444Y-38240748D01*
X107621447Y-38240747D01*
X107782734Y-38158565D01*
X107929169Y-38052176D01*
X108057174Y-37924171D01*
X108136466Y-37815033D01*
X108191795Y-37772366D01*
X108261409Y-37766386D01*
X108323204Y-37798992D01*
X108357562Y-37859830D01*
X108360005Y-37901800D01*
X108344435Y-38039995D01*
X108344435Y-38040003D01*
X108364630Y-38219249D01*
X108364631Y-38219254D01*
X108424211Y-38389523D01*
X108520184Y-38542262D01*
X108647738Y-38669816D01*
X108800478Y-38765789D01*
X108960625Y-38821827D01*
X108970745Y-38825368D01*
X108970750Y-38825369D01*
X109149996Y-38845565D01*
X109150000Y-38845565D01*
X109150004Y-38845565D01*
X109329249Y-38825369D01*
X109329252Y-38825368D01*
X109329255Y-38825368D01*
X109409017Y-38797457D01*
X109449972Y-38790500D01*
X113608592Y-38790500D01*
X113674563Y-38809505D01*
X113700478Y-38825789D01*
X113700485Y-38825791D01*
X113706752Y-38828810D01*
X113705869Y-38830642D01*
X113741939Y-38853307D01*
X113746580Y-38857948D01*
X113746584Y-38857951D01*
X113869498Y-38940080D01*
X113869511Y-38940087D01*
X114006082Y-38996656D01*
X114006087Y-38996658D01*
X114006091Y-38996658D01*
X114006092Y-38996659D01*
X114151079Y-39025500D01*
X114151082Y-39025500D01*
X114298917Y-39025500D01*
X117085500Y-39025500D01*
X117152539Y-39045185D01*
X117198294Y-39097989D01*
X117209500Y-39149500D01*
X117209500Y-48497060D01*
X117189815Y-48564099D01*
X117173181Y-48584741D01*
X115459711Y-50298211D01*
X115403960Y-50353962D01*
X115348209Y-50409712D01*
X115260609Y-50540814D01*
X115260602Y-50540827D01*
X115200264Y-50686498D01*
X115200261Y-50686510D01*
X115169500Y-50841153D01*
X115169500Y-51348085D01*
X115168720Y-51361969D01*
X115164435Y-51399998D01*
X115164435Y-51400001D01*
X115168720Y-51438029D01*
X115169500Y-51451914D01*
X115169500Y-51478844D01*
X115177288Y-51518003D01*
X115178890Y-51528303D01*
X115184632Y-51579252D01*
X115184633Y-51579260D01*
X115192976Y-51603104D01*
X115197550Y-51619860D01*
X115200262Y-51633496D01*
X115220509Y-51682377D01*
X115222986Y-51688867D01*
X115238083Y-51732011D01*
X115244212Y-51749524D01*
X115250709Y-51759865D01*
X115260268Y-51778365D01*
X115260603Y-51779173D01*
X115260605Y-51779179D01*
X115297223Y-51833982D01*
X115299114Y-51836900D01*
X115340180Y-51902257D01*
X115340182Y-51902260D01*
X115340184Y-51902262D01*
X115467738Y-52029816D01*
X115533096Y-52070883D01*
X115533131Y-52070905D01*
X115536040Y-52072790D01*
X115590821Y-52109394D01*
X115591606Y-52109719D01*
X115610134Y-52119289D01*
X115620478Y-52125789D01*
X115681175Y-52147028D01*
X115687607Y-52149484D01*
X115716021Y-52161253D01*
X115736497Y-52169735D01*
X115736498Y-52169735D01*
X115736503Y-52169737D01*
X115750139Y-52172449D01*
X115766898Y-52177023D01*
X115790745Y-52185368D01*
X115841714Y-52191110D01*
X115851992Y-52192709D01*
X115879140Y-52198109D01*
X115891157Y-52200500D01*
X115891158Y-52200500D01*
X115918085Y-52200500D01*
X115931969Y-52201280D01*
X115969998Y-52205565D01*
X115970000Y-52205565D01*
X115970002Y-52205565D01*
X116008031Y-52201280D01*
X116021915Y-52200500D01*
X116048841Y-52200500D01*
X116048842Y-52200500D01*
X116088017Y-52192707D01*
X116098283Y-52191110D01*
X116149255Y-52185368D01*
X116173100Y-52177023D01*
X116189862Y-52172448D01*
X116203497Y-52169737D01*
X116252389Y-52149484D01*
X116258837Y-52147023D01*
X116319522Y-52125789D01*
X116329868Y-52119287D01*
X116348390Y-52109720D01*
X116349179Y-52109394D01*
X116403987Y-52072771D01*
X116406825Y-52070931D01*
X116472262Y-52029816D01*
X116599816Y-51902262D01*
X116640931Y-51836825D01*
X116642777Y-51833979D01*
X116679389Y-51779186D01*
X116679394Y-51779179D01*
X116679720Y-51778390D01*
X116689287Y-51759868D01*
X116695789Y-51749522D01*
X116717023Y-51688837D01*
X116719490Y-51682377D01*
X116739737Y-51633497D01*
X116742449Y-51619860D01*
X116747023Y-51603100D01*
X116755368Y-51579255D01*
X116761110Y-51528283D01*
X116762707Y-51518017D01*
X116770500Y-51478842D01*
X116770500Y-51451914D01*
X116771280Y-51438029D01*
X116775565Y-51400001D01*
X116775565Y-51399998D01*
X116771280Y-51361969D01*
X116770500Y-51348085D01*
X116770500Y-51302940D01*
X116790185Y-51235901D01*
X116806819Y-51215259D01*
X117711894Y-50310184D01*
X118631789Y-49390289D01*
X118639816Y-49382262D01*
X118680931Y-49316825D01*
X118682777Y-49313979D01*
X118719389Y-49259186D01*
X118719394Y-49259179D01*
X118719720Y-49258390D01*
X118729287Y-49239868D01*
X118735789Y-49229522D01*
X118757022Y-49168837D01*
X118759477Y-49162407D01*
X118779738Y-49113497D01*
X118782449Y-49099860D01*
X118787025Y-49083096D01*
X118795368Y-49059255D01*
X118796756Y-49046929D01*
X118823821Y-48982516D01*
X118881415Y-48942960D01*
X118951252Y-48940820D01*
X118985949Y-48955817D01*
X119000312Y-48964843D01*
X119065475Y-49005788D01*
X119235745Y-49065368D01*
X119235750Y-49065369D01*
X119414996Y-49085565D01*
X119415000Y-49085565D01*
X119415004Y-49085565D01*
X119594249Y-49065369D01*
X119594252Y-49065368D01*
X119594255Y-49065368D01*
X119764522Y-49005789D01*
X119917262Y-48909816D01*
X120044816Y-48782262D01*
X120140789Y-48629522D01*
X120200368Y-48459255D01*
X120220565Y-48280000D01*
X120200368Y-48100745D01*
X120200367Y-48100743D01*
X120200366Y-48100737D01*
X120140790Y-47930481D01*
X120140789Y-47930478D01*
X120101518Y-47867978D01*
X120084506Y-47840903D01*
X120065500Y-47774931D01*
X120065500Y-43685807D01*
X120085185Y-43618768D01*
X120101815Y-43598130D01*
X120498224Y-43201720D01*
X120559545Y-43168237D01*
X120572019Y-43166183D01*
X120579255Y-43165368D01*
X120749522Y-43105789D01*
X120902262Y-43009816D01*
X121029816Y-42882262D01*
X121125789Y-42729522D01*
X121185368Y-42559255D01*
X121205565Y-42380000D01*
X121186184Y-42207988D01*
X121185369Y-42200750D01*
X121185368Y-42200745D01*
X121125788Y-42030476D01*
X121029815Y-41877737D01*
X120902262Y-41750184D01*
X120749523Y-41654211D01*
X120579254Y-41594631D01*
X120579249Y-41594630D01*
X120400004Y-41574435D01*
X120399996Y-41574435D01*
X120220750Y-41594630D01*
X120220745Y-41594631D01*
X120050476Y-41654211D01*
X119897737Y-41750184D01*
X119770184Y-41877737D01*
X119674210Y-42030478D01*
X119614632Y-42200744D01*
X119614630Y-42200752D01*
X119613815Y-42207988D01*
X119586743Y-42272400D01*
X119578277Y-42281775D01*
X119022181Y-42837872D01*
X118960858Y-42871357D01*
X118891167Y-42866373D01*
X118835233Y-42824502D01*
X118810816Y-42759037D01*
X118810500Y-42750191D01*
X118810500Y-38182940D01*
X118830185Y-38115901D01*
X118846819Y-38095259D01*
X118902083Y-38039995D01*
X119034686Y-37907391D01*
X119096007Y-37873908D01*
X119165698Y-37878892D01*
X119221632Y-37920763D01*
X119225467Y-37926182D01*
X119228213Y-37930292D01*
X119594602Y-38296680D01*
X119950184Y-38652262D01*
X120077738Y-38779816D01*
X120143131Y-38820905D01*
X120146040Y-38822790D01*
X120200821Y-38859394D01*
X120201606Y-38859719D01*
X120220134Y-38869289D01*
X120230478Y-38875789D01*
X120291175Y-38897028D01*
X120297607Y-38899484D01*
X120326021Y-38911253D01*
X120346497Y-38919735D01*
X120346498Y-38919735D01*
X120346503Y-38919737D01*
X120360139Y-38922449D01*
X120376898Y-38927023D01*
X120400745Y-38935368D01*
X120451714Y-38941110D01*
X120461992Y-38942709D01*
X120489140Y-38948109D01*
X120501157Y-38950500D01*
X120501158Y-38950500D01*
X120528085Y-38950500D01*
X120541969Y-38951280D01*
X120579998Y-38955565D01*
X120580000Y-38955565D01*
X120580002Y-38955565D01*
X120618031Y-38951280D01*
X120631915Y-38950500D01*
X120658842Y-38950500D01*
X125587060Y-38950500D01*
X125654099Y-38970185D01*
X125674741Y-38986819D01*
X127520184Y-40832262D01*
X127647738Y-40959816D01*
X127647740Y-40959817D01*
X127713131Y-41000905D01*
X127716040Y-41002790D01*
X127770821Y-41039394D01*
X127771606Y-41039719D01*
X127790134Y-41049289D01*
X127800478Y-41055789D01*
X127861111Y-41077005D01*
X127861114Y-41077006D01*
X127867611Y-41079486D01*
X127916503Y-41099738D01*
X127916510Y-41099739D01*
X127916512Y-41099740D01*
X127930142Y-41102451D01*
X127946907Y-41107026D01*
X127970745Y-41115368D01*
X128021711Y-41121109D01*
X128031998Y-41122710D01*
X128049562Y-41126204D01*
X128071155Y-41130500D01*
X128071158Y-41130500D01*
X128098085Y-41130500D01*
X128111969Y-41131280D01*
X128149998Y-41135565D01*
X128150000Y-41135565D01*
X128150002Y-41135565D01*
X128188031Y-41131280D01*
X128201915Y-41130500D01*
X128228845Y-41130500D01*
X128241003Y-41128080D01*
X128268009Y-41122708D01*
X128278285Y-41121110D01*
X128329255Y-41115368D01*
X128353100Y-41107023D01*
X128369848Y-41102452D01*
X128383498Y-41099738D01*
X128432387Y-41079487D01*
X128438872Y-41077010D01*
X128499522Y-41055789D01*
X128509852Y-41049297D01*
X128528389Y-41039721D01*
X128528401Y-41039716D01*
X128529179Y-41039394D01*
X128583997Y-41002764D01*
X128586859Y-41000910D01*
X128652260Y-40959817D01*
X128652262Y-40959816D01*
X128652266Y-40959812D01*
X128660288Y-40951789D01*
X128660290Y-40951789D01*
X128771789Y-40840290D01*
X128771789Y-40840289D01*
X128778857Y-40833222D01*
X128778861Y-40833216D01*
X128779816Y-40832262D01*
X128820919Y-40766843D01*
X128822764Y-40763997D01*
X128859394Y-40709179D01*
X128859721Y-40708387D01*
X128869298Y-40689851D01*
X128875788Y-40679523D01*
X128875789Y-40679522D01*
X128897010Y-40618872D01*
X128899487Y-40612387D01*
X128919734Y-40563507D01*
X128919738Y-40563498D01*
X128922452Y-40549848D01*
X128927023Y-40533100D01*
X128935368Y-40509255D01*
X128941110Y-40458285D01*
X128942708Y-40448009D01*
X128950500Y-40408843D01*
X128950500Y-40381914D01*
X128951280Y-40368029D01*
X128955565Y-40330001D01*
X128955565Y-40329998D01*
X128951280Y-40291969D01*
X128950500Y-40278085D01*
X128950500Y-40251154D01*
X128942712Y-40212010D01*
X128941109Y-40201711D01*
X128935368Y-40150745D01*
X128927026Y-40126907D01*
X128922451Y-40110142D01*
X128919740Y-40096512D01*
X128919739Y-40096510D01*
X128919738Y-40096503D01*
X128899486Y-40047611D01*
X128897006Y-40041114D01*
X128875789Y-39980479D01*
X128875789Y-39980478D01*
X128869289Y-39970134D01*
X128859719Y-39951606D01*
X128859394Y-39950821D01*
X128822790Y-39896040D01*
X128820905Y-39893131D01*
X128779815Y-39827737D01*
X128652262Y-39700184D01*
X126480292Y-37528213D01*
X126480288Y-37528210D01*
X126349185Y-37440609D01*
X126349172Y-37440602D01*
X126203501Y-37380264D01*
X126203489Y-37380261D01*
X126048845Y-37349500D01*
X126048842Y-37349500D01*
X120962940Y-37349500D01*
X120895901Y-37329815D01*
X120875259Y-37313181D01*
X120686819Y-37124741D01*
X120653334Y-37063418D01*
X120650500Y-37037060D01*
X120650500Y-32101914D01*
X120651280Y-32088029D01*
X120655565Y-32050001D01*
X120655565Y-32049998D01*
X120651280Y-32011969D01*
X120650500Y-31998085D01*
X120650500Y-31971157D01*
X120642711Y-31932003D01*
X120641110Y-31921714D01*
X120635368Y-31870745D01*
X120627023Y-31846898D01*
X120622449Y-31830139D01*
X120619737Y-31816503D01*
X120619734Y-31816496D01*
X120611253Y-31796021D01*
X120599484Y-31767607D01*
X120597028Y-31761175D01*
X120575789Y-31700478D01*
X120569289Y-31690134D01*
X120559719Y-31671606D01*
X120559394Y-31670821D01*
X120522790Y-31616040D01*
X120520905Y-31613131D01*
X120510936Y-31597265D01*
X120479816Y-31547738D01*
X120352262Y-31420184D01*
X120352260Y-31420182D01*
X120352257Y-31420180D01*
X120286900Y-31379114D01*
X120283982Y-31377223D01*
X120229179Y-31340605D01*
X120229173Y-31340603D01*
X120228365Y-31340268D01*
X120209865Y-31330709D01*
X120199524Y-31324212D01*
X120199523Y-31324211D01*
X120199522Y-31324211D01*
X120138867Y-31302986D01*
X120132377Y-31300509D01*
X120083496Y-31280262D01*
X120069860Y-31277550D01*
X120053104Y-31272976D01*
X120029260Y-31264633D01*
X120029256Y-31264632D01*
X120029255Y-31264632D01*
X120008575Y-31262301D01*
X119978303Y-31258890D01*
X119968003Y-31257288D01*
X119928844Y-31249500D01*
X119928842Y-31249500D01*
X119901915Y-31249500D01*
X119888031Y-31248720D01*
X119850002Y-31244435D01*
X119849998Y-31244435D01*
X119811969Y-31248720D01*
X119798085Y-31249500D01*
X119771152Y-31249500D01*
X119731994Y-31257288D01*
X119721696Y-31258890D01*
X119670742Y-31264632D01*
X119670735Y-31264634D01*
X119646898Y-31272975D01*
X119630140Y-31277550D01*
X119616502Y-31280263D01*
X119616496Y-31280264D01*
X119567631Y-31300504D01*
X119561140Y-31302982D01*
X119500477Y-31324210D01*
X119500474Y-31324212D01*
X119490127Y-31330713D01*
X119471639Y-31340266D01*
X119470832Y-31340600D01*
X119470824Y-31340604D01*
X119416047Y-31377204D01*
X119413132Y-31379092D01*
X119347742Y-31420180D01*
X119347735Y-31420186D01*
X119220186Y-31547735D01*
X119220180Y-31547742D01*
X119179092Y-31613132D01*
X119177204Y-31616047D01*
X119140604Y-31670824D01*
X119140600Y-31670832D01*
X119140266Y-31671639D01*
X119130713Y-31690127D01*
X119124212Y-31700474D01*
X119124210Y-31700477D01*
X119102982Y-31761140D01*
X119100504Y-31767631D01*
X119080264Y-31816496D01*
X119080263Y-31816502D01*
X119077550Y-31830140D01*
X119072975Y-31846898D01*
X119064634Y-31870735D01*
X119064632Y-31870742D01*
X119058890Y-31921696D01*
X119057288Y-31931994D01*
X119049500Y-31971152D01*
X119049500Y-31998085D01*
X119048720Y-32011969D01*
X119044435Y-32049998D01*
X119044435Y-32050001D01*
X119048720Y-32088029D01*
X119049500Y-32101914D01*
X119049500Y-36485504D01*
X119029815Y-36552543D01*
X118977011Y-36598298D01*
X118907853Y-36608242D01*
X118859529Y-36590499D01*
X118849522Y-36584211D01*
X118819591Y-36573737D01*
X118788876Y-36562989D01*
X118782382Y-36560510D01*
X118763147Y-36552543D01*
X118733498Y-36540262D01*
X118733496Y-36540261D01*
X118733493Y-36540260D01*
X118719841Y-36537544D01*
X118703093Y-36532972D01*
X118679258Y-36524632D01*
X118679248Y-36524630D01*
X118628315Y-36518892D01*
X118618009Y-36517290D01*
X118578843Y-36509500D01*
X118551915Y-36509500D01*
X118538031Y-36508720D01*
X118500002Y-36504435D01*
X118499998Y-36504435D01*
X118461969Y-36508720D01*
X118448085Y-36509500D01*
X118421158Y-36509500D01*
X118381991Y-36517290D01*
X118371685Y-36518892D01*
X118320751Y-36524630D01*
X118320741Y-36524632D01*
X118296904Y-36532973D01*
X118280150Y-36537547D01*
X118266503Y-36540261D01*
X118217619Y-36560509D01*
X118211126Y-36562988D01*
X118150481Y-36584209D01*
X118150469Y-36584215D01*
X118140127Y-36590713D01*
X118121639Y-36600266D01*
X118120832Y-36600600D01*
X118120824Y-36600604D01*
X118120821Y-36600605D01*
X118120821Y-36600606D01*
X118092071Y-36619816D01*
X118066047Y-36637204D01*
X118063132Y-36639092D01*
X117997742Y-36680180D01*
X117997735Y-36680186D01*
X117640862Y-37037060D01*
X117499711Y-37178211D01*
X117463426Y-37214496D01*
X117388209Y-37289712D01*
X117300609Y-37420814D01*
X117300603Y-37420826D01*
X117290806Y-37444478D01*
X117263940Y-37484692D01*
X117260461Y-37488170D01*
X117199146Y-37521662D01*
X117172770Y-37524500D01*
X117074164Y-37524500D01*
X117007125Y-37504815D01*
X116961370Y-37452011D01*
X116951426Y-37382853D01*
X116951691Y-37381102D01*
X116970000Y-37265505D01*
X116970000Y-36925000D01*
X116120000Y-36925000D01*
X116120000Y-36425000D01*
X116970000Y-36425000D01*
X116970000Y-36084493D01*
X116941682Y-35905706D01*
X116885748Y-35733555D01*
X116885747Y-35733552D01*
X116803565Y-35572265D01*
X116697176Y-35425830D01*
X116569169Y-35297823D01*
X116422734Y-35191434D01*
X116261447Y-35109252D01*
X116261441Y-35109250D01*
X116089295Y-35053318D01*
X116089285Y-35053315D01*
X116070000Y-35050260D01*
X116070000Y-36008011D01*
X116060060Y-35990795D01*
X116004205Y-35934940D01*
X115935796Y-35895444D01*
X115859496Y-35875000D01*
X115780504Y-35875000D01*
X115704204Y-35895444D01*
X115635795Y-35934940D01*
X115579940Y-35990795D01*
X115570000Y-36008011D01*
X115570000Y-35050260D01*
X115550714Y-35053315D01*
X115550704Y-35053318D01*
X115378558Y-35109250D01*
X115378552Y-35109252D01*
X115217265Y-35191434D01*
X115070830Y-35297823D01*
X114942828Y-35425825D01*
X114934657Y-35437073D01*
X114879327Y-35479738D01*
X114809713Y-35485716D01*
X114772340Y-35471573D01*
X114712488Y-35437017D01*
X114712489Y-35437017D01*
X114701006Y-35433940D01*
X114572475Y-35399500D01*
X114427525Y-35399500D01*
X114298993Y-35433940D01*
X114287511Y-35437017D01*
X114161988Y-35509488D01*
X114161982Y-35509493D01*
X114059493Y-35611982D01*
X114059488Y-35611988D01*
X113987017Y-35737511D01*
X113987016Y-35737515D01*
X113949500Y-35877525D01*
X113949500Y-36022475D01*
X113987016Y-36162485D01*
X113987017Y-36162488D01*
X114059488Y-36288011D01*
X114059490Y-36288013D01*
X114059491Y-36288015D01*
X114161985Y-36390509D01*
X114161986Y-36390510D01*
X114161988Y-36390511D01*
X114287511Y-36462982D01*
X114287512Y-36462982D01*
X114287515Y-36462984D01*
X114427525Y-36500500D01*
X114427528Y-36500500D01*
X114572472Y-36500500D01*
X114572475Y-36500500D01*
X114712485Y-36462984D01*
X114749501Y-36441612D01*
X114811501Y-36425000D01*
X115520000Y-36425000D01*
X115520000Y-36925000D01*
X114670000Y-36925000D01*
X114670000Y-37265502D01*
X114676307Y-37305328D01*
X114667350Y-37374622D01*
X114622353Y-37428073D01*
X114555601Y-37448711D01*
X114488288Y-37429985D01*
X114487861Y-37429718D01*
X114399521Y-37374210D01*
X114317524Y-37345518D01*
X114229255Y-37314632D01*
X114144513Y-37305083D01*
X114134208Y-37303481D01*
X114133848Y-37303409D01*
X114063918Y-37289500D01*
X114063917Y-37289500D01*
X109449972Y-37289500D01*
X109409017Y-37282542D01*
X109329254Y-37254631D01*
X109329249Y-37254630D01*
X109150004Y-37234435D01*
X109149996Y-37234435D01*
X108970750Y-37254630D01*
X108970745Y-37254631D01*
X108800476Y-37314211D01*
X108647737Y-37410184D01*
X108515260Y-37542662D01*
X108513818Y-37541220D01*
X108464777Y-37575635D01*
X108394965Y-37578478D01*
X108334698Y-37543127D01*
X108303111Y-37480806D01*
X108302556Y-37438780D01*
X108330000Y-37265506D01*
X108330000Y-36925000D01*
X107480000Y-36925000D01*
X107480000Y-36425000D01*
X108063499Y-36425000D01*
X108125498Y-36441612D01*
X108162515Y-36462984D01*
X108302525Y-36500500D01*
X108302528Y-36500500D01*
X108697472Y-36500500D01*
X108697475Y-36500500D01*
X108837485Y-36462984D01*
X108963015Y-36390509D01*
X109065509Y-36288015D01*
X109137984Y-36162485D01*
X109175500Y-36022475D01*
X109175500Y-35877525D01*
X109137984Y-35737515D01*
X109120730Y-35707631D01*
X109065511Y-35611988D01*
X109065506Y-35611982D01*
X108963017Y-35509493D01*
X108963011Y-35509488D01*
X108837488Y-35437017D01*
X108837489Y-35437017D01*
X108826006Y-35433940D01*
X108697475Y-35399500D01*
X108302525Y-35399500D01*
X108162515Y-35437016D01*
X108162513Y-35437016D01*
X108157411Y-35438384D01*
X108087561Y-35436721D01*
X108037636Y-35406290D01*
X107929169Y-35297823D01*
X107782734Y-35191434D01*
X107621447Y-35109252D01*
X107621441Y-35109250D01*
X107449295Y-35053318D01*
X107449285Y-35053315D01*
X107430000Y-35050260D01*
X107430000Y-36008011D01*
X107420060Y-35990795D01*
X107364205Y-35934940D01*
X107295796Y-35895444D01*
X107219496Y-35875000D01*
X107140504Y-35875000D01*
X107064204Y-35895444D01*
X106995795Y-35934940D01*
X106939940Y-35990795D01*
X106930000Y-36008011D01*
X106930000Y-35050260D01*
X106910714Y-35053315D01*
X106910704Y-35053318D01*
X106738558Y-35109250D01*
X106738552Y-35109252D01*
X106577265Y-35191434D01*
X106430830Y-35297823D01*
X106302823Y-35425830D01*
X106196434Y-35572265D01*
X106114252Y-35733552D01*
X106114251Y-35733555D01*
X106058317Y-35905706D01*
X106030000Y-36084493D01*
X100200500Y-36084493D01*
X100200500Y-32893713D01*
X101649500Y-32893713D01*
X101649500Y-33106286D01*
X101682753Y-33316239D01*
X101748444Y-33518414D01*
X101844951Y-33707820D01*
X101969890Y-33879786D01*
X102120213Y-34030109D01*
X102292179Y-34155048D01*
X102292181Y-34155049D01*
X102292184Y-34155051D01*
X102481588Y-34251557D01*
X102683757Y-34317246D01*
X102893713Y-34350500D01*
X102893714Y-34350500D01*
X103106286Y-34350500D01*
X103106287Y-34350500D01*
X103316243Y-34317246D01*
X103518412Y-34251557D01*
X103707816Y-34155051D01*
X103779825Y-34102734D01*
X103879786Y-34030109D01*
X103879788Y-34030106D01*
X103879792Y-34030104D01*
X104030104Y-33879792D01*
X104030106Y-33879788D01*
X104030109Y-33879786D01*
X104155048Y-33707820D01*
X104155047Y-33707820D01*
X104155051Y-33707816D01*
X104251557Y-33518412D01*
X104317246Y-33316243D01*
X104350500Y-33106287D01*
X104350500Y-32893713D01*
X104317246Y-32683757D01*
X104251557Y-32481588D01*
X104155051Y-32292184D01*
X104155049Y-32292181D01*
X104155048Y-32292179D01*
X104030109Y-32120213D01*
X104019389Y-32109493D01*
X106030000Y-32109493D01*
X106030000Y-32600000D01*
X106880000Y-32600000D01*
X106880000Y-33100000D01*
X106030000Y-33100000D01*
X106030000Y-33590506D01*
X106058317Y-33769293D01*
X106114251Y-33941444D01*
X106114252Y-33941447D01*
X106196434Y-34102734D01*
X106302823Y-34249169D01*
X106430830Y-34377176D01*
X106577265Y-34483565D01*
X106738552Y-34565747D01*
X106738555Y-34565748D01*
X106910699Y-34621680D01*
X106910712Y-34621683D01*
X106930000Y-34624738D01*
X106930000Y-33666988D01*
X106939940Y-33684205D01*
X106995795Y-33740060D01*
X107064204Y-33779556D01*
X107140504Y-33800000D01*
X107219496Y-33800000D01*
X107295796Y-33779556D01*
X107364205Y-33740060D01*
X107420060Y-33684205D01*
X107430000Y-33666988D01*
X107430000Y-34624737D01*
X107449287Y-34621683D01*
X107449300Y-34621680D01*
X107621444Y-34565748D01*
X107621447Y-34565747D01*
X107782734Y-34483565D01*
X107929169Y-34377176D01*
X108057176Y-34249169D01*
X108163565Y-34102734D01*
X108245747Y-33941447D01*
X108245748Y-33941444D01*
X108301682Y-33769293D01*
X108330000Y-33590506D01*
X108330000Y-33100000D01*
X107480000Y-33100000D01*
X107480000Y-32600000D01*
X108330000Y-32600000D01*
X108330000Y-32109493D01*
X114670000Y-32109493D01*
X114670000Y-32600000D01*
X115520000Y-32600000D01*
X115520000Y-33100000D01*
X114670000Y-33100000D01*
X114670000Y-33590506D01*
X114698317Y-33769293D01*
X114754251Y-33941444D01*
X114754252Y-33941447D01*
X114836434Y-34102734D01*
X114942823Y-34249169D01*
X115070830Y-34377176D01*
X115217265Y-34483565D01*
X115378552Y-34565747D01*
X115378555Y-34565748D01*
X115550699Y-34621680D01*
X115550712Y-34621683D01*
X115570000Y-34624738D01*
X115570000Y-33666988D01*
X115579940Y-33684205D01*
X115635795Y-33740060D01*
X115704204Y-33779556D01*
X115780504Y-33800000D01*
X115859496Y-33800000D01*
X115935796Y-33779556D01*
X116004205Y-33740060D01*
X116060060Y-33684205D01*
X116070000Y-33666988D01*
X116070000Y-34624737D01*
X116089287Y-34621683D01*
X116089300Y-34621680D01*
X116261444Y-34565748D01*
X116261447Y-34565747D01*
X116422734Y-34483565D01*
X116569169Y-34377176D01*
X116697176Y-34249169D01*
X116803565Y-34102734D01*
X116885747Y-33941447D01*
X116885748Y-33941444D01*
X116941682Y-33769293D01*
X116970000Y-33590506D01*
X116970000Y-33100000D01*
X116120000Y-33100000D01*
X116120000Y-32600000D01*
X116970000Y-32600000D01*
X116970000Y-32109493D01*
X116941682Y-31930706D01*
X116885748Y-31758555D01*
X116885747Y-31758552D01*
X116803565Y-31597265D01*
X116697176Y-31450830D01*
X116569169Y-31322823D01*
X116422734Y-31216434D01*
X116261447Y-31134252D01*
X116261441Y-31134250D01*
X116089295Y-31078318D01*
X116089285Y-31078315D01*
X116070000Y-31075260D01*
X116070000Y-32033011D01*
X116060060Y-32015795D01*
X116004205Y-31959940D01*
X115935796Y-31920444D01*
X115859496Y-31900000D01*
X115780504Y-31900000D01*
X115704204Y-31920444D01*
X115635795Y-31959940D01*
X115579940Y-32015795D01*
X115570000Y-32033011D01*
X115570000Y-31075260D01*
X115550714Y-31078315D01*
X115550704Y-31078318D01*
X115378558Y-31134250D01*
X115378552Y-31134252D01*
X115217265Y-31216434D01*
X115070830Y-31322823D01*
X114942823Y-31450830D01*
X114836434Y-31597265D01*
X114754252Y-31758552D01*
X114754251Y-31758555D01*
X114698317Y-31930706D01*
X114670000Y-32109493D01*
X108330000Y-32109493D01*
X108301682Y-31930706D01*
X108245748Y-31758555D01*
X108245747Y-31758552D01*
X108163565Y-31597265D01*
X108057176Y-31450830D01*
X107929169Y-31322823D01*
X107782734Y-31216434D01*
X107621447Y-31134252D01*
X107621441Y-31134250D01*
X107449295Y-31078318D01*
X107449285Y-31078315D01*
X107430000Y-31075260D01*
X107430000Y-32033011D01*
X107420060Y-32015795D01*
X107364205Y-31959940D01*
X107295796Y-31920444D01*
X107219496Y-31900000D01*
X107140504Y-31900000D01*
X107064204Y-31920444D01*
X106995795Y-31959940D01*
X106939940Y-32015795D01*
X106930000Y-32033011D01*
X106930000Y-31075260D01*
X106910714Y-31078315D01*
X106910704Y-31078318D01*
X106738558Y-31134250D01*
X106738552Y-31134252D01*
X106577265Y-31216434D01*
X106430830Y-31322823D01*
X106302823Y-31450830D01*
X106196434Y-31597265D01*
X106114252Y-31758552D01*
X106114251Y-31758555D01*
X106058317Y-31930706D01*
X106030000Y-32109493D01*
X104019389Y-32109493D01*
X103879786Y-31969890D01*
X103707820Y-31844951D01*
X103518414Y-31748444D01*
X103518413Y-31748443D01*
X103518412Y-31748443D01*
X103316243Y-31682754D01*
X103316241Y-31682753D01*
X103316240Y-31682753D01*
X103154957Y-31657208D01*
X103106287Y-31649500D01*
X102893713Y-31649500D01*
X102845042Y-31657208D01*
X102683760Y-31682753D01*
X102481585Y-31748444D01*
X102292179Y-31844951D01*
X102120213Y-31969890D01*
X101969890Y-32120213D01*
X101844951Y-32292179D01*
X101748444Y-32481585D01*
X101682753Y-32683760D01*
X101649500Y-32893713D01*
X100200500Y-32893713D01*
X100200500Y-30324500D01*
X100220185Y-30257461D01*
X100272989Y-30211706D01*
X100324500Y-30200500D01*
X127666547Y-30200500D01*
X127733586Y-30220185D01*
G37*
%TD.AperFunction*%
%TA.AperFunction,Conductor*%
G36*
X139853039Y-55180185D02*
G01*
X139898794Y-55232989D01*
X139910000Y-55284500D01*
X139910000Y-55878691D01*
X139890315Y-55945730D01*
X139873681Y-55966372D01*
X136417915Y-59422137D01*
X136356592Y-59455622D01*
X136286900Y-59450638D01*
X136230967Y-59408766D01*
X136207013Y-59348337D01*
X136205368Y-59333730D01*
X136205366Y-59333726D01*
X136205366Y-59333722D01*
X136145790Y-59163466D01*
X136145789Y-59163463D01*
X136123685Y-59128285D01*
X136089506Y-59073888D01*
X136070500Y-59007916D01*
X136070500Y-58560808D01*
X136090185Y-58493769D01*
X136106819Y-58473127D01*
X139383127Y-55196819D01*
X139444450Y-55163334D01*
X139470808Y-55160500D01*
X139786000Y-55160500D01*
X139853039Y-55180185D01*
G37*
%TD.AperFunction*%
%TD*%
M02*
