%TF.GenerationSoftware,KiCad,Pcbnew,8.0.5*%
%TF.CreationDate,2024-11-26T11:55:41+00:00*%
%TF.ProjectId,NFC_ESP32,4e46435f-4553-4503-9332-2e6b69636164,rev?*%
%TF.SameCoordinates,Original*%
%TF.FileFunction,Copper,L1,Top*%
%TF.FilePolarity,Positive*%
%FSLAX46Y46*%
G04 Gerber Fmt 4.6, Leading zero omitted, Abs format (unit mm)*
G04 Created by KiCad (PCBNEW 8.0.5) date 2024-11-26 11:55:41*
%MOMM*%
%LPD*%
G01*
G04 APERTURE LIST*
G04 Aperture macros list*
%AMRoundRect*
0 Rectangle with rounded corners*
0 $1 Rounding radius*
0 $2 $3 $4 $5 $6 $7 $8 $9 X,Y pos of 4 corners*
0 Add a 4 corners polygon primitive as box body*
4,1,4,$2,$3,$4,$5,$6,$7,$8,$9,$2,$3,0*
0 Add four circle primitives for the rounded corners*
1,1,$1+$1,$2,$3*
1,1,$1+$1,$4,$5*
1,1,$1+$1,$6,$7*
1,1,$1+$1,$8,$9*
0 Add four rect primitives between the rounded corners*
20,1,$1+$1,$2,$3,$4,$5,0*
20,1,$1+$1,$4,$5,$6,$7,0*
20,1,$1+$1,$6,$7,$8,$9,0*
20,1,$1+$1,$8,$9,$2,$3,0*%
%AMFreePoly0*
4,1,322,3.974758,30.117833,4.050405,30.097564,4.118228,30.058406,4.173606,30.003028,4.212764,29.935205,4.233033,29.859558,4.233033,29.781242,4.212764,29.705595,4.173606,29.637772,4.118228,29.582394,4.050405,29.543236,3.974758,29.522967,3.935600,29.520400,-10.440136,29.520400,-13.264400,26.696136,-13.264400,-5.055336,-10.440136,-7.879600,21.311336,-7.879600,24.135600,-5.055336,24.135600,26.696136,
21.311642,29.520093,5.751131,29.481760,4.601246,28.557110,4.597029,28.554151,4.595393,28.552522,4.591598,28.550341,4.569121,28.534572,4.547747,28.525143,4.527490,28.513503,4.512067,28.509404,4.497468,28.502964,4.474379,28.499388,4.451802,28.493388,4.424400,28.491647,4.420075,28.490978,4.417778,28.491227,4.412639,28.490901,-9.940388,28.520147,-12.264400,26.196136,-12.264400,-4.555336,
-9.940136,-6.879600,20.811336,-6.879600,23.135600,-4.555336,23.135600,26.193097,20.813648,28.436396,5.964396,28.519850,4.672537,27.577987,4.639384,27.556993,4.624461,27.551236,4.610605,27.543236,4.588078,27.537200,4.566317,27.528805,4.550405,27.527106,4.534958,27.522967,4.495800,27.520400,-9.440136,27.520400,-11.264400,25.696136,-11.264400,-4.055336,-9.440136,-5.879600,20.311336,-5.879600,
22.135600,-4.055336,22.135600,25.696136,20.311336,27.520400,6.373033,27.520400,5.106493,26.579574,5.073528,26.558284,5.057415,26.551902,5.042405,26.543236,5.021163,26.537544,5.000716,26.529446,4.983496,26.527451,4.966758,26.522967,4.927600,26.520400,-8.940136,26.520400,-10.264400,25.196136,-10.264400,-3.555336,-8.940136,-4.879600,-6.669635,-4.879600,-0.251808,0.254661,-0.219627,0.277118,
-0.147895,0.308547,-0.070472,0.320339,0.007365,0.311690,0.080311,0.283191,0.143395,0.236782,0.172820,0.200000,0.200000,0.200000,0.200000,0.158094,0.223747,0.103896,0.235539,0.026473,0.226890,-0.051364,0.200000,-0.120191,0.200000,-0.200000,0.138182,-0.200000,0.123009,-0.213860,-6.376991,-5.413861,-6.380419,-5.416253,-6.381772,-5.417606,-6.385163,-5.419564,-6.409172,-5.436318,
-6.429948,-5.445421,-6.449595,-5.456764,-6.465665,-5.461069,-6.480905,-5.467747,-6.503333,-5.471162,-6.525242,-5.477033,-6.554452,-5.478947,-6.558327,-5.479538,-6.560229,-5.479326,-6.564400,-5.479600,-9.064400,-5.479600,-9.103558,-5.477033,-9.179205,-5.456764,-9.247028,-5.417606,-9.276532,-5.391732,-10.776532,-3.891732,-10.802406,-3.862228,-10.841564,-3.794405,-10.861833,-3.718758,-10.864400,-3.679600,
-10.864400,25.320400,-10.861833,25.359558,-10.841564,25.435205,-10.802406,25.503028,-10.776532,25.532532,-9.276532,27.032532,-9.247028,27.058406,-9.179205,27.097564,-9.103558,27.117833,-9.064400,27.120400,4.828367,27.120400,6.094907,28.061226,6.127872,28.082516,6.143984,28.088897,6.158995,28.097564,6.180236,28.103255,6.200684,28.111354,6.217903,28.113348,6.234642,28.117833,6.273800,28.120400,
20.435600,28.120400,20.474758,28.117833,20.550405,28.097564,20.618228,28.058406,20.647732,28.032532,22.647732,26.032532,22.673606,26.003028,22.712764,25.935205,22.733033,25.859558,22.735600,25.820400,22.735600,-4.179600,22.733033,-4.218758,22.712764,-4.294405,22.673606,-4.362228,22.647732,-4.391732,20.647732,-6.391732,20.618228,-6.417606,20.550405,-6.456764,20.474758,-6.477033,20.435600,-6.479600,
-9.564400,-6.479600,-9.603558,-6.477033,-9.679205,-6.456764,-9.747028,-6.417606,-9.776532,-6.391732,-11.776532,-4.391732,-11.802406,-4.362228,-11.841564,-4.294405,-11.861833,-4.218758,-11.864400,-4.179600,-11.864400,25.820400,-11.861833,25.859558,-11.841564,25.935205,-11.802406,26.003028,-11.776532,26.032532,-9.776532,28.032532,-9.747028,28.058406,-9.679205,28.097564,-9.603558,28.117833,-9.564400,28.120400,
4.398049,28.120400,5.690663,29.062813,5.723816,29.083807,5.739520,29.089865,5.754154,29.098205,5.775904,29.103901,5.796883,29.111995,5.813630,29.113783,5.829914,29.118048,5.869086,29.120395,20.937287,29.035711,20.965425,29.033707,20.969630,29.033780,20.971714,29.033259,20.976430,29.032924,21.010900,29.023479,21.045615,29.014816,21.048633,29.013141,21.051962,29.012230,21.082844,28.994167,
21.114102,28.976832,21.117709,28.973776,21.119564,28.972692,21.122519,28.969702,21.144047,28.951471,23.644046,26.536155,23.670424,26.507101,23.671763,26.504870,23.673606,26.503028,23.691908,26.471326,23.710745,26.439963,23.711462,26.437459,23.712764,26.435205,23.722238,26.399844,23.732314,26.364676,23.732358,26.362074,23.733033,26.359558,23.735600,26.320400,23.735600,-4.679600,23.733033,-4.718758,
23.712764,-4.794405,23.673606,-4.862228,23.647732,-4.891732,21.147732,-7.391732,21.118228,-7.417606,21.050405,-7.456764,20.974758,-7.477033,20.935600,-7.479600,-10.064400,-7.479600,-10.103558,-7.477033,-10.179205,-7.456764,-10.247028,-7.417606,-10.276532,-7.391732,-12.776532,-4.891732,-12.802406,-4.862228,-12.841564,-4.794405,-12.861833,-4.718758,-12.864400,-4.679600,-12.864400,26.320400,-12.861833,26.359558,
-12.841564,26.435205,-12.802406,26.503028,-12.776532,26.532532,-10.276532,29.032532,-10.247028,29.058406,-10.246762,29.058559,-10.246543,29.058778,-10.212815,29.078158,-10.179205,29.097564,-10.178906,29.097644,-10.178640,29.097797,-10.141199,29.107747,-10.103558,29.117833,-10.103249,29.117833,-10.102952,29.117912,-10.063789,29.120399,4.307859,29.091114,5.457154,30.015290,5.460584,30.017696,5.461936,30.019055,
5.465325,30.021023,5.489278,30.037828,5.510043,30.046987,5.529663,30.058380,5.545715,30.062723,5.560932,30.069436,5.583353,30.072908,5.605259,30.078836,5.634445,30.080821,5.638325,30.081422,5.640233,30.081214,5.644411,30.081499,21.434861,30.120399,21.474025,30.117929,21.474387,30.117833,21.474758,30.117833,21.512140,30.107816,21.549722,30.097846,21.550045,30.097660,21.550405,30.097564,
21.584023,30.078154,21.617641,30.058855,21.617904,30.058592,21.618228,30.058406,21.647732,30.032532,24.647732,27.032532,24.673606,27.003028,24.712764,26.935205,24.733033,26.859558,24.735600,26.820400,24.735600,-5.179600,24.733033,-5.218758,24.712764,-5.294405,24.673606,-5.362228,24.647732,-5.391732,21.647732,-8.391732,21.618228,-8.417606,21.550405,-8.456764,21.474758,-8.477033,21.435600,-8.479600,
-10.564400,-8.479600,-10.603558,-8.477033,-10.679205,-8.456764,-10.747028,-8.417606,-10.776532,-8.391732,-13.776532,-5.391732,-13.802406,-5.362228,-13.841564,-5.294405,-13.861833,-5.218758,-13.864400,-5.179600,-13.864400,26.820400,-13.861833,26.859558,-13.841564,26.935205,-13.802406,27.003028,-13.776532,27.032532,-10.776532,30.032532,-10.747028,30.058406,-10.679205,30.097564,-10.603558,30.117833,-10.564400,30.120400,
3.935600,30.120400,3.974758,30.117833,3.974758,30.117833,$1*%
%AMFreePoly1*
4,1,69,9.052758,27.117833,9.128405,27.097564,9.196228,27.058406,9.225732,27.032532,10.725732,25.532532,10.751606,25.503028,10.790764,25.435205,10.811033,25.359558,10.813600,25.320400,10.813600,-3.679600,10.811033,-3.718758,10.790764,-3.794405,10.751606,-3.862228,10.725732,-3.891732,9.225732,-5.391732,9.196228,-5.417606,9.128405,-5.456764,9.052758,-5.477033,9.013600,-5.479600,6.513600,-5.479600,
6.509435,-5.479327,6.507528,-5.479539,6.503642,-5.478947,6.474442,-5.477033,6.452535,-5.471163,6.430105,-5.467747,6.414865,-5.461070,6.398795,-5.456764,6.379146,-5.445419,6.358373,-5.436318,6.334369,-5.419567,6.330972,-5.417606,6.329617,-5.416251,6.326192,-5.413861,-0.173809,-0.213861,-0.202782,-0.187394,-0.249191,-0.124311,-0.277690,-0.051365,-0.286338,0.026473,-0.274547,0.103895,
-0.243118,0.175628,-0.194194,0.236782,-0.131111,0.283191,-0.058165,0.311690,0.019673,0.320338,0.097095,0.308547,0.168828,0.277118,0.201009,0.254661,6.618834,-4.879600,8.889336,-4.879600,10.213600,-3.555336,10.213600,25.196136,8.889336,26.520400,-3.986400,26.520400,-4.025558,26.522967,-4.101205,26.543236,-4.169028,26.582394,-4.224406,26.637772,-4.263564,26.705595,-4.283833,26.781242,
-4.283833,26.859558,-4.263564,26.935205,-4.224406,27.003028,-4.169028,27.058406,-4.101205,27.097564,-4.025558,27.117833,-3.986400,27.120400,9.013600,27.120400,9.052758,27.117833,9.052758,27.117833,$1*%
G04 Aperture macros list end*
%TA.AperFunction,SMDPad,CuDef*%
%ADD10RoundRect,0.150000X0.512500X0.150000X-0.512500X0.150000X-0.512500X-0.150000X0.512500X-0.150000X0*%
%TD*%
%TA.AperFunction,SMDPad,CuDef*%
%ADD11RoundRect,0.225000X0.225000X0.250000X-0.225000X0.250000X-0.225000X-0.250000X0.225000X-0.250000X0*%
%TD*%
%TA.AperFunction,SMDPad,CuDef*%
%ADD12FreePoly0,270.000000*%
%TD*%
%TA.AperFunction,ComponentPad*%
%ADD13C,0.600000*%
%TD*%
%TA.AperFunction,SMDPad,CuDef*%
%ADD14FreePoly1,270.000000*%
%TD*%
%TA.AperFunction,SMDPad,CuDef*%
%ADD15RoundRect,0.225000X-0.225000X-0.250000X0.225000X-0.250000X0.225000X0.250000X-0.225000X0.250000X0*%
%TD*%
%TA.AperFunction,SMDPad,CuDef*%
%ADD16RoundRect,0.200000X0.200000X0.275000X-0.200000X0.275000X-0.200000X-0.275000X0.200000X-0.275000X0*%
%TD*%
%TA.AperFunction,SMDPad,CuDef*%
%ADD17RoundRect,0.150000X-0.587500X-0.150000X0.587500X-0.150000X0.587500X0.150000X-0.587500X0.150000X0*%
%TD*%
%TA.AperFunction,SMDPad,CuDef*%
%ADD18RoundRect,0.200000X-0.200000X-0.275000X0.200000X-0.275000X0.200000X0.275000X-0.200000X0.275000X0*%
%TD*%
%TA.AperFunction,SMDPad,CuDef*%
%ADD19R,1.000000X2.000000*%
%TD*%
%TA.AperFunction,SMDPad,CuDef*%
%ADD20R,0.520000X1.000000*%
%TD*%
%TA.AperFunction,SMDPad,CuDef*%
%ADD21R,0.270000X1.000000*%
%TD*%
%TA.AperFunction,ComponentPad*%
%ADD22O,1.300000X2.300000*%
%TD*%
%TA.AperFunction,ComponentPad*%
%ADD23O,1.300000X2.600000*%
%TD*%
%TA.AperFunction,SMDPad,CuDef*%
%ADD24RoundRect,0.150000X-0.150000X0.825000X-0.150000X-0.825000X0.150000X-0.825000X0.150000X0.825000X0*%
%TD*%
%TA.AperFunction,SMDPad,CuDef*%
%ADD25R,0.900000X1.500000*%
%TD*%
%TA.AperFunction,SMDPad,CuDef*%
%ADD26R,1.500000X0.900000*%
%TD*%
%TA.AperFunction,SMDPad,CuDef*%
%ADD27R,0.900000X0.900000*%
%TD*%
%TA.AperFunction,HeatsinkPad*%
%ADD28C,0.600000*%
%TD*%
%TA.AperFunction,SMDPad,CuDef*%
%ADD29R,3.800000X3.800000*%
%TD*%
%TA.AperFunction,SMDPad,CuDef*%
%ADD30RoundRect,0.237500X-0.287500X-0.237500X0.287500X-0.237500X0.287500X0.237500X-0.287500X0.237500X0*%
%TD*%
%TA.AperFunction,ComponentPad*%
%ADD31R,2.000000X2.000000*%
%TD*%
%TA.AperFunction,ComponentPad*%
%ADD32C,2.000000*%
%TD*%
%TA.AperFunction,SMDPad,CuDef*%
%ADD33RoundRect,0.175000X-1.175000X0.175000X-1.175000X-0.175000X1.175000X-0.175000X1.175000X0.175000X0*%
%TD*%
%TA.AperFunction,SMDPad,CuDef*%
%ADD34RoundRect,0.250000X-0.700000X0.300000X-0.700000X-0.300000X0.700000X-0.300000X0.700000X0.300000X0*%
%TD*%
%TA.AperFunction,SMDPad,CuDef*%
%ADD35RoundRect,0.225000X0.250000X-0.225000X0.250000X0.225000X-0.250000X0.225000X-0.250000X-0.225000X0*%
%TD*%
%TA.AperFunction,ComponentPad*%
%ADD36O,2.200000X3.500000*%
%TD*%
%TA.AperFunction,ComponentPad*%
%ADD37R,1.500000X2.500000*%
%TD*%
%TA.AperFunction,ComponentPad*%
%ADD38O,1.500000X2.500000*%
%TD*%
%TA.AperFunction,SMDPad,CuDef*%
%ADD39R,1.400000X1.200000*%
%TD*%
%TA.AperFunction,SMDPad,CuDef*%
%ADD40RoundRect,0.062500X-0.375000X-0.062500X0.375000X-0.062500X0.375000X0.062500X-0.375000X0.062500X0*%
%TD*%
%TA.AperFunction,SMDPad,CuDef*%
%ADD41RoundRect,0.062500X-0.062500X-0.375000X0.062500X-0.375000X0.062500X0.375000X-0.062500X0.375000X0*%
%TD*%
%TA.AperFunction,HeatsinkPad*%
%ADD42C,0.500000*%
%TD*%
%TA.AperFunction,HeatsinkPad*%
%ADD43R,3.100000X3.100000*%
%TD*%
%TA.AperFunction,SMDPad,CuDef*%
%ADD44RoundRect,0.250000X-0.337500X-0.475000X0.337500X-0.475000X0.337500X0.475000X-0.337500X0.475000X0*%
%TD*%
%TA.AperFunction,SMDPad,CuDef*%
%ADD45RoundRect,0.250000X0.337500X0.475000X-0.337500X0.475000X-0.337500X-0.475000X0.337500X-0.475000X0*%
%TD*%
%TA.AperFunction,SMDPad,CuDef*%
%ADD46RoundRect,0.150000X-0.150000X0.512500X-0.150000X-0.512500X0.150000X-0.512500X0.150000X0.512500X0*%
%TD*%
%TA.AperFunction,SMDPad,CuDef*%
%ADD47RoundRect,0.218750X-0.218750X-0.256250X0.218750X-0.256250X0.218750X0.256250X-0.218750X0.256250X0*%
%TD*%
%TA.AperFunction,SMDPad,CuDef*%
%ADD48RoundRect,0.218750X0.218750X0.256250X-0.218750X0.256250X-0.218750X-0.256250X0.218750X-0.256250X0*%
%TD*%
%TA.AperFunction,SMDPad,CuDef*%
%ADD49RoundRect,0.225000X0.225000X0.375000X-0.225000X0.375000X-0.225000X-0.375000X0.225000X-0.375000X0*%
%TD*%
%TA.AperFunction,ViaPad*%
%ADD50C,0.600000*%
%TD*%
%TA.AperFunction,Conductor*%
%ADD51C,0.300000*%
%TD*%
%TA.AperFunction,Conductor*%
%ADD52C,0.600000*%
%TD*%
%TA.AperFunction,Conductor*%
%ADD53C,0.500000*%
%TD*%
%TA.AperFunction,Conductor*%
%ADD54C,0.200000*%
%TD*%
%TA.AperFunction,Conductor*%
%ADD55C,0.250000*%
%TD*%
G04 APERTURE END LIST*
D10*
%TO.P,U3,1,STAT*%
%TO.N,Net-(U3-STAT)*%
X121030000Y-33330000D03*
%TO.P,U3,2,V_{SS}*%
%TO.N,GND*%
X121030000Y-32380000D03*
%TO.P,U3,3,V_{BAT}*%
%TO.N,Net-(J2-Pin_1)*%
X121030000Y-31430000D03*
%TO.P,U3,4,V_{DD}*%
%TO.N,+5V*%
X118755000Y-31430000D03*
%TO.P,U3,5,PROG*%
%TO.N,Net-(U3-PROG)*%
X118755000Y-33330000D03*
%TD*%
D11*
%TO.P,C21,1*%
%TO.N,+3.3V*%
X130535000Y-56320000D03*
%TO.P,C21,2*%
%TO.N,GND*%
X128985000Y-56320000D03*
%TD*%
D12*
%TO.P,ANT1,1,L1*%
%TO.N,Net-(ANT1-L1)*%
X151179600Y-49564400D03*
D13*
X181000000Y-53500000D03*
X178000000Y-56500000D03*
D14*
%TO.P,ANT1,2,L2*%
%TO.N,Net-(ANT1-L2)*%
X151179600Y-60486400D03*
D13*
%TO.P,ANT1,3,M*%
%TO.N,GND*%
X144000000Y-55000000D03*
%TD*%
D11*
%TO.P,C20,1*%
%TO.N,+3.3V*%
X130595000Y-54510000D03*
%TO.P,C20,2*%
%TO.N,GND*%
X129045000Y-54510000D03*
%TD*%
D15*
%TO.P,C11,1*%
%TO.N,Net-(C11-Pad1)*%
X133167500Y-60440000D03*
%TO.P,C11,2*%
%TO.N,GND*%
X134717500Y-60440000D03*
%TD*%
D16*
%TO.P,R11,1*%
%TO.N,Net-(Q2-D)*%
X117385000Y-75740000D03*
%TO.P,R11,2*%
%TO.N,+3.3V*%
X115735000Y-75740000D03*
%TD*%
D17*
%TO.P,Q2,1,G*%
%TO.N,Net-(Q1-S)*%
X120302500Y-47267500D03*
%TO.P,Q2,2,S*%
%TO.N,Net-(Q1-G)*%
X120302500Y-49167500D03*
%TO.P,Q2,3,D*%
%TO.N,Net-(Q2-D)*%
X122177500Y-48217500D03*
%TD*%
D18*
%TO.P,R7,1*%
%TO.N,/RST*%
X119215000Y-75820000D03*
%TO.P,R7,2*%
%TO.N,+3.3V*%
X120865000Y-75820000D03*
%TD*%
D19*
%TO.P,J1,*%
%TO.N,*%
X112900000Y-32850000D03*
X110100000Y-32850000D03*
D20*
%TO.P,J1,A1,GND*%
%TO.N,GND*%
X114600000Y-37050000D03*
%TO.P,J1,A4,VBUS*%
%TO.N,+5V*%
X113850000Y-37050000D03*
D21*
%TO.P,J1,A5,CC1*%
%TO.N,Net-(J1-CC1)*%
X113250000Y-37050000D03*
%TO.P,J1,A6,D+*%
%TO.N,Net-(U2-UD-)*%
X111750000Y-37050000D03*
%TO.P,J1,A7,D-*%
%TO.N,Net-(U2-UD+)*%
X110750000Y-37050000D03*
%TO.P,J1,A8*%
%TO.N,N/C*%
X109750000Y-37050000D03*
D20*
%TO.P,J1,A9,VBUS*%
%TO.N,+5V*%
X109150000Y-37050000D03*
%TO.P,J1,A12,GND*%
%TO.N,GND*%
X108400000Y-37050000D03*
%TO.P,J1,B1,GND*%
X108400000Y-37050000D03*
%TO.P,J1,B4,VBUS*%
%TO.N,+5V*%
X109150000Y-37050000D03*
D21*
%TO.P,J1,B5,CC2*%
%TO.N,Net-(J1-CC2)*%
X110250000Y-37050000D03*
%TO.P,J1,B6,D+*%
%TO.N,Net-(U2-UD-)*%
X111250000Y-37050000D03*
%TO.P,J1,B7,D-*%
%TO.N,Net-(U2-UD+)*%
X112250000Y-37050000D03*
%TO.P,J1,B8*%
%TO.N,N/C*%
X112750000Y-37050000D03*
D20*
%TO.P,J1,B9,VBUS*%
%TO.N,+5V*%
X113850000Y-37050000D03*
%TO.P,J1,B12,GND*%
%TO.N,GND*%
X114600000Y-37050000D03*
D22*
%TO.P,J1,S1,SHIELD*%
X115820000Y-36675000D03*
D23*
X115820000Y-32850000D03*
D22*
X107180000Y-36675000D03*
D23*
X107180000Y-32850000D03*
%TD*%
D24*
%TO.P,U2,1,GND*%
%TO.N,GND*%
X116750000Y-43930000D03*
%TO.P,U2,2,TXD*%
%TO.N,Net-(U1-RXD0{slash}IO3)*%
X115480000Y-43930000D03*
%TO.P,U2,3,RXD*%
%TO.N,Net-(U1-TXD0{slash}IO1)*%
X114210000Y-43930000D03*
%TO.P,U2,4,V3*%
%TO.N,Net-(U2-V3)*%
X112940000Y-43930000D03*
%TO.P,U2,5,UD+*%
%TO.N,Net-(U2-UD+)*%
X111670000Y-43930000D03*
%TO.P,U2,6,UD-*%
%TO.N,Net-(U2-UD-)*%
X110400000Y-43930000D03*
%TO.P,U2,7,NC*%
%TO.N,unconnected-(U2-NC-Pad7)*%
X109130000Y-43930000D03*
%TO.P,U2,8,NC*%
%TO.N,unconnected-(U2-NC-Pad8)*%
X107860000Y-43930000D03*
%TO.P,U2,9,~{CTS}*%
%TO.N,unconnected-(U2-~{CTS}-Pad9)*%
X107860000Y-48880000D03*
%TO.P,U2,10,~{DSR}*%
%TO.N,unconnected-(U2-~{DSR}-Pad10)*%
X109130000Y-48880000D03*
%TO.P,U2,11,~{RI}*%
%TO.N,unconnected-(U2-~{RI}-Pad11)*%
X110400000Y-48880000D03*
%TO.P,U2,12,~{DCD}*%
%TO.N,unconnected-(U2-~{DCD}-Pad12)*%
X111670000Y-48880000D03*
%TO.P,U2,13,~{DTR}*%
%TO.N,Net-(Q1-S)*%
X112940000Y-48880000D03*
%TO.P,U2,14,~{RTS}*%
%TO.N,Net-(Q1-G)*%
X114210000Y-48880000D03*
%TO.P,U2,15,R232*%
%TO.N,unconnected-(U2-R232-Pad15)*%
X115480000Y-48880000D03*
%TO.P,U2,16,VCC*%
%TO.N,+5V*%
X116750000Y-48880000D03*
%TD*%
D17*
%TO.P,Q3,1,G*%
%TO.N,+5V*%
X118540000Y-38000000D03*
%TO.P,Q3,2,S*%
%TO.N,Net-(D2-K)*%
X118540000Y-39900000D03*
%TO.P,Q3,3,D*%
%TO.N,Net-(J2-Pin_1)*%
X120415000Y-38950000D03*
%TD*%
D25*
%TO.P,U1,1,GND*%
%TO.N,GND*%
X107500000Y-72750000D03*
%TO.P,U1,2,VDD*%
%TO.N,+3.3V*%
X108770000Y-72750000D03*
%TO.P,U1,3,EN*%
%TO.N,Net-(Q2-D)*%
X110040000Y-72750000D03*
%TO.P,U1,4,SENSOR_VP*%
%TO.N,unconnected-(U1-SENSOR_VP-Pad4)*%
X111310000Y-72750000D03*
%TO.P,U1,5,SENSOR_VN*%
%TO.N,unconnected-(U1-SENSOR_VN-Pad5)*%
X112580000Y-72750000D03*
%TO.P,U1,6,IO34*%
%TO.N,unconnected-(U1-IO34-Pad6)*%
X113850000Y-72750000D03*
%TO.P,U1,7,IO35*%
%TO.N,unconnected-(U1-IO35-Pad7)*%
X115120000Y-72750000D03*
%TO.P,U1,8,IO32*%
%TO.N,/CS*%
X116390000Y-72750000D03*
%TO.P,U1,9,IO33*%
%TO.N,/RST*%
X117660000Y-72750000D03*
%TO.P,U1,10,IO25*%
%TO.N,unconnected-(U1-IO25-Pad10)*%
X118930000Y-72750000D03*
%TO.P,U1,11,IO26*%
%TO.N,/MOSI*%
X120200000Y-72750000D03*
%TO.P,U1,12,IO27*%
%TO.N,/SCK*%
X121470000Y-72750000D03*
%TO.P,U1,13,IO14*%
%TO.N,/MISO*%
X122740000Y-72750000D03*
%TO.P,U1,14,IO12*%
%TO.N,unconnected-(U1-IO12-Pad14)*%
X124010000Y-72750000D03*
D26*
%TO.P,U1,15,GND*%
%TO.N,GND*%
X125260000Y-69710000D03*
%TO.P,U1,16,IO13*%
%TO.N,unconnected-(U1-IO13-Pad16)*%
X125260000Y-68440000D03*
%TO.P,U1,17,SHD/SD2*%
%TO.N,unconnected-(U1-SHD{slash}SD2-Pad17)*%
X125260000Y-67170000D03*
%TO.P,U1,18,SWP/SD3*%
%TO.N,unconnected-(U1-SWP{slash}SD3-Pad18)*%
X125260000Y-65900000D03*
%TO.P,U1,19,SCS/CMD*%
%TO.N,unconnected-(U1-SCS{slash}CMD-Pad19)*%
X125260000Y-64630000D03*
%TO.P,U1,20,SCK/CLK*%
%TO.N,unconnected-(U1-SCK{slash}CLK-Pad20)*%
X125260000Y-63360000D03*
%TO.P,U1,21,SDO/SD0*%
%TO.N,unconnected-(U1-SDO{slash}SD0-Pad21)*%
X125260000Y-62090000D03*
%TO.P,U1,22,SDI/SD1*%
%TO.N,unconnected-(U1-SDI{slash}SD1-Pad22)*%
X125260000Y-60820000D03*
%TO.P,U1,23,IO15*%
%TO.N,unconnected-(U1-IO15-Pad23)*%
X125260000Y-59550000D03*
%TO.P,U1,24,IO2*%
%TO.N,unconnected-(U1-IO2-Pad24)*%
X125260000Y-58280000D03*
D25*
%TO.P,U1,25,IO0*%
%TO.N,Net-(Q1-D)*%
X124010000Y-55250000D03*
%TO.P,U1,26,IO4*%
%TO.N,unconnected-(U1-IO4-Pad26)*%
X122740000Y-55250000D03*
%TO.P,U1,27,IO16*%
%TO.N,Net-(D4-DIN)*%
X121470000Y-55250000D03*
%TO.P,U1,28,IO17*%
%TO.N,Net-(U1-IO17)*%
X120200000Y-55250000D03*
%TO.P,U1,29,IO5*%
%TO.N,unconnected-(U1-IO5-Pad29)*%
X118930000Y-55250000D03*
%TO.P,U1,30,IO18*%
%TO.N,unconnected-(U1-IO18-Pad30)*%
X117660000Y-55250000D03*
%TO.P,U1,31,IO19*%
%TO.N,unconnected-(U1-IO19-Pad31)*%
X116390000Y-55250000D03*
%TO.P,U1,32,NC*%
%TO.N,unconnected-(U1-NC-Pad32)*%
X115120000Y-55250000D03*
%TO.P,U1,33,IO21*%
%TO.N,unconnected-(U1-IO21-Pad33)*%
X113850000Y-55250000D03*
%TO.P,U1,34,RXD0/IO3*%
%TO.N,Net-(U1-RXD0{slash}IO3)*%
X112580000Y-55250000D03*
%TO.P,U1,35,TXD0/IO1*%
%TO.N,Net-(U1-TXD0{slash}IO1)*%
X111310000Y-55250000D03*
%TO.P,U1,36,IO22*%
%TO.N,unconnected-(U1-IO22-Pad36)*%
X110040000Y-55250000D03*
%TO.P,U1,37,IO23*%
%TO.N,unconnected-(U1-IO23-Pad37)*%
X108770000Y-55250000D03*
%TO.P,U1,38,GND*%
%TO.N,GND*%
X107500000Y-55250000D03*
D27*
%TO.P,U1,39,GND*%
X113820000Y-66900000D03*
X115220000Y-66900000D03*
X116620000Y-66900000D03*
D28*
X114450000Y-66400000D03*
X115930000Y-66400000D03*
D27*
X113820000Y-65500000D03*
X115220000Y-65500000D03*
D29*
X115220000Y-65500000D03*
D27*
X116620000Y-65500000D03*
D28*
X114450000Y-64700000D03*
X115920000Y-64700000D03*
D27*
X113820000Y-64100000D03*
X115220000Y-64100000D03*
X116620000Y-64100000D03*
%TD*%
D15*
%TO.P,C18,1*%
%TO.N,Net-(C12-Pad2)*%
X149515000Y-55920000D03*
%TO.P,C18,2*%
%TO.N,Net-(ANT1-L2)*%
X151065000Y-55920000D03*
%TD*%
D30*
%TO.P,L1,1,1*%
%TO.N,Net-(U5-TX1)*%
X129577500Y-60460000D03*
%TO.P,L1,2,2*%
%TO.N,Net-(C11-Pad1)*%
X131327500Y-60460000D03*
%TD*%
D15*
%TO.P,C2,1*%
%TO.N,Net-(Q2-D)*%
X124395000Y-48230000D03*
%TO.P,C2,2*%
%TO.N,GND*%
X125945000Y-48230000D03*
%TD*%
D31*
%TO.P,LS1,1,1*%
%TO.N,+3.3V*%
X132379216Y-73010000D03*
D32*
%TO.P,LS1,2,2*%
%TO.N,Net-(Q5-C)*%
X137379216Y-73010000D03*
%TD*%
D16*
%TO.P,R3,1*%
%TO.N,Net-(D3-A)*%
X126530000Y-38645000D03*
%TO.P,R3,2*%
%TO.N,Net-(U4-EN)*%
X124880000Y-38645000D03*
%TD*%
D11*
%TO.P,C14,1*%
%TO.N,Net-(ANT1-L1)*%
X151025000Y-49490000D03*
%TO.P,C14,2*%
%TO.N,GND*%
X149475000Y-49490000D03*
%TD*%
D18*
%TO.P,R4,1*%
%TO.N,Net-(J1-CC1)*%
X114345000Y-39270000D03*
%TO.P,R4,2*%
%TO.N,GND*%
X115995000Y-39270000D03*
%TD*%
D15*
%TO.P,C16,1*%
%TO.N,GND*%
X149537500Y-58150000D03*
%TO.P,C16,2*%
%TO.N,Net-(ANT1-L2)*%
X151087500Y-58150000D03*
%TD*%
%TO.P,C26,1*%
%TO.N,Net-(U5-VMID)*%
X137145000Y-62880000D03*
%TO.P,C26,2*%
%TO.N,GND*%
X138695000Y-62880000D03*
%TD*%
D11*
%TO.P,C25,1*%
%TO.N,+3.3V*%
X127677500Y-75690000D03*
%TO.P,C25,2*%
%TO.N,GND*%
X126127500Y-75690000D03*
%TD*%
D33*
%TO.P,J2,1,Pin_1*%
%TO.N,Net-(J2-Pin_1)*%
X138470000Y-40000000D03*
%TO.P,J2,2,Pin_2*%
%TO.N,GND*%
X138470000Y-41500000D03*
D34*
%TO.P,J2,MP*%
%TO.N,N/C*%
X134770000Y-38050000D03*
X134770000Y-43450000D03*
%TD*%
D35*
%TO.P,C9,1*%
%TO.N,Net-(U5-OSCOUT)*%
X137622500Y-49755000D03*
%TO.P,C9,2*%
%TO.N,GND*%
X137622500Y-48205000D03*
%TD*%
D11*
%TO.P,C19,1*%
%TO.N,+3.3V*%
X130695000Y-52690000D03*
%TO.P,C19,2*%
%TO.N,GND*%
X129145000Y-52690000D03*
%TD*%
D18*
%TO.P,R6,1*%
%TO.N,Net-(U1-IO17)*%
X120195000Y-52770000D03*
%TO.P,R6,2*%
%TO.N,Net-(Q5-B)*%
X121845000Y-52770000D03*
%TD*%
D16*
%TO.P,R5,1*%
%TO.N,Net-(J1-CC2)*%
X109575000Y-39300000D03*
%TO.P,R5,2*%
%TO.N,GND*%
X107925000Y-39300000D03*
%TD*%
D11*
%TO.P,C24,1*%
%TO.N,+3.3V*%
X187535000Y-50680000D03*
%TO.P,C24,2*%
%TO.N,GND*%
X185985000Y-50680000D03*
%TD*%
D16*
%TO.P,R10,1*%
%TO.N,Net-(D3-K)*%
X143825000Y-32522500D03*
%TO.P,R10,2*%
%TO.N,GND*%
X142175000Y-32522500D03*
%TD*%
D36*
%TO.P,SW1,*%
%TO.N,*%
X136730000Y-32470000D03*
X128530000Y-32470000D03*
D37*
%TO.P,SW1,1,A*%
%TO.N,Net-(D2-K)*%
X134630000Y-32470000D03*
D38*
%TO.P,SW1,2,B*%
%TO.N,Net-(D3-A)*%
X132630000Y-32470000D03*
%TO.P,SW1,3*%
%TO.N,N/C*%
X130630000Y-32470000D03*
%TD*%
D11*
%TO.P,C15,1*%
%TO.N,Net-(ANT1-L1)*%
X151065000Y-51650000D03*
%TO.P,C15,2*%
%TO.N,GND*%
X149515000Y-51650000D03*
%TD*%
D39*
%TO.P,Y1,1,1*%
%TO.N,Net-(U5-OSCIN)*%
X133432500Y-49840000D03*
%TO.P,Y1,2,2*%
%TO.N,GND*%
X135632500Y-49840000D03*
%TO.P,Y1,3,3*%
%TO.N,Net-(U5-OSCOUT)*%
X135632500Y-48140000D03*
%TO.P,Y1,4,4*%
%TO.N,GND*%
X133432500Y-48140000D03*
%TD*%
D30*
%TO.P,L2,1,1*%
%TO.N,Net-(U5-TX2)*%
X129573750Y-62080000D03*
%TO.P,L2,2,2*%
%TO.N,Net-(C12-Pad2)*%
X131323750Y-62080000D03*
%TD*%
D15*
%TO.P,C13,1*%
%TO.N,Net-(C11-Pad1)*%
X149525000Y-53760000D03*
%TO.P,C13,2*%
%TO.N,Net-(ANT1-L1)*%
X151075000Y-53760000D03*
%TD*%
D18*
%TO.P,R9,1*%
%TO.N,Net-(C10-Pad1)*%
X137085000Y-59775000D03*
%TO.P,R9,2*%
%TO.N,Net-(U5-RX)*%
X138735000Y-59775000D03*
%TD*%
D35*
%TO.P,C8,1*%
%TO.N,Net-(U5-OSCIN)*%
X131472500Y-49755000D03*
%TO.P,C8,2*%
%TO.N,GND*%
X131472500Y-48205000D03*
%TD*%
D40*
%TO.P,U5,1,I2C*%
%TO.N,GND*%
X132462500Y-53320000D03*
%TO.P,U5,2,PVDD*%
%TO.N,+3.3V*%
X132462500Y-53820000D03*
%TO.P,U5,3,DVDD*%
X132462500Y-54320000D03*
%TO.P,U5,4,DVSS*%
%TO.N,GND*%
X132462500Y-54820000D03*
%TO.P,U5,5,PVSS*%
X132462500Y-55320000D03*
%TO.P,U5,6,NRSTPD*%
%TO.N,/RST*%
X132462500Y-55820000D03*
%TO.P,U5,7,MFIN*%
%TO.N,unconnected-(U5-MFIN-Pad7)*%
X132462500Y-56320000D03*
%TO.P,U5,8,MFOUT*%
%TO.N,unconnected-(U5-MFOUT-Pad8)*%
X132462500Y-56820000D03*
D41*
%TO.P,U5,9,SVDD*%
%TO.N,unconnected-(U5-SVDD-Pad9)*%
X133150000Y-57507500D03*
%TO.P,U5,10,TVSS*%
%TO.N,GND*%
X133650000Y-57507500D03*
%TO.P,U5,11,TX1*%
%TO.N,Net-(U5-TX1)*%
X134150000Y-57507500D03*
%TO.P,U5,12,TVDD*%
%TO.N,+3.3V*%
X134650000Y-57507500D03*
%TO.P,U5,13,TX2*%
%TO.N,Net-(U5-TX2)*%
X135150000Y-57507500D03*
%TO.P,U5,14,TVSS*%
%TO.N,GND*%
X135650000Y-57507500D03*
%TO.P,U5,15,AVDD*%
%TO.N,unconnected-(U5-AVDD-Pad15)*%
X136150000Y-57507500D03*
%TO.P,U5,16,VMID*%
%TO.N,Net-(U5-VMID)*%
X136650000Y-57507500D03*
D40*
%TO.P,U5,17,RX*%
%TO.N,Net-(U5-RX)*%
X137337500Y-56820000D03*
%TO.P,U5,18,AVSS*%
%TO.N,GND*%
X137337500Y-56320000D03*
%TO.P,U5,19,AUX1*%
%TO.N,unconnected-(U5-AUX1-Pad19)*%
X137337500Y-55820000D03*
%TO.P,U5,20,AUX2*%
%TO.N,unconnected-(U5-AUX2-Pad20)*%
X137337500Y-55320000D03*
%TO.P,U5,21*%
%TO.N,N/C*%
X137337500Y-54820000D03*
%TO.P,U5,22,OSCOUT*%
%TO.N,Net-(U5-OSCOUT)*%
X137337500Y-54320000D03*
%TO.P,U5,23,IRQ*%
%TO.N,unconnected-(U5-IRQ-Pad23)*%
X137337500Y-53820000D03*
%TO.P,U5,24,NSS*%
%TO.N,/CS*%
X137337500Y-53320000D03*
D41*
%TO.P,U5,25,D1*%
%TO.N,unconnected-(U5-D1-Pad25)*%
X136650000Y-52632500D03*
%TO.P,U5,26,D2*%
%TO.N,unconnected-(U5-D2-Pad26)*%
X136150000Y-52632500D03*
%TO.P,U5,27,OSCIN*%
%TO.N,Net-(U5-OSCIN)*%
X135650000Y-52632500D03*
%TO.P,U5,28,D4*%
%TO.N,unconnected-(U5-D4-Pad28)*%
X135150000Y-52632500D03*
%TO.P,U5,29,SCK*%
%TO.N,/SCK*%
X134650000Y-52632500D03*
%TO.P,U5,30,MOSI*%
%TO.N,/MOSI*%
X134150000Y-52632500D03*
%TO.P,U5,31,MISO*%
%TO.N,/MISO*%
X133650000Y-52632500D03*
%TO.P,U5,32,EA*%
%TO.N,+3.3V*%
X133150000Y-52632500D03*
D42*
%TO.P,U5,33,PAD*%
%TO.N,GND*%
X134200000Y-54370000D03*
X134200000Y-55770000D03*
D43*
X134900000Y-55070000D03*
D42*
X135600000Y-54370000D03*
X135600000Y-55770000D03*
%TD*%
D44*
%TO.P,C4,1*%
%TO.N,+3.3V*%
X128862500Y-45070000D03*
%TO.P,C4,2*%
%TO.N,GND*%
X130937500Y-45070000D03*
%TD*%
D11*
%TO.P,C5,1*%
%TO.N,+3.3V*%
X126165000Y-45120000D03*
%TO.P,C5,2*%
%TO.N,GND*%
X124615000Y-45120000D03*
%TD*%
D15*
%TO.P,C7,1*%
%TO.N,Net-(U2-V3)*%
X114255000Y-40950000D03*
%TO.P,C7,2*%
%TO.N,GND*%
X115805000Y-40950000D03*
%TD*%
%TO.P,C10,1*%
%TO.N,Net-(C10-Pad1)*%
X137130000Y-64450000D03*
%TO.P,C10,2*%
%TO.N,Net-(ANT1-L1)*%
X138680000Y-64450000D03*
%TD*%
D16*
%TO.P,R8,1*%
%TO.N,Net-(U5-RX)*%
X138745000Y-61320000D03*
%TO.P,R8,2*%
%TO.N,Net-(U5-VMID)*%
X137095000Y-61320000D03*
%TD*%
D45*
%TO.P,C22,1*%
%TO.N,+3.3V*%
X113957500Y-78150000D03*
%TO.P,C22,2*%
%TO.N,GND*%
X111882500Y-78150000D03*
%TD*%
D18*
%TO.P,R2,1*%
%TO.N,Net-(U3-PROG)*%
X118565000Y-35380000D03*
%TO.P,R2,2*%
%TO.N,GND*%
X120215000Y-35380000D03*
%TD*%
D11*
%TO.P,C1,1*%
%TO.N,+5V*%
X114965000Y-51400000D03*
%TO.P,C1,2*%
%TO.N,GND*%
X113415000Y-51400000D03*
%TD*%
D17*
%TO.P,Q1,1,G*%
%TO.N,Net-(Q1-G)*%
X120402500Y-43067500D03*
%TO.P,Q1,2,S*%
%TO.N,Net-(Q1-S)*%
X120402500Y-44967500D03*
%TO.P,Q1,3,D*%
%TO.N,Net-(Q1-D)*%
X122277500Y-44017500D03*
%TD*%
%TO.P,Q5,1,B*%
%TO.N,Net-(Q5-B)*%
X129115000Y-64050000D03*
%TO.P,Q5,2,E*%
%TO.N,GND*%
X129115000Y-65950000D03*
%TO.P,Q5,3,C*%
%TO.N,Net-(Q5-C)*%
X130990000Y-65000000D03*
%TD*%
D46*
%TO.P,U4,1,VIN*%
%TO.N,Net-(D3-A)*%
X126710000Y-40560000D03*
%TO.P,U4,2,GND*%
%TO.N,GND*%
X125760000Y-40560000D03*
%TO.P,U4,3,EN*%
%TO.N,Net-(U4-EN)*%
X124810000Y-40560000D03*
%TO.P,U4,4,NC*%
%TO.N,unconnected-(U4-NC-Pad4)*%
X124810000Y-42835000D03*
%TO.P,U4,5,VOUT*%
%TO.N,+3.3V*%
X126710000Y-42835000D03*
%TD*%
D11*
%TO.P,C12,1*%
%TO.N,GND*%
X134703750Y-62110000D03*
%TO.P,C12,2*%
%TO.N,Net-(C12-Pad2)*%
X133153750Y-62110000D03*
%TD*%
D47*
%TO.P,D1,1,K*%
%TO.N,Net-(D1-K)*%
X123132500Y-31620000D03*
%TO.P,D1,2,A*%
%TO.N,+5V*%
X124707500Y-31620000D03*
%TD*%
D48*
%TO.P,D3,1,K*%
%TO.N,Net-(D3-K)*%
X143760000Y-31022500D03*
%TO.P,D3,2,A*%
%TO.N,Net-(D3-A)*%
X142185000Y-31022500D03*
%TD*%
D25*
%TO.P,D4,1,VDD*%
%TO.N,+3.3V*%
X188450000Y-52550000D03*
%TO.P,D4,2,DOUT*%
%TO.N,unconnected-(D4-DOUT-Pad2)*%
X185150000Y-52550000D03*
%TO.P,D4,3,VSS*%
%TO.N,GND*%
X185150000Y-57450000D03*
%TO.P,D4,4,DIN*%
%TO.N,Net-(D4-DIN)*%
X188450000Y-57450000D03*
%TD*%
D49*
%TO.P,D2,1,K*%
%TO.N,Net-(D2-K)*%
X125337500Y-35990000D03*
%TO.P,D2,2,A*%
%TO.N,+5V*%
X122037500Y-35990000D03*
%TD*%
D15*
%TO.P,C17,1*%
%TO.N,GND*%
X149545000Y-60390000D03*
%TO.P,C17,2*%
%TO.N,Net-(ANT1-L2)*%
X151095000Y-60390000D03*
%TD*%
D16*
%TO.P,R1,1*%
%TO.N,Net-(D1-K)*%
X124695000Y-33280000D03*
%TO.P,R1,2*%
%TO.N,Net-(U3-STAT)*%
X123045000Y-33280000D03*
%TD*%
D15*
%TO.P,C6,1*%
%TO.N,+5V*%
X116925000Y-51410000D03*
%TO.P,C6,2*%
%TO.N,GND*%
X118475000Y-51410000D03*
%TD*%
D44*
%TO.P,C3,1*%
%TO.N,Net-(D3-A)*%
X128962500Y-36360000D03*
%TO.P,C3,2*%
%TO.N,GND*%
X131037500Y-36360000D03*
%TD*%
D11*
%TO.P,C23,1*%
%TO.N,+3.3V*%
X113742500Y-75730000D03*
%TO.P,C23,2*%
%TO.N,GND*%
X112192500Y-75730000D03*
%TD*%
D50*
%TO.N,Net-(D2-K)*%
X127140000Y-35990000D03*
%TO.N,+5V*%
X109150000Y-38040000D03*
X114050000Y-38100000D03*
X115970000Y-51400000D03*
X118500000Y-37310000D03*
X118010000Y-48880000D03*
%TO.N,Net-(Q1-G)*%
X119415000Y-48280000D03*
X120400000Y-42380000D03*
%TO.N,Net-(Q1-D)*%
X123270000Y-53580000D03*
X122500000Y-44830000D03*
%TO.N,Net-(Q2-D)*%
X122177500Y-48217500D03*
X120740025Y-57030025D03*
%TO.N,Net-(J2-Pin_1)*%
X120580000Y-38150000D03*
X128150000Y-40330000D03*
X119850000Y-32050000D03*
%TO.N,GND*%
X128460000Y-68160000D03*
X127520000Y-71740000D03*
X114070000Y-58380000D03*
X114280000Y-69640000D03*
X125560000Y-51140000D03*
X107580000Y-57750000D03*
X125760000Y-41900000D03*
X123300000Y-78310000D03*
X117930000Y-60960000D03*
X107580000Y-70880000D03*
X106800000Y-38540000D03*
X115960000Y-53080000D03*
X130700000Y-39320000D03*
X130660000Y-41900000D03*
X149149972Y-50539978D03*
X133800000Y-65040000D03*
X131636514Y-55094819D03*
X128470000Y-59150000D03*
X139486495Y-62042756D03*
X139040000Y-35560000D03*
X136700000Y-46820000D03*
X132210000Y-52820000D03*
X111460000Y-35000000D03*
X103120000Y-38310000D03*
X137790000Y-45200000D03*
X138650000Y-66620000D03*
X134791250Y-62958668D03*
X129745371Y-55130143D03*
X122030000Y-34430000D03*
X129510000Y-47900000D03*
X139288286Y-55573796D03*
X149120000Y-59170000D03*
X110530000Y-76910000D03*
X123780000Y-64580000D03*
%TO.N,+3.3V*%
X134568277Y-58477785D03*
X131630000Y-57570000D03*
%TO.N,Net-(ANT1-L1)*%
X151112500Y-50530000D03*
X140208298Y-53840000D03*
%TO.N,Net-(C11-Pad1)*%
X135420000Y-59512985D03*
X148139571Y-54462080D03*
%TO.N,Net-(C12-Pad2)*%
X133746263Y-61356263D03*
X148070000Y-55910000D03*
%TO.N,Net-(D4-DIN)*%
X134990000Y-76810000D03*
X121550000Y-56530000D03*
%TO.N,/RST*%
X131641005Y-55914364D03*
X120868281Y-59810000D03*
%TO.N,/MISO*%
X131182558Y-50904651D03*
X123400000Y-57150000D03*
%TO.N,/CS*%
X120501058Y-59083416D03*
X137337500Y-52455000D03*
%TO.N,/MOSI*%
X122221169Y-57359904D03*
X133682500Y-50940000D03*
%TO.N,/SCK*%
X122748127Y-58026852D03*
X135000000Y-51490000D03*
%TD*%
D51*
%TO.N,Net-(D3-A)*%
X141425000Y-31782500D02*
X142185000Y-31022500D01*
X141060000Y-34570000D02*
X141425000Y-34205000D01*
X141425000Y-34205000D02*
X141425000Y-31782500D01*
X132630000Y-32470000D02*
X132630000Y-33170000D01*
X132630000Y-33170000D02*
X134030000Y-34570000D01*
X134030000Y-34570000D02*
X141060000Y-34570000D01*
%TO.N,GND*%
X140820000Y-35560000D02*
X139040000Y-35560000D01*
X142175000Y-34205000D02*
X140820000Y-35560000D01*
X142175000Y-32522500D02*
X142175000Y-34205000D01*
D52*
%TO.N,Net-(D2-K)*%
X118540000Y-39900000D02*
X121125894Y-39900000D01*
X125035894Y-35990000D02*
X125337500Y-35990000D01*
X121125894Y-39900000D02*
X125035894Y-35990000D01*
X125337500Y-35990000D02*
X127140000Y-35990000D01*
%TO.N,+5V*%
X115052500Y-51400000D02*
X116827500Y-51400000D01*
D51*
X123340000Y-35990000D02*
X122037500Y-35990000D01*
X124707500Y-31620000D02*
X125445000Y-32357500D01*
D53*
X118500000Y-37310000D02*
X117642500Y-36452500D01*
D51*
X125445000Y-32357500D02*
X125445000Y-33885000D01*
D53*
X117642500Y-36452500D02*
X117642500Y-32542500D01*
D51*
X125445000Y-33885000D02*
X123340000Y-35990000D01*
D53*
X117642500Y-32542500D02*
X118755000Y-31430000D01*
X118540000Y-38000000D02*
X118540000Y-37350000D01*
D52*
X122037500Y-35990000D02*
X120717500Y-37310000D01*
X120717500Y-37310000D02*
X118500000Y-37310000D01*
X116827500Y-51400000D02*
X116837500Y-51410000D01*
D53*
X114050000Y-38100000D02*
X114060000Y-38090000D01*
X113850000Y-37900000D02*
X114050000Y-38100000D01*
X109150000Y-37050000D02*
X109150000Y-38040000D01*
D52*
X116750000Y-48880000D02*
X118010000Y-48880000D01*
D53*
X113850000Y-37050000D02*
X113850000Y-37900000D01*
X118540000Y-37350000D02*
X118500000Y-37310000D01*
D51*
%TO.N,Net-(Q1-G)*%
X114560001Y-50205000D02*
X119265000Y-50205000D01*
X119265000Y-50205000D02*
X120302500Y-49167500D01*
X120400000Y-42380000D02*
X120400000Y-43065000D01*
X120400000Y-43065000D02*
X120402500Y-43067500D01*
X114210000Y-48880000D02*
X114210000Y-49854999D01*
X120302500Y-49167500D02*
X119415000Y-48280000D01*
X114210000Y-49854999D02*
X114560001Y-50205000D01*
%TO.N,Net-(Q1-D)*%
X123910000Y-54220000D02*
X123270000Y-53580000D01*
X124010000Y-55250000D02*
X124010000Y-54220000D01*
X122500000Y-44830000D02*
X122500000Y-44240000D01*
X122500000Y-44240000D02*
X122277500Y-44017500D01*
X124010000Y-54220000D02*
X123910000Y-54220000D01*
%TO.N,Net-(Q1-S)*%
X120302500Y-45067500D02*
X120402500Y-44967500D01*
X112940000Y-48880000D02*
X112940000Y-47905001D01*
X113577501Y-47267500D02*
X120302500Y-47267500D01*
X120302500Y-47267500D02*
X120302500Y-45067500D01*
X112940000Y-47905001D02*
X113577501Y-47267500D01*
%TO.N,Net-(Q2-D)*%
X110040000Y-72750000D02*
X110040000Y-73380000D01*
D52*
X122177500Y-48217500D02*
X124295000Y-48217500D01*
D51*
X110040000Y-66180000D02*
X119050000Y-57170000D01*
X110040000Y-73380000D02*
X110510000Y-73850000D01*
X120600050Y-57170000D02*
X120740025Y-57030025D01*
X115495000Y-73850000D02*
X117385000Y-75740000D01*
X110040000Y-72750000D02*
X110040000Y-66180000D01*
D52*
X124295000Y-48217500D02*
X124307500Y-48230000D01*
D51*
X119050000Y-57170000D02*
X120600050Y-57170000D01*
X110510000Y-73850000D02*
X115495000Y-73850000D01*
%TO.N,Net-(J2-Pin_1)*%
X128170000Y-40310000D02*
X128150000Y-40330000D01*
D52*
X119850000Y-31974106D02*
X120394106Y-31430000D01*
X120580000Y-38785000D02*
X120415000Y-38950000D01*
X120580000Y-38150000D02*
X120580000Y-38785000D01*
X138140000Y-40330000D02*
X138470000Y-40000000D01*
X119850000Y-32050000D02*
X119850000Y-31974106D01*
X128150000Y-40330000D02*
X138140000Y-40330000D01*
X120394106Y-31430000D02*
X121030000Y-31430000D01*
D51*
%TO.N,Net-(U3-STAT)*%
X121030000Y-33330000D02*
X122995000Y-33330000D01*
X122995000Y-33330000D02*
X123045000Y-33280000D01*
%TO.N,Net-(D1-K)*%
X123132500Y-31717500D02*
X124695000Y-33280000D01*
X123132500Y-31620000D02*
X123132500Y-31717500D01*
%TO.N,Net-(U3-PROG)*%
X118565000Y-33520000D02*
X118755000Y-33330000D01*
X118565000Y-35380000D02*
X118565000Y-33520000D01*
%TO.N,GND*%
X134590000Y-46850000D02*
X134600000Y-46860000D01*
X106940000Y-38400000D02*
X106800000Y-38540000D01*
D54*
X132462500Y-54820000D02*
X134650000Y-54820000D01*
D51*
X138695000Y-62628358D02*
X138900893Y-62628358D01*
X132237319Y-55094819D02*
X131636514Y-55094819D01*
X137880000Y-56320000D02*
X138542082Y-56320000D01*
D52*
X149120000Y-59170000D02*
X149120000Y-58480000D01*
X128897500Y-56320000D02*
X128897500Y-54570000D01*
D51*
X185150000Y-57450000D02*
X186950000Y-59250000D01*
X149120000Y-60052500D02*
X149457500Y-60390000D01*
D54*
X133225000Y-53395000D02*
X134900000Y-55070000D01*
X132462500Y-53320000D02*
X132670000Y-53320000D01*
D52*
X149119994Y-49757506D02*
X149387500Y-49490000D01*
D51*
X115892500Y-40950000D02*
X116750000Y-41807500D01*
X138695000Y-62880000D02*
X138695000Y-62628358D01*
X185950000Y-50732500D02*
X185897500Y-50680000D01*
X131537500Y-48140000D02*
X131472500Y-48205000D01*
X116750000Y-41807500D02*
X116750000Y-43930000D01*
X107050000Y-38400000D02*
X106940000Y-38400000D01*
D52*
X111470000Y-78150000D02*
X111470000Y-77850000D01*
X134781250Y-62120000D02*
X134791250Y-62110000D01*
X149120000Y-58480000D02*
X149450000Y-58150000D01*
D51*
X185950000Y-56650000D02*
X185950000Y-50732500D01*
X138542082Y-56320000D02*
X139288286Y-55573796D01*
X134600000Y-46860000D02*
X136365000Y-46860000D01*
D54*
X133650000Y-56320000D02*
X134900000Y-55070000D01*
D51*
X120017500Y-32952500D02*
X120590000Y-32380000D01*
X133532500Y-48140000D02*
X135232500Y-49840000D01*
X138900893Y-62628358D02*
X139486495Y-62042756D01*
D52*
X134791250Y-62958668D02*
X134791250Y-60933750D01*
X134805000Y-62096250D02*
X134791250Y-62110000D01*
D54*
X135650000Y-55820000D02*
X134900000Y-55070000D01*
D51*
X132462500Y-55320000D02*
X132237319Y-55094819D01*
D52*
X134805000Y-60440000D02*
X134805000Y-62096250D01*
X128957500Y-54510000D02*
X129131939Y-54510000D01*
D51*
X134590000Y-46850000D02*
X132740000Y-46850000D01*
X186950000Y-59250000D02*
X186950000Y-71325788D01*
X115995000Y-38445000D02*
X115995000Y-39270000D01*
X149119994Y-50510000D02*
X149149972Y-50539978D01*
X133432500Y-48140000D02*
X131537500Y-48140000D01*
D52*
X149149972Y-51372472D02*
X149149972Y-50539978D01*
X125760000Y-40560000D02*
X125760000Y-41900000D01*
D51*
X136365000Y-46860000D02*
X137622500Y-48117500D01*
X133432500Y-48140000D02*
X133532500Y-48140000D01*
D52*
X129125228Y-54510000D02*
X129745371Y-55130143D01*
D51*
X132462500Y-54820000D02*
X131892500Y-54820000D01*
X135232500Y-49840000D02*
X135632500Y-49840000D01*
D52*
X129057500Y-54410000D02*
X128957500Y-54510000D01*
X128897500Y-54570000D02*
X128957500Y-54510000D01*
D51*
X131892500Y-54820000D02*
X131892500Y-54838833D01*
D52*
X134791250Y-62110000D02*
X134791250Y-62958668D01*
D51*
X185150000Y-57450000D02*
X185950000Y-56650000D01*
X131892500Y-54838833D02*
X131636514Y-55094819D01*
D54*
X137880000Y-56320000D02*
X136150000Y-56320000D01*
D52*
X129045000Y-54510000D02*
X129125228Y-54510000D01*
D54*
X133650000Y-57507500D02*
X133650000Y-56320000D01*
D55*
X132210000Y-53067500D02*
X132210000Y-52820000D01*
D51*
X186950000Y-71325788D02*
X180295788Y-77980000D01*
X140049216Y-77980000D02*
X131779216Y-69710000D01*
D55*
X132462500Y-53320000D02*
X132210000Y-53067500D01*
D54*
X135650000Y-57507500D02*
X135650000Y-55820000D01*
X132670000Y-53320000D02*
X132745000Y-53395000D01*
D51*
X107555000Y-37050000D02*
X107180000Y-36675000D01*
X120590000Y-32380000D02*
X121030000Y-32380000D01*
D52*
X111882500Y-78150000D02*
X111470000Y-78150000D01*
D51*
X131779216Y-69710000D02*
X125260000Y-69710000D01*
D54*
X134650000Y-54820000D02*
X134900000Y-55070000D01*
D52*
X111470000Y-77850000D02*
X110530000Y-76910000D01*
D51*
X137337500Y-56320000D02*
X137880000Y-56320000D01*
X115995000Y-39270000D02*
X115995000Y-40847500D01*
X115995000Y-40847500D02*
X115892500Y-40950000D01*
D52*
X111710000Y-75730000D02*
X110530000Y-76910000D01*
X129057500Y-52690000D02*
X129057500Y-54410000D01*
D51*
X120215000Y-35380000D02*
X120017500Y-35182500D01*
D52*
X112192500Y-75730000D02*
X111710000Y-75730000D01*
D54*
X132630000Y-55320000D02*
X132880000Y-55070000D01*
X136150000Y-56320000D02*
X134900000Y-55070000D01*
D51*
X180295788Y-77980000D02*
X140049216Y-77980000D01*
X120017500Y-35182500D02*
X120017500Y-32952500D01*
X108400000Y-37050000D02*
X107050000Y-38400000D01*
X149119994Y-49757506D02*
X149119994Y-50510000D01*
D54*
X132462500Y-55320000D02*
X132630000Y-55320000D01*
D51*
X108400000Y-37050000D02*
X108400000Y-38825000D01*
X114600000Y-37050000D02*
X115995000Y-38445000D01*
D52*
X149427500Y-51650000D02*
X149149972Y-51372472D01*
D54*
X132745000Y-53395000D02*
X133225000Y-53395000D01*
X132880000Y-55070000D02*
X134900000Y-55070000D01*
D51*
X128957500Y-56260000D02*
X128897500Y-56320000D01*
X149120000Y-59170000D02*
X149120000Y-60052500D01*
X108400000Y-38825000D02*
X107925000Y-39300000D01*
X132740000Y-46850000D02*
X131472500Y-48117500D01*
D52*
%TO.N,Net-(U4-EN)*%
X124880000Y-40490000D02*
X124810000Y-40560000D01*
X124880000Y-38645000D02*
X124880000Y-40490000D01*
D51*
%TO.N,Net-(U2-V3)*%
X112940000Y-42177500D02*
X114167500Y-40950000D01*
X112940000Y-43930000D02*
X112940000Y-42177500D01*
%TO.N,Net-(U5-OSCIN)*%
X133510433Y-49840000D02*
X133432500Y-49840000D01*
X134560050Y-50880000D02*
X134550433Y-50880000D01*
X135650000Y-51090050D02*
X135349950Y-50790000D01*
X131472500Y-49842500D02*
X133430000Y-49842500D01*
X135650000Y-52632500D02*
X135650000Y-51090050D01*
X133430000Y-49842500D02*
X133432500Y-49840000D01*
X134550433Y-50880000D02*
X133510433Y-49840000D01*
X135349950Y-50790000D02*
X134650050Y-50790000D01*
X134650050Y-50790000D02*
X134560050Y-50880000D01*
%TO.N,+3.3V*%
X130782500Y-52215000D02*
X131496464Y-51501036D01*
X130682500Y-54510000D02*
X130682500Y-54315000D01*
X131367432Y-53820000D02*
X130682500Y-54504932D01*
X130782500Y-52690000D02*
X130782500Y-52215000D01*
D52*
X115725000Y-75730000D02*
X115735000Y-75740000D01*
D51*
X132462500Y-53820000D02*
X131367432Y-53820000D01*
D52*
X122155000Y-76665000D02*
X126790000Y-76665000D01*
X112855000Y-74755000D02*
X113830000Y-75730000D01*
X120865000Y-75820000D02*
X121310000Y-75820000D01*
X116815000Y-76820000D02*
X119865000Y-76820000D01*
X111492936Y-74755000D02*
X112855000Y-74755000D01*
X127540000Y-43665000D02*
X126710000Y-42835000D01*
X127810000Y-54679564D02*
X127540000Y-54409564D01*
D51*
X187450000Y-71532894D02*
X180422894Y-78560000D01*
X187622500Y-50680000D02*
X187622500Y-51722500D01*
X134650000Y-58396062D02*
X134568277Y-58477785D01*
D52*
X113830000Y-75730000D02*
X115725000Y-75730000D01*
X126252500Y-45120000D02*
X128812500Y-45120000D01*
X127810000Y-57570000D02*
X127810000Y-54679564D01*
D51*
X132570000Y-73010000D02*
X132379216Y-73010000D01*
D52*
X129699216Y-75690000D02*
X132379216Y-73010000D01*
X108770000Y-72750000D02*
X108770000Y-74100000D01*
X115735000Y-75740000D02*
X116815000Y-76820000D01*
X126790000Y-76665000D02*
X127765000Y-75690000D01*
X130682500Y-54510000D02*
X130682500Y-52790000D01*
D51*
X187450000Y-53550000D02*
X187450000Y-71532894D01*
D52*
X130622500Y-54570000D02*
X130682500Y-54510000D01*
X128812500Y-45120000D02*
X128862500Y-45070000D01*
X127540000Y-54409564D02*
X127540000Y-43665000D01*
X108770000Y-74100000D02*
X109450000Y-74780000D01*
D51*
X132462500Y-54320000D02*
X132462500Y-53820000D01*
X188450000Y-52550000D02*
X187450000Y-53550000D01*
D52*
X130622500Y-56320000D02*
X130622500Y-54570000D01*
D51*
X132334026Y-51501036D02*
X133150000Y-52317010D01*
D52*
X113957500Y-75857500D02*
X113830000Y-75730000D01*
X130682500Y-52790000D02*
X130782500Y-52690000D01*
X131630000Y-57327500D02*
X130622500Y-56320000D01*
D51*
X133150000Y-52317010D02*
X133150000Y-52632500D01*
X130682500Y-54504932D02*
X130682500Y-54510000D01*
D52*
X109450000Y-74780000D02*
X111467936Y-74780000D01*
X121310000Y-75820000D02*
X122155000Y-76665000D01*
D51*
X138120000Y-78560000D02*
X132570000Y-73010000D01*
D52*
X119865000Y-76820000D02*
X120865000Y-75820000D01*
X113957500Y-78150000D02*
X113957500Y-75857500D01*
X131630000Y-57570000D02*
X127810000Y-57570000D01*
X127765000Y-75690000D02*
X129699216Y-75690000D01*
D51*
X134650000Y-57507500D02*
X134650000Y-58396062D01*
X131496464Y-51501036D02*
X132334026Y-51501036D01*
D52*
X131630000Y-57570000D02*
X131630000Y-57327500D01*
D51*
X187622500Y-51722500D02*
X188450000Y-52550000D01*
D52*
X111467936Y-74780000D02*
X111492936Y-74755000D01*
D51*
X180422894Y-78560000D02*
X138120000Y-78560000D01*
%TO.N,Net-(U5-OSCOUT)*%
X137622500Y-49842500D02*
X138125000Y-50345000D01*
X137860096Y-54320000D02*
X137337500Y-54320000D01*
X137620000Y-49840000D02*
X137622500Y-49842500D01*
X138125000Y-50345000D02*
X138125000Y-54055096D01*
X136007500Y-48140000D02*
X137622500Y-49755000D01*
X135632500Y-48140000D02*
X136007500Y-48140000D01*
X138125000Y-54055096D02*
X137860096Y-54320000D01*
%TO.N,Net-(C10-Pad1)*%
X137085000Y-59775000D02*
X136345000Y-60515000D01*
X136345000Y-63665000D02*
X137130000Y-64450000D01*
X136345000Y-60515000D02*
X136345000Y-63665000D01*
D52*
%TO.N,Net-(ANT1-L1)*%
X151162500Y-51660000D02*
X151152500Y-51650000D01*
D51*
X151122500Y-51525000D02*
X151137500Y-51510000D01*
X140208298Y-61456702D02*
X140208298Y-53840000D01*
X140136495Y-62993505D02*
X140136495Y-61528505D01*
X138680000Y-64450000D02*
X140136495Y-62993505D01*
D52*
X151112500Y-51610000D02*
X151152500Y-51650000D01*
D51*
X140136495Y-61528505D02*
X140208298Y-61456702D01*
D52*
X151112500Y-49490000D02*
X151112500Y-51610000D01*
X151162500Y-53760000D02*
X151162500Y-51660000D01*
%TO.N,Net-(C11-Pad1)*%
X131327500Y-60460000D02*
X133060000Y-60460000D01*
D51*
X133905000Y-59615000D02*
X135171347Y-59615000D01*
X149437500Y-53760000D02*
X148841651Y-53760000D01*
X133080000Y-60440000D02*
X133905000Y-59615000D01*
D52*
X133060000Y-60460000D02*
X133080000Y-60440000D01*
D51*
X135273362Y-59512985D02*
X135420000Y-59512985D01*
X135171347Y-59615000D02*
X135273362Y-59512985D01*
X148841651Y-53760000D02*
X148139571Y-54462080D01*
D52*
%TO.N,Net-(C12-Pad2)*%
X148080000Y-55920000D02*
X148070000Y-55910000D01*
X133036250Y-62080000D02*
X133066250Y-62110000D01*
X131323750Y-62080000D02*
X133036250Y-62080000D01*
D51*
X133152582Y-61949944D02*
X133152582Y-62110000D01*
X133746263Y-61356263D02*
X133152582Y-61949944D01*
X133152582Y-62110000D02*
X133066250Y-62110000D01*
X149427500Y-55920000D02*
X148080000Y-55920000D01*
D55*
%TO.N,Net-(U1-RXD0{slash}IO3)*%
X112295000Y-49905908D02*
X110890000Y-51310908D01*
X110890000Y-51310908D02*
X110890000Y-52980000D01*
X115480000Y-44669092D02*
X112295000Y-47854092D01*
X112295000Y-47854092D02*
X112295000Y-49905908D01*
X110890000Y-52980000D02*
X112580000Y-54670000D01*
X112580000Y-54670000D02*
X112580000Y-55250000D01*
X115480000Y-43930000D02*
X115480000Y-44669092D01*
%TO.N,Net-(U1-TXD0{slash}IO1)*%
X109755000Y-47874092D02*
X109755000Y-52695000D01*
X114210000Y-44904999D02*
X111984999Y-47130000D01*
X110499092Y-47130000D02*
X109755000Y-47874092D01*
X111984999Y-47130000D02*
X110499092Y-47130000D01*
X109755000Y-52695000D02*
X111310000Y-54250000D01*
X114210000Y-43930000D02*
X114210000Y-44904999D01*
X111310000Y-54250000D02*
X111310000Y-55250000D01*
D52*
%TO.N,Net-(ANT1-L2)*%
X151175000Y-60382500D02*
X151182500Y-60390000D01*
X151152500Y-58127500D02*
X151175000Y-58150000D01*
X151175000Y-58150000D02*
X151175000Y-60382500D01*
X151152500Y-55920000D02*
X151152500Y-58127500D01*
X151102500Y-58270000D02*
X151062500Y-58310000D01*
D51*
%TO.N,Net-(D4-DIN)*%
X188450000Y-57450000D02*
X188110000Y-57790000D01*
X188110000Y-57790000D02*
X188110000Y-71580000D01*
X121550000Y-56530000D02*
X121550000Y-55330000D01*
X137700761Y-79060000D02*
X135450761Y-76810000D01*
X121550000Y-55330000D02*
X121470000Y-55250000D01*
X135450761Y-76810000D02*
X134990000Y-76810000D01*
X188110000Y-71580000D02*
X180630000Y-79060000D01*
X180630000Y-79060000D02*
X137700761Y-79060000D01*
%TO.N,Net-(U2-UD-)*%
X111250000Y-42105001D02*
X111250000Y-37050000D01*
X110400000Y-43930000D02*
X110400000Y-42955001D01*
X110400000Y-42955001D02*
X111250000Y-42105001D01*
X111250000Y-37050000D02*
X111750000Y-37050000D01*
%TO.N,Net-(J1-CC1)*%
X114345000Y-39270000D02*
X113945000Y-39270000D01*
X113240000Y-38565000D02*
X113240000Y-37050000D01*
X113945000Y-39270000D02*
X113240000Y-38565000D01*
%TO.N,Net-(U2-UD+)*%
X112235000Y-36200000D02*
X112250000Y-36215000D01*
X111670000Y-43930000D02*
X112250000Y-43350000D01*
X110750000Y-36215000D02*
X110765000Y-36200000D01*
X112250000Y-36215000D02*
X112250000Y-37050000D01*
X112250000Y-43350000D02*
X112250000Y-37050000D01*
X110765000Y-36200000D02*
X112235000Y-36200000D01*
X110750000Y-37050000D02*
X110750000Y-36215000D01*
%TO.N,Net-(J1-CC2)*%
X109575000Y-39300000D02*
X110250000Y-38625000D01*
X110250000Y-38625000D02*
X110250000Y-37050000D01*
D55*
%TO.N,Net-(U5-TX1)*%
X133874740Y-58270000D02*
X134150000Y-57994740D01*
X129577500Y-59985000D02*
X131292500Y-58270000D01*
X134150000Y-57994740D02*
X134150000Y-57507500D01*
X131292500Y-58270000D02*
X133874740Y-58270000D01*
X129577500Y-60460000D02*
X129577500Y-59985000D01*
%TO.N,Net-(U5-TX2)*%
X135245000Y-58230405D02*
X135150000Y-58135405D01*
X130477500Y-59982924D02*
X131320424Y-59140000D01*
X134838390Y-59140000D02*
X135245000Y-58733390D01*
X135245000Y-58733390D02*
X135245000Y-58230405D01*
X130477500Y-61176250D02*
X130477500Y-59982924D01*
X135150000Y-58135405D02*
X135150000Y-57507500D01*
X129573750Y-62080000D02*
X130477500Y-61176250D01*
X131320424Y-59140000D02*
X134838390Y-59140000D01*
D52*
%TO.N,Net-(Q5-C)*%
X130990000Y-65000000D02*
X137379216Y-71389216D01*
X137379216Y-71389216D02*
X137379216Y-73010000D01*
D55*
%TO.N,Net-(Q5-B)*%
X126780000Y-56170000D02*
X126780000Y-61715000D01*
X126780000Y-61715000D02*
X129115000Y-64050000D01*
X121845000Y-52770000D02*
X123380000Y-52770000D01*
X123380000Y-52770000D02*
X126780000Y-56170000D01*
%TO.N,Net-(U1-IO17)*%
X120200000Y-55250000D02*
X120200000Y-52775000D01*
X120200000Y-52775000D02*
X120195000Y-52770000D01*
D51*
%TO.N,/RST*%
X117660000Y-72120000D02*
X120830000Y-68950000D01*
X131641005Y-55914364D02*
X131735369Y-55820000D01*
X131735369Y-55820000D02*
X132462500Y-55820000D01*
X117660000Y-72750000D02*
X117660000Y-74265000D01*
X117660000Y-74265000D02*
X119215000Y-75820000D01*
X120868281Y-64100399D02*
X120868281Y-59810000D01*
X120830000Y-64138680D02*
X120868281Y-64100399D01*
X120830000Y-68950000D02*
X120830000Y-64138680D01*
X117660000Y-72750000D02*
X117660000Y-72120000D01*
%TO.N,Net-(U5-RX)*%
X137337500Y-56820000D02*
X138735000Y-58217500D01*
X138735000Y-58217500D02*
X138735000Y-59775000D01*
X138735000Y-61310000D02*
X138745000Y-61320000D01*
X138735000Y-59775000D02*
X138735000Y-61310000D01*
%TO.N,Net-(U5-VMID)*%
X137095000Y-62830000D02*
X137145000Y-62880000D01*
X137095000Y-61320000D02*
X137095000Y-62830000D01*
X137980000Y-60435000D02*
X137980000Y-59411642D01*
X136650000Y-58081642D02*
X136650000Y-57507500D01*
X137980000Y-59411642D02*
X136650000Y-58081642D01*
X137095000Y-61320000D02*
X137980000Y-60435000D01*
%TO.N,/MISO*%
X133650000Y-52632500D02*
X133650000Y-52109904D01*
X122740000Y-59370000D02*
X123400000Y-58710000D01*
X133650000Y-52109904D02*
X132444747Y-50904651D01*
X122740000Y-72750000D02*
X122740000Y-59370000D01*
X132444747Y-50904651D02*
X131182558Y-50904651D01*
X123400000Y-58710000D02*
X123400000Y-57150000D01*
%TO.N,/CS*%
X120168283Y-68551717D02*
X120168283Y-59416191D01*
X116390000Y-72120000D02*
X116860000Y-71650000D01*
X117070000Y-71650000D02*
X120168283Y-68551717D01*
X137337500Y-53320000D02*
X137337500Y-52455000D01*
X120168283Y-59416191D02*
X120501058Y-59083416D01*
X116390000Y-72750000D02*
X116390000Y-72120000D01*
X116860000Y-71650000D02*
X117070000Y-71650000D01*
%TO.N,/MOSI*%
X121520000Y-58061073D02*
X122221169Y-57359904D01*
X120200000Y-72750000D02*
X120200000Y-71700000D01*
X121330000Y-64345787D02*
X121520000Y-64155788D01*
X120200000Y-71700000D02*
X121330000Y-70570000D01*
X121330000Y-70570000D02*
X121330000Y-64345787D01*
X121520000Y-64155788D02*
X121520000Y-58061073D01*
X134150000Y-51407500D02*
X133682500Y-50940000D01*
X134150000Y-52632500D02*
X134150000Y-51407500D01*
%TO.N,/SCK*%
X122020000Y-58754979D02*
X122748127Y-58026852D01*
X121470000Y-72750000D02*
X121470000Y-71700000D01*
X121470000Y-71700000D02*
X122020000Y-71150000D01*
X134650000Y-52632500D02*
X134650000Y-51840000D01*
X134650000Y-51840000D02*
X135000000Y-51490000D01*
X122020000Y-71150000D02*
X122020000Y-58754979D01*
D52*
%TO.N,Net-(D3-A)*%
X132630000Y-32930000D02*
X132630000Y-32470000D01*
X127317500Y-38645000D02*
X127317500Y-38005000D01*
X126710000Y-38825000D02*
X126710000Y-40560000D01*
X128962500Y-36360000D02*
X130187500Y-35135000D01*
X126530000Y-38645000D02*
X127317500Y-38645000D01*
X126530000Y-38645000D02*
X126710000Y-38825000D01*
D51*
X133020000Y-32440000D02*
X133020000Y-32940000D01*
D52*
X132630000Y-33332500D02*
X132630000Y-32470000D01*
X127317500Y-38005000D02*
X128962500Y-36360000D01*
X130187500Y-35135000D02*
X130425000Y-35135000D01*
X130425000Y-35135000D02*
X132630000Y-32930000D01*
X133020000Y-33252500D02*
X133020000Y-32440000D01*
D51*
%TO.N,Net-(D3-K)*%
X143760000Y-32457500D02*
X143825000Y-32522500D01*
X143760000Y-31022500D02*
X143760000Y-32457500D01*
%TD*%
%TA.AperFunction,Conductor*%
%TO.N,GND*%
G36*
X127733586Y-30220185D02*
G01*
X127779341Y-30272989D01*
X127789285Y-30342147D01*
X127760260Y-30405703D01*
X127722841Y-30434985D01*
X127691153Y-30451130D01*
X127487350Y-30599201D01*
X127487345Y-30599205D01*
X127309205Y-30777345D01*
X127309201Y-30777350D01*
X127161132Y-30981151D01*
X127046760Y-31205616D01*
X126968910Y-31445214D01*
X126929500Y-31694038D01*
X126929500Y-33245961D01*
X126968910Y-33494785D01*
X127046760Y-33734383D01*
X127121421Y-33880911D01*
X127156149Y-33949070D01*
X127161132Y-33958848D01*
X127309201Y-34162649D01*
X127309205Y-34162654D01*
X127487345Y-34340794D01*
X127487350Y-34340798D01*
X127604079Y-34425606D01*
X127691155Y-34488870D01*
X127834184Y-34561747D01*
X127915616Y-34603239D01*
X127915618Y-34603239D01*
X127915621Y-34603241D01*
X128155215Y-34681090D01*
X128404038Y-34720500D01*
X128404039Y-34720500D01*
X128655961Y-34720500D01*
X128655962Y-34720500D01*
X128904785Y-34681090D01*
X129144379Y-34603241D01*
X129349608Y-34498671D01*
X129418275Y-34485776D01*
X129483016Y-34512052D01*
X129523273Y-34569158D01*
X129526265Y-34638964D01*
X129493582Y-34696838D01*
X129092239Y-35098181D01*
X129030916Y-35131666D01*
X129004558Y-35134500D01*
X128574998Y-35134500D01*
X128574980Y-35134501D01*
X128472203Y-35145000D01*
X128472200Y-35145001D01*
X128305668Y-35200185D01*
X128305663Y-35200187D01*
X128156342Y-35292289D01*
X128032288Y-35416343D01*
X128032285Y-35416347D01*
X127984608Y-35493644D01*
X127932660Y-35540369D01*
X127863698Y-35551590D01*
X127799616Y-35523747D01*
X127774077Y-35494519D01*
X127769816Y-35487738D01*
X127642262Y-35360184D01*
X127642260Y-35360182D01*
X127642257Y-35360180D01*
X127576900Y-35319114D01*
X127573982Y-35317223D01*
X127519179Y-35280605D01*
X127519173Y-35280603D01*
X127518365Y-35280268D01*
X127499865Y-35270709D01*
X127489524Y-35264212D01*
X127489523Y-35264211D01*
X127489522Y-35264211D01*
X127428867Y-35242986D01*
X127422377Y-35240509D01*
X127373496Y-35220262D01*
X127359860Y-35217550D01*
X127343104Y-35212976D01*
X127319260Y-35204633D01*
X127319256Y-35204632D01*
X127319255Y-35204632D01*
X127298575Y-35202301D01*
X127268303Y-35198890D01*
X127258003Y-35197288D01*
X127218844Y-35189500D01*
X127218842Y-35189500D01*
X127191915Y-35189500D01*
X127178031Y-35188720D01*
X127140002Y-35184435D01*
X127139998Y-35184435D01*
X127101969Y-35188720D01*
X127088085Y-35189500D01*
X126214374Y-35189500D01*
X126147335Y-35169815D01*
X126126693Y-35153181D01*
X126015544Y-35042032D01*
X126015540Y-35042029D01*
X125871205Y-34953001D01*
X125871199Y-34952998D01*
X125871197Y-34952997D01*
X125871194Y-34952996D01*
X125710209Y-34899651D01*
X125643251Y-34892810D01*
X125578560Y-34866413D01*
X125538409Y-34809232D01*
X125535546Y-34739421D01*
X125568174Y-34681771D01*
X125680788Y-34569158D01*
X125950277Y-34299669D01*
X126021466Y-34193126D01*
X126070501Y-34074743D01*
X126080946Y-34022237D01*
X126095500Y-33949069D01*
X126095500Y-32293431D01*
X126095500Y-32293428D01*
X126070502Y-32167761D01*
X126070501Y-32167760D01*
X126070501Y-32167756D01*
X126041641Y-32098081D01*
X126021466Y-32049374D01*
X126003633Y-32022685D01*
X125950278Y-31942832D01*
X125950272Y-31942825D01*
X125681819Y-31674372D01*
X125648334Y-31613049D01*
X125645500Y-31586691D01*
X125645500Y-31315831D01*
X125645499Y-31315818D01*
X125635436Y-31217316D01*
X125622220Y-31177432D01*
X125582549Y-31057713D01*
X125582545Y-31057707D01*
X125582544Y-31057704D01*
X125494283Y-30914612D01*
X125494280Y-30914608D01*
X125375391Y-30795719D01*
X125375387Y-30795716D01*
X125232295Y-30707455D01*
X125232289Y-30707452D01*
X125232287Y-30707451D01*
X125072685Y-30654564D01*
X125072683Y-30654563D01*
X124974181Y-30644500D01*
X124974174Y-30644500D01*
X124440826Y-30644500D01*
X124440818Y-30644500D01*
X124342316Y-30654563D01*
X124342315Y-30654564D01*
X124263219Y-30680773D01*
X124182715Y-30707450D01*
X124182704Y-30707455D01*
X124039612Y-30795716D01*
X124039608Y-30795719D01*
X124007681Y-30827647D01*
X123946358Y-30861132D01*
X123876666Y-30856148D01*
X123832319Y-30827647D01*
X123800391Y-30795719D01*
X123800387Y-30795716D01*
X123657295Y-30707455D01*
X123657289Y-30707452D01*
X123657287Y-30707451D01*
X123497685Y-30654564D01*
X123497683Y-30654563D01*
X123399181Y-30644500D01*
X123399174Y-30644500D01*
X122865826Y-30644500D01*
X122865818Y-30644500D01*
X122767316Y-30654563D01*
X122767315Y-30654564D01*
X122688219Y-30680773D01*
X122607715Y-30707450D01*
X122607704Y-30707455D01*
X122464612Y-30795716D01*
X122464608Y-30795719D01*
X122345716Y-30914611D01*
X122318932Y-30958035D01*
X122266984Y-31004758D01*
X122198021Y-31015979D01*
X122133939Y-30988135D01*
X122106665Y-30956060D01*
X122060581Y-30878135D01*
X122060578Y-30878132D01*
X122060576Y-30878129D01*
X121944370Y-30761923D01*
X121944362Y-30761917D01*
X121852264Y-30707451D01*
X121802898Y-30678256D01*
X121802897Y-30678255D01*
X121802896Y-30678255D01*
X121802893Y-30678254D01*
X121645073Y-30632402D01*
X121645067Y-30632401D01*
X121608201Y-30629500D01*
X121608194Y-30629500D01*
X121108842Y-30629500D01*
X120472948Y-30629500D01*
X120315264Y-30629500D01*
X120315261Y-30629500D01*
X120160616Y-30660261D01*
X120160604Y-30660264D01*
X120014933Y-30720602D01*
X120014920Y-30720609D01*
X119883820Y-30808208D01*
X119879113Y-30812072D01*
X119877464Y-30810063D01*
X119826009Y-30838113D01*
X119756321Y-30833079D01*
X119712056Y-30804609D01*
X119669370Y-30761923D01*
X119669362Y-30761917D01*
X119577264Y-30707451D01*
X119527898Y-30678256D01*
X119527897Y-30678255D01*
X119527896Y-30678255D01*
X119527893Y-30678254D01*
X119370073Y-30632402D01*
X119370067Y-30632401D01*
X119333201Y-30629500D01*
X119333194Y-30629500D01*
X118176806Y-30629500D01*
X118176798Y-30629500D01*
X118139932Y-30632401D01*
X118139926Y-30632402D01*
X117982106Y-30678254D01*
X117982103Y-30678255D01*
X117840637Y-30761917D01*
X117840629Y-30761923D01*
X117724423Y-30878129D01*
X117724417Y-30878137D01*
X117640755Y-31019603D01*
X117640754Y-31019606D01*
X117594902Y-31177426D01*
X117594901Y-31177432D01*
X117592000Y-31214298D01*
X117592000Y-31480270D01*
X117572315Y-31547309D01*
X117555681Y-31567951D01*
X117146379Y-31977252D01*
X117085056Y-32010737D01*
X117015364Y-32005753D01*
X116959431Y-31963881D01*
X116940767Y-31927889D01*
X116885748Y-31758555D01*
X116885747Y-31758552D01*
X116803565Y-31597265D01*
X116697176Y-31450830D01*
X116569169Y-31322823D01*
X116422734Y-31216434D01*
X116261447Y-31134252D01*
X116261441Y-31134250D01*
X116089295Y-31078318D01*
X116089285Y-31078315D01*
X116070000Y-31075260D01*
X116070000Y-32033011D01*
X116060060Y-32015795D01*
X116004205Y-31959940D01*
X115935796Y-31920444D01*
X115859496Y-31900000D01*
X115780504Y-31900000D01*
X115704204Y-31920444D01*
X115635795Y-31959940D01*
X115579940Y-32015795D01*
X115570000Y-32033011D01*
X115570000Y-31075260D01*
X115550714Y-31078315D01*
X115550704Y-31078318D01*
X115378558Y-31134250D01*
X115378552Y-31134252D01*
X115217265Y-31216434D01*
X115070830Y-31322823D01*
X114942823Y-31450830D01*
X114836434Y-31597265D01*
X114754252Y-31758552D01*
X114754251Y-31758555D01*
X114698317Y-31930706D01*
X114670000Y-32109493D01*
X114670000Y-32600000D01*
X115520000Y-32600000D01*
X115520000Y-33100000D01*
X114670000Y-33100000D01*
X114670000Y-33590506D01*
X114698317Y-33769293D01*
X114754251Y-33941444D01*
X114754252Y-33941447D01*
X114836434Y-34102734D01*
X114942823Y-34249169D01*
X115070830Y-34377176D01*
X115217265Y-34483565D01*
X115378552Y-34565747D01*
X115378555Y-34565748D01*
X115550699Y-34621680D01*
X115550712Y-34621683D01*
X115570000Y-34624738D01*
X115570000Y-33666988D01*
X115579940Y-33684205D01*
X115635795Y-33740060D01*
X115704204Y-33779556D01*
X115780504Y-33800000D01*
X115859496Y-33800000D01*
X115935796Y-33779556D01*
X116004205Y-33740060D01*
X116060060Y-33684205D01*
X116070000Y-33666988D01*
X116070000Y-34624737D01*
X116089287Y-34621683D01*
X116089300Y-34621680D01*
X116261444Y-34565748D01*
X116261447Y-34565747D01*
X116422734Y-34483565D01*
X116569169Y-34377176D01*
X116569173Y-34377172D01*
X116680319Y-34266027D01*
X116741642Y-34232542D01*
X116811334Y-34237526D01*
X116867267Y-34279398D01*
X116891684Y-34344862D01*
X116892000Y-34353708D01*
X116892000Y-35321292D01*
X116872315Y-35388331D01*
X116819511Y-35434086D01*
X116750353Y-35444030D01*
X116686797Y-35415005D01*
X116680319Y-35408973D01*
X116569169Y-35297823D01*
X116422734Y-35191434D01*
X116261447Y-35109252D01*
X116261441Y-35109250D01*
X116089295Y-35053318D01*
X116089285Y-35053315D01*
X116070000Y-35050260D01*
X116070000Y-36008011D01*
X116060060Y-35990795D01*
X116004205Y-35934940D01*
X115935796Y-35895444D01*
X115859496Y-35875000D01*
X115780504Y-35875000D01*
X115704204Y-35895444D01*
X115635795Y-35934940D01*
X115579940Y-35990795D01*
X115570000Y-36008011D01*
X115570000Y-35050260D01*
X115550714Y-35053315D01*
X115550704Y-35053318D01*
X115378558Y-35109250D01*
X115378552Y-35109252D01*
X115217265Y-35191434D01*
X115070830Y-35297823D01*
X114942828Y-35425825D01*
X114934657Y-35437073D01*
X114879327Y-35479738D01*
X114809713Y-35485716D01*
X114772340Y-35471573D01*
X114712488Y-35437017D01*
X114712489Y-35437017D01*
X114701006Y-35433940D01*
X114572475Y-35399500D01*
X114427525Y-35399500D01*
X114298993Y-35433940D01*
X114287511Y-35437017D01*
X114161988Y-35509488D01*
X114161982Y-35509493D01*
X114059493Y-35611982D01*
X114059488Y-35611988D01*
X113987017Y-35737511D01*
X113987016Y-35737515D01*
X113949500Y-35877525D01*
X113949500Y-35877527D01*
X113949500Y-35925500D01*
X113929815Y-35992539D01*
X113877011Y-36038294D01*
X113825500Y-36049500D01*
X113542131Y-36049500D01*
X113542121Y-36049501D01*
X113500754Y-36053948D01*
X113474247Y-36053948D01*
X113432873Y-36049500D01*
X113067130Y-36049500D01*
X113067123Y-36049501D01*
X113013253Y-36055292D01*
X112986745Y-36055292D01*
X112956488Y-36052039D01*
X112891937Y-36025300D01*
X112855182Y-35976201D01*
X112826468Y-35906879D01*
X112826461Y-35906866D01*
X112755276Y-35800331D01*
X112755273Y-35800327D01*
X112711449Y-35756504D01*
X112711447Y-35756501D01*
X112649671Y-35694725D01*
X112649670Y-35694724D01*
X112649669Y-35694723D01*
X112543127Y-35623535D01*
X112543122Y-35623533D01*
X112424744Y-35574499D01*
X112424738Y-35574497D01*
X112299071Y-35549500D01*
X112299069Y-35549500D01*
X110700931Y-35549500D01*
X110700929Y-35549500D01*
X110575261Y-35574497D01*
X110575255Y-35574499D01*
X110456875Y-35623533D01*
X110456866Y-35623538D01*
X110350334Y-35694721D01*
X110350329Y-35694725D01*
X110244727Y-35800325D01*
X110244726Y-35800326D01*
X110183558Y-35891873D01*
X110183556Y-35891875D01*
X110173537Y-35906868D01*
X110173535Y-35906871D01*
X110144817Y-35976203D01*
X110100975Y-36030606D01*
X110043512Y-36052038D01*
X110013256Y-36055291D01*
X109986747Y-36055292D01*
X109971723Y-36053676D01*
X109932873Y-36049500D01*
X109932866Y-36049500D01*
X109567131Y-36049500D01*
X109567121Y-36049501D01*
X109525754Y-36053948D01*
X109499247Y-36053948D01*
X109457873Y-36049500D01*
X109299500Y-36049500D01*
X109232461Y-36029815D01*
X109186706Y-35977011D01*
X109175500Y-35925500D01*
X109175500Y-35877527D01*
X109175500Y-35877525D01*
X109137984Y-35737515D01*
X109134974Y-35732302D01*
X109065511Y-35611988D01*
X109065506Y-35611982D01*
X108963017Y-35509493D01*
X108963011Y-35509488D01*
X108837488Y-35437017D01*
X108837489Y-35437017D01*
X108826006Y-35433940D01*
X108697475Y-35399500D01*
X108302525Y-35399500D01*
X108162515Y-35437016D01*
X108162513Y-35437016D01*
X108157411Y-35438384D01*
X108087561Y-35436721D01*
X108037636Y-35406290D01*
X107929169Y-35297823D01*
X107782734Y-35191434D01*
X107621447Y-35109252D01*
X107621441Y-35109250D01*
X107449295Y-35053318D01*
X107449285Y-35053315D01*
X107430000Y-35050260D01*
X107430000Y-36008011D01*
X107420060Y-35990795D01*
X107364205Y-35934940D01*
X107295796Y-35895444D01*
X107219496Y-35875000D01*
X107140504Y-35875000D01*
X107064204Y-35895444D01*
X106995795Y-35934940D01*
X106939940Y-35990795D01*
X106930000Y-36008011D01*
X106930000Y-35050260D01*
X106910714Y-35053315D01*
X106910704Y-35053318D01*
X106738558Y-35109250D01*
X106738552Y-35109252D01*
X106577265Y-35191434D01*
X106430830Y-35297823D01*
X106302823Y-35425830D01*
X106196434Y-35572265D01*
X106114252Y-35733552D01*
X106114251Y-35733555D01*
X106058317Y-35905706D01*
X106030000Y-36084493D01*
X106030000Y-36425000D01*
X106880000Y-36425000D01*
X106880000Y-36925000D01*
X106030000Y-36925000D01*
X106030000Y-37265506D01*
X106058317Y-37444293D01*
X106114251Y-37616444D01*
X106114252Y-37616447D01*
X106196434Y-37777734D01*
X106302823Y-37924169D01*
X106430830Y-38052176D01*
X106577265Y-38158565D01*
X106738552Y-38240747D01*
X106738555Y-38240748D01*
X106910699Y-38296680D01*
X106910712Y-38296683D01*
X106930000Y-38299738D01*
X106930000Y-37341988D01*
X106939940Y-37359205D01*
X106995795Y-37415060D01*
X107064204Y-37454556D01*
X107140504Y-37475000D01*
X107219496Y-37475000D01*
X107295796Y-37454556D01*
X107364205Y-37415060D01*
X107420060Y-37359205D01*
X107430000Y-37341988D01*
X107430000Y-38315432D01*
X107410315Y-38382471D01*
X107370150Y-38421549D01*
X107290122Y-38469927D01*
X107169927Y-38590122D01*
X107081980Y-38735604D01*
X107031409Y-38897893D01*
X107025000Y-38968427D01*
X107025000Y-39050000D01*
X107675000Y-39050000D01*
X107675000Y-38289447D01*
X107694685Y-38222408D01*
X107742705Y-38178962D01*
X107782731Y-38158567D01*
X107918210Y-38060136D01*
X107984017Y-38036656D01*
X108024828Y-38042821D01*
X108025067Y-38041813D01*
X108032622Y-38043597D01*
X108092155Y-38049999D01*
X108092172Y-38050000D01*
X108234748Y-38050000D01*
X108301787Y-38069685D01*
X108347542Y-38122489D01*
X108357969Y-38160118D01*
X108361534Y-38191763D01*
X108349478Y-38260585D01*
X108302128Y-38311964D01*
X108234517Y-38329587D01*
X108227092Y-38329136D01*
X108181572Y-38325000D01*
X108175000Y-38325000D01*
X108175000Y-40274999D01*
X108181581Y-40274999D01*
X108252102Y-40268591D01*
X108252107Y-40268590D01*
X108414396Y-40218018D01*
X108559877Y-40130072D01*
X108559878Y-40130071D01*
X108661963Y-40027985D01*
X108723286Y-39994499D01*
X108792977Y-39999483D01*
X108837326Y-40027984D01*
X108939811Y-40130469D01*
X108939813Y-40130470D01*
X108939815Y-40130472D01*
X109085394Y-40218478D01*
X109247804Y-40269086D01*
X109318384Y-40275500D01*
X109318387Y-40275500D01*
X109831613Y-40275500D01*
X109831616Y-40275500D01*
X109902196Y-40269086D01*
X110064606Y-40218478D01*
X110210185Y-40130472D01*
X110330472Y-40010185D01*
X110369385Y-39945814D01*
X110420911Y-39898630D01*
X110489770Y-39886791D01*
X110554099Y-39914060D01*
X110593473Y-39971778D01*
X110599500Y-40009967D01*
X110599500Y-41784192D01*
X110579815Y-41851231D01*
X110563181Y-41871873D01*
X109894729Y-42540325D01*
X109894726Y-42540327D01*
X109889373Y-42548339D01*
X109854028Y-42581790D01*
X109854298Y-42582138D01*
X109850772Y-42584872D01*
X109849404Y-42586168D01*
X109848134Y-42586918D01*
X109841971Y-42591700D01*
X109840081Y-42589264D01*
X109791296Y-42615871D01*
X109721607Y-42610850D01*
X109689294Y-42590072D01*
X109688031Y-42591702D01*
X109681862Y-42586917D01*
X109561330Y-42515635D01*
X109540398Y-42503256D01*
X109540397Y-42503255D01*
X109540396Y-42503255D01*
X109540393Y-42503254D01*
X109382573Y-42457402D01*
X109382567Y-42457401D01*
X109345701Y-42454500D01*
X109345694Y-42454500D01*
X108914306Y-42454500D01*
X108914298Y-42454500D01*
X108877432Y-42457401D01*
X108877426Y-42457402D01*
X108719606Y-42503254D01*
X108719603Y-42503255D01*
X108578137Y-42586917D01*
X108571969Y-42591702D01*
X108570072Y-42589256D01*
X108521358Y-42615857D01*
X108451666Y-42610873D01*
X108419296Y-42590069D01*
X108418031Y-42591702D01*
X108411862Y-42586917D01*
X108291330Y-42515635D01*
X108270398Y-42503256D01*
X108270397Y-42503255D01*
X108270396Y-42503255D01*
X108270393Y-42503254D01*
X108112573Y-42457402D01*
X108112567Y-42457401D01*
X108075701Y-42454500D01*
X108075694Y-42454500D01*
X107644306Y-42454500D01*
X107644298Y-42454500D01*
X107607432Y-42457401D01*
X107607426Y-42457402D01*
X107449606Y-42503254D01*
X107449603Y-42503255D01*
X107308137Y-42586917D01*
X107308129Y-42586923D01*
X107191923Y-42703129D01*
X107191917Y-42703137D01*
X107108255Y-42844603D01*
X107108254Y-42844606D01*
X107062402Y-43002426D01*
X107062401Y-43002432D01*
X107059500Y-43039298D01*
X107059500Y-44820701D01*
X107062401Y-44857567D01*
X107062402Y-44857573D01*
X107108254Y-45015393D01*
X107108255Y-45015396D01*
X107191917Y-45156862D01*
X107191923Y-45156870D01*
X107308129Y-45273076D01*
X107308133Y-45273079D01*
X107308135Y-45273081D01*
X107449602Y-45356744D01*
X107491224Y-45368836D01*
X107607426Y-45402597D01*
X107607429Y-45402597D01*
X107607431Y-45402598D01*
X107644306Y-45405500D01*
X107644314Y-45405500D01*
X108075686Y-45405500D01*
X108075694Y-45405500D01*
X108112569Y-45402598D01*
X108112571Y-45402597D01*
X108112573Y-45402597D01*
X108197586Y-45377898D01*
X108270398Y-45356744D01*
X108411865Y-45273081D01*
X108411870Y-45273075D01*
X108418031Y-45268298D01*
X108419933Y-45270750D01*
X108468579Y-45244155D01*
X108538274Y-45249104D01*
X108570695Y-45269940D01*
X108571969Y-45268298D01*
X108578132Y-45273078D01*
X108578135Y-45273081D01*
X108719602Y-45356744D01*
X108761224Y-45368836D01*
X108877426Y-45402597D01*
X108877429Y-45402597D01*
X108877431Y-45402598D01*
X108914306Y-45405500D01*
X108914314Y-45405500D01*
X109345686Y-45405500D01*
X109345694Y-45405500D01*
X109382569Y-45402598D01*
X109382571Y-45402597D01*
X109382573Y-45402597D01*
X109467586Y-45377898D01*
X109540398Y-45356744D01*
X109681865Y-45273081D01*
X109681870Y-45273075D01*
X109688031Y-45268298D01*
X109689933Y-45270750D01*
X109738579Y-45244155D01*
X109808274Y-45249104D01*
X109840695Y-45269940D01*
X109841969Y-45268298D01*
X109848132Y-45273078D01*
X109848135Y-45273081D01*
X109989602Y-45356744D01*
X110031224Y-45368836D01*
X110147426Y-45402597D01*
X110147429Y-45402597D01*
X110147431Y-45402598D01*
X110184306Y-45405500D01*
X110184314Y-45405500D01*
X110615686Y-45405500D01*
X110615694Y-45405500D01*
X110652569Y-45402598D01*
X110652571Y-45402597D01*
X110652573Y-45402597D01*
X110737586Y-45377898D01*
X110810398Y-45356744D01*
X110951865Y-45273081D01*
X110951870Y-45273075D01*
X110958031Y-45268298D01*
X110959933Y-45270750D01*
X111008579Y-45244155D01*
X111078274Y-45249104D01*
X111110695Y-45269940D01*
X111111969Y-45268298D01*
X111118132Y-45273078D01*
X111118135Y-45273081D01*
X111259602Y-45356744D01*
X111301224Y-45368836D01*
X111417426Y-45402597D01*
X111417429Y-45402597D01*
X111417431Y-45402598D01*
X111454306Y-45405500D01*
X111454314Y-45405500D01*
X111885686Y-45405500D01*
X111885694Y-45405500D01*
X111922569Y-45402598D01*
X111922571Y-45402597D01*
X111922573Y-45402597D01*
X112007586Y-45377898D01*
X112080398Y-45356744D01*
X112221865Y-45273081D01*
X112221870Y-45273075D01*
X112228031Y-45268298D01*
X112229933Y-45270750D01*
X112278579Y-45244155D01*
X112348274Y-45249104D01*
X112380695Y-45269940D01*
X112381969Y-45268298D01*
X112388132Y-45273078D01*
X112388135Y-45273081D01*
X112529602Y-45356744D01*
X112543169Y-45360685D01*
X112594860Y-45375704D01*
X112653746Y-45413310D01*
X112682952Y-45476783D01*
X112673206Y-45545969D01*
X112647946Y-45582461D01*
X111762228Y-46468181D01*
X111700905Y-46501666D01*
X111674547Y-46504500D01*
X110437484Y-46504500D01*
X110409190Y-46510128D01*
X110380896Y-46515756D01*
X110344068Y-46523081D01*
X110316637Y-46528537D01*
X110296635Y-46536823D01*
X110283299Y-46542347D01*
X110202811Y-46575684D01*
X110202797Y-46575692D01*
X110100364Y-46644138D01*
X110100356Y-46644144D01*
X109376320Y-47368181D01*
X109314997Y-47401666D01*
X109288639Y-47404500D01*
X108914298Y-47404500D01*
X108877432Y-47407401D01*
X108877426Y-47407402D01*
X108719606Y-47453254D01*
X108719603Y-47453255D01*
X108578137Y-47536917D01*
X108571969Y-47541702D01*
X108570072Y-47539256D01*
X108521358Y-47565857D01*
X108451666Y-47560873D01*
X108419296Y-47540069D01*
X108418031Y-47541702D01*
X108411862Y-47536917D01*
X108270396Y-47453255D01*
X108270393Y-47453254D01*
X108112573Y-47407402D01*
X108112567Y-47407401D01*
X108075701Y-47404500D01*
X108075694Y-47404500D01*
X107644306Y-47404500D01*
X107644298Y-47404500D01*
X107607432Y-47407401D01*
X107607426Y-47407402D01*
X107449606Y-47453254D01*
X107449603Y-47453255D01*
X107308137Y-47536917D01*
X107308129Y-47536923D01*
X107191923Y-47653129D01*
X107191917Y-47653137D01*
X107108255Y-47794603D01*
X107108254Y-47794606D01*
X107062402Y-47952426D01*
X107062401Y-47952432D01*
X107059500Y-47989298D01*
X107059500Y-49770701D01*
X107062401Y-49807567D01*
X107062402Y-49807573D01*
X107108254Y-49965393D01*
X107108255Y-49965396D01*
X107191917Y-50106862D01*
X107191923Y-50106870D01*
X107308129Y-50223076D01*
X107308133Y-50223079D01*
X107308135Y-50223081D01*
X107449602Y-50306744D01*
X107491224Y-50318836D01*
X107607426Y-50352597D01*
X107607429Y-50352597D01*
X107607431Y-50352598D01*
X107644306Y-50355500D01*
X107644314Y-50355500D01*
X108075686Y-50355500D01*
X108075694Y-50355500D01*
X108112569Y-50352598D01*
X108112571Y-50352597D01*
X108112573Y-50352597D01*
X108154191Y-50340505D01*
X108270398Y-50306744D01*
X108411865Y-50223081D01*
X108411870Y-50223075D01*
X108418031Y-50218298D01*
X108419933Y-50220750D01*
X108468579Y-50194155D01*
X108538274Y-50199104D01*
X108570695Y-50219940D01*
X108571969Y-50218298D01*
X108578132Y-50223078D01*
X108578135Y-50223081D01*
X108719602Y-50306744D01*
X108761224Y-50318836D01*
X108877426Y-50352597D01*
X108877429Y-50352597D01*
X108877431Y-50352598D01*
X108914306Y-50355500D01*
X109005500Y-50355500D01*
X109072539Y-50375185D01*
X109118294Y-50427989D01*
X109129500Y-50479500D01*
X109129500Y-52756606D01*
X109153537Y-52877452D01*
X109153538Y-52877454D01*
X109153538Y-52877456D01*
X109158539Y-52889530D01*
X109158540Y-52889531D01*
X109200685Y-52991281D01*
X109200687Y-52991284D01*
X109229519Y-53034433D01*
X109229520Y-53034435D01*
X109269141Y-53093732D01*
X109269144Y-53093736D01*
X109360586Y-53185178D01*
X109360608Y-53185198D01*
X109963229Y-53787819D01*
X109996714Y-53849142D01*
X109991730Y-53918834D01*
X109949858Y-53974767D01*
X109884394Y-53999184D01*
X109875548Y-53999500D01*
X109542130Y-53999500D01*
X109542123Y-53999501D01*
X109482518Y-54005908D01*
X109448331Y-54018659D01*
X109378639Y-54023642D01*
X109361669Y-54018659D01*
X109344140Y-54012121D01*
X109327483Y-54005909D01*
X109327482Y-54005908D01*
X109267883Y-53999501D01*
X109267881Y-53999500D01*
X109267873Y-53999500D01*
X109267864Y-53999500D01*
X108272129Y-53999500D01*
X108272123Y-53999501D01*
X108212520Y-54005908D01*
X108212517Y-54005908D01*
X108212517Y-54005909D01*
X108177620Y-54018925D01*
X108177617Y-54018926D01*
X108107925Y-54023909D01*
X108090952Y-54018925D01*
X108057379Y-54006403D01*
X108057372Y-54006401D01*
X107997844Y-54000000D01*
X107750000Y-54000000D01*
X107750000Y-56500000D01*
X107997828Y-56500000D01*
X107997844Y-56499999D01*
X108057372Y-56493598D01*
X108057375Y-56493597D01*
X108090949Y-56481075D01*
X108160640Y-56476089D01*
X108177619Y-56481075D01*
X108212511Y-56494089D01*
X108212512Y-56494089D01*
X108212517Y-56494091D01*
X108272127Y-56500500D01*
X109267872Y-56500499D01*
X109327483Y-56494091D01*
X109361667Y-56481340D01*
X109431358Y-56476357D01*
X109448327Y-56481338D01*
X109482517Y-56494091D01*
X109542127Y-56500500D01*
X110537872Y-56500499D01*
X110597483Y-56494091D01*
X110631667Y-56481340D01*
X110701358Y-56476357D01*
X110718327Y-56481338D01*
X110752517Y-56494091D01*
X110812127Y-56500500D01*
X111807872Y-56500499D01*
X111867483Y-56494091D01*
X111901667Y-56481340D01*
X111971358Y-56476357D01*
X111988327Y-56481338D01*
X112022517Y-56494091D01*
X112082127Y-56500500D01*
X113077872Y-56500499D01*
X113137483Y-56494091D01*
X113171667Y-56481340D01*
X113241358Y-56476357D01*
X113258327Y-56481338D01*
X113292517Y-56494091D01*
X113352127Y-56500500D01*
X114347872Y-56500499D01*
X114407483Y-56494091D01*
X114441667Y-56481340D01*
X114511358Y-56476357D01*
X114528327Y-56481338D01*
X114562517Y-56494091D01*
X114622127Y-56500500D01*
X115617872Y-56500499D01*
X115677483Y-56494091D01*
X115711667Y-56481340D01*
X115781358Y-56476357D01*
X115798327Y-56481338D01*
X115832517Y-56494091D01*
X115892127Y-56500500D01*
X116887872Y-56500499D01*
X116947483Y-56494091D01*
X116981667Y-56481340D01*
X117051358Y-56476357D01*
X117068327Y-56481338D01*
X117102517Y-56494091D01*
X117162127Y-56500500D01*
X118157872Y-56500499D01*
X118217483Y-56494091D01*
X118251667Y-56481340D01*
X118321358Y-56476357D01*
X118338327Y-56481338D01*
X118372517Y-56494091D01*
X118432127Y-56500500D01*
X118500193Y-56500499D01*
X118567230Y-56520183D01*
X118612986Y-56572986D01*
X118622930Y-56642144D01*
X118593906Y-56705700D01*
X118587873Y-56712180D01*
X109534727Y-65765325D01*
X109534726Y-65765326D01*
X109463534Y-65871874D01*
X109414499Y-65990255D01*
X109414497Y-65990261D01*
X109389500Y-66115928D01*
X109389500Y-71375500D01*
X109369815Y-71442539D01*
X109317011Y-71488294D01*
X109265500Y-71499500D01*
X108272129Y-71499500D01*
X108272123Y-71499501D01*
X108212520Y-71505908D01*
X108212517Y-71505908D01*
X108212517Y-71505909D01*
X108177620Y-71518925D01*
X108177617Y-71518926D01*
X108107925Y-71523909D01*
X108090952Y-71518925D01*
X108057379Y-71506403D01*
X108057372Y-71506401D01*
X107997844Y-71500000D01*
X107750000Y-71500000D01*
X107750000Y-74000000D01*
X107845500Y-74000000D01*
X107912539Y-74019685D01*
X107958294Y-74072489D01*
X107969500Y-74124000D01*
X107969500Y-74178846D01*
X108000261Y-74333489D01*
X108000264Y-74333501D01*
X108060602Y-74479172D01*
X108060609Y-74479185D01*
X108148210Y-74610288D01*
X108148213Y-74610292D01*
X108828211Y-75290289D01*
X108929577Y-75391655D01*
X108939712Y-75401790D01*
X109070814Y-75489390D01*
X109070827Y-75489397D01*
X109216498Y-75549735D01*
X109216503Y-75549737D01*
X109216507Y-75549737D01*
X109216508Y-75549738D01*
X109371154Y-75580500D01*
X109371157Y-75580500D01*
X111546780Y-75580500D01*
X111625290Y-75564882D01*
X111660481Y-75557882D01*
X111684672Y-75555500D01*
X112318500Y-75555500D01*
X112385539Y-75575185D01*
X112431294Y-75627989D01*
X112442500Y-75679500D01*
X112442500Y-75856000D01*
X112422815Y-75923039D01*
X112370011Y-75968794D01*
X112318500Y-75980000D01*
X111242501Y-75980000D01*
X111242501Y-76028322D01*
X111252644Y-76127607D01*
X111305952Y-76288481D01*
X111305957Y-76288492D01*
X111394924Y-76432728D01*
X111394927Y-76432732D01*
X111514767Y-76552572D01*
X111514771Y-76552575D01*
X111659007Y-76641542D01*
X111659018Y-76641547D01*
X111785003Y-76683294D01*
X111842448Y-76723066D01*
X111869271Y-76787582D01*
X111856956Y-76856358D01*
X111809413Y-76907558D01*
X111745999Y-76925000D01*
X111495029Y-76925000D01*
X111495012Y-76925001D01*
X111392302Y-76935494D01*
X111225880Y-76990641D01*
X111225875Y-76990643D01*
X111076654Y-77082684D01*
X110952684Y-77206654D01*
X110860643Y-77355875D01*
X110860641Y-77355880D01*
X110805494Y-77522302D01*
X110805493Y-77522309D01*
X110795000Y-77625013D01*
X110795000Y-77900000D01*
X112008500Y-77900000D01*
X112075539Y-77919685D01*
X112121294Y-77972489D01*
X112132500Y-78024000D01*
X112132500Y-79374999D01*
X112269972Y-79374999D01*
X112269986Y-79374998D01*
X112372697Y-79364505D01*
X112539119Y-79309358D01*
X112539124Y-79309356D01*
X112688345Y-79217315D01*
X112812318Y-79093342D01*
X112814165Y-79090348D01*
X112815969Y-79088724D01*
X112816798Y-79087677D01*
X112816976Y-79087818D01*
X112866110Y-79043621D01*
X112935073Y-79032396D01*
X112999156Y-79060236D01*
X113025243Y-79090341D01*
X113027288Y-79093656D01*
X113151344Y-79217712D01*
X113300666Y-79309814D01*
X113467203Y-79364999D01*
X113569991Y-79375500D01*
X114345008Y-79375499D01*
X114345016Y-79375498D01*
X114345019Y-79375498D01*
X114401302Y-79369748D01*
X114447797Y-79364999D01*
X114614334Y-79309814D01*
X114763656Y-79217712D01*
X114887712Y-79093656D01*
X114979814Y-78944334D01*
X115034999Y-78777797D01*
X115045500Y-78675009D01*
X115045499Y-77624992D01*
X115041897Y-77589735D01*
X115034999Y-77522203D01*
X115034998Y-77522200D01*
X115008351Y-77441786D01*
X114979814Y-77355666D01*
X114887712Y-77206344D01*
X114794319Y-77112951D01*
X114760834Y-77051628D01*
X114758000Y-77025270D01*
X114758000Y-76654500D01*
X114777685Y-76587461D01*
X114830489Y-76541706D01*
X114882000Y-76530500D01*
X115008480Y-76530500D01*
X115075519Y-76550185D01*
X115096161Y-76566819D01*
X115099811Y-76570469D01*
X115099813Y-76570470D01*
X115099815Y-76570472D01*
X115245394Y-76658478D01*
X115407804Y-76709086D01*
X115478384Y-76715500D01*
X115527060Y-76715500D01*
X115594099Y-76735185D01*
X115614741Y-76751819D01*
X116304707Y-77441786D01*
X116304711Y-77441789D01*
X116435814Y-77529390D01*
X116435818Y-77529392D01*
X116435821Y-77529394D01*
X116581503Y-77589738D01*
X116736153Y-77620499D01*
X116736157Y-77620500D01*
X116736158Y-77620500D01*
X119943844Y-77620500D01*
X119943845Y-77620499D01*
X120098497Y-77589737D01*
X120228740Y-77535789D01*
X120244172Y-77529397D01*
X120244172Y-77529396D01*
X120244179Y-77529394D01*
X120375289Y-77441789D01*
X120985259Y-76831819D01*
X121046582Y-76798334D01*
X121072940Y-76795500D01*
X121102060Y-76795500D01*
X121169099Y-76815185D01*
X121189741Y-76831819D01*
X121533211Y-77175289D01*
X121597677Y-77239755D01*
X121644712Y-77286790D01*
X121748105Y-77355875D01*
X121775821Y-77374394D01*
X121878833Y-77417062D01*
X121921502Y-77434737D01*
X121956955Y-77441789D01*
X122076152Y-77465499D01*
X122076155Y-77465500D01*
X122076157Y-77465500D01*
X126868844Y-77465500D01*
X126868845Y-77465499D01*
X127023497Y-77434737D01*
X127169179Y-77374394D01*
X127300289Y-77286789D01*
X127887056Y-76700020D01*
X127948377Y-76666537D01*
X127962124Y-76664346D01*
X128050208Y-76655349D01*
X128211197Y-76602003D01*
X128234773Y-76587461D01*
X128361691Y-76509177D01*
X128363368Y-76511896D01*
X128414966Y-76491091D01*
X128427060Y-76490500D01*
X129778060Y-76490500D01*
X129778061Y-76490499D01*
X129932713Y-76459737D01*
X130078395Y-76399394D01*
X130209505Y-76311789D01*
X131974475Y-74546817D01*
X132035798Y-74513333D01*
X132062156Y-74510499D01*
X133099191Y-74510499D01*
X133166230Y-74530184D01*
X133186872Y-74546818D01*
X134581984Y-75941930D01*
X134615469Y-76003253D01*
X134610485Y-76072945D01*
X134568613Y-76128878D01*
X134560276Y-76134604D01*
X134487740Y-76180182D01*
X134487737Y-76180184D01*
X134360184Y-76307737D01*
X134264211Y-76460476D01*
X134204631Y-76630745D01*
X134204630Y-76630750D01*
X134184435Y-76809996D01*
X134184435Y-76810003D01*
X134204630Y-76989249D01*
X134204631Y-76989254D01*
X134264211Y-77159523D01*
X134325073Y-77256383D01*
X134360184Y-77312262D01*
X134487738Y-77439816D01*
X134528614Y-77465500D01*
X134619024Y-77522309D01*
X134640478Y-77535789D01*
X134765260Y-77579452D01*
X134810745Y-77595368D01*
X134810750Y-77595369D01*
X134989996Y-77615565D01*
X134990000Y-77615565D01*
X134990004Y-77615565D01*
X135169250Y-77595369D01*
X135169251Y-77595368D01*
X135169255Y-77595368D01*
X135204555Y-77583015D01*
X135274330Y-77579452D01*
X135333190Y-77612375D01*
X137286086Y-79565272D01*
X137286087Y-79565273D01*
X137286090Y-79565275D01*
X137286092Y-79565277D01*
X137296750Y-79572398D01*
X137341555Y-79626009D01*
X137350262Y-79695334D01*
X137320108Y-79758362D01*
X137260665Y-79795082D01*
X137227859Y-79799500D01*
X106324000Y-79799500D01*
X106256961Y-79779815D01*
X106211206Y-79727011D01*
X106200000Y-79675500D01*
X106200000Y-78674986D01*
X110795001Y-78674986D01*
X110805494Y-78777697D01*
X110860641Y-78944119D01*
X110860643Y-78944124D01*
X110952684Y-79093345D01*
X111076654Y-79217315D01*
X111225875Y-79309356D01*
X111225880Y-79309358D01*
X111392302Y-79364505D01*
X111392309Y-79364506D01*
X111495019Y-79374999D01*
X111632499Y-79374999D01*
X111632500Y-79374998D01*
X111632500Y-78400000D01*
X110795001Y-78400000D01*
X110795001Y-78674986D01*
X106200000Y-78674986D01*
X106200000Y-73554609D01*
X106200500Y-73549534D01*
X106200500Y-73547844D01*
X106550000Y-73547844D01*
X106556401Y-73607372D01*
X106556403Y-73607379D01*
X106606645Y-73742086D01*
X106606649Y-73742093D01*
X106692809Y-73857187D01*
X106692812Y-73857190D01*
X106807906Y-73943350D01*
X106807913Y-73943354D01*
X106942620Y-73993596D01*
X106942627Y-73993598D01*
X107002155Y-73999999D01*
X107002172Y-74000000D01*
X107250000Y-74000000D01*
X107250000Y-73000000D01*
X106550000Y-73000000D01*
X106550000Y-73547844D01*
X106200500Y-73547844D01*
X106200500Y-71952155D01*
X106550000Y-71952155D01*
X106550000Y-72500000D01*
X107250000Y-72500000D01*
X107250000Y-71500000D01*
X107002155Y-71500000D01*
X106942627Y-71506401D01*
X106942620Y-71506403D01*
X106807913Y-71556645D01*
X106807906Y-71556649D01*
X106692812Y-71642809D01*
X106692809Y-71642812D01*
X106606649Y-71757906D01*
X106606645Y-71757913D01*
X106556403Y-71892620D01*
X106556401Y-71892627D01*
X106550000Y-71952155D01*
X106200500Y-71952155D01*
X106200500Y-56047844D01*
X106550000Y-56047844D01*
X106556401Y-56107372D01*
X106556403Y-56107379D01*
X106606645Y-56242086D01*
X106606649Y-56242093D01*
X106692809Y-56357187D01*
X106692812Y-56357190D01*
X106807906Y-56443350D01*
X106807913Y-56443354D01*
X106942620Y-56493596D01*
X106942627Y-56493598D01*
X107002155Y-56499999D01*
X107002172Y-56500000D01*
X107250000Y-56500000D01*
X107250000Y-55500000D01*
X106550000Y-55500000D01*
X106550000Y-56047844D01*
X106200500Y-56047844D01*
X106200500Y-54452155D01*
X106550000Y-54452155D01*
X106550000Y-55000000D01*
X107250000Y-55000000D01*
X107250000Y-54000000D01*
X107002155Y-54000000D01*
X106942627Y-54006401D01*
X106942620Y-54006403D01*
X106807913Y-54056645D01*
X106807906Y-54056649D01*
X106692812Y-54142809D01*
X106692809Y-54142812D01*
X106606649Y-54257906D01*
X106606645Y-54257913D01*
X106556403Y-54392620D01*
X106556401Y-54392627D01*
X106550000Y-54452155D01*
X106200500Y-54452155D01*
X106200500Y-54450479D01*
X106200000Y-54445397D01*
X106200000Y-40000000D01*
X100324500Y-40000000D01*
X100257461Y-39980315D01*
X100211706Y-39927511D01*
X100200500Y-39876000D01*
X100200500Y-39631582D01*
X107025001Y-39631582D01*
X107031408Y-39702102D01*
X107031409Y-39702107D01*
X107081981Y-39864396D01*
X107169927Y-40009877D01*
X107290122Y-40130072D01*
X107435604Y-40218019D01*
X107435603Y-40218019D01*
X107597894Y-40268590D01*
X107597893Y-40268590D01*
X107668408Y-40274998D01*
X107668426Y-40274999D01*
X107674999Y-40274998D01*
X107675000Y-40274998D01*
X107675000Y-39550000D01*
X107025001Y-39550000D01*
X107025001Y-39631582D01*
X100200500Y-39631582D01*
X100200500Y-32893713D01*
X101649500Y-32893713D01*
X101649500Y-33106286D01*
X101682753Y-33316239D01*
X101748444Y-33518414D01*
X101844951Y-33707820D01*
X101969890Y-33879786D01*
X102120213Y-34030109D01*
X102292179Y-34155048D01*
X102292181Y-34155049D01*
X102292184Y-34155051D01*
X102481588Y-34251557D01*
X102683757Y-34317246D01*
X102893713Y-34350500D01*
X102893714Y-34350500D01*
X103106286Y-34350500D01*
X103106287Y-34350500D01*
X103316243Y-34317246D01*
X103518412Y-34251557D01*
X103707816Y-34155051D01*
X103745602Y-34127598D01*
X103879786Y-34030109D01*
X103879788Y-34030106D01*
X103879792Y-34030104D01*
X104030104Y-33879792D01*
X104030106Y-33879788D01*
X104030109Y-33879786D01*
X104155048Y-33707820D01*
X104155047Y-33707820D01*
X104155051Y-33707816D01*
X104251557Y-33518412D01*
X104317246Y-33316243D01*
X104350500Y-33106287D01*
X104350500Y-32893713D01*
X104317246Y-32683757D01*
X104251557Y-32481588D01*
X104155051Y-32292184D01*
X104155049Y-32292181D01*
X104155048Y-32292179D01*
X104030109Y-32120213D01*
X104019389Y-32109493D01*
X106030000Y-32109493D01*
X106030000Y-32600000D01*
X106880000Y-32600000D01*
X106880000Y-33100000D01*
X106030000Y-33100000D01*
X106030000Y-33590506D01*
X106058317Y-33769293D01*
X106114251Y-33941444D01*
X106114252Y-33941447D01*
X106196434Y-34102734D01*
X106302823Y-34249169D01*
X106430830Y-34377176D01*
X106577265Y-34483565D01*
X106738552Y-34565747D01*
X106738555Y-34565748D01*
X106910699Y-34621680D01*
X106910712Y-34621683D01*
X106930000Y-34624738D01*
X106930000Y-33666988D01*
X106939940Y-33684205D01*
X106995795Y-33740060D01*
X107064204Y-33779556D01*
X107140504Y-33800000D01*
X107219496Y-33800000D01*
X107295796Y-33779556D01*
X107364205Y-33740060D01*
X107420060Y-33684205D01*
X107430000Y-33666988D01*
X107430000Y-34624737D01*
X107449287Y-34621683D01*
X107449300Y-34621680D01*
X107621444Y-34565748D01*
X107621447Y-34565747D01*
X107782734Y-34483565D01*
X107929169Y-34377176D01*
X108057176Y-34249169D01*
X108163565Y-34102734D01*
X108245747Y-33941447D01*
X108245748Y-33941444D01*
X108301682Y-33769293D01*
X108330000Y-33590506D01*
X108330000Y-33100000D01*
X107480000Y-33100000D01*
X107480000Y-32600000D01*
X108330000Y-32600000D01*
X108330000Y-32109493D01*
X108301682Y-31930706D01*
X108259908Y-31802135D01*
X109099500Y-31802135D01*
X109099500Y-33897870D01*
X109099501Y-33897876D01*
X109105908Y-33957483D01*
X109156202Y-34092328D01*
X109156206Y-34092335D01*
X109242452Y-34207544D01*
X109242455Y-34207547D01*
X109357664Y-34293793D01*
X109357671Y-34293797D01*
X109492517Y-34344091D01*
X109492516Y-34344091D01*
X109499444Y-34344835D01*
X109552127Y-34350500D01*
X110647872Y-34350499D01*
X110707483Y-34344091D01*
X110842331Y-34293796D01*
X110957546Y-34207546D01*
X111043796Y-34092331D01*
X111094091Y-33957483D01*
X111100500Y-33897873D01*
X111100499Y-31802135D01*
X111899500Y-31802135D01*
X111899500Y-33897870D01*
X111899501Y-33897876D01*
X111905908Y-33957483D01*
X111956202Y-34092328D01*
X111956206Y-34092335D01*
X112042452Y-34207544D01*
X112042455Y-34207547D01*
X112157664Y-34293793D01*
X112157671Y-34293797D01*
X112292517Y-34344091D01*
X112292516Y-34344091D01*
X112299444Y-34344835D01*
X112352127Y-34350500D01*
X113447872Y-34350499D01*
X113507483Y-34344091D01*
X113642331Y-34293796D01*
X113757546Y-34207546D01*
X113843796Y-34092331D01*
X113894091Y-33957483D01*
X113900500Y-33897873D01*
X113900499Y-31802128D01*
X113894091Y-31742517D01*
X113871800Y-31682753D01*
X113843797Y-31607671D01*
X113843793Y-31607664D01*
X113757547Y-31492455D01*
X113757544Y-31492452D01*
X113642335Y-31406206D01*
X113642328Y-31406202D01*
X113507482Y-31355908D01*
X113507483Y-31355908D01*
X113447883Y-31349501D01*
X113447881Y-31349500D01*
X113447873Y-31349500D01*
X113447864Y-31349500D01*
X112352129Y-31349500D01*
X112352123Y-31349501D01*
X112292516Y-31355908D01*
X112157671Y-31406202D01*
X112157664Y-31406206D01*
X112042455Y-31492452D01*
X112042452Y-31492455D01*
X111956206Y-31607664D01*
X111956202Y-31607671D01*
X111905908Y-31742517D01*
X111899501Y-31802116D01*
X111899501Y-31802123D01*
X111899500Y-31802135D01*
X111100499Y-31802135D01*
X111100499Y-31802128D01*
X111094091Y-31742517D01*
X111071800Y-31682753D01*
X111043797Y-31607671D01*
X111043793Y-31607664D01*
X110957547Y-31492455D01*
X110957544Y-31492452D01*
X110842335Y-31406206D01*
X110842328Y-31406202D01*
X110707482Y-31355908D01*
X110707483Y-31355908D01*
X110647883Y-31349501D01*
X110647881Y-31349500D01*
X110647873Y-31349500D01*
X110647864Y-31349500D01*
X109552129Y-31349500D01*
X109552123Y-31349501D01*
X109492516Y-31355908D01*
X109357671Y-31406202D01*
X109357664Y-31406206D01*
X109242455Y-31492452D01*
X109242452Y-31492455D01*
X109156206Y-31607664D01*
X109156202Y-31607671D01*
X109105908Y-31742517D01*
X109099501Y-31802116D01*
X109099501Y-31802123D01*
X109099500Y-31802135D01*
X108259908Y-31802135D01*
X108245748Y-31758555D01*
X108245747Y-31758552D01*
X108163565Y-31597265D01*
X108057176Y-31450830D01*
X107929169Y-31322823D01*
X107782734Y-31216434D01*
X107621447Y-31134252D01*
X107621441Y-31134250D01*
X107449295Y-31078318D01*
X107449285Y-31078315D01*
X107430000Y-31075260D01*
X107430000Y-32033011D01*
X107420060Y-32015795D01*
X107364205Y-31959940D01*
X107295796Y-31920444D01*
X107219496Y-31900000D01*
X107140504Y-31900000D01*
X107064204Y-31920444D01*
X106995795Y-31959940D01*
X106939940Y-32015795D01*
X106930000Y-32033011D01*
X106930000Y-31075260D01*
X106910714Y-31078315D01*
X106910704Y-31078318D01*
X106738558Y-31134250D01*
X106738552Y-31134252D01*
X106577265Y-31216434D01*
X106430830Y-31322823D01*
X106302823Y-31450830D01*
X106196434Y-31597265D01*
X106114252Y-31758552D01*
X106114251Y-31758555D01*
X106058317Y-31930706D01*
X106030000Y-32109493D01*
X104019389Y-32109493D01*
X103879786Y-31969890D01*
X103707820Y-31844951D01*
X103518414Y-31748444D01*
X103518413Y-31748443D01*
X103518412Y-31748443D01*
X103316243Y-31682754D01*
X103316241Y-31682753D01*
X103316240Y-31682753D01*
X103154957Y-31657208D01*
X103106287Y-31649500D01*
X102893713Y-31649500D01*
X102845042Y-31657208D01*
X102683760Y-31682753D01*
X102481585Y-31748444D01*
X102292179Y-31844951D01*
X102120213Y-31969890D01*
X101969890Y-32120213D01*
X101844951Y-32292179D01*
X101748444Y-32481585D01*
X101682753Y-32683760D01*
X101649500Y-32893713D01*
X100200500Y-32893713D01*
X100200500Y-30324500D01*
X100220185Y-30257461D01*
X100272989Y-30211706D01*
X100324500Y-30200500D01*
X127666547Y-30200500D01*
X127733586Y-30220185D01*
G37*
%TD.AperFunction*%
%TA.AperFunction,Conductor*%
G36*
X123928834Y-59203626D02*
G01*
X123984767Y-59245498D01*
X124009184Y-59310962D01*
X124009500Y-59319808D01*
X124009500Y-60047870D01*
X124009501Y-60047876D01*
X124015908Y-60107481D01*
X124028659Y-60141669D01*
X124033642Y-60211361D01*
X124028659Y-60228331D01*
X124015908Y-60262518D01*
X124009501Y-60322116D01*
X124009500Y-60322135D01*
X124009500Y-61317870D01*
X124009501Y-61317876D01*
X124015908Y-61377481D01*
X124028659Y-61411669D01*
X124033642Y-61481361D01*
X124028659Y-61498331D01*
X124015908Y-61532518D01*
X124009501Y-61592116D01*
X124009500Y-61592135D01*
X124009500Y-62587870D01*
X124009501Y-62587876D01*
X124015908Y-62647481D01*
X124028659Y-62681669D01*
X124033642Y-62751361D01*
X124028659Y-62768331D01*
X124015908Y-62802518D01*
X124009581Y-62861371D01*
X124009501Y-62862123D01*
X124009500Y-62862135D01*
X124009500Y-63857870D01*
X124009501Y-63857876D01*
X124015908Y-63917481D01*
X124028659Y-63951669D01*
X124033642Y-64021361D01*
X124028659Y-64038331D01*
X124015908Y-64072518D01*
X124010050Y-64127011D01*
X124009501Y-64132123D01*
X124009500Y-64132135D01*
X124009500Y-65127870D01*
X124009501Y-65127876D01*
X124015908Y-65187481D01*
X124028659Y-65221669D01*
X124033642Y-65291361D01*
X124028659Y-65308331D01*
X124015908Y-65342518D01*
X124009501Y-65402116D01*
X124009501Y-65402123D01*
X124009500Y-65402135D01*
X124009500Y-66397870D01*
X124009501Y-66397876D01*
X124015908Y-66457481D01*
X124028659Y-66491669D01*
X124033642Y-66561361D01*
X124028659Y-66578331D01*
X124015908Y-66612518D01*
X124015353Y-66617685D01*
X124009501Y-66672123D01*
X124009500Y-66672135D01*
X124009500Y-67667870D01*
X124009501Y-67667876D01*
X124015908Y-67727481D01*
X124028659Y-67761669D01*
X124033642Y-67831361D01*
X124028659Y-67848331D01*
X124015908Y-67882518D01*
X124014029Y-67899999D01*
X124009501Y-67942123D01*
X124009500Y-67942135D01*
X124009500Y-68937870D01*
X124009501Y-68937876D01*
X124015908Y-68997483D01*
X124028925Y-69032381D01*
X124033909Y-69102072D01*
X124028925Y-69119047D01*
X124016403Y-69152619D01*
X124016401Y-69152627D01*
X124010000Y-69212155D01*
X124010000Y-69460000D01*
X126510000Y-69460000D01*
X126510000Y-69212172D01*
X126509999Y-69212155D01*
X126503597Y-69152622D01*
X126503597Y-69152620D01*
X126491075Y-69119048D01*
X126486089Y-69049356D01*
X126491071Y-69032390D01*
X126504091Y-68997483D01*
X126510500Y-68937873D01*
X126510499Y-67942128D01*
X126504091Y-67882517D01*
X126491340Y-67848332D01*
X126486357Y-67778642D01*
X126491340Y-67761669D01*
X126504091Y-67727483D01*
X126510500Y-67667873D01*
X126510499Y-66672128D01*
X126504091Y-66612517D01*
X126491340Y-66578332D01*
X126486357Y-66508642D01*
X126491340Y-66491669D01*
X126504091Y-66457483D01*
X126510500Y-66397873D01*
X126510500Y-66200001D01*
X127880204Y-66200001D01*
X127880399Y-66202486D01*
X127926218Y-66360198D01*
X128009814Y-66501552D01*
X128009821Y-66501561D01*
X128125938Y-66617678D01*
X128125947Y-66617685D01*
X128267303Y-66701282D01*
X128267306Y-66701283D01*
X128425004Y-66747099D01*
X128425010Y-66747100D01*
X128461850Y-66749999D01*
X128461866Y-66750000D01*
X128865000Y-66750000D01*
X129365000Y-66750000D01*
X129768134Y-66750000D01*
X129768149Y-66749999D01*
X129804989Y-66747100D01*
X129804995Y-66747099D01*
X129962693Y-66701283D01*
X129962696Y-66701282D01*
X130104052Y-66617685D01*
X130104061Y-66617678D01*
X130220178Y-66501561D01*
X130220185Y-66501552D01*
X130303781Y-66360198D01*
X130349600Y-66202486D01*
X130349795Y-66200001D01*
X130349795Y-66200000D01*
X129365000Y-66200000D01*
X129365000Y-66750000D01*
X128865000Y-66750000D01*
X128865000Y-66200000D01*
X127880205Y-66200000D01*
X127880204Y-66200001D01*
X126510500Y-66200001D01*
X126510499Y-65699998D01*
X127880204Y-65699998D01*
X127880205Y-65700000D01*
X128865000Y-65700000D01*
X128865000Y-65150000D01*
X128461850Y-65150000D01*
X128425010Y-65152899D01*
X128425004Y-65152900D01*
X128267306Y-65198716D01*
X128267303Y-65198717D01*
X128125947Y-65282314D01*
X128125938Y-65282321D01*
X128009821Y-65398438D01*
X128009814Y-65398447D01*
X127926218Y-65539801D01*
X127880399Y-65697513D01*
X127880204Y-65699998D01*
X126510499Y-65699998D01*
X126510499Y-65402128D01*
X126504091Y-65342517D01*
X126491340Y-65308332D01*
X126486357Y-65238642D01*
X126491340Y-65221669D01*
X126504091Y-65187483D01*
X126510500Y-65127873D01*
X126510499Y-64132128D01*
X126504091Y-64072517D01*
X126491340Y-64038332D01*
X126486357Y-63968642D01*
X126491340Y-63951669D01*
X126504091Y-63917483D01*
X126510500Y-63857873D01*
X126510499Y-62862128D01*
X126504091Y-62802517D01*
X126491340Y-62768332D01*
X126486357Y-62698642D01*
X126491340Y-62681669D01*
X126504091Y-62647483D01*
X126507819Y-62612801D01*
X126534556Y-62548255D01*
X126591947Y-62508406D01*
X126661773Y-62505911D01*
X126718789Y-62538379D01*
X127850095Y-63669685D01*
X127883580Y-63731008D01*
X127881493Y-63791951D01*
X127879904Y-63797420D01*
X127879901Y-63797436D01*
X127877000Y-63834298D01*
X127877000Y-64265701D01*
X127879901Y-64302567D01*
X127879902Y-64302573D01*
X127925754Y-64460393D01*
X127925755Y-64460396D01*
X127925756Y-64460398D01*
X127948077Y-64498141D01*
X128009417Y-64601862D01*
X128009423Y-64601870D01*
X128125629Y-64718076D01*
X128125633Y-64718079D01*
X128125635Y-64718081D01*
X128267102Y-64801744D01*
X128308724Y-64813836D01*
X128424926Y-64847597D01*
X128424929Y-64847597D01*
X128424931Y-64847598D01*
X128461806Y-64850500D01*
X129628000Y-64850500D01*
X129695039Y-64870185D01*
X129740794Y-64922989D01*
X129752000Y-64974500D01*
X129752000Y-65026000D01*
X129732315Y-65093039D01*
X129679511Y-65138794D01*
X129628000Y-65150000D01*
X129365000Y-65150000D01*
X129365000Y-65700000D01*
X130020685Y-65700000D01*
X130083806Y-65717268D01*
X130142102Y-65751744D01*
X130183724Y-65763836D01*
X130299926Y-65797597D01*
X130299929Y-65797597D01*
X130299931Y-65797598D01*
X130336806Y-65800500D01*
X130607060Y-65800500D01*
X130674099Y-65820185D01*
X130694741Y-65836819D01*
X136485513Y-71627591D01*
X136518998Y-71688914D01*
X136514014Y-71758606D01*
X136473995Y-71813125D01*
X136359474Y-71902260D01*
X136191049Y-72085217D01*
X136055042Y-72293393D01*
X135955152Y-72521118D01*
X135894108Y-72762175D01*
X135894106Y-72762187D01*
X135873573Y-73009994D01*
X135873573Y-73010005D01*
X135894106Y-73257812D01*
X135894108Y-73257824D01*
X135955152Y-73498881D01*
X136055042Y-73726606D01*
X136191049Y-73934782D01*
X136198940Y-73943354D01*
X136359472Y-74117738D01*
X136555707Y-74270474D01*
X136555709Y-74270475D01*
X136672148Y-74333489D01*
X136774406Y-74388828D01*
X137009602Y-74469571D01*
X137254881Y-74510500D01*
X137503551Y-74510500D01*
X137748830Y-74469571D01*
X137984026Y-74388828D01*
X138202725Y-74270474D01*
X138398960Y-74117738D01*
X138567380Y-73934785D01*
X138703389Y-73726607D01*
X138803279Y-73498881D01*
X138864324Y-73257821D01*
X138884859Y-73010000D01*
X138884030Y-73000000D01*
X138864325Y-72762187D01*
X138864323Y-72762175D01*
X138803279Y-72521118D01*
X138703389Y-72293393D01*
X138567382Y-72085217D01*
X138545773Y-72061744D01*
X138398960Y-71902262D01*
X138227552Y-71768850D01*
X138186741Y-71712141D01*
X138179716Y-71670998D01*
X138179716Y-71310371D01*
X138179715Y-71310369D01*
X138148954Y-71155726D01*
X138148953Y-71155719D01*
X138148951Y-71155714D01*
X138088613Y-71010043D01*
X138088606Y-71010030D01*
X138001006Y-70878928D01*
X138001005Y-70878927D01*
X137889505Y-70767427D01*
X132264319Y-65142241D01*
X132230834Y-65080918D01*
X132228000Y-65054560D01*
X132228000Y-64784313D01*
X132227999Y-64784298D01*
X132225098Y-64747432D01*
X132225097Y-64747426D01*
X132179245Y-64589606D01*
X132179244Y-64589603D01*
X132179244Y-64589602D01*
X132095581Y-64448135D01*
X132095579Y-64448133D01*
X132095576Y-64448129D01*
X131979370Y-64331923D01*
X131979362Y-64331917D01*
X131837896Y-64248255D01*
X131837893Y-64248254D01*
X131680073Y-64202402D01*
X131680067Y-64202401D01*
X131643201Y-64199500D01*
X131643194Y-64199500D01*
X130477000Y-64199500D01*
X130409961Y-64179815D01*
X130364206Y-64127011D01*
X130353000Y-64075500D01*
X130353000Y-63834313D01*
X130352999Y-63834298D01*
X130350098Y-63797432D01*
X130350097Y-63797426D01*
X130304245Y-63639606D01*
X130304244Y-63639603D01*
X130304244Y-63639602D01*
X130220581Y-63498135D01*
X130220579Y-63498133D01*
X130220576Y-63498129D01*
X130104370Y-63381923D01*
X130104362Y-63381917D01*
X130026181Y-63335681D01*
X129962898Y-63298256D01*
X129962897Y-63298255D01*
X129962896Y-63298255D01*
X129962893Y-63298254D01*
X129942706Y-63292389D01*
X129883820Y-63254783D01*
X129854614Y-63191310D01*
X129864360Y-63122124D01*
X129909964Y-63069189D01*
X129964700Y-63049955D01*
X129985363Y-63047844D01*
X130011503Y-63045174D01*
X130175266Y-62990908D01*
X130322100Y-62900340D01*
X130361069Y-62861371D01*
X130422392Y-62827886D01*
X130492084Y-62832870D01*
X130536431Y-62861371D01*
X130575400Y-62900340D01*
X130722234Y-62990908D01*
X130885997Y-63045174D01*
X130987073Y-63055500D01*
X131660426Y-63055499D01*
X131660434Y-63055498D01*
X131660437Y-63055498D01*
X131715780Y-63049844D01*
X131761503Y-63045174D01*
X131925266Y-62990908D01*
X132072100Y-62900340D01*
X132072101Y-62900338D01*
X132074335Y-62898961D01*
X132139432Y-62880500D01*
X132371876Y-62880500D01*
X132438915Y-62900185D01*
X132459557Y-62916819D01*
X132475705Y-62932967D01*
X132475709Y-62932970D01*
X132620044Y-63021998D01*
X132620047Y-63021999D01*
X132620053Y-63022003D01*
X132781042Y-63075349D01*
X132880405Y-63085500D01*
X133427094Y-63085499D01*
X133427102Y-63085498D01*
X133427105Y-63085498D01*
X133481510Y-63079940D01*
X133526458Y-63075349D01*
X133687447Y-63022003D01*
X133831794Y-62932968D01*
X133841418Y-62923343D01*
X133902737Y-62889856D01*
X133972429Y-62894835D01*
X134016784Y-62923339D01*
X134026017Y-62932572D01*
X134026021Y-62932575D01*
X134170257Y-63021542D01*
X134170268Y-63021547D01*
X134331143Y-63074855D01*
X134430433Y-63084999D01*
X134453750Y-63084998D01*
X134453750Y-61770635D01*
X134470432Y-61712732D01*
X134469031Y-61712058D01*
X134472052Y-61705784D01*
X134531629Y-61535525D01*
X134531632Y-61535512D01*
X134551828Y-61356266D01*
X134551828Y-61356259D01*
X134531632Y-61177013D01*
X134531631Y-61177008D01*
X134474458Y-61013617D01*
X134467500Y-60972662D01*
X134467500Y-60389500D01*
X134487185Y-60322461D01*
X134539989Y-60276706D01*
X134591500Y-60265500D01*
X134843500Y-60265500D01*
X134910539Y-60285185D01*
X134956294Y-60337989D01*
X134967500Y-60389500D01*
X134967500Y-61392888D01*
X134953750Y-61439714D01*
X134953750Y-63084999D01*
X134977058Y-63084999D01*
X134977072Y-63084998D01*
X135076357Y-63074855D01*
X135237231Y-63021547D01*
X135237242Y-63021542D01*
X135381478Y-62932575D01*
X135381482Y-62932572D01*
X135482819Y-62831236D01*
X135544142Y-62797751D01*
X135613834Y-62802735D01*
X135669767Y-62844607D01*
X135694184Y-62910071D01*
X135694500Y-62918917D01*
X135694500Y-63729069D01*
X135694500Y-63729071D01*
X135694499Y-63729071D01*
X135719497Y-63854738D01*
X135719499Y-63854744D01*
X135759645Y-63951666D01*
X135768535Y-63973127D01*
X135839723Y-64079669D01*
X135839726Y-64079673D01*
X135839727Y-64079674D01*
X136143181Y-64383127D01*
X136176666Y-64444450D01*
X136179500Y-64470808D01*
X136179500Y-64748336D01*
X136179501Y-64748355D01*
X136189650Y-64847707D01*
X136189651Y-64847710D01*
X136242996Y-65008694D01*
X136243001Y-65008705D01*
X136332029Y-65153040D01*
X136332032Y-65153044D01*
X136451955Y-65272967D01*
X136451959Y-65272970D01*
X136596294Y-65361998D01*
X136596297Y-65361999D01*
X136596303Y-65362003D01*
X136757292Y-65415349D01*
X136856655Y-65425500D01*
X137403344Y-65425499D01*
X137403352Y-65425498D01*
X137403355Y-65425498D01*
X137457760Y-65419940D01*
X137502708Y-65415349D01*
X137663697Y-65362003D01*
X137808044Y-65272968D01*
X137817319Y-65263693D01*
X137878642Y-65230208D01*
X137948334Y-65235192D01*
X137992681Y-65263693D01*
X138001955Y-65272967D01*
X138001959Y-65272970D01*
X138146294Y-65361998D01*
X138146297Y-65361999D01*
X138146303Y-65362003D01*
X138307292Y-65415349D01*
X138406655Y-65425500D01*
X138953344Y-65425499D01*
X138953352Y-65425498D01*
X138953355Y-65425498D01*
X139007760Y-65419940D01*
X139052708Y-65415349D01*
X139213697Y-65362003D01*
X139358044Y-65272968D01*
X139477968Y-65153044D01*
X139567003Y-65008697D01*
X139620349Y-64847708D01*
X139630500Y-64748345D01*
X139630499Y-64470806D01*
X139650183Y-64403768D01*
X139666810Y-64383134D01*
X139698322Y-64351622D01*
X139759644Y-64318140D01*
X139829335Y-64323126D01*
X139885268Y-64364998D01*
X139909684Y-64430463D01*
X139910000Y-64439307D01*
X139910000Y-77785500D01*
X139890315Y-77852539D01*
X139837511Y-77898294D01*
X139786000Y-77909500D01*
X138440808Y-77909500D01*
X138373769Y-77889815D01*
X138353127Y-77873181D01*
X133916034Y-73436088D01*
X133882549Y-73374765D01*
X133879715Y-73348407D01*
X133879715Y-71962129D01*
X133879714Y-71962123D01*
X133879713Y-71962116D01*
X133873307Y-71902517D01*
X133873211Y-71902260D01*
X133823013Y-71767671D01*
X133823009Y-71767664D01*
X133736763Y-71652455D01*
X133736760Y-71652452D01*
X133621551Y-71566206D01*
X133621544Y-71566202D01*
X133486698Y-71515908D01*
X133486699Y-71515908D01*
X133427099Y-71509501D01*
X133427097Y-71509500D01*
X133427089Y-71509500D01*
X133427080Y-71509500D01*
X131331345Y-71509500D01*
X131331339Y-71509501D01*
X131271732Y-71515908D01*
X131136887Y-71566202D01*
X131136880Y-71566206D01*
X131021671Y-71652452D01*
X131021668Y-71652455D01*
X130935422Y-71767664D01*
X130935418Y-71767671D01*
X130885124Y-71902517D01*
X130879791Y-71952127D01*
X130878717Y-71962123D01*
X130878716Y-71962135D01*
X130878716Y-73327059D01*
X130859031Y-73394098D01*
X130842397Y-73414740D01*
X129403957Y-74853181D01*
X129342634Y-74886666D01*
X129316276Y-74889500D01*
X128427060Y-74889500D01*
X128361961Y-74870384D01*
X128361691Y-74870823D01*
X128360089Y-74869835D01*
X128360021Y-74869815D01*
X128359793Y-74869652D01*
X128211205Y-74778001D01*
X128211199Y-74777998D01*
X128211197Y-74777997D01*
X128170921Y-74764651D01*
X128050209Y-74724651D01*
X127950846Y-74714500D01*
X127404162Y-74714500D01*
X127404144Y-74714501D01*
X127304792Y-74724650D01*
X127304789Y-74724651D01*
X127143805Y-74777996D01*
X127143794Y-74778001D01*
X126999459Y-74867029D01*
X126999453Y-74867033D01*
X126989824Y-74876663D01*
X126928500Y-74910146D01*
X126858808Y-74905159D01*
X126814465Y-74876660D01*
X126805232Y-74867427D01*
X126805228Y-74867424D01*
X126660992Y-74778457D01*
X126660981Y-74778452D01*
X126500106Y-74725144D01*
X126400822Y-74715000D01*
X126377500Y-74715000D01*
X126377500Y-75740500D01*
X126357815Y-75807539D01*
X126305011Y-75853294D01*
X126253500Y-75864500D01*
X122537940Y-75864500D01*
X122470901Y-75844815D01*
X122450259Y-75828181D01*
X122013756Y-75391677D01*
X125177500Y-75391677D01*
X125177500Y-75440000D01*
X125877500Y-75440000D01*
X125877500Y-74714999D01*
X125854193Y-74715000D01*
X125854174Y-74715001D01*
X125754892Y-74725144D01*
X125594018Y-74778452D01*
X125594007Y-74778457D01*
X125449771Y-74867424D01*
X125449767Y-74867427D01*
X125329927Y-74987267D01*
X125329924Y-74987271D01*
X125240957Y-75131507D01*
X125240952Y-75131518D01*
X125187644Y-75292393D01*
X125177500Y-75391677D01*
X122013756Y-75391677D01*
X121820292Y-75198213D01*
X121820288Y-75198210D01*
X121689185Y-75110609D01*
X121689175Y-75110604D01*
X121596025Y-75072020D01*
X121555799Y-75045142D01*
X121500185Y-74989528D01*
X121354606Y-74901522D01*
X121192196Y-74850914D01*
X121192194Y-74850913D01*
X121192192Y-74850913D01*
X121142778Y-74846423D01*
X121121616Y-74844500D01*
X120608384Y-74844500D01*
X120589145Y-74846248D01*
X120537807Y-74850913D01*
X120375393Y-74901522D01*
X120229811Y-74989530D01*
X120229810Y-74989531D01*
X120127681Y-75091661D01*
X120066358Y-75125146D01*
X119996666Y-75120162D01*
X119952319Y-75091661D01*
X119850188Y-74989530D01*
X119704606Y-74901522D01*
X119606087Y-74870823D01*
X119542196Y-74850914D01*
X119542194Y-74850913D01*
X119542192Y-74850913D01*
X119492778Y-74846423D01*
X119471616Y-74844500D01*
X119471613Y-74844500D01*
X119210808Y-74844500D01*
X119143769Y-74824815D01*
X119123127Y-74808181D01*
X118527126Y-74212180D01*
X118493641Y-74150857D01*
X118498625Y-74081165D01*
X118540497Y-74025232D01*
X118605961Y-74000815D01*
X118614784Y-74000499D01*
X119427872Y-74000499D01*
X119487483Y-73994091D01*
X119521667Y-73981340D01*
X119591358Y-73976357D01*
X119608327Y-73981338D01*
X119642517Y-73994091D01*
X119702127Y-74000500D01*
X120697872Y-74000499D01*
X120757483Y-73994091D01*
X120791667Y-73981340D01*
X120861358Y-73976357D01*
X120878327Y-73981338D01*
X120912517Y-73994091D01*
X120972127Y-74000500D01*
X121967872Y-74000499D01*
X122027483Y-73994091D01*
X122061667Y-73981340D01*
X122131358Y-73976357D01*
X122148327Y-73981338D01*
X122182517Y-73994091D01*
X122242127Y-74000500D01*
X123237872Y-74000499D01*
X123297483Y-73994091D01*
X123331667Y-73981340D01*
X123401358Y-73976357D01*
X123418327Y-73981338D01*
X123452517Y-73994091D01*
X123512127Y-74000500D01*
X124507872Y-74000499D01*
X124567483Y-73994091D01*
X124702331Y-73943796D01*
X124817546Y-73857546D01*
X124903796Y-73742331D01*
X124954091Y-73607483D01*
X124960500Y-73547873D01*
X124960499Y-71952128D01*
X124954091Y-71892517D01*
X124904145Y-71758606D01*
X124903797Y-71757671D01*
X124903793Y-71757664D01*
X124817547Y-71642455D01*
X124817544Y-71642452D01*
X124702335Y-71556206D01*
X124702328Y-71556202D01*
X124567482Y-71505908D01*
X124567483Y-71505908D01*
X124507883Y-71499501D01*
X124507881Y-71499500D01*
X124507873Y-71499500D01*
X124507865Y-71499500D01*
X123514500Y-71499500D01*
X123447461Y-71479815D01*
X123401706Y-71427011D01*
X123390500Y-71375500D01*
X123390500Y-70207844D01*
X124010000Y-70207844D01*
X124016401Y-70267372D01*
X124016403Y-70267379D01*
X124066645Y-70402086D01*
X124066649Y-70402093D01*
X124152809Y-70517187D01*
X124152812Y-70517190D01*
X124267906Y-70603350D01*
X124267913Y-70603354D01*
X124402620Y-70653596D01*
X124402627Y-70653598D01*
X124462155Y-70659999D01*
X124462172Y-70660000D01*
X125010000Y-70660000D01*
X125510000Y-70660000D01*
X126057828Y-70660000D01*
X126057844Y-70659999D01*
X126117372Y-70653598D01*
X126117379Y-70653596D01*
X126252086Y-70603354D01*
X126252093Y-70603350D01*
X126367187Y-70517190D01*
X126367190Y-70517187D01*
X126453350Y-70402093D01*
X126453354Y-70402086D01*
X126503596Y-70267379D01*
X126503598Y-70267372D01*
X126509999Y-70207844D01*
X126510000Y-70207827D01*
X126510000Y-69960000D01*
X125510000Y-69960000D01*
X125510000Y-70660000D01*
X125010000Y-70660000D01*
X125010000Y-69960000D01*
X124010000Y-69960000D01*
X124010000Y-70207844D01*
X123390500Y-70207844D01*
X123390500Y-59690808D01*
X123410185Y-59623769D01*
X123426819Y-59603127D01*
X123797819Y-59232127D01*
X123859142Y-59198642D01*
X123928834Y-59203626D01*
G37*
%TD.AperFunction*%
%TA.AperFunction,Conductor*%
G36*
X120613017Y-57821279D02*
G01*
X120631249Y-57823334D01*
X120740022Y-57835590D01*
X120746989Y-57835590D01*
X120746989Y-57837769D01*
X120805503Y-57848003D01*
X120856894Y-57895339D01*
X120874536Y-57962945D01*
X120872211Y-57983371D01*
X120869500Y-57997001D01*
X120869500Y-58189485D01*
X120849815Y-58256524D01*
X120797011Y-58302279D01*
X120727853Y-58312223D01*
X120704546Y-58306527D01*
X120680315Y-58298048D01*
X120680307Y-58298046D01*
X120501062Y-58277851D01*
X120501054Y-58277851D01*
X120321808Y-58298046D01*
X120321803Y-58298047D01*
X120151534Y-58357627D01*
X119998795Y-58453600D01*
X119871242Y-58581153D01*
X119775268Y-58733894D01*
X119715690Y-58904160D01*
X119715688Y-58904168D01*
X119714873Y-58911404D01*
X119687801Y-58975816D01*
X119679337Y-58985189D01*
X119663011Y-59001514D01*
X119663009Y-59001517D01*
X119663006Y-59001522D01*
X119592127Y-59107601D01*
X119591961Y-59107849D01*
X119591818Y-59108063D01*
X119542782Y-59226446D01*
X119542780Y-59226452D01*
X119517783Y-59352119D01*
X119517783Y-68230909D01*
X119498098Y-68297948D01*
X119481464Y-68318590D01*
X116828300Y-70971753D01*
X116766977Y-71005238D01*
X116764812Y-71005689D01*
X116670260Y-71024497D01*
X116670255Y-71024499D01*
X116551870Y-71073535D01*
X116445331Y-71144722D01*
X116445324Y-71144728D01*
X116126871Y-71463181D01*
X116065548Y-71496666D01*
X116039191Y-71499500D01*
X115892130Y-71499500D01*
X115892123Y-71499501D01*
X115832518Y-71505908D01*
X115798331Y-71518659D01*
X115728639Y-71523642D01*
X115711669Y-71518659D01*
X115687111Y-71509500D01*
X115677483Y-71505909D01*
X115677482Y-71505908D01*
X115617883Y-71499501D01*
X115617881Y-71499500D01*
X115617873Y-71499500D01*
X115617864Y-71499500D01*
X114622129Y-71499500D01*
X114622123Y-71499501D01*
X114562518Y-71505908D01*
X114528331Y-71518659D01*
X114458639Y-71523642D01*
X114441669Y-71518659D01*
X114417111Y-71509500D01*
X114407483Y-71505909D01*
X114407482Y-71505908D01*
X114347883Y-71499501D01*
X114347881Y-71499500D01*
X114347873Y-71499500D01*
X114347864Y-71499500D01*
X113352129Y-71499500D01*
X113352123Y-71499501D01*
X113292518Y-71505908D01*
X113258331Y-71518659D01*
X113188639Y-71523642D01*
X113171669Y-71518659D01*
X113147111Y-71509500D01*
X113137483Y-71505909D01*
X113137482Y-71505908D01*
X113077883Y-71499501D01*
X113077881Y-71499500D01*
X113077873Y-71499500D01*
X113077864Y-71499500D01*
X112082129Y-71499500D01*
X112082123Y-71499501D01*
X112022518Y-71505908D01*
X111988331Y-71518659D01*
X111918639Y-71523642D01*
X111901669Y-71518659D01*
X111877111Y-71509500D01*
X111867483Y-71505909D01*
X111867482Y-71505908D01*
X111807883Y-71499501D01*
X111807881Y-71499500D01*
X111807873Y-71499500D01*
X111807865Y-71499500D01*
X110814500Y-71499500D01*
X110747461Y-71479815D01*
X110701706Y-71427011D01*
X110690500Y-71375500D01*
X110690500Y-67447844D01*
X112820000Y-67447844D01*
X112826401Y-67507372D01*
X112826403Y-67507379D01*
X112876645Y-67642086D01*
X112876649Y-67642093D01*
X112962809Y-67757187D01*
X112962812Y-67757190D01*
X113077906Y-67843350D01*
X113077913Y-67843354D01*
X113212620Y-67893596D01*
X113212627Y-67893598D01*
X113272155Y-67899999D01*
X113272172Y-67900000D01*
X114970000Y-67900000D01*
X114970000Y-67150000D01*
X115470000Y-67150000D01*
X115470000Y-67900000D01*
X117167828Y-67900000D01*
X117167844Y-67899999D01*
X117227372Y-67893598D01*
X117227379Y-67893596D01*
X117362086Y-67843354D01*
X117362093Y-67843350D01*
X117477187Y-67757190D01*
X117477190Y-67757187D01*
X117563350Y-67642093D01*
X117563354Y-67642086D01*
X117613596Y-67507379D01*
X117613598Y-67507372D01*
X117619999Y-67447844D01*
X117620000Y-67447827D01*
X117620000Y-65750000D01*
X116870000Y-65750000D01*
X116870000Y-67026000D01*
X116850315Y-67093039D01*
X116797511Y-67138794D01*
X116746000Y-67150000D01*
X115470000Y-67150000D01*
X114970000Y-67150000D01*
X113694000Y-67150000D01*
X113626961Y-67130315D01*
X113581206Y-67077511D01*
X113570000Y-67026000D01*
X113570000Y-66650000D01*
X114070000Y-66650000D01*
X114970000Y-66650000D01*
X115470000Y-66650000D01*
X116370000Y-66650000D01*
X116370000Y-65750000D01*
X115470000Y-65750000D01*
X115470000Y-66650000D01*
X114970000Y-66650000D01*
X114970000Y-65750000D01*
X114070000Y-65750000D01*
X114070000Y-66650000D01*
X113570000Y-66650000D01*
X113570000Y-65750000D01*
X112820000Y-65750000D01*
X112820000Y-67447844D01*
X110690500Y-67447844D01*
X110690500Y-66500807D01*
X110710185Y-66433768D01*
X110726819Y-66413126D01*
X112608319Y-64531626D01*
X112669642Y-64498141D01*
X112739334Y-64503125D01*
X112795267Y-64544997D01*
X112819684Y-64610461D01*
X112820000Y-64619307D01*
X112820000Y-65250000D01*
X113570000Y-65250000D01*
X114070000Y-65250000D01*
X114970000Y-65250000D01*
X115470000Y-65250000D01*
X116370000Y-65250000D01*
X116370000Y-64350000D01*
X115470000Y-64350000D01*
X115470000Y-65250000D01*
X114970000Y-65250000D01*
X114970000Y-64350000D01*
X114070000Y-64350000D01*
X114070000Y-65250000D01*
X113570000Y-65250000D01*
X113570000Y-63974000D01*
X113589685Y-63906961D01*
X113642489Y-63861206D01*
X113694000Y-63850000D01*
X114970000Y-63850000D01*
X115470000Y-63850000D01*
X116746000Y-63850000D01*
X116813039Y-63869685D01*
X116858794Y-63922489D01*
X116870000Y-63974000D01*
X116870000Y-65250000D01*
X117620000Y-65250000D01*
X117620000Y-63552172D01*
X117619999Y-63552155D01*
X117613598Y-63492627D01*
X117613596Y-63492620D01*
X117563354Y-63357913D01*
X117563350Y-63357906D01*
X117477190Y-63242812D01*
X117477187Y-63242809D01*
X117362093Y-63156649D01*
X117362086Y-63156645D01*
X117227379Y-63106403D01*
X117227372Y-63106401D01*
X117167844Y-63100000D01*
X115470000Y-63100000D01*
X115470000Y-63850000D01*
X114970000Y-63850000D01*
X114970000Y-63100000D01*
X114339307Y-63100000D01*
X114272268Y-63080315D01*
X114226513Y-63027511D01*
X114216569Y-62958353D01*
X114245594Y-62894797D01*
X114251626Y-62888319D01*
X119283126Y-57856819D01*
X119344449Y-57823334D01*
X119370807Y-57820500D01*
X120599136Y-57820500D01*
X120613017Y-57821279D01*
G37*
%TD.AperFunction*%
%TA.AperFunction,Conductor*%
G36*
X127570610Y-58338183D02*
G01*
X127570676Y-58337969D01*
X127576492Y-58339732D01*
X127576503Y-58339737D01*
X127726206Y-58369515D01*
X127731153Y-58370499D01*
X127731156Y-58370500D01*
X127731158Y-58370500D01*
X130008048Y-58370500D01*
X130075087Y-58390185D01*
X130120842Y-58442989D01*
X130130786Y-58512147D01*
X130101761Y-58575703D01*
X130095729Y-58582181D01*
X129219207Y-59458701D01*
X129157884Y-59492186D01*
X129144134Y-59494377D01*
X129139747Y-59494826D01*
X128975986Y-59549091D01*
X128975981Y-59549093D01*
X128829148Y-59639661D01*
X128707161Y-59761648D01*
X128616593Y-59908481D01*
X128616592Y-59908484D01*
X128562326Y-60072247D01*
X128562326Y-60072248D01*
X128562325Y-60072248D01*
X128552000Y-60173315D01*
X128552000Y-60746669D01*
X128552001Y-60746687D01*
X128562325Y-60847752D01*
X128616592Y-61011515D01*
X128616593Y-61011518D01*
X128707161Y-61158351D01*
X128729254Y-61180444D01*
X128762739Y-61241767D01*
X128757755Y-61311459D01*
X128729254Y-61355806D01*
X128703411Y-61381648D01*
X128612843Y-61528481D01*
X128612841Y-61528486D01*
X128611505Y-61532518D01*
X128558576Y-61692247D01*
X128558576Y-61692248D01*
X128558575Y-61692248D01*
X128548250Y-61793315D01*
X128548250Y-62299297D01*
X128528565Y-62366336D01*
X128475761Y-62412091D01*
X128406603Y-62422035D01*
X128343047Y-62393010D01*
X128336569Y-62386978D01*
X127441819Y-61492228D01*
X127408334Y-61430905D01*
X127405500Y-61404547D01*
X127405500Y-58454484D01*
X127425185Y-58387445D01*
X127477989Y-58341690D01*
X127547147Y-58331746D01*
X127570610Y-58338183D01*
G37*
%TD.AperFunction*%
%TA.AperFunction,Conductor*%
G36*
X127700472Y-40992951D02*
G01*
X127713154Y-41000919D01*
X127716040Y-41002790D01*
X127770821Y-41039394D01*
X127771606Y-41039719D01*
X127790134Y-41049289D01*
X127800478Y-41055789D01*
X127861175Y-41077028D01*
X127867607Y-41079484D01*
X127881825Y-41085373D01*
X127916497Y-41099735D01*
X127916498Y-41099735D01*
X127916503Y-41099737D01*
X127930139Y-41102449D01*
X127946898Y-41107023D01*
X127970745Y-41115368D01*
X128021714Y-41121110D01*
X128031992Y-41122709D01*
X128059140Y-41128109D01*
X128071157Y-41130500D01*
X128071158Y-41130500D01*
X128098085Y-41130500D01*
X128111969Y-41131280D01*
X128149998Y-41135565D01*
X128150000Y-41135565D01*
X128150002Y-41135565D01*
X128188031Y-41131280D01*
X128201915Y-41130500D01*
X136496938Y-41130500D01*
X136563977Y-41150185D01*
X136609732Y-41202989D01*
X136616804Y-41244467D01*
X136621857Y-41250000D01*
X138596000Y-41250000D01*
X138663039Y-41269685D01*
X138708794Y-41322489D01*
X138720000Y-41374000D01*
X138720000Y-42349999D01*
X139699565Y-42349999D01*
X139774101Y-42343227D01*
X139774363Y-42346117D01*
X139831247Y-42351132D01*
X139886481Y-42393922D01*
X139909813Y-42459780D01*
X139910000Y-42466582D01*
X139910000Y-53013492D01*
X139890315Y-53080531D01*
X139851972Y-53118486D01*
X139706035Y-53210184D01*
X139578482Y-53337737D01*
X139482509Y-53490476D01*
X139422929Y-53660745D01*
X139422928Y-53660750D01*
X139402733Y-53839996D01*
X139402733Y-53840003D01*
X139422928Y-54019249D01*
X139422929Y-54019254D01*
X139482509Y-54189524D01*
X139538791Y-54279094D01*
X139557798Y-54345067D01*
X139557798Y-57880682D01*
X139538113Y-57947721D01*
X139485309Y-57993476D01*
X139416151Y-58003420D01*
X139352595Y-57974395D01*
X139319237Y-57928136D01*
X139318504Y-57926367D01*
X139311465Y-57909373D01*
X139286045Y-57871329D01*
X139240276Y-57802830D01*
X139240274Y-57802827D01*
X138311818Y-56874371D01*
X138278333Y-56813048D01*
X138275499Y-56786690D01*
X138275499Y-56720596D01*
X138261011Y-56610536D01*
X138258906Y-56602682D01*
X138262007Y-56601850D01*
X138256128Y-56547382D01*
X138259147Y-56537389D01*
X138258418Y-56537194D01*
X138260521Y-56529342D01*
X138271626Y-56445000D01*
X138243506Y-56445000D01*
X138176467Y-56425315D01*
X138145115Y-56396466D01*
X138144348Y-56395466D01*
X138119167Y-56330292D01*
X138133219Y-56261850D01*
X138144348Y-56244534D01*
X138145115Y-56243534D01*
X138201534Y-56202319D01*
X138243506Y-56195000D01*
X138271626Y-56195000D01*
X138260521Y-56110659D01*
X138258418Y-56102807D01*
X138262041Y-56101835D01*
X138255919Y-56049884D01*
X138259495Y-56037484D01*
X138258905Y-56037326D01*
X138261008Y-56029475D01*
X138261008Y-56029474D01*
X138261009Y-56029472D01*
X138275500Y-55919401D01*
X138275499Y-55720600D01*
X138261009Y-55610528D01*
X138261008Y-55610525D01*
X138258905Y-55602674D01*
X138262207Y-55601789D01*
X138256392Y-55548075D01*
X138259501Y-55537485D01*
X138258905Y-55537326D01*
X138261008Y-55529475D01*
X138261008Y-55529474D01*
X138261009Y-55529472D01*
X138275500Y-55419401D01*
X138275499Y-55220600D01*
X138274504Y-55213044D01*
X138261009Y-55110529D01*
X138261009Y-55110528D01*
X138261008Y-55110525D01*
X138258905Y-55102674D01*
X138262207Y-55101789D01*
X138256392Y-55048075D01*
X138259501Y-55037485D01*
X138258905Y-55037326D01*
X138261008Y-55029475D01*
X138261008Y-55029474D01*
X138261009Y-55029472D01*
X138275500Y-54919401D01*
X138275499Y-54875904D01*
X138295182Y-54808866D01*
X138311809Y-54788231D01*
X138630277Y-54469765D01*
X138701465Y-54363223D01*
X138714927Y-54330722D01*
X138750501Y-54244840D01*
X138770797Y-54142809D01*
X138775500Y-54119167D01*
X138775500Y-50280928D01*
X138750502Y-50155261D01*
X138750501Y-50155260D01*
X138750501Y-50155256D01*
X138701465Y-50036873D01*
X138653507Y-49965098D01*
X138653507Y-49965097D01*
X138641851Y-49947653D01*
X138630276Y-49930330D01*
X138630274Y-49930328D01*
X138626407Y-49925615D01*
X138628568Y-49923841D01*
X138600833Y-49873048D01*
X138597999Y-49846690D01*
X138597999Y-49481662D01*
X138597998Y-49481644D01*
X138587849Y-49382292D01*
X138587848Y-49382289D01*
X138581963Y-49364530D01*
X138534503Y-49221303D01*
X138534499Y-49221297D01*
X138534498Y-49221294D01*
X138445470Y-49076959D01*
X138445467Y-49076955D01*
X138435839Y-49067327D01*
X138402354Y-49006004D01*
X138407338Y-48936312D01*
X138435845Y-48891959D01*
X138445073Y-48882731D01*
X138534042Y-48738492D01*
X138534047Y-48738481D01*
X138587355Y-48577606D01*
X138597499Y-48478322D01*
X138597500Y-48478309D01*
X138597500Y-48455000D01*
X137496500Y-48455000D01*
X137429461Y-48435315D01*
X137383706Y-48382511D01*
X137372500Y-48331000D01*
X137372500Y-47955000D01*
X137872500Y-47955000D01*
X138597499Y-47955000D01*
X138597499Y-47931692D01*
X138597498Y-47931677D01*
X138587355Y-47832392D01*
X138534047Y-47671518D01*
X138534042Y-47671507D01*
X138445075Y-47527271D01*
X138445072Y-47527267D01*
X138325232Y-47407427D01*
X138325228Y-47407424D01*
X138180992Y-47318457D01*
X138180981Y-47318452D01*
X138020106Y-47265144D01*
X137920822Y-47255000D01*
X137872500Y-47255000D01*
X137872500Y-47955000D01*
X137372500Y-47955000D01*
X137372500Y-47255000D01*
X137372499Y-47254999D01*
X137324193Y-47255000D01*
X137324175Y-47255001D01*
X137224892Y-47265144D01*
X137064018Y-47318452D01*
X137064007Y-47318457D01*
X136964923Y-47379574D01*
X136897531Y-47398015D01*
X136830867Y-47377093D01*
X136786097Y-47323451D01*
X136783644Y-47317369D01*
X136776297Y-47297671D01*
X136776293Y-47297664D01*
X136690047Y-47182455D01*
X136690044Y-47182452D01*
X136574835Y-47096206D01*
X136574828Y-47096202D01*
X136439982Y-47045908D01*
X136439983Y-47045908D01*
X136380383Y-47039501D01*
X136380381Y-47039500D01*
X136380373Y-47039500D01*
X136380364Y-47039500D01*
X134884629Y-47039500D01*
X134884623Y-47039501D01*
X134825016Y-47045908D01*
X134690171Y-47096202D01*
X134690169Y-47096204D01*
X134606394Y-47158918D01*
X134540930Y-47183335D01*
X134472657Y-47168484D01*
X134457772Y-47158918D01*
X134374588Y-47096646D01*
X134374586Y-47096645D01*
X134239879Y-47046403D01*
X134239872Y-47046401D01*
X134180344Y-47040000D01*
X133682500Y-47040000D01*
X133682500Y-48266000D01*
X133662815Y-48333039D01*
X133610011Y-48378794D01*
X133558500Y-48390000D01*
X132490500Y-48390000D01*
X132461819Y-48418681D01*
X132400496Y-48452166D01*
X132374138Y-48455000D01*
X130497501Y-48455000D01*
X130497501Y-48478322D01*
X130507644Y-48577607D01*
X130560952Y-48738481D01*
X130560957Y-48738492D01*
X130649924Y-48882728D01*
X130649927Y-48882732D01*
X130659160Y-48891965D01*
X130692645Y-48953288D01*
X130687661Y-49022980D01*
X130659163Y-49067324D01*
X130649533Y-49076953D01*
X130649529Y-49076959D01*
X130560501Y-49221294D01*
X130560496Y-49221305D01*
X130507151Y-49382290D01*
X130497000Y-49481647D01*
X130497000Y-50028337D01*
X130497001Y-50028355D01*
X130507150Y-50127707D01*
X130507151Y-50127710D01*
X130511058Y-50139500D01*
X130559180Y-50284723D01*
X130562769Y-50295552D01*
X130560696Y-50296238D01*
X130569575Y-50354775D01*
X130551698Y-50404049D01*
X130456769Y-50555127D01*
X130397189Y-50725396D01*
X130397188Y-50725401D01*
X130376993Y-50904647D01*
X130376993Y-50904654D01*
X130397188Y-51083900D01*
X130397189Y-51083905D01*
X130456769Y-51254174D01*
X130545625Y-51395587D01*
X130564625Y-51462824D01*
X130544257Y-51529659D01*
X130528312Y-51549240D01*
X130387143Y-51690409D01*
X130328660Y-51722343D01*
X130328719Y-51722521D01*
X130327740Y-51722845D01*
X130325820Y-51723894D01*
X130325424Y-51723980D01*
X130322292Y-51724650D01*
X130161305Y-51777996D01*
X130161294Y-51778001D01*
X130016959Y-51867029D01*
X130016953Y-51867033D01*
X130007324Y-51876663D01*
X129946000Y-51910146D01*
X129876308Y-51905159D01*
X129831965Y-51876660D01*
X129822732Y-51867427D01*
X129822728Y-51867424D01*
X129678492Y-51778457D01*
X129678481Y-51778452D01*
X129517606Y-51725144D01*
X129418322Y-51715000D01*
X129395000Y-51715000D01*
X129395000Y-53584000D01*
X129375315Y-53651039D01*
X129322511Y-53696794D01*
X129301672Y-53701327D01*
X129295000Y-53708000D01*
X129295000Y-55416638D01*
X129275315Y-55483677D01*
X129258681Y-55504319D01*
X129235000Y-55528000D01*
X129235000Y-56446000D01*
X129215315Y-56513039D01*
X129162511Y-56558794D01*
X129111000Y-56570000D01*
X128859000Y-56570000D01*
X128791961Y-56550315D01*
X128746206Y-56497511D01*
X128735000Y-56446000D01*
X128735000Y-55413362D01*
X128754685Y-55346323D01*
X128771319Y-55325681D01*
X128795000Y-55302000D01*
X128795000Y-53616000D01*
X128814685Y-53548961D01*
X128867489Y-53503206D01*
X128888327Y-53498672D01*
X128895000Y-53492000D01*
X128895000Y-51714999D01*
X128871693Y-51715000D01*
X128871674Y-51715001D01*
X128772392Y-51725144D01*
X128611518Y-51778452D01*
X128611507Y-51778457D01*
X128529597Y-51828981D01*
X128462205Y-51847422D01*
X128395541Y-51826500D01*
X128350772Y-51772858D01*
X128340500Y-51723443D01*
X128340500Y-47931677D01*
X130497500Y-47931677D01*
X130497500Y-47955000D01*
X131222500Y-47955000D01*
X131222500Y-47255000D01*
X131722500Y-47255000D01*
X131722500Y-47955000D01*
X132189500Y-47955000D01*
X132218181Y-47926319D01*
X132279504Y-47892834D01*
X132305862Y-47890000D01*
X133182500Y-47890000D01*
X133182500Y-47040000D01*
X132684655Y-47040000D01*
X132625127Y-47046401D01*
X132625120Y-47046403D01*
X132490413Y-47096645D01*
X132490406Y-47096649D01*
X132375312Y-47182809D01*
X132375309Y-47182812D01*
X132289149Y-47297906D01*
X132289144Y-47297916D01*
X132287399Y-47302595D01*
X132245527Y-47358528D01*
X132180062Y-47382944D01*
X132111789Y-47368091D01*
X132106121Y-47364798D01*
X132030992Y-47318457D01*
X132030981Y-47318452D01*
X131870106Y-47265144D01*
X131770822Y-47255000D01*
X131722500Y-47255000D01*
X131222500Y-47255000D01*
X131222499Y-47254999D01*
X131174193Y-47255000D01*
X131174175Y-47255001D01*
X131074892Y-47265144D01*
X130914018Y-47318452D01*
X130914007Y-47318457D01*
X130769771Y-47407424D01*
X130769767Y-47407427D01*
X130649927Y-47527267D01*
X130649924Y-47527271D01*
X130560957Y-47671507D01*
X130560952Y-47671518D01*
X130507644Y-47832393D01*
X130497500Y-47931677D01*
X128340500Y-47931677D01*
X128340500Y-46419073D01*
X128360185Y-46352034D01*
X128412989Y-46306279D01*
X128471768Y-46296619D01*
X128471834Y-46295339D01*
X128474966Y-46295497D01*
X128474991Y-46295500D01*
X129250008Y-46295499D01*
X129250016Y-46295498D01*
X129250019Y-46295498D01*
X129306302Y-46289748D01*
X129352797Y-46284999D01*
X129519334Y-46229814D01*
X129668656Y-46137712D01*
X129792712Y-46013656D01*
X129794752Y-46010347D01*
X129796745Y-46008555D01*
X129797193Y-46007989D01*
X129797289Y-46008065D01*
X129846694Y-45963623D01*
X129915656Y-45952395D01*
X129979740Y-45980234D01*
X130005829Y-46010339D01*
X130007681Y-46013341D01*
X130007683Y-46013344D01*
X130131654Y-46137315D01*
X130280875Y-46229356D01*
X130280880Y-46229358D01*
X130447302Y-46284505D01*
X130447309Y-46284506D01*
X130550019Y-46294999D01*
X130687499Y-46294999D01*
X131187500Y-46294999D01*
X131324972Y-46294999D01*
X131324986Y-46294998D01*
X131427697Y-46284505D01*
X131594119Y-46229358D01*
X131594124Y-46229356D01*
X131743345Y-46137315D01*
X131867315Y-46013345D01*
X131959356Y-45864124D01*
X131959358Y-45864119D01*
X132014505Y-45697697D01*
X132014506Y-45697690D01*
X132024999Y-45594986D01*
X132025000Y-45594973D01*
X132025000Y-45320000D01*
X131187500Y-45320000D01*
X131187500Y-46294999D01*
X130687499Y-46294999D01*
X130687500Y-46294998D01*
X130687500Y-44820000D01*
X131187500Y-44820000D01*
X132024999Y-44820000D01*
X132024999Y-44545028D01*
X132024998Y-44545013D01*
X132014505Y-44442302D01*
X131959358Y-44275880D01*
X131959356Y-44275875D01*
X131867315Y-44126654D01*
X131743345Y-44002684D01*
X131594124Y-43910643D01*
X131594119Y-43910641D01*
X131427697Y-43855494D01*
X131427690Y-43855493D01*
X131324986Y-43845000D01*
X131187500Y-43845000D01*
X131187500Y-44820000D01*
X130687500Y-44820000D01*
X130687500Y-43845000D01*
X130550027Y-43845000D01*
X130550012Y-43845001D01*
X130447302Y-43855494D01*
X130280880Y-43910641D01*
X130280875Y-43910643D01*
X130131654Y-44002684D01*
X130007683Y-44126655D01*
X130007679Y-44126660D01*
X130005826Y-44129665D01*
X130004018Y-44131290D01*
X130003202Y-44132323D01*
X130003025Y-44132183D01*
X129953874Y-44176385D01*
X129884911Y-44187601D01*
X129820831Y-44159752D01*
X129794753Y-44129653D01*
X129794737Y-44129628D01*
X129792712Y-44126344D01*
X129668656Y-44002288D01*
X129534148Y-43919323D01*
X129519336Y-43910187D01*
X129519331Y-43910185D01*
X129517862Y-43909698D01*
X129352797Y-43855001D01*
X129352795Y-43855000D01*
X129250010Y-43844500D01*
X128474998Y-43844500D01*
X128471837Y-43844662D01*
X128471767Y-43843302D01*
X128408375Y-43831498D01*
X128357505Y-43783602D01*
X128340500Y-43720927D01*
X128340500Y-43586153D01*
X128337840Y-43572787D01*
X128337839Y-43572786D01*
X128337838Y-43572777D01*
X128309737Y-43431503D01*
X128286618Y-43375689D01*
X128275738Y-43349423D01*
X128263579Y-43320067D01*
X128249394Y-43285821D01*
X128249392Y-43285819D01*
X128249392Y-43285817D01*
X128161790Y-43154712D01*
X128107061Y-43099983D01*
X133319500Y-43099983D01*
X133319500Y-43800001D01*
X133319501Y-43800019D01*
X133330000Y-43902796D01*
X133330001Y-43902799D01*
X133385185Y-44069331D01*
X133385187Y-44069336D01*
X133410293Y-44110039D01*
X133477288Y-44218656D01*
X133601344Y-44342712D01*
X133750666Y-44434814D01*
X133917203Y-44489999D01*
X134019991Y-44500500D01*
X135520008Y-44500499D01*
X135622797Y-44489999D01*
X135789334Y-44434814D01*
X135938656Y-44342712D01*
X136062712Y-44218656D01*
X136154814Y-44069334D01*
X136209999Y-43902797D01*
X136220500Y-43800009D01*
X136220499Y-43099992D01*
X136209999Y-42997203D01*
X136154814Y-42830666D01*
X136062712Y-42681344D01*
X135938656Y-42557288D01*
X135808491Y-42477002D01*
X135789336Y-42465187D01*
X135789331Y-42465185D01*
X135765840Y-42457401D01*
X135622797Y-42410001D01*
X135622795Y-42410000D01*
X135520010Y-42399500D01*
X134019998Y-42399500D01*
X134019981Y-42399501D01*
X133917203Y-42410000D01*
X133917200Y-42410001D01*
X133750668Y-42465185D01*
X133750663Y-42465187D01*
X133601342Y-42557289D01*
X133477289Y-42681342D01*
X133385187Y-42830663D01*
X133385185Y-42830668D01*
X133357349Y-42914670D01*
X133330001Y-42997203D01*
X133330001Y-42997204D01*
X133330000Y-42997204D01*
X133319500Y-43099983D01*
X128107061Y-43099983D01*
X128107058Y-43099980D01*
X128050289Y-43043211D01*
X127546819Y-42539741D01*
X127513334Y-42478418D01*
X127510500Y-42452060D01*
X127510500Y-42256813D01*
X127510499Y-42256798D01*
X127507710Y-42221361D01*
X127507598Y-42219931D01*
X127504787Y-42210256D01*
X127461745Y-42062106D01*
X127461744Y-42062103D01*
X127461744Y-42062102D01*
X127378081Y-41920635D01*
X127378079Y-41920633D01*
X127378076Y-41920629D01*
X127261870Y-41804423D01*
X127261867Y-41804421D01*
X127261865Y-41804419D01*
X127261549Y-41804232D01*
X127261353Y-41804022D01*
X127255702Y-41799639D01*
X127256409Y-41798727D01*
X127213866Y-41753164D01*
X127213290Y-41750000D01*
X136621857Y-41750000D01*
X136626178Y-41797558D01*
X136674947Y-41954065D01*
X136759743Y-42094337D01*
X136759747Y-42094342D01*
X136875657Y-42210252D01*
X136875662Y-42210256D01*
X137015934Y-42295052D01*
X137172437Y-42343820D01*
X137240443Y-42349999D01*
X138219999Y-42349999D01*
X138220000Y-42349998D01*
X138220000Y-41750000D01*
X136621857Y-41750000D01*
X127213290Y-41750000D01*
X127201362Y-41684423D01*
X127228006Y-41619833D01*
X127255921Y-41595644D01*
X127255702Y-41595361D01*
X127260911Y-41591320D01*
X127261550Y-41590767D01*
X127261865Y-41590581D01*
X127378081Y-41474365D01*
X127461744Y-41332898D01*
X127507598Y-41175069D01*
X127510500Y-41138194D01*
X127510500Y-41097944D01*
X127530185Y-41030905D01*
X127582989Y-40985150D01*
X127652147Y-40975206D01*
X127700472Y-40992951D01*
G37*
%TD.AperFunction*%
%TA.AperFunction,Conductor*%
G36*
X134932514Y-53554501D02*
G01*
X134932674Y-53553905D01*
X134940524Y-53556008D01*
X134940526Y-53556008D01*
X134940528Y-53556009D01*
X135050599Y-53570500D01*
X135145007Y-53570499D01*
X135212045Y-53590183D01*
X135257801Y-53642986D01*
X135263050Y-53679497D01*
X135600000Y-54016447D01*
X135600001Y-54016447D01*
X135936694Y-53679751D01*
X135938373Y-53652353D01*
X135979672Y-53595995D01*
X136044884Y-53570912D01*
X136054967Y-53570499D01*
X136249400Y-53570499D01*
X136262039Y-53568835D01*
X136331073Y-53579600D01*
X136383329Y-53625980D01*
X136402215Y-53693249D01*
X136401164Y-53707952D01*
X136399500Y-53720597D01*
X136399500Y-53915008D01*
X136379815Y-53982047D01*
X136327011Y-54027802D01*
X136290499Y-54033051D01*
X135953553Y-54369999D01*
X135953553Y-54370001D01*
X136290245Y-54706693D01*
X136317643Y-54708371D01*
X136374002Y-54749669D01*
X136399087Y-54814880D01*
X136399500Y-54824989D01*
X136399500Y-54919402D01*
X136413989Y-55029468D01*
X136416094Y-55037322D01*
X136412814Y-55038200D01*
X136418581Y-55092073D01*
X136415517Y-55102522D01*
X136416095Y-55102677D01*
X136413990Y-55110529D01*
X136399500Y-55220598D01*
X136399500Y-55315008D01*
X136379815Y-55382047D01*
X136327011Y-55427802D01*
X136290499Y-55433051D01*
X135953553Y-55769999D01*
X135953553Y-55770001D01*
X136290609Y-56107057D01*
X136316464Y-56108642D01*
X136372822Y-56149940D01*
X136379826Y-56168150D01*
X136403374Y-56195000D01*
X136431494Y-56195000D01*
X136498533Y-56214685D01*
X136529885Y-56243534D01*
X136530652Y-56244534D01*
X136555833Y-56309708D01*
X136541781Y-56378150D01*
X136530652Y-56395466D01*
X136529885Y-56396466D01*
X136473466Y-56437681D01*
X136431494Y-56445000D01*
X136403373Y-56445000D01*
X136398863Y-56450142D01*
X136390910Y-56501142D01*
X136344530Y-56553398D01*
X136277261Y-56572283D01*
X136262554Y-56571231D01*
X136249404Y-56569500D01*
X136054990Y-56569500D01*
X135987951Y-56549815D01*
X135942196Y-56497011D01*
X135936945Y-56460497D01*
X135600001Y-56123553D01*
X135600000Y-56123553D01*
X135263304Y-56460246D01*
X135261626Y-56487647D01*
X135220327Y-56544004D01*
X135155115Y-56569087D01*
X135145009Y-56569500D01*
X135050597Y-56569500D01*
X134940531Y-56583989D01*
X134932678Y-56586094D01*
X134931802Y-56582824D01*
X134877853Y-56588567D01*
X134867477Y-56585518D01*
X134867323Y-56586095D01*
X134859470Y-56583990D01*
X134749402Y-56569500D01*
X134654990Y-56569500D01*
X134587951Y-56549815D01*
X134542196Y-56497011D01*
X134536945Y-56460497D01*
X134200001Y-56123553D01*
X134200000Y-56123553D01*
X133862939Y-56460611D01*
X133861355Y-56486467D01*
X133820055Y-56542824D01*
X133801850Y-56549826D01*
X133775000Y-56573373D01*
X133775000Y-56601494D01*
X133755315Y-56668533D01*
X133726466Y-56699885D01*
X133725466Y-56700652D01*
X133660292Y-56725833D01*
X133591850Y-56711781D01*
X133574534Y-56700652D01*
X133573534Y-56699885D01*
X133532319Y-56643466D01*
X133525000Y-56601494D01*
X133525000Y-56573373D01*
X133519857Y-56568863D01*
X133468857Y-56560910D01*
X133416601Y-56514530D01*
X133397716Y-56447261D01*
X133398769Y-56432547D01*
X133399721Y-56425315D01*
X133400500Y-56419401D01*
X133400499Y-56224991D01*
X133420183Y-56157952D01*
X133472987Y-56112197D01*
X133509499Y-56106947D01*
X133846447Y-55770000D01*
X133816610Y-55740163D01*
X134050000Y-55740163D01*
X134050000Y-55799837D01*
X134072836Y-55854968D01*
X134115032Y-55897164D01*
X134170163Y-55920000D01*
X134229837Y-55920000D01*
X134284968Y-55897164D01*
X134327164Y-55854968D01*
X134350000Y-55799837D01*
X134350000Y-55769999D01*
X134553553Y-55769999D01*
X134553553Y-55770001D01*
X134882060Y-56098508D01*
X134917938Y-56098508D01*
X135246447Y-55770000D01*
X135246447Y-55769999D01*
X135216611Y-55740163D01*
X135450000Y-55740163D01*
X135450000Y-55799837D01*
X135472836Y-55854968D01*
X135515032Y-55897164D01*
X135570163Y-55920000D01*
X135629837Y-55920000D01*
X135684968Y-55897164D01*
X135727164Y-55854968D01*
X135750000Y-55799837D01*
X135750000Y-55740163D01*
X135727164Y-55685032D01*
X135684968Y-55642836D01*
X135629837Y-55620000D01*
X135570163Y-55620000D01*
X135515032Y-55642836D01*
X135472836Y-55685032D01*
X135450000Y-55740163D01*
X135216611Y-55740163D01*
X134917938Y-55441490D01*
X134882060Y-55441490D01*
X134553553Y-55769999D01*
X134350000Y-55769999D01*
X134350000Y-55740163D01*
X134327164Y-55685032D01*
X134284968Y-55642836D01*
X134229837Y-55620000D01*
X134170163Y-55620000D01*
X134115032Y-55642836D01*
X134072836Y-55685032D01*
X134050000Y-55740163D01*
X133816610Y-55740163D01*
X133509904Y-55433457D01*
X133481851Y-55431738D01*
X133425494Y-55390438D01*
X133400412Y-55325225D01*
X133400000Y-55315121D01*
X133400000Y-55220636D01*
X133399998Y-55220620D01*
X133385521Y-55110653D01*
X133383418Y-55102803D01*
X133386669Y-55101931D01*
X133381303Y-55052060D01*
X133871490Y-55052060D01*
X133871490Y-55087938D01*
X134200000Y-55416447D01*
X134200001Y-55416447D01*
X134528508Y-55087938D01*
X134528508Y-55052060D01*
X135271490Y-55052060D01*
X135271490Y-55087938D01*
X135600000Y-55416447D01*
X135600001Y-55416447D01*
X135928508Y-55087938D01*
X135928508Y-55052060D01*
X135600001Y-54723553D01*
X135600000Y-54723553D01*
X135271490Y-55052060D01*
X134528508Y-55052060D01*
X134200001Y-54723553D01*
X134200000Y-54723553D01*
X133871490Y-55052060D01*
X133381303Y-55052060D01*
X133380866Y-55047995D01*
X133383991Y-55037350D01*
X133383418Y-55037197D01*
X133385521Y-55029346D01*
X133399998Y-54919379D01*
X133400000Y-54919363D01*
X133400000Y-54824877D01*
X133419685Y-54757838D01*
X133472489Y-54712083D01*
X133509715Y-54706730D01*
X133846447Y-54370000D01*
X133816610Y-54340163D01*
X134050000Y-54340163D01*
X134050000Y-54399837D01*
X134072836Y-54454968D01*
X134115032Y-54497164D01*
X134170163Y-54520000D01*
X134229837Y-54520000D01*
X134284968Y-54497164D01*
X134327164Y-54454968D01*
X134350000Y-54399837D01*
X134350000Y-54369999D01*
X134553553Y-54369999D01*
X134553553Y-54370001D01*
X134882060Y-54698508D01*
X134917938Y-54698508D01*
X135246447Y-54370000D01*
X135246447Y-54369999D01*
X135216611Y-54340163D01*
X135450000Y-54340163D01*
X135450000Y-54399837D01*
X135472836Y-54454968D01*
X135515032Y-54497164D01*
X135570163Y-54520000D01*
X135629837Y-54520000D01*
X135684968Y-54497164D01*
X135727164Y-54454968D01*
X135750000Y-54399837D01*
X135750000Y-54340163D01*
X135727164Y-54285032D01*
X135684968Y-54242836D01*
X135629837Y-54220000D01*
X135570163Y-54220000D01*
X135515032Y-54242836D01*
X135472836Y-54285032D01*
X135450000Y-54340163D01*
X135216611Y-54340163D01*
X134917938Y-54041490D01*
X134882060Y-54041490D01*
X134553553Y-54369999D01*
X134350000Y-54369999D01*
X134350000Y-54340163D01*
X134327164Y-54285032D01*
X134284968Y-54242836D01*
X134229837Y-54220000D01*
X134170163Y-54220000D01*
X134115032Y-54242836D01*
X134072836Y-54285032D01*
X134050000Y-54340163D01*
X133816610Y-54340163D01*
X133509750Y-54033303D01*
X133482350Y-54031624D01*
X133425993Y-53990324D01*
X133400911Y-53925111D01*
X133400499Y-53915030D01*
X133400499Y-53720600D01*
X133398835Y-53707959D01*
X133409601Y-53638925D01*
X133455981Y-53586669D01*
X133523249Y-53567784D01*
X133537959Y-53568836D01*
X133537982Y-53568839D01*
X133550599Y-53570500D01*
X133745006Y-53570499D01*
X133812046Y-53590183D01*
X133857801Y-53642987D01*
X133863050Y-53679497D01*
X134200000Y-54016447D01*
X134200001Y-54016447D01*
X134536694Y-53679751D01*
X134538373Y-53652353D01*
X134579672Y-53595995D01*
X134644884Y-53570912D01*
X134654979Y-53570499D01*
X134749400Y-53570499D01*
X134749402Y-53570499D01*
X134778382Y-53566683D01*
X134859472Y-53556009D01*
X134859475Y-53556007D01*
X134867326Y-53553905D01*
X134868210Y-53557207D01*
X134921925Y-53551392D01*
X134932514Y-53554501D01*
G37*
%TD.AperFunction*%
%TA.AperFunction,Conductor*%
G36*
X117175203Y-37047017D02*
G01*
X117181681Y-37053049D01*
X117419306Y-37290673D01*
X117452791Y-37351996D01*
X117447807Y-37421687D01*
X117438357Y-37441474D01*
X117350757Y-37589599D01*
X117350754Y-37589606D01*
X117304902Y-37747426D01*
X117304901Y-37747432D01*
X117302000Y-37784298D01*
X117302000Y-38215701D01*
X117304901Y-38252567D01*
X117304902Y-38252573D01*
X117350754Y-38410393D01*
X117350755Y-38410396D01*
X117434417Y-38551862D01*
X117434423Y-38551870D01*
X117550629Y-38668076D01*
X117550633Y-38668079D01*
X117550635Y-38668081D01*
X117692102Y-38751744D01*
X117733724Y-38763836D01*
X117849926Y-38797597D01*
X117849929Y-38797597D01*
X117849931Y-38797598D01*
X117886806Y-38800500D01*
X119053000Y-38800500D01*
X119120039Y-38820185D01*
X119165794Y-38872989D01*
X119177000Y-38924500D01*
X119177000Y-38975500D01*
X119157315Y-39042539D01*
X119104511Y-39088294D01*
X119053000Y-39099500D01*
X117886798Y-39099500D01*
X117849932Y-39102401D01*
X117849926Y-39102402D01*
X117692106Y-39148254D01*
X117692103Y-39148255D01*
X117550637Y-39231917D01*
X117550629Y-39231923D01*
X117434423Y-39348129D01*
X117434417Y-39348137D01*
X117350755Y-39489603D01*
X117350754Y-39489606D01*
X117304902Y-39647426D01*
X117304901Y-39647432D01*
X117302000Y-39684298D01*
X117302000Y-40115701D01*
X117304901Y-40152567D01*
X117304902Y-40152573D01*
X117350754Y-40310393D01*
X117350755Y-40310396D01*
X117434417Y-40451862D01*
X117434423Y-40451870D01*
X117550629Y-40568076D01*
X117550633Y-40568079D01*
X117550635Y-40568081D01*
X117692102Y-40651744D01*
X117733724Y-40663836D01*
X117849926Y-40697597D01*
X117849929Y-40697597D01*
X117849931Y-40697598D01*
X117886806Y-40700500D01*
X117886814Y-40700500D01*
X121204738Y-40700500D01*
X121204739Y-40700499D01*
X121359391Y-40669737D01*
X121505073Y-40609394D01*
X121636183Y-40521789D01*
X123767819Y-38390151D01*
X123829142Y-38356667D01*
X123898834Y-38361651D01*
X123954767Y-38403523D01*
X123979184Y-38468987D01*
X123979500Y-38477833D01*
X123979500Y-38976613D01*
X123985913Y-39047192D01*
X123985913Y-39047194D01*
X123985914Y-39047196D01*
X124036522Y-39209606D01*
X124036523Y-39209607D01*
X124036524Y-39209611D01*
X124061616Y-39251116D01*
X124079500Y-39315267D01*
X124079500Y-39717258D01*
X124062233Y-39780378D01*
X124058254Y-39787105D01*
X124058254Y-39787106D01*
X124012402Y-39944926D01*
X124012401Y-39944932D01*
X124009500Y-39981798D01*
X124009500Y-41138201D01*
X124012401Y-41175067D01*
X124012402Y-41175073D01*
X124058254Y-41332893D01*
X124058255Y-41332896D01*
X124141917Y-41474362D01*
X124141923Y-41474370D01*
X124258129Y-41590576D01*
X124258140Y-41590585D01*
X124258455Y-41590771D01*
X124258650Y-41590980D01*
X124264298Y-41595361D01*
X124263591Y-41596272D01*
X124306136Y-41641843D01*
X124318637Y-41710585D01*
X124291988Y-41775173D01*
X124264078Y-41799356D01*
X124264298Y-41799639D01*
X124259092Y-41803676D01*
X124258455Y-41804229D01*
X124258140Y-41804414D01*
X124258129Y-41804423D01*
X124141923Y-41920629D01*
X124141917Y-41920637D01*
X124058255Y-42062103D01*
X124058254Y-42062106D01*
X124012402Y-42219926D01*
X124012401Y-42219932D01*
X124009500Y-42256798D01*
X124009500Y-43413201D01*
X124012401Y-43450067D01*
X124012402Y-43450073D01*
X124058254Y-43607893D01*
X124058255Y-43607896D01*
X124058256Y-43607898D01*
X124095681Y-43671181D01*
X124141917Y-43749362D01*
X124141923Y-43749370D01*
X124258129Y-43865576D01*
X124258140Y-43865585D01*
X124349008Y-43919323D01*
X124396692Y-43970391D01*
X124409196Y-44039133D01*
X124382551Y-44103722D01*
X124325216Y-44143653D01*
X124298491Y-44149413D01*
X124242392Y-44155144D01*
X124081518Y-44208452D01*
X124081507Y-44208457D01*
X123937271Y-44297424D01*
X123937267Y-44297427D01*
X123817427Y-44417267D01*
X123817424Y-44417271D01*
X123728457Y-44561507D01*
X123728452Y-44561518D01*
X123675144Y-44722393D01*
X123665000Y-44821677D01*
X123665000Y-44870000D01*
X124741000Y-44870000D01*
X124808039Y-44889685D01*
X124853794Y-44942489D01*
X124865000Y-44994000D01*
X124865000Y-46094999D01*
X124888308Y-46094999D01*
X124888322Y-46094998D01*
X124987607Y-46084855D01*
X125148481Y-46031547D01*
X125148492Y-46031542D01*
X125292731Y-45942573D01*
X125301959Y-45933345D01*
X125363279Y-45899856D01*
X125432971Y-45904835D01*
X125477327Y-45933339D01*
X125486955Y-45942967D01*
X125486959Y-45942970D01*
X125631294Y-46031998D01*
X125631297Y-46031999D01*
X125631303Y-46032003D01*
X125792292Y-46085349D01*
X125891655Y-46095500D01*
X126438344Y-46095499D01*
X126438352Y-46095498D01*
X126438355Y-46095498D01*
X126492760Y-46089940D01*
X126537708Y-46085349D01*
X126576496Y-46072495D01*
X126646324Y-46070094D01*
X126706366Y-46105826D01*
X126737559Y-46168346D01*
X126739500Y-46190202D01*
X126739500Y-47257275D01*
X126719815Y-47324314D01*
X126667011Y-47370069D01*
X126597853Y-47380013D01*
X126550403Y-47362813D01*
X126478492Y-47318457D01*
X126478481Y-47318452D01*
X126317606Y-47265144D01*
X126218322Y-47255000D01*
X126195000Y-47255000D01*
X126195000Y-49204999D01*
X126218308Y-49204999D01*
X126218322Y-49204998D01*
X126317607Y-49194855D01*
X126478481Y-49141547D01*
X126478487Y-49141544D01*
X126550402Y-49097186D01*
X126617794Y-49078745D01*
X126684458Y-49099667D01*
X126729228Y-49153308D01*
X126739500Y-49202724D01*
X126739500Y-54488410D01*
X126770261Y-54643053D01*
X126770264Y-54643065D01*
X126830602Y-54788736D01*
X126830609Y-54788749D01*
X126918209Y-54919851D01*
X126918210Y-54919852D01*
X126918211Y-54919853D01*
X126973182Y-54974824D01*
X127006666Y-55036145D01*
X127009500Y-55062504D01*
X127009500Y-55215548D01*
X126989815Y-55282587D01*
X126937011Y-55328342D01*
X126867853Y-55338286D01*
X126804297Y-55309261D01*
X126797819Y-55303229D01*
X123870198Y-52375608D01*
X123870178Y-52375586D01*
X123778733Y-52284141D01*
X123727509Y-52249915D01*
X123711829Y-52239438D01*
X123676286Y-52215688D01*
X123676283Y-52215686D01*
X123676280Y-52215685D01*
X123589428Y-52179711D01*
X123562453Y-52168537D01*
X123552427Y-52166543D01*
X123502029Y-52156518D01*
X123491230Y-52154370D01*
X123441610Y-52144500D01*
X123441607Y-52144500D01*
X123441606Y-52144500D01*
X122721602Y-52144500D01*
X122654563Y-52124815D01*
X122615486Y-52084651D01*
X122600471Y-52059814D01*
X122600468Y-52059810D01*
X122480188Y-51939530D01*
X122360262Y-51867032D01*
X122334606Y-51851522D01*
X122172196Y-51800914D01*
X122172194Y-51800913D01*
X122172192Y-51800913D01*
X122122778Y-51796423D01*
X122101616Y-51794500D01*
X121588384Y-51794500D01*
X121569145Y-51796248D01*
X121517807Y-51800913D01*
X121355393Y-51851522D01*
X121209811Y-51939530D01*
X121209810Y-51939531D01*
X121107681Y-52041661D01*
X121046358Y-52075146D01*
X120976666Y-52070162D01*
X120932319Y-52041661D01*
X120830188Y-51939530D01*
X120710262Y-51867032D01*
X120684606Y-51851522D01*
X120522196Y-51800914D01*
X120522194Y-51800913D01*
X120522192Y-51800913D01*
X120472778Y-51796423D01*
X120451616Y-51794500D01*
X119938384Y-51794500D01*
X119919145Y-51796248D01*
X119867807Y-51800913D01*
X119705393Y-51851522D01*
X119603727Y-51912982D01*
X119536172Y-51930818D01*
X119469698Y-51909300D01*
X119425411Y-51855260D01*
X119416219Y-51794262D01*
X119424999Y-51708322D01*
X119425000Y-51708309D01*
X119425000Y-51660000D01*
X118725000Y-51660000D01*
X118725000Y-52384999D01*
X118748308Y-52384999D01*
X118748322Y-52384998D01*
X118847607Y-52374855D01*
X119008481Y-52321547D01*
X119008488Y-52321544D01*
X119111704Y-52257879D01*
X119179097Y-52239438D01*
X119245760Y-52260360D01*
X119290530Y-52314002D01*
X119300292Y-52374638D01*
X119298747Y-52391656D01*
X119294500Y-52438386D01*
X119294500Y-53101613D01*
X119300913Y-53172192D01*
X119300913Y-53172194D01*
X119300914Y-53172196D01*
X119351522Y-53334606D01*
X119439528Y-53480185D01*
X119538182Y-53578839D01*
X119571666Y-53640160D01*
X119574500Y-53666519D01*
X119574500Y-53877218D01*
X119554815Y-53944257D01*
X119502011Y-53990012D01*
X119437250Y-54000508D01*
X119432523Y-54000000D01*
X119427873Y-53999500D01*
X119427870Y-53999500D01*
X118432129Y-53999500D01*
X118432123Y-53999501D01*
X118372518Y-54005908D01*
X118338331Y-54018659D01*
X118268639Y-54023642D01*
X118251669Y-54018659D01*
X118234140Y-54012121D01*
X118217483Y-54005909D01*
X118217482Y-54005908D01*
X118157883Y-53999501D01*
X118157881Y-53999500D01*
X118157873Y-53999500D01*
X118157864Y-53999500D01*
X117162129Y-53999500D01*
X117162123Y-53999501D01*
X117102518Y-54005908D01*
X117068331Y-54018659D01*
X116998639Y-54023642D01*
X116981669Y-54018659D01*
X116964140Y-54012121D01*
X116947483Y-54005909D01*
X116947482Y-54005908D01*
X116887883Y-53999501D01*
X116887881Y-53999500D01*
X116887873Y-53999500D01*
X116887864Y-53999500D01*
X115892129Y-53999500D01*
X115892123Y-53999501D01*
X115832518Y-54005908D01*
X115798331Y-54018659D01*
X115728639Y-54023642D01*
X115711669Y-54018659D01*
X115694140Y-54012121D01*
X115677483Y-54005909D01*
X115677482Y-54005908D01*
X115617883Y-53999501D01*
X115617881Y-53999500D01*
X115617873Y-53999500D01*
X115617864Y-53999500D01*
X114622129Y-53999500D01*
X114622123Y-53999501D01*
X114562518Y-54005908D01*
X114528331Y-54018659D01*
X114458639Y-54023642D01*
X114441669Y-54018659D01*
X114424140Y-54012121D01*
X114407483Y-54005909D01*
X114407482Y-54005908D01*
X114347883Y-53999501D01*
X114347881Y-53999500D01*
X114347873Y-53999500D01*
X114347864Y-53999500D01*
X113352129Y-53999500D01*
X113352123Y-53999501D01*
X113292518Y-54005908D01*
X113258331Y-54018659D01*
X113188639Y-54023642D01*
X113171669Y-54018659D01*
X113154140Y-54012121D01*
X113137483Y-54005909D01*
X113137482Y-54005908D01*
X113077883Y-53999501D01*
X113077881Y-53999500D01*
X113077873Y-53999500D01*
X113077865Y-53999500D01*
X112845452Y-53999500D01*
X112778413Y-53979815D01*
X112757771Y-53963181D01*
X111551819Y-52757229D01*
X111518334Y-52695906D01*
X111515500Y-52669548D01*
X111515500Y-51698322D01*
X112465001Y-51698322D01*
X112475144Y-51797607D01*
X112528452Y-51958481D01*
X112528457Y-51958492D01*
X112617424Y-52102728D01*
X112617427Y-52102732D01*
X112737267Y-52222572D01*
X112737271Y-52222575D01*
X112881507Y-52311542D01*
X112881518Y-52311547D01*
X113042393Y-52364855D01*
X113141683Y-52374999D01*
X113165000Y-52374998D01*
X113165000Y-51650000D01*
X112465001Y-51650000D01*
X112465001Y-51698322D01*
X111515500Y-51698322D01*
X111515500Y-51621359D01*
X111535185Y-51554320D01*
X111551814Y-51533682D01*
X112299478Y-50786018D01*
X112360799Y-50752535D01*
X112430490Y-50757519D01*
X112486424Y-50799391D01*
X112510841Y-50864855D01*
X112504863Y-50912704D01*
X112475144Y-51002390D01*
X112475144Y-51002391D01*
X112465000Y-51101677D01*
X112465000Y-51150000D01*
X113541000Y-51150000D01*
X113608039Y-51169685D01*
X113653794Y-51222489D01*
X113665000Y-51274000D01*
X113665000Y-52374999D01*
X113688308Y-52374999D01*
X113688322Y-52374998D01*
X113787607Y-52364855D01*
X113948481Y-52311547D01*
X113948492Y-52311542D01*
X114092731Y-52222573D01*
X114101959Y-52213345D01*
X114163279Y-52179856D01*
X114232971Y-52184835D01*
X114277327Y-52213339D01*
X114286955Y-52222967D01*
X114286959Y-52222970D01*
X114431294Y-52311998D01*
X114431297Y-52311999D01*
X114431303Y-52312003D01*
X114592292Y-52365349D01*
X114691655Y-52375500D01*
X115238344Y-52375499D01*
X115238352Y-52375498D01*
X115238355Y-52375498D01*
X115292760Y-52369940D01*
X115337708Y-52365349D01*
X115498697Y-52312003D01*
X115543069Y-52284634D01*
X115649191Y-52219177D01*
X115650868Y-52221896D01*
X115702466Y-52201091D01*
X115714560Y-52200500D01*
X115918085Y-52200500D01*
X115931969Y-52201280D01*
X115969998Y-52205565D01*
X115970000Y-52205565D01*
X115970002Y-52205565D01*
X116008031Y-52201280D01*
X116021915Y-52200500D01*
X116163126Y-52200500D01*
X116230165Y-52220185D01*
X116240973Y-52228894D01*
X116241293Y-52228490D01*
X116246959Y-52232970D01*
X116391294Y-52321998D01*
X116391297Y-52321999D01*
X116391303Y-52322003D01*
X116552292Y-52375349D01*
X116651655Y-52385500D01*
X117198344Y-52385499D01*
X117198352Y-52385498D01*
X117198355Y-52385498D01*
X117252760Y-52379940D01*
X117297708Y-52375349D01*
X117458697Y-52322003D01*
X117603044Y-52232968D01*
X117612668Y-52223343D01*
X117673987Y-52189856D01*
X117743679Y-52194835D01*
X117788034Y-52223339D01*
X117797267Y-52232572D01*
X117797271Y-52232575D01*
X117941507Y-52321542D01*
X117941518Y-52321547D01*
X118102393Y-52374855D01*
X118201683Y-52384999D01*
X118225000Y-52384998D01*
X118225000Y-51284000D01*
X118244685Y-51216961D01*
X118297489Y-51171206D01*
X118349000Y-51160000D01*
X119424999Y-51160000D01*
X119424999Y-51111692D01*
X119424998Y-51111677D01*
X119414856Y-51012394D01*
X119402937Y-50976426D01*
X119400535Y-50906597D01*
X119436266Y-50846555D01*
X119473191Y-50822860D01*
X119573122Y-50781467D01*
X119573121Y-50781467D01*
X119573127Y-50781465D01*
X119590010Y-50770184D01*
X119679669Y-50710277D01*
X120385627Y-50004319D01*
X120446950Y-49970834D01*
X120473308Y-49968000D01*
X120955686Y-49968000D01*
X120955694Y-49968000D01*
X120992569Y-49965098D01*
X120992571Y-49965097D01*
X120992573Y-49965097D01*
X121034191Y-49953005D01*
X121150398Y-49919244D01*
X121291865Y-49835581D01*
X121408081Y-49719365D01*
X121491744Y-49577898D01*
X121537598Y-49420069D01*
X121540500Y-49383194D01*
X121540500Y-49142000D01*
X121560185Y-49074961D01*
X121612989Y-49029206D01*
X121664500Y-49018000D01*
X122098658Y-49018000D01*
X122125585Y-49018000D01*
X122139469Y-49018780D01*
X122177498Y-49023065D01*
X122177500Y-49023065D01*
X122177502Y-49023065D01*
X122215531Y-49018780D01*
X122229415Y-49018000D01*
X123630626Y-49018000D01*
X123697665Y-49037685D01*
X123711207Y-49048598D01*
X123711293Y-49048490D01*
X123716959Y-49052970D01*
X123861294Y-49141998D01*
X123861297Y-49141999D01*
X123861303Y-49142003D01*
X124022292Y-49195349D01*
X124121655Y-49205500D01*
X124668344Y-49205499D01*
X124668352Y-49205498D01*
X124668355Y-49205498D01*
X124722760Y-49199940D01*
X124767708Y-49195349D01*
X124928697Y-49142003D01*
X125073044Y-49052968D01*
X125082668Y-49043343D01*
X125143987Y-49009856D01*
X125213679Y-49014835D01*
X125258034Y-49043339D01*
X125267267Y-49052572D01*
X125267271Y-49052575D01*
X125411507Y-49141542D01*
X125411518Y-49141547D01*
X125572393Y-49194855D01*
X125671683Y-49204999D01*
X125695000Y-49204998D01*
X125695000Y-47254999D01*
X125671693Y-47255000D01*
X125671674Y-47255001D01*
X125572392Y-47265144D01*
X125411518Y-47318452D01*
X125411507Y-47318457D01*
X125267271Y-47407424D01*
X125267265Y-47407428D01*
X125258031Y-47416663D01*
X125196707Y-47450146D01*
X125127015Y-47445159D01*
X125082672Y-47416660D01*
X125073044Y-47407032D01*
X125073040Y-47407029D01*
X124928705Y-47318001D01*
X124928699Y-47317998D01*
X124928697Y-47317997D01*
X124926802Y-47317369D01*
X124767709Y-47264651D01*
X124668346Y-47254500D01*
X124121662Y-47254500D01*
X124121644Y-47254501D01*
X124022292Y-47264650D01*
X124022289Y-47264651D01*
X123861305Y-47317996D01*
X123861294Y-47318001D01*
X123730726Y-47398538D01*
X123665629Y-47417000D01*
X122229415Y-47417000D01*
X122215531Y-47416220D01*
X122177502Y-47411935D01*
X122177498Y-47411935D01*
X122139469Y-47416220D01*
X122125585Y-47417000D01*
X121664500Y-47417000D01*
X121597461Y-47397315D01*
X121551706Y-47344511D01*
X121540500Y-47293000D01*
X121540500Y-47051813D01*
X121540499Y-47051798D01*
X121540074Y-47046403D01*
X121537598Y-47014931D01*
X121491744Y-46857102D01*
X121408081Y-46715635D01*
X121408079Y-46715633D01*
X121408076Y-46715629D01*
X121291870Y-46599423D01*
X121291862Y-46599417D01*
X121195361Y-46542347D01*
X121150398Y-46515756D01*
X121150397Y-46515755D01*
X121150396Y-46515755D01*
X121150393Y-46515753D01*
X121042405Y-46484380D01*
X120983519Y-46446774D01*
X120954313Y-46383301D01*
X120953000Y-46365304D01*
X120953000Y-45890706D01*
X120972685Y-45823667D01*
X121025489Y-45777912D01*
X121067271Y-45767088D01*
X121092569Y-45765098D01*
X121092571Y-45765097D01*
X121092573Y-45765097D01*
X121153000Y-45747541D01*
X121250398Y-45719244D01*
X121391865Y-45635581D01*
X121508081Y-45519365D01*
X121591744Y-45377898D01*
X121611767Y-45308976D01*
X121649372Y-45250092D01*
X121712844Y-45220885D01*
X121782031Y-45230630D01*
X121834966Y-45276234D01*
X121835836Y-45277599D01*
X121855554Y-45308979D01*
X121870184Y-45332262D01*
X121997738Y-45459816D01*
X122024741Y-45476783D01*
X122134849Y-45545969D01*
X122150478Y-45555789D01*
X122320745Y-45615368D01*
X122320750Y-45615369D01*
X122499996Y-45635565D01*
X122500000Y-45635565D01*
X122500004Y-45635565D01*
X122679249Y-45615369D01*
X122679252Y-45615368D01*
X122679255Y-45615368D01*
X122849522Y-45555789D01*
X123002262Y-45459816D01*
X123043756Y-45418322D01*
X123665001Y-45418322D01*
X123675144Y-45517607D01*
X123728452Y-45678481D01*
X123728457Y-45678492D01*
X123817424Y-45822728D01*
X123817427Y-45822732D01*
X123937267Y-45942572D01*
X123937271Y-45942575D01*
X124081507Y-46031542D01*
X124081518Y-46031547D01*
X124242393Y-46084855D01*
X124341683Y-46094999D01*
X124365000Y-46094998D01*
X124365000Y-45370000D01*
X123665001Y-45370000D01*
X123665001Y-45418322D01*
X123043756Y-45418322D01*
X123129816Y-45332262D01*
X123225789Y-45179522D01*
X123285368Y-45009255D01*
X123302459Y-44857573D01*
X123305565Y-44830002D01*
X123305565Y-44829998D01*
X123293707Y-44724765D01*
X123305761Y-44655943D01*
X123329242Y-44623203D01*
X123383081Y-44569365D01*
X123466744Y-44427898D01*
X123504764Y-44297033D01*
X123512597Y-44270073D01*
X123512598Y-44270067D01*
X123515499Y-44233201D01*
X123515500Y-44233194D01*
X123515500Y-43801806D01*
X123512598Y-43764931D01*
X123504071Y-43735582D01*
X123466745Y-43607106D01*
X123466744Y-43607103D01*
X123466744Y-43607102D01*
X123383081Y-43465635D01*
X123383079Y-43465633D01*
X123383076Y-43465629D01*
X123266870Y-43349423D01*
X123266862Y-43349417D01*
X123159326Y-43285821D01*
X123125398Y-43265756D01*
X123125397Y-43265755D01*
X123125396Y-43265755D01*
X123125393Y-43265754D01*
X122967573Y-43219902D01*
X122967567Y-43219901D01*
X122930701Y-43217000D01*
X122930694Y-43217000D01*
X121764500Y-43217000D01*
X121697461Y-43197315D01*
X121651706Y-43144511D01*
X121640500Y-43093000D01*
X121640500Y-42851813D01*
X121640499Y-42851798D01*
X121637598Y-42814932D01*
X121637597Y-42814926D01*
X121591745Y-42657106D01*
X121591744Y-42657103D01*
X121591744Y-42657102D01*
X121508081Y-42515635D01*
X121508079Y-42515633D01*
X121508076Y-42515629D01*
X121391870Y-42399423D01*
X121391862Y-42399417D01*
X121253147Y-42317382D01*
X121250398Y-42315756D01*
X121250396Y-42315755D01*
X121247790Y-42314214D01*
X121200107Y-42263145D01*
X121187691Y-42221365D01*
X121185368Y-42200745D01*
X121125789Y-42030478D01*
X121029816Y-41877738D01*
X120902262Y-41750184D01*
X120855428Y-41720756D01*
X120749523Y-41654211D01*
X120579254Y-41594631D01*
X120579249Y-41594630D01*
X120400004Y-41574435D01*
X120399996Y-41574435D01*
X120220750Y-41594630D01*
X120220745Y-41594631D01*
X120050476Y-41654211D01*
X119897737Y-41750184D01*
X119770184Y-41877737D01*
X119674210Y-42030478D01*
X119614630Y-42200749D01*
X119611950Y-42224537D01*
X119584881Y-42288950D01*
X119551851Y-42317382D01*
X119413138Y-42399416D01*
X119413129Y-42399423D01*
X119296923Y-42515629D01*
X119296917Y-42515637D01*
X119213255Y-42657103D01*
X119213254Y-42657106D01*
X119167402Y-42814926D01*
X119167401Y-42814932D01*
X119164500Y-42851798D01*
X119164500Y-43283201D01*
X119167401Y-43320067D01*
X119167402Y-43320073D01*
X119213254Y-43477893D01*
X119213255Y-43477896D01*
X119296917Y-43619362D01*
X119296923Y-43619370D01*
X119413129Y-43735576D01*
X119413133Y-43735579D01*
X119413135Y-43735581D01*
X119554602Y-43819244D01*
X119596224Y-43831336D01*
X119712426Y-43865097D01*
X119712429Y-43865097D01*
X119712431Y-43865098D01*
X119749306Y-43868000D01*
X120915500Y-43868000D01*
X120982539Y-43887685D01*
X121028294Y-43940489D01*
X121039500Y-43992000D01*
X121039500Y-44043000D01*
X121019815Y-44110039D01*
X120967011Y-44155794D01*
X120915500Y-44167000D01*
X119749298Y-44167000D01*
X119712432Y-44169901D01*
X119712426Y-44169902D01*
X119554606Y-44215754D01*
X119554603Y-44215755D01*
X119413137Y-44299417D01*
X119413129Y-44299423D01*
X119296923Y-44415629D01*
X119296917Y-44415637D01*
X119213255Y-44557103D01*
X119213254Y-44557106D01*
X119167402Y-44714926D01*
X119167401Y-44714932D01*
X119164500Y-44751798D01*
X119164500Y-45183201D01*
X119167401Y-45220067D01*
X119167402Y-45220073D01*
X119213254Y-45377893D01*
X119213255Y-45377896D01*
X119213256Y-45377898D01*
X119229579Y-45405499D01*
X119296917Y-45519362D01*
X119296923Y-45519370D01*
X119413129Y-45635576D01*
X119413133Y-45635579D01*
X119413135Y-45635581D01*
X119554602Y-45719244D01*
X119562590Y-45721564D01*
X119621477Y-45759167D01*
X119650686Y-45822639D01*
X119652000Y-45840642D01*
X119652000Y-46365304D01*
X119632315Y-46432343D01*
X119579511Y-46478098D01*
X119562595Y-46484380D01*
X119454606Y-46515753D01*
X119454603Y-46515755D01*
X119312605Y-46599732D01*
X119249484Y-46617000D01*
X114716044Y-46617000D01*
X114649005Y-46597315D01*
X114603250Y-46544511D01*
X114593306Y-46475353D01*
X114622331Y-46411797D01*
X114628363Y-46405319D01*
X115591863Y-45441819D01*
X115653186Y-45408334D01*
X115679544Y-45405500D01*
X115695686Y-45405500D01*
X115695694Y-45405500D01*
X115732569Y-45402598D01*
X115732571Y-45402597D01*
X115732573Y-45402597D01*
X115817586Y-45377898D01*
X115890398Y-45356744D01*
X116031865Y-45273081D01*
X116031870Y-45273076D01*
X116038026Y-45268301D01*
X116039839Y-45270638D01*
X116088949Y-45243798D01*
X116158643Y-45248756D01*
X116190996Y-45269551D01*
X116192278Y-45267900D01*
X116198447Y-45272685D01*
X116339801Y-45356281D01*
X116497514Y-45402100D01*
X116497511Y-45402100D01*
X116499998Y-45402295D01*
X116500000Y-45402295D01*
X117000000Y-45402295D01*
X117000001Y-45402295D01*
X117002486Y-45402100D01*
X117160198Y-45356281D01*
X117301552Y-45272685D01*
X117301561Y-45272678D01*
X117417678Y-45156561D01*
X117417685Y-45156552D01*
X117501282Y-45015196D01*
X117501283Y-45015193D01*
X117547099Y-44857495D01*
X117547100Y-44857489D01*
X117549999Y-44820649D01*
X117550000Y-44820634D01*
X117550000Y-44180000D01*
X117000000Y-44180000D01*
X117000000Y-45402295D01*
X116500000Y-45402295D01*
X116500000Y-43680000D01*
X117000000Y-43680000D01*
X117550000Y-43680000D01*
X117550000Y-43039365D01*
X117549999Y-43039350D01*
X117547100Y-43002510D01*
X117547099Y-43002504D01*
X117501283Y-42844806D01*
X117501282Y-42844803D01*
X117417685Y-42703447D01*
X117417678Y-42703438D01*
X117301561Y-42587321D01*
X117301552Y-42587314D01*
X117160196Y-42503717D01*
X117160193Y-42503716D01*
X117002494Y-42457900D01*
X117002497Y-42457900D01*
X117000000Y-42457703D01*
X117000000Y-43680000D01*
X116500000Y-43680000D01*
X116500000Y-42457703D01*
X116497503Y-42457900D01*
X116339806Y-42503716D01*
X116339803Y-42503717D01*
X116198449Y-42587313D01*
X116192283Y-42592097D01*
X116190389Y-42589655D01*
X116141580Y-42616239D01*
X116071894Y-42611179D01*
X116039227Y-42590159D01*
X116038031Y-42591702D01*
X116031862Y-42586917D01*
X115911330Y-42515635D01*
X115890398Y-42503256D01*
X115890397Y-42503255D01*
X115890396Y-42503255D01*
X115890393Y-42503254D01*
X115732573Y-42457402D01*
X115732567Y-42457401D01*
X115695701Y-42454500D01*
X115695694Y-42454500D01*
X115264306Y-42454500D01*
X115264298Y-42454500D01*
X115227432Y-42457401D01*
X115227426Y-42457402D01*
X115069606Y-42503254D01*
X115069603Y-42503255D01*
X114928137Y-42586917D01*
X114921969Y-42591702D01*
X114920072Y-42589256D01*
X114871358Y-42615857D01*
X114801666Y-42610873D01*
X114769296Y-42590069D01*
X114768031Y-42591702D01*
X114761862Y-42586917D01*
X114641330Y-42515635D01*
X114620398Y-42503256D01*
X114620397Y-42503255D01*
X114620396Y-42503255D01*
X114620393Y-42503254D01*
X114462573Y-42457402D01*
X114462567Y-42457401D01*
X114425701Y-42454500D01*
X114425694Y-42454500D01*
X113994306Y-42454500D01*
X113994298Y-42454500D01*
X113957432Y-42457401D01*
X113957429Y-42457402D01*
X113889272Y-42477203D01*
X113819403Y-42477002D01*
X113760734Y-42439060D01*
X113731891Y-42375421D01*
X113742033Y-42306291D01*
X113766994Y-42270450D01*
X114075626Y-41961817D01*
X114136949Y-41928333D01*
X114163307Y-41925499D01*
X114528338Y-41925499D01*
X114528344Y-41925499D01*
X114528352Y-41925498D01*
X114528355Y-41925498D01*
X114582760Y-41919940D01*
X114627708Y-41915349D01*
X114788697Y-41862003D01*
X114933044Y-41772968D01*
X114942668Y-41763343D01*
X115003987Y-41729856D01*
X115073679Y-41734835D01*
X115118034Y-41763339D01*
X115127267Y-41772572D01*
X115127271Y-41772575D01*
X115271507Y-41861542D01*
X115271518Y-41861547D01*
X115432393Y-41914855D01*
X115531683Y-41924999D01*
X116055000Y-41924999D01*
X116078308Y-41924999D01*
X116078322Y-41924998D01*
X116177607Y-41914855D01*
X116338481Y-41861547D01*
X116338492Y-41861542D01*
X116482728Y-41772575D01*
X116482732Y-41772572D01*
X116602572Y-41652732D01*
X116602575Y-41652728D01*
X116691542Y-41508492D01*
X116691547Y-41508481D01*
X116744855Y-41347606D01*
X116754999Y-41248322D01*
X116755000Y-41248309D01*
X116755000Y-41200000D01*
X116055000Y-41200000D01*
X116055000Y-41924999D01*
X115531683Y-41924999D01*
X115555000Y-41924998D01*
X115555000Y-40288000D01*
X116055000Y-40288000D01*
X116055000Y-40700000D01*
X116754999Y-40700000D01*
X116754999Y-40651692D01*
X116754998Y-40651677D01*
X116744855Y-40552392D01*
X116691547Y-40391518D01*
X116691544Y-40391511D01*
X116608306Y-40256564D01*
X116589865Y-40189172D01*
X116610787Y-40122508D01*
X116626163Y-40103784D01*
X116750073Y-39979875D01*
X116838019Y-39834395D01*
X116888590Y-39672106D01*
X116895000Y-39601572D01*
X116895000Y-39520000D01*
X116245000Y-39520000D01*
X116245000Y-40164000D01*
X116225315Y-40231039D01*
X116172511Y-40276794D01*
X116121000Y-40288000D01*
X116055000Y-40288000D01*
X115555000Y-40288000D01*
X115555000Y-40056000D01*
X115574685Y-39988961D01*
X115627489Y-39943206D01*
X115679000Y-39932000D01*
X115745000Y-39932000D01*
X115745000Y-38368000D01*
X115694000Y-38368000D01*
X115626961Y-38348315D01*
X115581206Y-38295511D01*
X115570000Y-38244000D01*
X115570000Y-37341988D01*
X115579940Y-37359205D01*
X115635795Y-37415060D01*
X115704204Y-37454556D01*
X115780504Y-37475000D01*
X115859496Y-37475000D01*
X115935796Y-37454556D01*
X116004205Y-37415060D01*
X116060060Y-37359205D01*
X116070000Y-37341988D01*
X116070000Y-38252000D01*
X116121000Y-38252000D01*
X116188039Y-38271685D01*
X116233794Y-38324489D01*
X116245000Y-38376000D01*
X116245000Y-39020000D01*
X116894999Y-39020000D01*
X116894999Y-38938417D01*
X116888591Y-38867897D01*
X116888590Y-38867892D01*
X116838018Y-38705603D01*
X116750072Y-38560122D01*
X116629877Y-38439927D01*
X116484395Y-38351980D01*
X116477558Y-38348903D01*
X116478847Y-38346037D01*
X116432579Y-38315159D01*
X116404657Y-38251111D01*
X116415795Y-38182135D01*
X116454798Y-38135269D01*
X116569171Y-38052174D01*
X116697176Y-37924169D01*
X116803565Y-37777734D01*
X116885747Y-37616447D01*
X116885748Y-37616444D01*
X116941682Y-37444293D01*
X116970000Y-37265506D01*
X116970000Y-37140730D01*
X116989685Y-37073691D01*
X117042489Y-37027936D01*
X117111647Y-37017992D01*
X117175203Y-37047017D01*
G37*
%TD.AperFunction*%
%TA.AperFunction,Conductor*%
G36*
X132080257Y-52171221D02*
G01*
X132100899Y-52187855D01*
X132396363Y-52483319D01*
X132429848Y-52544642D01*
X132424864Y-52614334D01*
X132382992Y-52670267D01*
X132317528Y-52694684D01*
X132308682Y-52695000D01*
X132050622Y-52695000D01*
X131940658Y-52709478D01*
X131940654Y-52709479D01*
X131816951Y-52760718D01*
X131747482Y-52768187D01*
X131685003Y-52736911D01*
X131649351Y-52676822D01*
X131645499Y-52646157D01*
X131645499Y-52391662D01*
X131645498Y-52391644D01*
X131640392Y-52341659D01*
X131653162Y-52272966D01*
X131676070Y-52241376D01*
X131729593Y-52187854D01*
X131790916Y-52154370D01*
X131817273Y-52151536D01*
X132013218Y-52151536D01*
X132080257Y-52171221D01*
G37*
%TD.AperFunction*%
%TA.AperFunction,Conductor*%
G36*
X125826753Y-40559637D02*
G01*
X125883425Y-40600504D01*
X125909006Y-40665522D01*
X125909500Y-40676574D01*
X125909500Y-41138201D01*
X125912401Y-41175067D01*
X125912402Y-41175073D01*
X125958254Y-41332893D01*
X125958255Y-41332896D01*
X125958256Y-41332898D01*
X125992732Y-41391194D01*
X126010000Y-41454314D01*
X126010000Y-41719795D01*
X126036247Y-41744058D01*
X126072114Y-41804019D01*
X126069869Y-41873853D01*
X126045471Y-41913514D01*
X126046702Y-41914469D01*
X126041917Y-41920637D01*
X125958255Y-42062103D01*
X125958254Y-42062106D01*
X125912402Y-42219926D01*
X125912401Y-42219932D01*
X125909500Y-42256798D01*
X125909500Y-43413201D01*
X125912401Y-43450067D01*
X125912402Y-43450073D01*
X125958254Y-43607893D01*
X125958255Y-43607896D01*
X125958256Y-43607898D01*
X125995681Y-43671181D01*
X126041917Y-43749362D01*
X126041923Y-43749370D01*
X126158129Y-43865576D01*
X126158133Y-43865579D01*
X126158135Y-43865581D01*
X126195511Y-43887685D01*
X126239615Y-43913768D01*
X126287298Y-43964837D01*
X126299802Y-44033579D01*
X126273157Y-44098168D01*
X126215821Y-44138098D01*
X126176494Y-44144500D01*
X125891663Y-44144500D01*
X125891644Y-44144501D01*
X125792292Y-44154650D01*
X125792289Y-44154651D01*
X125631305Y-44207996D01*
X125631294Y-44208001D01*
X125486959Y-44297029D01*
X125486953Y-44297033D01*
X125477324Y-44306663D01*
X125416000Y-44340146D01*
X125346308Y-44335159D01*
X125301965Y-44306660D01*
X125292732Y-44297427D01*
X125292728Y-44297424D01*
X125148492Y-44208457D01*
X125148479Y-44208451D01*
X125143954Y-44206952D01*
X125086510Y-44167178D01*
X125059689Y-44102661D01*
X125072006Y-44033885D01*
X125119550Y-43982687D01*
X125148359Y-43970173D01*
X125220398Y-43949244D01*
X125361865Y-43865581D01*
X125478081Y-43749365D01*
X125561744Y-43607898D01*
X125607598Y-43450069D01*
X125610500Y-43413194D01*
X125610500Y-42256806D01*
X125607598Y-42219931D01*
X125604787Y-42210256D01*
X125561745Y-42062106D01*
X125561744Y-42062103D01*
X125561744Y-42062102D01*
X125478081Y-41920635D01*
X125478078Y-41920632D01*
X125473298Y-41914469D01*
X125474982Y-41913162D01*
X125446757Y-41861472D01*
X125451741Y-41791780D01*
X125483752Y-41744057D01*
X125510000Y-41719793D01*
X125510000Y-41454314D01*
X125527267Y-41391194D01*
X125561744Y-41332898D01*
X125607598Y-41175069D01*
X125610500Y-41138194D01*
X125610500Y-40842889D01*
X125619939Y-40795437D01*
X125649735Y-40723501D01*
X125649737Y-40723497D01*
X125659071Y-40676574D01*
X125663883Y-40652383D01*
X125696268Y-40590472D01*
X125756983Y-40555898D01*
X125826753Y-40559637D01*
G37*
%TD.AperFunction*%
%TA.AperFunction,Conductor*%
G36*
X132776231Y-34240185D02*
G01*
X132796873Y-34256819D01*
X133615325Y-35075272D01*
X133615332Y-35075278D01*
X133719676Y-35144998D01*
X133721867Y-35146462D01*
X133721871Y-35146463D01*
X133721873Y-35146465D01*
X133840256Y-35195501D01*
X133840260Y-35195501D01*
X133840261Y-35195502D01*
X133965928Y-35220500D01*
X139786000Y-35220500D01*
X139853039Y-35240185D01*
X139898794Y-35292989D01*
X139910000Y-35344500D01*
X139910000Y-39032904D01*
X139890315Y-39099943D01*
X139837511Y-39145698D01*
X139774326Y-39154783D01*
X139774191Y-39156279D01*
X139767658Y-39155685D01*
X139767657Y-39155685D01*
X139699594Y-39149500D01*
X137240406Y-39149500D01*
X137172343Y-39155685D01*
X137172339Y-39155686D01*
X137172335Y-39155687D01*
X137015736Y-39204485D01*
X137015727Y-39204488D01*
X136875351Y-39289348D01*
X136875347Y-39289351D01*
X136759350Y-39405348D01*
X136720479Y-39469650D01*
X136668951Y-39516837D01*
X136614362Y-39529500D01*
X128201915Y-39529500D01*
X128188031Y-39528720D01*
X128150002Y-39524435D01*
X128149998Y-39524435D01*
X128111969Y-39528720D01*
X128098085Y-39529500D01*
X128071152Y-39529500D01*
X128031994Y-39537288D01*
X128021696Y-39538890D01*
X127970742Y-39544632D01*
X127970735Y-39544634D01*
X127946898Y-39552975D01*
X127930140Y-39557550D01*
X127916502Y-39560263D01*
X127916496Y-39560264D01*
X127867631Y-39580504D01*
X127861140Y-39582982D01*
X127800477Y-39604210D01*
X127800474Y-39604212D01*
X127790127Y-39610713D01*
X127771639Y-39620266D01*
X127770832Y-39620600D01*
X127770824Y-39620604D01*
X127770821Y-39620605D01*
X127770821Y-39620606D01*
X127730674Y-39647431D01*
X127716047Y-39657204D01*
X127713133Y-39659092D01*
X127700475Y-39667046D01*
X127633238Y-39686048D01*
X127566403Y-39665682D01*
X127521187Y-39612415D01*
X127510500Y-39562054D01*
X127510500Y-39514365D01*
X127530185Y-39447326D01*
X127582989Y-39401571D01*
X127586987Y-39399829D01*
X127696679Y-39354394D01*
X127827789Y-39266789D01*
X127939289Y-39155289D01*
X128026894Y-39024179D01*
X128087237Y-38878497D01*
X128118000Y-38723842D01*
X128118000Y-38387938D01*
X128137685Y-38320899D01*
X128154315Y-38300261D01*
X128754592Y-37699983D01*
X133319500Y-37699983D01*
X133319500Y-38400001D01*
X133319501Y-38400019D01*
X133330000Y-38502796D01*
X133330001Y-38502799D01*
X133384769Y-38668076D01*
X133385186Y-38669334D01*
X133477288Y-38818656D01*
X133601344Y-38942712D01*
X133750666Y-39034814D01*
X133917203Y-39089999D01*
X134019991Y-39100500D01*
X135520008Y-39100499D01*
X135622797Y-39089999D01*
X135789334Y-39034814D01*
X135938656Y-38942712D01*
X136062712Y-38818656D01*
X136154814Y-38669334D01*
X136209999Y-38502797D01*
X136220500Y-38400009D01*
X136220499Y-37699992D01*
X136218039Y-37675914D01*
X136209999Y-37597203D01*
X136209998Y-37597200D01*
X136187207Y-37528421D01*
X136154814Y-37430666D01*
X136062712Y-37281344D01*
X135938656Y-37157288D01*
X135789334Y-37065186D01*
X135622797Y-37010001D01*
X135622795Y-37010000D01*
X135520010Y-36999500D01*
X134019998Y-36999500D01*
X134019981Y-36999501D01*
X133917203Y-37010000D01*
X133917200Y-37010001D01*
X133750668Y-37065185D01*
X133750663Y-37065187D01*
X133601342Y-37157289D01*
X133477289Y-37281342D01*
X133385187Y-37430663D01*
X133385185Y-37430668D01*
X133357349Y-37514670D01*
X133330001Y-37597203D01*
X133330001Y-37597204D01*
X133330000Y-37597204D01*
X133319500Y-37699983D01*
X128754592Y-37699983D01*
X128832758Y-37621817D01*
X128894081Y-37588333D01*
X128920439Y-37585499D01*
X129350002Y-37585499D01*
X129350008Y-37585499D01*
X129452797Y-37574999D01*
X129619334Y-37519814D01*
X129768656Y-37427712D01*
X129892712Y-37303656D01*
X129894752Y-37300347D01*
X129896745Y-37298555D01*
X129897193Y-37297989D01*
X129897289Y-37298065D01*
X129946694Y-37253623D01*
X130015656Y-37242395D01*
X130079740Y-37270234D01*
X130105829Y-37300339D01*
X130107681Y-37303341D01*
X130107683Y-37303344D01*
X130231654Y-37427315D01*
X130380875Y-37519356D01*
X130380880Y-37519358D01*
X130547302Y-37574505D01*
X130547309Y-37574506D01*
X130650019Y-37584999D01*
X130787499Y-37584999D01*
X131287500Y-37584999D01*
X131424972Y-37584999D01*
X131424986Y-37584998D01*
X131527697Y-37574505D01*
X131694119Y-37519358D01*
X131694124Y-37519356D01*
X131843345Y-37427315D01*
X131967315Y-37303345D01*
X132059356Y-37154124D01*
X132059358Y-37154119D01*
X132114505Y-36987697D01*
X132114506Y-36987690D01*
X132124999Y-36884986D01*
X132125000Y-36884973D01*
X132125000Y-36610000D01*
X131287500Y-36610000D01*
X131287500Y-37584999D01*
X130787499Y-37584999D01*
X130787500Y-37584998D01*
X130787500Y-36234000D01*
X130807185Y-36166961D01*
X130859989Y-36121206D01*
X130911500Y-36110000D01*
X132124999Y-36110000D01*
X132124999Y-35835028D01*
X132124998Y-35835013D01*
X132114505Y-35732302D01*
X132059358Y-35565880D01*
X132059356Y-35565875D01*
X131967315Y-35416654D01*
X131843345Y-35292684D01*
X131702234Y-35205646D01*
X131655510Y-35153698D01*
X131644287Y-35084735D01*
X131672131Y-35020653D01*
X131679633Y-35012443D01*
X132435535Y-34256541D01*
X132496856Y-34223058D01*
X132526711Y-34221032D01*
X132526711Y-34220500D01*
X132709192Y-34220500D01*
X132776231Y-34240185D01*
G37*
%TD.AperFunction*%
%TA.AperFunction,Conductor*%
G36*
X108308833Y-36743679D02*
G01*
X108364767Y-36785550D01*
X108389184Y-36851014D01*
X108389500Y-36859861D01*
X108389500Y-37047017D01*
X108389501Y-37176000D01*
X108369817Y-37243039D01*
X108317013Y-37288794D01*
X108265501Y-37300000D01*
X107721000Y-37300000D01*
X107653961Y-37280315D01*
X107608206Y-37227511D01*
X107597000Y-37176000D01*
X107597000Y-36924000D01*
X107616685Y-36856961D01*
X107669489Y-36811206D01*
X107721000Y-36800000D01*
X108149998Y-36800000D01*
X108177818Y-36772180D01*
X108239141Y-36738695D01*
X108308833Y-36743679D01*
G37*
%TD.AperFunction*%
%TA.AperFunction,Conductor*%
G36*
X119970167Y-33848006D02*
G01*
X119994355Y-33875921D01*
X119994639Y-33875702D01*
X119998679Y-33880911D01*
X119999232Y-33881548D01*
X119999419Y-33881865D01*
X119999421Y-33881867D01*
X119999423Y-33881870D01*
X120115629Y-33998076D01*
X120115633Y-33998079D01*
X120115635Y-33998081D01*
X120257102Y-34081744D01*
X120293532Y-34092328D01*
X120414926Y-34127597D01*
X120414929Y-34127597D01*
X120414931Y-34127598D01*
X120451806Y-34130500D01*
X120451814Y-34130500D01*
X121608186Y-34130500D01*
X121608194Y-34130500D01*
X121645069Y-34127598D01*
X121645071Y-34127597D01*
X121645073Y-34127597D01*
X121686691Y-34115505D01*
X121802898Y-34081744D01*
X121927020Y-34008339D01*
X121944895Y-33997768D01*
X122008016Y-33980500D01*
X122228480Y-33980500D01*
X122295519Y-34000185D01*
X122316161Y-34016819D01*
X122409811Y-34110469D01*
X122409813Y-34110470D01*
X122409815Y-34110472D01*
X122555394Y-34198478D01*
X122717804Y-34249086D01*
X122788384Y-34255500D01*
X122788387Y-34255500D01*
X123301613Y-34255500D01*
X123301616Y-34255500D01*
X123372196Y-34249086D01*
X123534606Y-34198478D01*
X123680185Y-34110472D01*
X123725933Y-34064724D01*
X123782319Y-34008339D01*
X123843642Y-33974854D01*
X123913334Y-33979838D01*
X123957681Y-34008339D01*
X124059811Y-34110469D01*
X124059813Y-34110470D01*
X124059815Y-34110472D01*
X124073800Y-34118926D01*
X124120987Y-34170455D01*
X124132824Y-34239315D01*
X124105554Y-34303643D01*
X124097329Y-34312723D01*
X123106873Y-35303181D01*
X123045550Y-35336666D01*
X123019192Y-35339500D01*
X123014186Y-35339500D01*
X122947147Y-35319815D01*
X122908648Y-35280597D01*
X122835470Y-35161959D01*
X122835467Y-35161955D01*
X122715544Y-35042032D01*
X122715540Y-35042029D01*
X122571205Y-34953001D01*
X122571199Y-34952998D01*
X122571197Y-34952997D01*
X122571194Y-34952996D01*
X122410209Y-34899651D01*
X122310846Y-34889500D01*
X121764162Y-34889500D01*
X121764144Y-34889501D01*
X121664792Y-34899650D01*
X121664789Y-34899651D01*
X121503805Y-34952996D01*
X121503794Y-34953001D01*
X121359459Y-35042029D01*
X121359455Y-35042032D01*
X121322042Y-35079445D01*
X121260719Y-35112930D01*
X121191027Y-35107944D01*
X121135094Y-35066072D01*
X121110871Y-35002983D01*
X121108591Y-34977897D01*
X121108590Y-34977892D01*
X121058018Y-34815603D01*
X120970072Y-34670122D01*
X120849877Y-34549927D01*
X120704395Y-34461980D01*
X120704396Y-34461980D01*
X120542105Y-34411409D01*
X120542106Y-34411409D01*
X120471572Y-34405000D01*
X120465000Y-34405000D01*
X120465000Y-35506000D01*
X120445315Y-35573039D01*
X120392511Y-35618794D01*
X120341000Y-35630000D01*
X120089000Y-35630000D01*
X120021961Y-35610315D01*
X119976206Y-35557511D01*
X119965000Y-35506000D01*
X119965000Y-34405000D01*
X119964999Y-34404999D01*
X119958436Y-34405000D01*
X119958417Y-34405001D01*
X119887897Y-34411408D01*
X119887892Y-34411409D01*
X119725603Y-34461981D01*
X119580124Y-34549926D01*
X119478034Y-34652016D01*
X119416711Y-34685500D01*
X119347019Y-34680516D01*
X119302671Y-34652014D01*
X119251818Y-34601160D01*
X119218334Y-34539837D01*
X119215500Y-34513480D01*
X119215500Y-34254348D01*
X119235185Y-34187309D01*
X119287989Y-34141554D01*
X119330819Y-34131353D01*
X119330767Y-34130691D01*
X119333194Y-34130500D01*
X119370069Y-34127598D01*
X119370071Y-34127597D01*
X119370073Y-34127597D01*
X119411691Y-34115505D01*
X119527898Y-34081744D01*
X119669365Y-33998081D01*
X119785581Y-33881865D01*
X119785767Y-33881549D01*
X119785977Y-33881353D01*
X119790361Y-33875702D01*
X119791272Y-33876409D01*
X119836836Y-33833866D01*
X119905577Y-33821362D01*
X119970167Y-33848006D01*
G37*
%TD.AperFunction*%
%TD*%
M02*
