%TF.GenerationSoftware,KiCad,Pcbnew,8.0.5*%
%TF.CreationDate,2024-11-26T11:55:41+00:00*%
%TF.ProjectId,NFC_ESP32,4e46435f-4553-4503-9332-2e6b69636164,rev?*%
%TF.SameCoordinates,Original*%
%TF.FileFunction,Legend,Top*%
%TF.FilePolarity,Positive*%
%FSLAX46Y46*%
G04 Gerber Fmt 4.6, Leading zero omitted, Abs format (unit mm)*
G04 Created by KiCad (PCBNEW 8.0.5) date 2024-11-26 11:55:41*
%MOMM*%
%LPD*%
G01*
G04 APERTURE LIST*
G04 Aperture macros list*
%AMRoundRect*
0 Rectangle with rounded corners*
0 $1 Rounding radius*
0 $2 $3 $4 $5 $6 $7 $8 $9 X,Y pos of 4 corners*
0 Add a 4 corners polygon primitive as box body*
4,1,4,$2,$3,$4,$5,$6,$7,$8,$9,$2,$3,0*
0 Add four circle primitives for the rounded corners*
1,1,$1+$1,$2,$3*
1,1,$1+$1,$4,$5*
1,1,$1+$1,$6,$7*
1,1,$1+$1,$8,$9*
0 Add four rect primitives between the rounded corners*
20,1,$1+$1,$2,$3,$4,$5,0*
20,1,$1+$1,$4,$5,$6,$7,0*
20,1,$1+$1,$6,$7,$8,$9,0*
20,1,$1+$1,$8,$9,$2,$3,0*%
G04 Aperture macros list end*
%ADD10C,0.200000*%
%ADD11C,0.150000*%
%ADD12C,0.120000*%
%ADD13RoundRect,0.150000X0.512500X0.150000X-0.512500X0.150000X-0.512500X-0.150000X0.512500X-0.150000X0*%
%ADD14RoundRect,0.225000X0.225000X0.250000X-0.225000X0.250000X-0.225000X-0.250000X0.225000X-0.250000X0*%
%ADD15RoundRect,0.225000X-0.225000X-0.250000X0.225000X-0.250000X0.225000X0.250000X-0.225000X0.250000X0*%
%ADD16RoundRect,0.200000X0.200000X0.275000X-0.200000X0.275000X-0.200000X-0.275000X0.200000X-0.275000X0*%
%ADD17C,2.200000*%
%ADD18RoundRect,0.150000X-0.587500X-0.150000X0.587500X-0.150000X0.587500X0.150000X-0.587500X0.150000X0*%
%ADD19RoundRect,0.200000X-0.200000X-0.275000X0.200000X-0.275000X0.200000X0.275000X-0.200000X0.275000X0*%
%ADD20C,0.600000*%
%ADD21R,1.000000X2.000000*%
%ADD22O,0.850000X0.600000*%
%ADD23R,0.520000X1.000000*%
%ADD24R,0.270000X1.000000*%
%ADD25O,1.300000X2.300000*%
%ADD26O,1.300000X2.600000*%
%ADD27RoundRect,0.150000X-0.150000X0.825000X-0.150000X-0.825000X0.150000X-0.825000X0.150000X0.825000X0*%
%ADD28R,0.900000X1.500000*%
%ADD29R,1.500000X0.900000*%
%ADD30R,3.800000X3.800000*%
%ADD31RoundRect,0.237500X-0.287500X-0.237500X0.287500X-0.237500X0.287500X0.237500X-0.287500X0.237500X0*%
%ADD32R,2.000000X2.000000*%
%ADD33C,2.000000*%
%ADD34RoundRect,0.175000X-1.175000X0.175000X-1.175000X-0.175000X1.175000X-0.175000X1.175000X0.175000X0*%
%ADD35RoundRect,0.250000X-0.700000X0.300000X-0.700000X-0.300000X0.700000X-0.300000X0.700000X0.300000X0*%
%ADD36RoundRect,0.225000X0.250000X-0.225000X0.250000X0.225000X-0.250000X0.225000X-0.250000X-0.225000X0*%
%ADD37O,2.200000X3.500000*%
%ADD38R,1.500000X2.500000*%
%ADD39O,1.500000X2.500000*%
%ADD40R,1.400000X1.200000*%
%ADD41RoundRect,0.062500X-0.375000X-0.062500X0.375000X-0.062500X0.375000X0.062500X-0.375000X0.062500X0*%
%ADD42RoundRect,0.062500X-0.062500X-0.375000X0.062500X-0.375000X0.062500X0.375000X-0.062500X0.375000X0*%
%ADD43R,3.100000X3.100000*%
%ADD44RoundRect,0.250000X-0.337500X-0.475000X0.337500X-0.475000X0.337500X0.475000X-0.337500X0.475000X0*%
%ADD45RoundRect,0.250000X0.337500X0.475000X-0.337500X0.475000X-0.337500X-0.475000X0.337500X-0.475000X0*%
%ADD46RoundRect,0.150000X-0.150000X0.512500X-0.150000X-0.512500X0.150000X-0.512500X0.150000X0.512500X0*%
%ADD47RoundRect,0.218750X-0.218750X-0.256250X0.218750X-0.256250X0.218750X0.256250X-0.218750X0.256250X0*%
%ADD48RoundRect,0.218750X0.218750X0.256250X-0.218750X0.256250X-0.218750X-0.256250X0.218750X-0.256250X0*%
%ADD49RoundRect,0.225000X0.225000X0.375000X-0.225000X0.375000X-0.225000X-0.375000X0.225000X-0.375000X0*%
G04 APERTURE END LIST*
D10*
X155749673Y-40823409D02*
X156083006Y-40823409D01*
X156225863Y-41347219D02*
X155749673Y-41347219D01*
X155749673Y-41347219D02*
X155749673Y-40347219D01*
X155749673Y-40347219D02*
X156225863Y-40347219D01*
X156606816Y-41299600D02*
X156749673Y-41347219D01*
X156749673Y-41347219D02*
X156987768Y-41347219D01*
X156987768Y-41347219D02*
X157083006Y-41299600D01*
X157083006Y-41299600D02*
X157130625Y-41251980D01*
X157130625Y-41251980D02*
X157178244Y-41156742D01*
X157178244Y-41156742D02*
X157178244Y-41061504D01*
X157178244Y-41061504D02*
X157130625Y-40966266D01*
X157130625Y-40966266D02*
X157083006Y-40918647D01*
X157083006Y-40918647D02*
X156987768Y-40871028D01*
X156987768Y-40871028D02*
X156797292Y-40823409D01*
X156797292Y-40823409D02*
X156702054Y-40775790D01*
X156702054Y-40775790D02*
X156654435Y-40728171D01*
X156654435Y-40728171D02*
X156606816Y-40632933D01*
X156606816Y-40632933D02*
X156606816Y-40537695D01*
X156606816Y-40537695D02*
X156654435Y-40442457D01*
X156654435Y-40442457D02*
X156702054Y-40394838D01*
X156702054Y-40394838D02*
X156797292Y-40347219D01*
X156797292Y-40347219D02*
X157035387Y-40347219D01*
X157035387Y-40347219D02*
X157178244Y-40394838D01*
X157606816Y-41347219D02*
X157606816Y-40347219D01*
X157606816Y-40347219D02*
X157987768Y-40347219D01*
X157987768Y-40347219D02*
X158083006Y-40394838D01*
X158083006Y-40394838D02*
X158130625Y-40442457D01*
X158130625Y-40442457D02*
X158178244Y-40537695D01*
X158178244Y-40537695D02*
X158178244Y-40680552D01*
X158178244Y-40680552D02*
X158130625Y-40775790D01*
X158130625Y-40775790D02*
X158083006Y-40823409D01*
X158083006Y-40823409D02*
X157987768Y-40871028D01*
X157987768Y-40871028D02*
X157606816Y-40871028D01*
X158511578Y-40347219D02*
X159130625Y-40347219D01*
X159130625Y-40347219D02*
X158797292Y-40728171D01*
X158797292Y-40728171D02*
X158940149Y-40728171D01*
X158940149Y-40728171D02*
X159035387Y-40775790D01*
X159035387Y-40775790D02*
X159083006Y-40823409D01*
X159083006Y-40823409D02*
X159130625Y-40918647D01*
X159130625Y-40918647D02*
X159130625Y-41156742D01*
X159130625Y-41156742D02*
X159083006Y-41251980D01*
X159083006Y-41251980D02*
X159035387Y-41299600D01*
X159035387Y-41299600D02*
X158940149Y-41347219D01*
X158940149Y-41347219D02*
X158654435Y-41347219D01*
X158654435Y-41347219D02*
X158559197Y-41299600D01*
X158559197Y-41299600D02*
X158511578Y-41251980D01*
X159511578Y-40442457D02*
X159559197Y-40394838D01*
X159559197Y-40394838D02*
X159654435Y-40347219D01*
X159654435Y-40347219D02*
X159892530Y-40347219D01*
X159892530Y-40347219D02*
X159987768Y-40394838D01*
X159987768Y-40394838D02*
X160035387Y-40442457D01*
X160035387Y-40442457D02*
X160083006Y-40537695D01*
X160083006Y-40537695D02*
X160083006Y-40632933D01*
X160083006Y-40632933D02*
X160035387Y-40775790D01*
X160035387Y-40775790D02*
X159463959Y-41347219D01*
X159463959Y-41347219D02*
X160083006Y-41347219D01*
X161844911Y-41347219D02*
X161511578Y-40871028D01*
X161273483Y-41347219D02*
X161273483Y-40347219D01*
X161273483Y-40347219D02*
X161654435Y-40347219D01*
X161654435Y-40347219D02*
X161749673Y-40394838D01*
X161749673Y-40394838D02*
X161797292Y-40442457D01*
X161797292Y-40442457D02*
X161844911Y-40537695D01*
X161844911Y-40537695D02*
X161844911Y-40680552D01*
X161844911Y-40680552D02*
X161797292Y-40775790D01*
X161797292Y-40775790D02*
X161749673Y-40823409D01*
X161749673Y-40823409D02*
X161654435Y-40871028D01*
X161654435Y-40871028D02*
X161273483Y-40871028D01*
X162606816Y-40823409D02*
X162273483Y-40823409D01*
X162273483Y-41347219D02*
X162273483Y-40347219D01*
X162273483Y-40347219D02*
X162749673Y-40347219D01*
X163130626Y-41347219D02*
X163130626Y-40347219D01*
X164178244Y-41251980D02*
X164130625Y-41299600D01*
X164130625Y-41299600D02*
X163987768Y-41347219D01*
X163987768Y-41347219D02*
X163892530Y-41347219D01*
X163892530Y-41347219D02*
X163749673Y-41299600D01*
X163749673Y-41299600D02*
X163654435Y-41204361D01*
X163654435Y-41204361D02*
X163606816Y-41109123D01*
X163606816Y-41109123D02*
X163559197Y-40918647D01*
X163559197Y-40918647D02*
X163559197Y-40775790D01*
X163559197Y-40775790D02*
X163606816Y-40585314D01*
X163606816Y-40585314D02*
X163654435Y-40490076D01*
X163654435Y-40490076D02*
X163749673Y-40394838D01*
X163749673Y-40394838D02*
X163892530Y-40347219D01*
X163892530Y-40347219D02*
X163987768Y-40347219D01*
X163987768Y-40347219D02*
X164130625Y-40394838D01*
X164130625Y-40394838D02*
X164178244Y-40442457D01*
X165940149Y-41347219D02*
X165606816Y-40871028D01*
X165368721Y-41347219D02*
X165368721Y-40347219D01*
X165368721Y-40347219D02*
X165749673Y-40347219D01*
X165749673Y-40347219D02*
X165844911Y-40394838D01*
X165844911Y-40394838D02*
X165892530Y-40442457D01*
X165892530Y-40442457D02*
X165940149Y-40537695D01*
X165940149Y-40537695D02*
X165940149Y-40680552D01*
X165940149Y-40680552D02*
X165892530Y-40775790D01*
X165892530Y-40775790D02*
X165844911Y-40823409D01*
X165844911Y-40823409D02*
X165749673Y-40871028D01*
X165749673Y-40871028D02*
X165368721Y-40871028D01*
X166749673Y-41299600D02*
X166654435Y-41347219D01*
X166654435Y-41347219D02*
X166463959Y-41347219D01*
X166463959Y-41347219D02*
X166368721Y-41299600D01*
X166368721Y-41299600D02*
X166321102Y-41204361D01*
X166321102Y-41204361D02*
X166321102Y-40823409D01*
X166321102Y-40823409D02*
X166368721Y-40728171D01*
X166368721Y-40728171D02*
X166463959Y-40680552D01*
X166463959Y-40680552D02*
X166654435Y-40680552D01*
X166654435Y-40680552D02*
X166749673Y-40728171D01*
X166749673Y-40728171D02*
X166797292Y-40823409D01*
X166797292Y-40823409D02*
X166797292Y-40918647D01*
X166797292Y-40918647D02*
X166321102Y-41013885D01*
X167654435Y-41347219D02*
X167654435Y-40823409D01*
X167654435Y-40823409D02*
X167606816Y-40728171D01*
X167606816Y-40728171D02*
X167511578Y-40680552D01*
X167511578Y-40680552D02*
X167321102Y-40680552D01*
X167321102Y-40680552D02*
X167225864Y-40728171D01*
X167654435Y-41299600D02*
X167559197Y-41347219D01*
X167559197Y-41347219D02*
X167321102Y-41347219D01*
X167321102Y-41347219D02*
X167225864Y-41299600D01*
X167225864Y-41299600D02*
X167178245Y-41204361D01*
X167178245Y-41204361D02*
X167178245Y-41109123D01*
X167178245Y-41109123D02*
X167225864Y-41013885D01*
X167225864Y-41013885D02*
X167321102Y-40966266D01*
X167321102Y-40966266D02*
X167559197Y-40966266D01*
X167559197Y-40966266D02*
X167654435Y-40918647D01*
X168559197Y-41347219D02*
X168559197Y-40347219D01*
X168559197Y-41299600D02*
X168463959Y-41347219D01*
X168463959Y-41347219D02*
X168273483Y-41347219D01*
X168273483Y-41347219D02*
X168178245Y-41299600D01*
X168178245Y-41299600D02*
X168130626Y-41251980D01*
X168130626Y-41251980D02*
X168083007Y-41156742D01*
X168083007Y-41156742D02*
X168083007Y-40871028D01*
X168083007Y-40871028D02*
X168130626Y-40775790D01*
X168130626Y-40775790D02*
X168178245Y-40728171D01*
X168178245Y-40728171D02*
X168273483Y-40680552D01*
X168273483Y-40680552D02*
X168463959Y-40680552D01*
X168463959Y-40680552D02*
X168559197Y-40728171D01*
X169416340Y-41299600D02*
X169321102Y-41347219D01*
X169321102Y-41347219D02*
X169130626Y-41347219D01*
X169130626Y-41347219D02*
X169035388Y-41299600D01*
X169035388Y-41299600D02*
X168987769Y-41204361D01*
X168987769Y-41204361D02*
X168987769Y-40823409D01*
X168987769Y-40823409D02*
X169035388Y-40728171D01*
X169035388Y-40728171D02*
X169130626Y-40680552D01*
X169130626Y-40680552D02*
X169321102Y-40680552D01*
X169321102Y-40680552D02*
X169416340Y-40728171D01*
X169416340Y-40728171D02*
X169463959Y-40823409D01*
X169463959Y-40823409D02*
X169463959Y-40918647D01*
X169463959Y-40918647D02*
X168987769Y-41013885D01*
X169892531Y-41347219D02*
X169892531Y-40680552D01*
X169892531Y-40871028D02*
X169940150Y-40775790D01*
X169940150Y-40775790D02*
X169987769Y-40728171D01*
X169987769Y-40728171D02*
X170083007Y-40680552D01*
X170083007Y-40680552D02*
X170178245Y-40680552D01*
X156776189Y-69661616D02*
X157252379Y-69661616D01*
X156680951Y-69947331D02*
X157014284Y-68947331D01*
X157014284Y-68947331D02*
X157347617Y-69947331D01*
X157823808Y-69947331D02*
X157728570Y-69899712D01*
X157728570Y-69899712D02*
X157680951Y-69804473D01*
X157680951Y-69804473D02*
X157680951Y-68947331D01*
X158633332Y-69947331D02*
X158633332Y-69423521D01*
X158633332Y-69423521D02*
X158585713Y-69328283D01*
X158585713Y-69328283D02*
X158490475Y-69280664D01*
X158490475Y-69280664D02*
X158299999Y-69280664D01*
X158299999Y-69280664D02*
X158204761Y-69328283D01*
X158633332Y-69899712D02*
X158538094Y-69947331D01*
X158538094Y-69947331D02*
X158299999Y-69947331D01*
X158299999Y-69947331D02*
X158204761Y-69899712D01*
X158204761Y-69899712D02*
X158157142Y-69804473D01*
X158157142Y-69804473D02*
X158157142Y-69709235D01*
X158157142Y-69709235D02*
X158204761Y-69613997D01*
X158204761Y-69613997D02*
X158299999Y-69566378D01*
X158299999Y-69566378D02*
X158538094Y-69566378D01*
X158538094Y-69566378D02*
X158633332Y-69518759D01*
X159109523Y-69280664D02*
X159109523Y-69947331D01*
X159109523Y-69375902D02*
X159157142Y-69328283D01*
X159157142Y-69328283D02*
X159252380Y-69280664D01*
X159252380Y-69280664D02*
X159395237Y-69280664D01*
X159395237Y-69280664D02*
X159490475Y-69328283D01*
X159490475Y-69328283D02*
X159538094Y-69423521D01*
X159538094Y-69423521D02*
X159538094Y-69947331D01*
X160633333Y-68947331D02*
X161204761Y-68947331D01*
X160919047Y-69947331D02*
X160919047Y-68947331D01*
X161538095Y-69947331D02*
X161538095Y-69280664D01*
X161538095Y-69471140D02*
X161585714Y-69375902D01*
X161585714Y-69375902D02*
X161633333Y-69328283D01*
X161633333Y-69328283D02*
X161728571Y-69280664D01*
X161728571Y-69280664D02*
X161823809Y-69280664D01*
X162585714Y-69280664D02*
X162585714Y-69947331D01*
X162157143Y-69280664D02*
X162157143Y-69804473D01*
X162157143Y-69804473D02*
X162204762Y-69899712D01*
X162204762Y-69899712D02*
X162300000Y-69947331D01*
X162300000Y-69947331D02*
X162442857Y-69947331D01*
X162442857Y-69947331D02*
X162538095Y-69899712D01*
X162538095Y-69899712D02*
X162585714Y-69852092D01*
X163061905Y-69280664D02*
X163061905Y-69947331D01*
X163061905Y-69375902D02*
X163109524Y-69328283D01*
X163109524Y-69328283D02*
X163204762Y-69280664D01*
X163204762Y-69280664D02*
X163347619Y-69280664D01*
X163347619Y-69280664D02*
X163442857Y-69328283D01*
X163442857Y-69328283D02*
X163490476Y-69423521D01*
X163490476Y-69423521D02*
X163490476Y-69947331D01*
X164395238Y-69947331D02*
X164395238Y-68947331D01*
X164395238Y-69899712D02*
X164300000Y-69947331D01*
X164300000Y-69947331D02*
X164109524Y-69947331D01*
X164109524Y-69947331D02*
X164014286Y-69899712D01*
X164014286Y-69899712D02*
X163966667Y-69852092D01*
X163966667Y-69852092D02*
X163919048Y-69756854D01*
X163919048Y-69756854D02*
X163919048Y-69471140D01*
X163919048Y-69471140D02*
X163966667Y-69375902D01*
X163966667Y-69375902D02*
X164014286Y-69328283D01*
X164014286Y-69328283D02*
X164109524Y-69280664D01*
X164109524Y-69280664D02*
X164300000Y-69280664D01*
X164300000Y-69280664D02*
X164395238Y-69328283D01*
X165014286Y-69947331D02*
X164919048Y-69899712D01*
X164919048Y-69899712D02*
X164871429Y-69804473D01*
X164871429Y-69804473D02*
X164871429Y-68947331D01*
X165776191Y-69899712D02*
X165680953Y-69947331D01*
X165680953Y-69947331D02*
X165490477Y-69947331D01*
X165490477Y-69947331D02*
X165395239Y-69899712D01*
X165395239Y-69899712D02*
X165347620Y-69804473D01*
X165347620Y-69804473D02*
X165347620Y-69423521D01*
X165347620Y-69423521D02*
X165395239Y-69328283D01*
X165395239Y-69328283D02*
X165490477Y-69280664D01*
X165490477Y-69280664D02*
X165680953Y-69280664D01*
X165680953Y-69280664D02*
X165776191Y-69328283D01*
X165776191Y-69328283D02*
X165823810Y-69423521D01*
X165823810Y-69423521D02*
X165823810Y-69518759D01*
X165823810Y-69518759D02*
X165347620Y-69613997D01*
X155609523Y-71557275D02*
X155609523Y-70557275D01*
X155609523Y-70557275D02*
X156180951Y-71557275D01*
X156180951Y-71557275D02*
X156180951Y-70557275D01*
X156799999Y-71557275D02*
X156704761Y-71509656D01*
X156704761Y-71509656D02*
X156657142Y-71462036D01*
X156657142Y-71462036D02*
X156609523Y-71366798D01*
X156609523Y-71366798D02*
X156609523Y-71081084D01*
X156609523Y-71081084D02*
X156657142Y-70985846D01*
X156657142Y-70985846D02*
X156704761Y-70938227D01*
X156704761Y-70938227D02*
X156799999Y-70890608D01*
X156799999Y-70890608D02*
X156942856Y-70890608D01*
X156942856Y-70890608D02*
X157038094Y-70938227D01*
X157038094Y-70938227D02*
X157085713Y-70985846D01*
X157085713Y-70985846D02*
X157133332Y-71081084D01*
X157133332Y-71081084D02*
X157133332Y-71366798D01*
X157133332Y-71366798D02*
X157085713Y-71462036D01*
X157085713Y-71462036D02*
X157038094Y-71509656D01*
X157038094Y-71509656D02*
X156942856Y-71557275D01*
X156942856Y-71557275D02*
X156799999Y-71557275D01*
X157466666Y-70890608D02*
X157704761Y-71557275D01*
X157704761Y-71557275D02*
X157942856Y-70890608D01*
X158704761Y-71509656D02*
X158609523Y-71557275D01*
X158609523Y-71557275D02*
X158419047Y-71557275D01*
X158419047Y-71557275D02*
X158323809Y-71509656D01*
X158323809Y-71509656D02*
X158276190Y-71414417D01*
X158276190Y-71414417D02*
X158276190Y-71033465D01*
X158276190Y-71033465D02*
X158323809Y-70938227D01*
X158323809Y-70938227D02*
X158419047Y-70890608D01*
X158419047Y-70890608D02*
X158609523Y-70890608D01*
X158609523Y-70890608D02*
X158704761Y-70938227D01*
X158704761Y-70938227D02*
X158752380Y-71033465D01*
X158752380Y-71033465D02*
X158752380Y-71128703D01*
X158752380Y-71128703D02*
X158276190Y-71223941D01*
X159180952Y-71557275D02*
X159180952Y-70890608D01*
X159180952Y-70985846D02*
X159228571Y-70938227D01*
X159228571Y-70938227D02*
X159323809Y-70890608D01*
X159323809Y-70890608D02*
X159466666Y-70890608D01*
X159466666Y-70890608D02*
X159561904Y-70938227D01*
X159561904Y-70938227D02*
X159609523Y-71033465D01*
X159609523Y-71033465D02*
X159609523Y-71557275D01*
X159609523Y-71033465D02*
X159657142Y-70938227D01*
X159657142Y-70938227D02*
X159752380Y-70890608D01*
X159752380Y-70890608D02*
X159895237Y-70890608D01*
X159895237Y-70890608D02*
X159990476Y-70938227D01*
X159990476Y-70938227D02*
X160038095Y-71033465D01*
X160038095Y-71033465D02*
X160038095Y-71557275D01*
X160514285Y-71557275D02*
X160514285Y-70557275D01*
X160514285Y-70938227D02*
X160609523Y-70890608D01*
X160609523Y-70890608D02*
X160799999Y-70890608D01*
X160799999Y-70890608D02*
X160895237Y-70938227D01*
X160895237Y-70938227D02*
X160942856Y-70985846D01*
X160942856Y-70985846D02*
X160990475Y-71081084D01*
X160990475Y-71081084D02*
X160990475Y-71366798D01*
X160990475Y-71366798D02*
X160942856Y-71462036D01*
X160942856Y-71462036D02*
X160895237Y-71509656D01*
X160895237Y-71509656D02*
X160799999Y-71557275D01*
X160799999Y-71557275D02*
X160609523Y-71557275D01*
X160609523Y-71557275D02*
X160514285Y-71509656D01*
X161799999Y-71509656D02*
X161704761Y-71557275D01*
X161704761Y-71557275D02*
X161514285Y-71557275D01*
X161514285Y-71557275D02*
X161419047Y-71509656D01*
X161419047Y-71509656D02*
X161371428Y-71414417D01*
X161371428Y-71414417D02*
X161371428Y-71033465D01*
X161371428Y-71033465D02*
X161419047Y-70938227D01*
X161419047Y-70938227D02*
X161514285Y-70890608D01*
X161514285Y-70890608D02*
X161704761Y-70890608D01*
X161704761Y-70890608D02*
X161799999Y-70938227D01*
X161799999Y-70938227D02*
X161847618Y-71033465D01*
X161847618Y-71033465D02*
X161847618Y-71128703D01*
X161847618Y-71128703D02*
X161371428Y-71223941D01*
X162276190Y-71557275D02*
X162276190Y-70890608D01*
X162276190Y-71081084D02*
X162323809Y-70985846D01*
X162323809Y-70985846D02*
X162371428Y-70938227D01*
X162371428Y-70938227D02*
X162466666Y-70890608D01*
X162466666Y-70890608D02*
X162561904Y-70890608D01*
X163609524Y-70652513D02*
X163657143Y-70604894D01*
X163657143Y-70604894D02*
X163752381Y-70557275D01*
X163752381Y-70557275D02*
X163990476Y-70557275D01*
X163990476Y-70557275D02*
X164085714Y-70604894D01*
X164085714Y-70604894D02*
X164133333Y-70652513D01*
X164133333Y-70652513D02*
X164180952Y-70747751D01*
X164180952Y-70747751D02*
X164180952Y-70842989D01*
X164180952Y-70842989D02*
X164133333Y-70985846D01*
X164133333Y-70985846D02*
X163561905Y-71557275D01*
X163561905Y-71557275D02*
X164180952Y-71557275D01*
X164800000Y-70557275D02*
X164895238Y-70557275D01*
X164895238Y-70557275D02*
X164990476Y-70604894D01*
X164990476Y-70604894D02*
X165038095Y-70652513D01*
X165038095Y-70652513D02*
X165085714Y-70747751D01*
X165085714Y-70747751D02*
X165133333Y-70938227D01*
X165133333Y-70938227D02*
X165133333Y-71176322D01*
X165133333Y-71176322D02*
X165085714Y-71366798D01*
X165085714Y-71366798D02*
X165038095Y-71462036D01*
X165038095Y-71462036D02*
X164990476Y-71509656D01*
X164990476Y-71509656D02*
X164895238Y-71557275D01*
X164895238Y-71557275D02*
X164800000Y-71557275D01*
X164800000Y-71557275D02*
X164704762Y-71509656D01*
X164704762Y-71509656D02*
X164657143Y-71462036D01*
X164657143Y-71462036D02*
X164609524Y-71366798D01*
X164609524Y-71366798D02*
X164561905Y-71176322D01*
X164561905Y-71176322D02*
X164561905Y-70938227D01*
X164561905Y-70938227D02*
X164609524Y-70747751D01*
X164609524Y-70747751D02*
X164657143Y-70652513D01*
X164657143Y-70652513D02*
X164704762Y-70604894D01*
X164704762Y-70604894D02*
X164800000Y-70557275D01*
X165514286Y-70652513D02*
X165561905Y-70604894D01*
X165561905Y-70604894D02*
X165657143Y-70557275D01*
X165657143Y-70557275D02*
X165895238Y-70557275D01*
X165895238Y-70557275D02*
X165990476Y-70604894D01*
X165990476Y-70604894D02*
X166038095Y-70652513D01*
X166038095Y-70652513D02*
X166085714Y-70747751D01*
X166085714Y-70747751D02*
X166085714Y-70842989D01*
X166085714Y-70842989D02*
X166038095Y-70985846D01*
X166038095Y-70985846D02*
X165466667Y-71557275D01*
X165466667Y-71557275D02*
X166085714Y-71557275D01*
X166942857Y-70890608D02*
X166942857Y-71557275D01*
X166704762Y-70509656D02*
X166466667Y-71223941D01*
X166466667Y-71223941D02*
X167085714Y-71223941D01*
X159776191Y-72167219D02*
X160109524Y-73167219D01*
X160109524Y-73167219D02*
X160442857Y-72167219D01*
X161300000Y-73167219D02*
X160728572Y-73167219D01*
X161014286Y-73167219D02*
X161014286Y-72167219D01*
X161014286Y-72167219D02*
X160919048Y-72310076D01*
X160919048Y-72310076D02*
X160823810Y-72405314D01*
X160823810Y-72405314D02*
X160728572Y-72452933D01*
X161728572Y-73071980D02*
X161776191Y-73119600D01*
X161776191Y-73119600D02*
X161728572Y-73167219D01*
X161728572Y-73167219D02*
X161680953Y-73119600D01*
X161680953Y-73119600D02*
X161728572Y-73071980D01*
X161728572Y-73071980D02*
X161728572Y-73167219D01*
X162395238Y-72167219D02*
X162490476Y-72167219D01*
X162490476Y-72167219D02*
X162585714Y-72214838D01*
X162585714Y-72214838D02*
X162633333Y-72262457D01*
X162633333Y-72262457D02*
X162680952Y-72357695D01*
X162680952Y-72357695D02*
X162728571Y-72548171D01*
X162728571Y-72548171D02*
X162728571Y-72786266D01*
X162728571Y-72786266D02*
X162680952Y-72976742D01*
X162680952Y-72976742D02*
X162633333Y-73071980D01*
X162633333Y-73071980D02*
X162585714Y-73119600D01*
X162585714Y-73119600D02*
X162490476Y-73167219D01*
X162490476Y-73167219D02*
X162395238Y-73167219D01*
X162395238Y-73167219D02*
X162300000Y-73119600D01*
X162300000Y-73119600D02*
X162252381Y-73071980D01*
X162252381Y-73071980D02*
X162204762Y-72976742D01*
X162204762Y-72976742D02*
X162157143Y-72786266D01*
X162157143Y-72786266D02*
X162157143Y-72548171D01*
X162157143Y-72548171D02*
X162204762Y-72357695D01*
X162204762Y-72357695D02*
X162252381Y-72262457D01*
X162252381Y-72262457D02*
X162300000Y-72214838D01*
X162300000Y-72214838D02*
X162395238Y-72167219D01*
D11*
X117348095Y-33754819D02*
X117348095Y-34564342D01*
X117348095Y-34564342D02*
X117395714Y-34659580D01*
X117395714Y-34659580D02*
X117443333Y-34707200D01*
X117443333Y-34707200D02*
X117538571Y-34754819D01*
X117538571Y-34754819D02*
X117729047Y-34754819D01*
X117729047Y-34754819D02*
X117824285Y-34707200D01*
X117824285Y-34707200D02*
X117871904Y-34659580D01*
X117871904Y-34659580D02*
X117919523Y-34564342D01*
X117919523Y-34564342D02*
X117919523Y-33754819D01*
X118300476Y-33754819D02*
X118919523Y-33754819D01*
X118919523Y-33754819D02*
X118586190Y-34135771D01*
X118586190Y-34135771D02*
X118729047Y-34135771D01*
X118729047Y-34135771D02*
X118824285Y-34183390D01*
X118824285Y-34183390D02*
X118871904Y-34231009D01*
X118871904Y-34231009D02*
X118919523Y-34326247D01*
X118919523Y-34326247D02*
X118919523Y-34564342D01*
X118919523Y-34564342D02*
X118871904Y-34659580D01*
X118871904Y-34659580D02*
X118824285Y-34707200D01*
X118824285Y-34707200D02*
X118729047Y-34754819D01*
X118729047Y-34754819D02*
X118443333Y-34754819D01*
X118443333Y-34754819D02*
X118348095Y-34707200D01*
X118348095Y-34707200D02*
X118300476Y-34659580D01*
X128937142Y-58139580D02*
X128889523Y-58187200D01*
X128889523Y-58187200D02*
X128746666Y-58234819D01*
X128746666Y-58234819D02*
X128651428Y-58234819D01*
X128651428Y-58234819D02*
X128508571Y-58187200D01*
X128508571Y-58187200D02*
X128413333Y-58091961D01*
X128413333Y-58091961D02*
X128365714Y-57996723D01*
X128365714Y-57996723D02*
X128318095Y-57806247D01*
X128318095Y-57806247D02*
X128318095Y-57663390D01*
X128318095Y-57663390D02*
X128365714Y-57472914D01*
X128365714Y-57472914D02*
X128413333Y-57377676D01*
X128413333Y-57377676D02*
X128508571Y-57282438D01*
X128508571Y-57282438D02*
X128651428Y-57234819D01*
X128651428Y-57234819D02*
X128746666Y-57234819D01*
X128746666Y-57234819D02*
X128889523Y-57282438D01*
X128889523Y-57282438D02*
X128937142Y-57330057D01*
X129318095Y-57330057D02*
X129365714Y-57282438D01*
X129365714Y-57282438D02*
X129460952Y-57234819D01*
X129460952Y-57234819D02*
X129699047Y-57234819D01*
X129699047Y-57234819D02*
X129794285Y-57282438D01*
X129794285Y-57282438D02*
X129841904Y-57330057D01*
X129841904Y-57330057D02*
X129889523Y-57425295D01*
X129889523Y-57425295D02*
X129889523Y-57520533D01*
X129889523Y-57520533D02*
X129841904Y-57663390D01*
X129841904Y-57663390D02*
X129270476Y-58234819D01*
X129270476Y-58234819D02*
X129889523Y-58234819D01*
X130841904Y-58234819D02*
X130270476Y-58234819D01*
X130556190Y-58234819D02*
X130556190Y-57234819D01*
X130556190Y-57234819D02*
X130460952Y-57377676D01*
X130460952Y-57377676D02*
X130365714Y-57472914D01*
X130365714Y-57472914D02*
X130270476Y-57520533D01*
X182560952Y-41159104D02*
X183037142Y-41159104D01*
X182465714Y-41444819D02*
X182799047Y-40444819D01*
X182799047Y-40444819D02*
X183132380Y-41444819D01*
X183465714Y-41444819D02*
X183465714Y-40444819D01*
X183465714Y-40444819D02*
X184037142Y-41444819D01*
X184037142Y-41444819D02*
X184037142Y-40444819D01*
X184370476Y-40444819D02*
X184941904Y-40444819D01*
X184656190Y-41444819D02*
X184656190Y-40444819D01*
X185799047Y-41444819D02*
X185227619Y-41444819D01*
X185513333Y-41444819D02*
X185513333Y-40444819D01*
X185513333Y-40444819D02*
X185418095Y-40587676D01*
X185418095Y-40587676D02*
X185322857Y-40682914D01*
X185322857Y-40682914D02*
X185227619Y-40730533D01*
X126517142Y-54899580D02*
X126469523Y-54947200D01*
X126469523Y-54947200D02*
X126326666Y-54994819D01*
X126326666Y-54994819D02*
X126231428Y-54994819D01*
X126231428Y-54994819D02*
X126088571Y-54947200D01*
X126088571Y-54947200D02*
X125993333Y-54851961D01*
X125993333Y-54851961D02*
X125945714Y-54756723D01*
X125945714Y-54756723D02*
X125898095Y-54566247D01*
X125898095Y-54566247D02*
X125898095Y-54423390D01*
X125898095Y-54423390D02*
X125945714Y-54232914D01*
X125945714Y-54232914D02*
X125993333Y-54137676D01*
X125993333Y-54137676D02*
X126088571Y-54042438D01*
X126088571Y-54042438D02*
X126231428Y-53994819D01*
X126231428Y-53994819D02*
X126326666Y-53994819D01*
X126326666Y-53994819D02*
X126469523Y-54042438D01*
X126469523Y-54042438D02*
X126517142Y-54090057D01*
X126898095Y-54090057D02*
X126945714Y-54042438D01*
X126945714Y-54042438D02*
X127040952Y-53994819D01*
X127040952Y-53994819D02*
X127279047Y-53994819D01*
X127279047Y-53994819D02*
X127374285Y-54042438D01*
X127374285Y-54042438D02*
X127421904Y-54090057D01*
X127421904Y-54090057D02*
X127469523Y-54185295D01*
X127469523Y-54185295D02*
X127469523Y-54280533D01*
X127469523Y-54280533D02*
X127421904Y-54423390D01*
X127421904Y-54423390D02*
X126850476Y-54994819D01*
X126850476Y-54994819D02*
X127469523Y-54994819D01*
X128088571Y-53994819D02*
X128183809Y-53994819D01*
X128183809Y-53994819D02*
X128279047Y-54042438D01*
X128279047Y-54042438D02*
X128326666Y-54090057D01*
X128326666Y-54090057D02*
X128374285Y-54185295D01*
X128374285Y-54185295D02*
X128421904Y-54375771D01*
X128421904Y-54375771D02*
X128421904Y-54613866D01*
X128421904Y-54613866D02*
X128374285Y-54804342D01*
X128374285Y-54804342D02*
X128326666Y-54899580D01*
X128326666Y-54899580D02*
X128279047Y-54947200D01*
X128279047Y-54947200D02*
X128183809Y-54994819D01*
X128183809Y-54994819D02*
X128088571Y-54994819D01*
X128088571Y-54994819D02*
X127993333Y-54947200D01*
X127993333Y-54947200D02*
X127945714Y-54899580D01*
X127945714Y-54899580D02*
X127898095Y-54804342D01*
X127898095Y-54804342D02*
X127850476Y-54613866D01*
X127850476Y-54613866D02*
X127850476Y-54375771D01*
X127850476Y-54375771D02*
X127898095Y-54185295D01*
X127898095Y-54185295D02*
X127945714Y-54090057D01*
X127945714Y-54090057D02*
X127993333Y-54042438D01*
X127993333Y-54042438D02*
X128088571Y-53994819D01*
X133299642Y-59369580D02*
X133252023Y-59417200D01*
X133252023Y-59417200D02*
X133109166Y-59464819D01*
X133109166Y-59464819D02*
X133013928Y-59464819D01*
X133013928Y-59464819D02*
X132871071Y-59417200D01*
X132871071Y-59417200D02*
X132775833Y-59321961D01*
X132775833Y-59321961D02*
X132728214Y-59226723D01*
X132728214Y-59226723D02*
X132680595Y-59036247D01*
X132680595Y-59036247D02*
X132680595Y-58893390D01*
X132680595Y-58893390D02*
X132728214Y-58702914D01*
X132728214Y-58702914D02*
X132775833Y-58607676D01*
X132775833Y-58607676D02*
X132871071Y-58512438D01*
X132871071Y-58512438D02*
X133013928Y-58464819D01*
X133013928Y-58464819D02*
X133109166Y-58464819D01*
X133109166Y-58464819D02*
X133252023Y-58512438D01*
X133252023Y-58512438D02*
X133299642Y-58560057D01*
X134252023Y-59464819D02*
X133680595Y-59464819D01*
X133966309Y-59464819D02*
X133966309Y-58464819D01*
X133966309Y-58464819D02*
X133871071Y-58607676D01*
X133871071Y-58607676D02*
X133775833Y-58702914D01*
X133775833Y-58702914D02*
X133680595Y-58750533D01*
X135204404Y-59464819D02*
X134632976Y-59464819D01*
X134918690Y-59464819D02*
X134918690Y-58464819D01*
X134918690Y-58464819D02*
X134823452Y-58607676D01*
X134823452Y-58607676D02*
X134728214Y-58702914D01*
X134728214Y-58702914D02*
X134632976Y-58750533D01*
X115947142Y-77674819D02*
X115613809Y-77198628D01*
X115375714Y-77674819D02*
X115375714Y-76674819D01*
X115375714Y-76674819D02*
X115756666Y-76674819D01*
X115756666Y-76674819D02*
X115851904Y-76722438D01*
X115851904Y-76722438D02*
X115899523Y-76770057D01*
X115899523Y-76770057D02*
X115947142Y-76865295D01*
X115947142Y-76865295D02*
X115947142Y-77008152D01*
X115947142Y-77008152D02*
X115899523Y-77103390D01*
X115899523Y-77103390D02*
X115851904Y-77151009D01*
X115851904Y-77151009D02*
X115756666Y-77198628D01*
X115756666Y-77198628D02*
X115375714Y-77198628D01*
X116899523Y-77674819D02*
X116328095Y-77674819D01*
X116613809Y-77674819D02*
X116613809Y-76674819D01*
X116613809Y-76674819D02*
X116518571Y-76817676D01*
X116518571Y-76817676D02*
X116423333Y-76912914D01*
X116423333Y-76912914D02*
X116328095Y-76960533D01*
X117851904Y-77674819D02*
X117280476Y-77674819D01*
X117566190Y-77674819D02*
X117566190Y-76674819D01*
X117566190Y-76674819D02*
X117470952Y-76817676D01*
X117470952Y-76817676D02*
X117375714Y-76912914D01*
X117375714Y-76912914D02*
X117280476Y-76960533D01*
X123314761Y-51130057D02*
X123219523Y-51082438D01*
X123219523Y-51082438D02*
X123124285Y-50987200D01*
X123124285Y-50987200D02*
X122981428Y-50844342D01*
X122981428Y-50844342D02*
X122886190Y-50796723D01*
X122886190Y-50796723D02*
X122790952Y-50796723D01*
X122838571Y-51034819D02*
X122743333Y-50987200D01*
X122743333Y-50987200D02*
X122648095Y-50891961D01*
X122648095Y-50891961D02*
X122600476Y-50701485D01*
X122600476Y-50701485D02*
X122600476Y-50368152D01*
X122600476Y-50368152D02*
X122648095Y-50177676D01*
X122648095Y-50177676D02*
X122743333Y-50082438D01*
X122743333Y-50082438D02*
X122838571Y-50034819D01*
X122838571Y-50034819D02*
X123029047Y-50034819D01*
X123029047Y-50034819D02*
X123124285Y-50082438D01*
X123124285Y-50082438D02*
X123219523Y-50177676D01*
X123219523Y-50177676D02*
X123267142Y-50368152D01*
X123267142Y-50368152D02*
X123267142Y-50701485D01*
X123267142Y-50701485D02*
X123219523Y-50891961D01*
X123219523Y-50891961D02*
X123124285Y-50987200D01*
X123124285Y-50987200D02*
X123029047Y-51034819D01*
X123029047Y-51034819D02*
X122838571Y-51034819D01*
X123648095Y-50130057D02*
X123695714Y-50082438D01*
X123695714Y-50082438D02*
X123790952Y-50034819D01*
X123790952Y-50034819D02*
X124029047Y-50034819D01*
X124029047Y-50034819D02*
X124124285Y-50082438D01*
X124124285Y-50082438D02*
X124171904Y-50130057D01*
X124171904Y-50130057D02*
X124219523Y-50225295D01*
X124219523Y-50225295D02*
X124219523Y-50320533D01*
X124219523Y-50320533D02*
X124171904Y-50463390D01*
X124171904Y-50463390D02*
X123600476Y-51034819D01*
X123600476Y-51034819D02*
X124219523Y-51034819D01*
X119873333Y-74844819D02*
X119540000Y-74368628D01*
X119301905Y-74844819D02*
X119301905Y-73844819D01*
X119301905Y-73844819D02*
X119682857Y-73844819D01*
X119682857Y-73844819D02*
X119778095Y-73892438D01*
X119778095Y-73892438D02*
X119825714Y-73940057D01*
X119825714Y-73940057D02*
X119873333Y-74035295D01*
X119873333Y-74035295D02*
X119873333Y-74178152D01*
X119873333Y-74178152D02*
X119825714Y-74273390D01*
X119825714Y-74273390D02*
X119778095Y-74321009D01*
X119778095Y-74321009D02*
X119682857Y-74368628D01*
X119682857Y-74368628D02*
X119301905Y-74368628D01*
X120206667Y-73844819D02*
X120873333Y-73844819D01*
X120873333Y-73844819D02*
X120444762Y-74844819D01*
X104776666Y-36034819D02*
X104776666Y-36749104D01*
X104776666Y-36749104D02*
X104729047Y-36891961D01*
X104729047Y-36891961D02*
X104633809Y-36987200D01*
X104633809Y-36987200D02*
X104490952Y-37034819D01*
X104490952Y-37034819D02*
X104395714Y-37034819D01*
X105776666Y-37034819D02*
X105205238Y-37034819D01*
X105490952Y-37034819D02*
X105490952Y-36034819D01*
X105490952Y-36034819D02*
X105395714Y-36177676D01*
X105395714Y-36177676D02*
X105300476Y-36272914D01*
X105300476Y-36272914D02*
X105205238Y-36320533D01*
X117659819Y-47166904D02*
X118469342Y-47166904D01*
X118469342Y-47166904D02*
X118564580Y-47119285D01*
X118564580Y-47119285D02*
X118612200Y-47071666D01*
X118612200Y-47071666D02*
X118659819Y-46976428D01*
X118659819Y-46976428D02*
X118659819Y-46785952D01*
X118659819Y-46785952D02*
X118612200Y-46690714D01*
X118612200Y-46690714D02*
X118564580Y-46643095D01*
X118564580Y-46643095D02*
X118469342Y-46595476D01*
X118469342Y-46595476D02*
X117659819Y-46595476D01*
X117755057Y-46166904D02*
X117707438Y-46119285D01*
X117707438Y-46119285D02*
X117659819Y-46024047D01*
X117659819Y-46024047D02*
X117659819Y-45785952D01*
X117659819Y-45785952D02*
X117707438Y-45690714D01*
X117707438Y-45690714D02*
X117755057Y-45643095D01*
X117755057Y-45643095D02*
X117850295Y-45595476D01*
X117850295Y-45595476D02*
X117945533Y-45595476D01*
X117945533Y-45595476D02*
X118088390Y-45643095D01*
X118088390Y-45643095D02*
X118659819Y-46214523D01*
X118659819Y-46214523D02*
X118659819Y-45595476D01*
X118164761Y-41950057D02*
X118069523Y-41902438D01*
X118069523Y-41902438D02*
X117974285Y-41807200D01*
X117974285Y-41807200D02*
X117831428Y-41664342D01*
X117831428Y-41664342D02*
X117736190Y-41616723D01*
X117736190Y-41616723D02*
X117640952Y-41616723D01*
X117688571Y-41854819D02*
X117593333Y-41807200D01*
X117593333Y-41807200D02*
X117498095Y-41711961D01*
X117498095Y-41711961D02*
X117450476Y-41521485D01*
X117450476Y-41521485D02*
X117450476Y-41188152D01*
X117450476Y-41188152D02*
X117498095Y-40997676D01*
X117498095Y-40997676D02*
X117593333Y-40902438D01*
X117593333Y-40902438D02*
X117688571Y-40854819D01*
X117688571Y-40854819D02*
X117879047Y-40854819D01*
X117879047Y-40854819D02*
X117974285Y-40902438D01*
X117974285Y-40902438D02*
X118069523Y-40997676D01*
X118069523Y-40997676D02*
X118117142Y-41188152D01*
X118117142Y-41188152D02*
X118117142Y-41521485D01*
X118117142Y-41521485D02*
X118069523Y-41711961D01*
X118069523Y-41711961D02*
X117974285Y-41807200D01*
X117974285Y-41807200D02*
X117879047Y-41854819D01*
X117879047Y-41854819D02*
X117688571Y-41854819D01*
X118450476Y-40854819D02*
X119069523Y-40854819D01*
X119069523Y-40854819D02*
X118736190Y-41235771D01*
X118736190Y-41235771D02*
X118879047Y-41235771D01*
X118879047Y-41235771D02*
X118974285Y-41283390D01*
X118974285Y-41283390D02*
X119021904Y-41331009D01*
X119021904Y-41331009D02*
X119069523Y-41426247D01*
X119069523Y-41426247D02*
X119069523Y-41664342D01*
X119069523Y-41664342D02*
X119021904Y-41759580D01*
X119021904Y-41759580D02*
X118974285Y-41807200D01*
X118974285Y-41807200D02*
X118879047Y-41854819D01*
X118879047Y-41854819D02*
X118593333Y-41854819D01*
X118593333Y-41854819D02*
X118498095Y-41807200D01*
X118498095Y-41807200D02*
X118450476Y-41759580D01*
X123418095Y-74064819D02*
X123418095Y-74874342D01*
X123418095Y-74874342D02*
X123465714Y-74969580D01*
X123465714Y-74969580D02*
X123513333Y-75017200D01*
X123513333Y-75017200D02*
X123608571Y-75064819D01*
X123608571Y-75064819D02*
X123799047Y-75064819D01*
X123799047Y-75064819D02*
X123894285Y-75017200D01*
X123894285Y-75017200D02*
X123941904Y-74969580D01*
X123941904Y-74969580D02*
X123989523Y-74874342D01*
X123989523Y-74874342D02*
X123989523Y-74064819D01*
X124989523Y-75064819D02*
X124418095Y-75064819D01*
X124703809Y-75064819D02*
X124703809Y-74064819D01*
X124703809Y-74064819D02*
X124608571Y-74207676D01*
X124608571Y-74207676D02*
X124513333Y-74302914D01*
X124513333Y-74302914D02*
X124418095Y-74350533D01*
X152617142Y-56339580D02*
X152569523Y-56387200D01*
X152569523Y-56387200D02*
X152426666Y-56434819D01*
X152426666Y-56434819D02*
X152331428Y-56434819D01*
X152331428Y-56434819D02*
X152188571Y-56387200D01*
X152188571Y-56387200D02*
X152093333Y-56291961D01*
X152093333Y-56291961D02*
X152045714Y-56196723D01*
X152045714Y-56196723D02*
X151998095Y-56006247D01*
X151998095Y-56006247D02*
X151998095Y-55863390D01*
X151998095Y-55863390D02*
X152045714Y-55672914D01*
X152045714Y-55672914D02*
X152093333Y-55577676D01*
X152093333Y-55577676D02*
X152188571Y-55482438D01*
X152188571Y-55482438D02*
X152331428Y-55434819D01*
X152331428Y-55434819D02*
X152426666Y-55434819D01*
X152426666Y-55434819D02*
X152569523Y-55482438D01*
X152569523Y-55482438D02*
X152617142Y-55530057D01*
X153569523Y-56434819D02*
X152998095Y-56434819D01*
X153283809Y-56434819D02*
X153283809Y-55434819D01*
X153283809Y-55434819D02*
X153188571Y-55577676D01*
X153188571Y-55577676D02*
X153093333Y-55672914D01*
X153093333Y-55672914D02*
X152998095Y-55720533D01*
X154140952Y-55863390D02*
X154045714Y-55815771D01*
X154045714Y-55815771D02*
X153998095Y-55768152D01*
X153998095Y-55768152D02*
X153950476Y-55672914D01*
X153950476Y-55672914D02*
X153950476Y-55625295D01*
X153950476Y-55625295D02*
X153998095Y-55530057D01*
X153998095Y-55530057D02*
X154045714Y-55482438D01*
X154045714Y-55482438D02*
X154140952Y-55434819D01*
X154140952Y-55434819D02*
X154331428Y-55434819D01*
X154331428Y-55434819D02*
X154426666Y-55482438D01*
X154426666Y-55482438D02*
X154474285Y-55530057D01*
X154474285Y-55530057D02*
X154521904Y-55625295D01*
X154521904Y-55625295D02*
X154521904Y-55672914D01*
X154521904Y-55672914D02*
X154474285Y-55768152D01*
X154474285Y-55768152D02*
X154426666Y-55815771D01*
X154426666Y-55815771D02*
X154331428Y-55863390D01*
X154331428Y-55863390D02*
X154140952Y-55863390D01*
X154140952Y-55863390D02*
X154045714Y-55911009D01*
X154045714Y-55911009D02*
X153998095Y-55958628D01*
X153998095Y-55958628D02*
X153950476Y-56053866D01*
X153950476Y-56053866D02*
X153950476Y-56244342D01*
X153950476Y-56244342D02*
X153998095Y-56339580D01*
X153998095Y-56339580D02*
X154045714Y-56387200D01*
X154045714Y-56387200D02*
X154140952Y-56434819D01*
X154140952Y-56434819D02*
X154331428Y-56434819D01*
X154331428Y-56434819D02*
X154426666Y-56387200D01*
X154426666Y-56387200D02*
X154474285Y-56339580D01*
X154474285Y-56339580D02*
X154521904Y-56244342D01*
X154521904Y-56244342D02*
X154521904Y-56053866D01*
X154521904Y-56053866D02*
X154474285Y-55958628D01*
X154474285Y-55958628D02*
X154426666Y-55911009D01*
X154426666Y-55911009D02*
X154331428Y-55863390D01*
X127668333Y-60914819D02*
X127192143Y-60914819D01*
X127192143Y-60914819D02*
X127192143Y-59914819D01*
X128525476Y-60914819D02*
X127954048Y-60914819D01*
X128239762Y-60914819D02*
X128239762Y-59914819D01*
X128239762Y-59914819D02*
X128144524Y-60057676D01*
X128144524Y-60057676D02*
X128049286Y-60152914D01*
X128049286Y-60152914D02*
X127954048Y-60200533D01*
X124953333Y-50019580D02*
X124905714Y-50067200D01*
X124905714Y-50067200D02*
X124762857Y-50114819D01*
X124762857Y-50114819D02*
X124667619Y-50114819D01*
X124667619Y-50114819D02*
X124524762Y-50067200D01*
X124524762Y-50067200D02*
X124429524Y-49971961D01*
X124429524Y-49971961D02*
X124381905Y-49876723D01*
X124381905Y-49876723D02*
X124334286Y-49686247D01*
X124334286Y-49686247D02*
X124334286Y-49543390D01*
X124334286Y-49543390D02*
X124381905Y-49352914D01*
X124381905Y-49352914D02*
X124429524Y-49257676D01*
X124429524Y-49257676D02*
X124524762Y-49162438D01*
X124524762Y-49162438D02*
X124667619Y-49114819D01*
X124667619Y-49114819D02*
X124762857Y-49114819D01*
X124762857Y-49114819D02*
X124905714Y-49162438D01*
X124905714Y-49162438D02*
X124953333Y-49210057D01*
X125334286Y-49210057D02*
X125381905Y-49162438D01*
X125381905Y-49162438D02*
X125477143Y-49114819D01*
X125477143Y-49114819D02*
X125715238Y-49114819D01*
X125715238Y-49114819D02*
X125810476Y-49162438D01*
X125810476Y-49162438D02*
X125858095Y-49210057D01*
X125858095Y-49210057D02*
X125905714Y-49305295D01*
X125905714Y-49305295D02*
X125905714Y-49400533D01*
X125905714Y-49400533D02*
X125858095Y-49543390D01*
X125858095Y-49543390D02*
X125286667Y-50114819D01*
X125286667Y-50114819D02*
X125905714Y-50114819D01*
X135056358Y-66384819D02*
X134580168Y-66384819D01*
X134580168Y-66384819D02*
X134580168Y-65384819D01*
X135342073Y-66337200D02*
X135484930Y-66384819D01*
X135484930Y-66384819D02*
X135723025Y-66384819D01*
X135723025Y-66384819D02*
X135818263Y-66337200D01*
X135818263Y-66337200D02*
X135865882Y-66289580D01*
X135865882Y-66289580D02*
X135913501Y-66194342D01*
X135913501Y-66194342D02*
X135913501Y-66099104D01*
X135913501Y-66099104D02*
X135865882Y-66003866D01*
X135865882Y-66003866D02*
X135818263Y-65956247D01*
X135818263Y-65956247D02*
X135723025Y-65908628D01*
X135723025Y-65908628D02*
X135532549Y-65861009D01*
X135532549Y-65861009D02*
X135437311Y-65813390D01*
X135437311Y-65813390D02*
X135389692Y-65765771D01*
X135389692Y-65765771D02*
X135342073Y-65670533D01*
X135342073Y-65670533D02*
X135342073Y-65575295D01*
X135342073Y-65575295D02*
X135389692Y-65480057D01*
X135389692Y-65480057D02*
X135437311Y-65432438D01*
X135437311Y-65432438D02*
X135532549Y-65384819D01*
X135532549Y-65384819D02*
X135770644Y-65384819D01*
X135770644Y-65384819D02*
X135913501Y-65432438D01*
X136865882Y-66384819D02*
X136294454Y-66384819D01*
X136580168Y-66384819D02*
X136580168Y-65384819D01*
X136580168Y-65384819D02*
X136484930Y-65527676D01*
X136484930Y-65527676D02*
X136389692Y-65622914D01*
X136389692Y-65622914D02*
X136294454Y-65670533D01*
X126893333Y-37944819D02*
X126560000Y-37468628D01*
X126321905Y-37944819D02*
X126321905Y-36944819D01*
X126321905Y-36944819D02*
X126702857Y-36944819D01*
X126702857Y-36944819D02*
X126798095Y-36992438D01*
X126798095Y-36992438D02*
X126845714Y-37040057D01*
X126845714Y-37040057D02*
X126893333Y-37135295D01*
X126893333Y-37135295D02*
X126893333Y-37278152D01*
X126893333Y-37278152D02*
X126845714Y-37373390D01*
X126845714Y-37373390D02*
X126798095Y-37421009D01*
X126798095Y-37421009D02*
X126702857Y-37468628D01*
X126702857Y-37468628D02*
X126321905Y-37468628D01*
X127226667Y-36944819D02*
X127845714Y-36944819D01*
X127845714Y-36944819D02*
X127512381Y-37325771D01*
X127512381Y-37325771D02*
X127655238Y-37325771D01*
X127655238Y-37325771D02*
X127750476Y-37373390D01*
X127750476Y-37373390D02*
X127798095Y-37421009D01*
X127798095Y-37421009D02*
X127845714Y-37516247D01*
X127845714Y-37516247D02*
X127845714Y-37754342D01*
X127845714Y-37754342D02*
X127798095Y-37849580D01*
X127798095Y-37849580D02*
X127750476Y-37897200D01*
X127750476Y-37897200D02*
X127655238Y-37944819D01*
X127655238Y-37944819D02*
X127369524Y-37944819D01*
X127369524Y-37944819D02*
X127274286Y-37897200D01*
X127274286Y-37897200D02*
X127226667Y-37849580D01*
X152547142Y-49809580D02*
X152499523Y-49857200D01*
X152499523Y-49857200D02*
X152356666Y-49904819D01*
X152356666Y-49904819D02*
X152261428Y-49904819D01*
X152261428Y-49904819D02*
X152118571Y-49857200D01*
X152118571Y-49857200D02*
X152023333Y-49761961D01*
X152023333Y-49761961D02*
X151975714Y-49666723D01*
X151975714Y-49666723D02*
X151928095Y-49476247D01*
X151928095Y-49476247D02*
X151928095Y-49333390D01*
X151928095Y-49333390D02*
X151975714Y-49142914D01*
X151975714Y-49142914D02*
X152023333Y-49047676D01*
X152023333Y-49047676D02*
X152118571Y-48952438D01*
X152118571Y-48952438D02*
X152261428Y-48904819D01*
X152261428Y-48904819D02*
X152356666Y-48904819D01*
X152356666Y-48904819D02*
X152499523Y-48952438D01*
X152499523Y-48952438D02*
X152547142Y-49000057D01*
X153499523Y-49904819D02*
X152928095Y-49904819D01*
X153213809Y-49904819D02*
X153213809Y-48904819D01*
X153213809Y-48904819D02*
X153118571Y-49047676D01*
X153118571Y-49047676D02*
X153023333Y-49142914D01*
X153023333Y-49142914D02*
X152928095Y-49190533D01*
X154356666Y-49238152D02*
X154356666Y-49904819D01*
X154118571Y-48857200D02*
X153880476Y-49571485D01*
X153880476Y-49571485D02*
X154499523Y-49571485D01*
X112473333Y-39764819D02*
X112140000Y-39288628D01*
X111901905Y-39764819D02*
X111901905Y-38764819D01*
X111901905Y-38764819D02*
X112282857Y-38764819D01*
X112282857Y-38764819D02*
X112378095Y-38812438D01*
X112378095Y-38812438D02*
X112425714Y-38860057D01*
X112425714Y-38860057D02*
X112473333Y-38955295D01*
X112473333Y-38955295D02*
X112473333Y-39098152D01*
X112473333Y-39098152D02*
X112425714Y-39193390D01*
X112425714Y-39193390D02*
X112378095Y-39241009D01*
X112378095Y-39241009D02*
X112282857Y-39288628D01*
X112282857Y-39288628D02*
X111901905Y-39288628D01*
X113330476Y-39098152D02*
X113330476Y-39764819D01*
X113092381Y-38717200D02*
X112854286Y-39431485D01*
X112854286Y-39431485D02*
X113473333Y-39431485D01*
X152567142Y-58519580D02*
X152519523Y-58567200D01*
X152519523Y-58567200D02*
X152376666Y-58614819D01*
X152376666Y-58614819D02*
X152281428Y-58614819D01*
X152281428Y-58614819D02*
X152138571Y-58567200D01*
X152138571Y-58567200D02*
X152043333Y-58471961D01*
X152043333Y-58471961D02*
X151995714Y-58376723D01*
X151995714Y-58376723D02*
X151948095Y-58186247D01*
X151948095Y-58186247D02*
X151948095Y-58043390D01*
X151948095Y-58043390D02*
X151995714Y-57852914D01*
X151995714Y-57852914D02*
X152043333Y-57757676D01*
X152043333Y-57757676D02*
X152138571Y-57662438D01*
X152138571Y-57662438D02*
X152281428Y-57614819D01*
X152281428Y-57614819D02*
X152376666Y-57614819D01*
X152376666Y-57614819D02*
X152519523Y-57662438D01*
X152519523Y-57662438D02*
X152567142Y-57710057D01*
X153519523Y-58614819D02*
X152948095Y-58614819D01*
X153233809Y-58614819D02*
X153233809Y-57614819D01*
X153233809Y-57614819D02*
X153138571Y-57757676D01*
X153138571Y-57757676D02*
X153043333Y-57852914D01*
X153043333Y-57852914D02*
X152948095Y-57900533D01*
X154376666Y-57614819D02*
X154186190Y-57614819D01*
X154186190Y-57614819D02*
X154090952Y-57662438D01*
X154090952Y-57662438D02*
X154043333Y-57710057D01*
X154043333Y-57710057D02*
X153948095Y-57852914D01*
X153948095Y-57852914D02*
X153900476Y-58043390D01*
X153900476Y-58043390D02*
X153900476Y-58424342D01*
X153900476Y-58424342D02*
X153948095Y-58519580D01*
X153948095Y-58519580D02*
X153995714Y-58567200D01*
X153995714Y-58567200D02*
X154090952Y-58614819D01*
X154090952Y-58614819D02*
X154281428Y-58614819D01*
X154281428Y-58614819D02*
X154376666Y-58567200D01*
X154376666Y-58567200D02*
X154424285Y-58519580D01*
X154424285Y-58519580D02*
X154471904Y-58424342D01*
X154471904Y-58424342D02*
X154471904Y-58186247D01*
X154471904Y-58186247D02*
X154424285Y-58091009D01*
X154424285Y-58091009D02*
X154376666Y-58043390D01*
X154376666Y-58043390D02*
X154281428Y-57995771D01*
X154281428Y-57995771D02*
X154090952Y-57995771D01*
X154090952Y-57995771D02*
X153995714Y-58043390D01*
X153995714Y-58043390D02*
X153948095Y-58091009D01*
X153948095Y-58091009D02*
X153900476Y-58186247D01*
X139867142Y-63259580D02*
X139819523Y-63307200D01*
X139819523Y-63307200D02*
X139676666Y-63354819D01*
X139676666Y-63354819D02*
X139581428Y-63354819D01*
X139581428Y-63354819D02*
X139438571Y-63307200D01*
X139438571Y-63307200D02*
X139343333Y-63211961D01*
X139343333Y-63211961D02*
X139295714Y-63116723D01*
X139295714Y-63116723D02*
X139248095Y-62926247D01*
X139248095Y-62926247D02*
X139248095Y-62783390D01*
X139248095Y-62783390D02*
X139295714Y-62592914D01*
X139295714Y-62592914D02*
X139343333Y-62497676D01*
X139343333Y-62497676D02*
X139438571Y-62402438D01*
X139438571Y-62402438D02*
X139581428Y-62354819D01*
X139581428Y-62354819D02*
X139676666Y-62354819D01*
X139676666Y-62354819D02*
X139819523Y-62402438D01*
X139819523Y-62402438D02*
X139867142Y-62450057D01*
X140248095Y-62450057D02*
X140295714Y-62402438D01*
X140295714Y-62402438D02*
X140390952Y-62354819D01*
X140390952Y-62354819D02*
X140629047Y-62354819D01*
X140629047Y-62354819D02*
X140724285Y-62402438D01*
X140724285Y-62402438D02*
X140771904Y-62450057D01*
X140771904Y-62450057D02*
X140819523Y-62545295D01*
X140819523Y-62545295D02*
X140819523Y-62640533D01*
X140819523Y-62640533D02*
X140771904Y-62783390D01*
X140771904Y-62783390D02*
X140200476Y-63354819D01*
X140200476Y-63354819D02*
X140819523Y-63354819D01*
X141676666Y-62354819D02*
X141486190Y-62354819D01*
X141486190Y-62354819D02*
X141390952Y-62402438D01*
X141390952Y-62402438D02*
X141343333Y-62450057D01*
X141343333Y-62450057D02*
X141248095Y-62592914D01*
X141248095Y-62592914D02*
X141200476Y-62783390D01*
X141200476Y-62783390D02*
X141200476Y-63164342D01*
X141200476Y-63164342D02*
X141248095Y-63259580D01*
X141248095Y-63259580D02*
X141295714Y-63307200D01*
X141295714Y-63307200D02*
X141390952Y-63354819D01*
X141390952Y-63354819D02*
X141581428Y-63354819D01*
X141581428Y-63354819D02*
X141676666Y-63307200D01*
X141676666Y-63307200D02*
X141724285Y-63259580D01*
X141724285Y-63259580D02*
X141771904Y-63164342D01*
X141771904Y-63164342D02*
X141771904Y-62926247D01*
X141771904Y-62926247D02*
X141724285Y-62831009D01*
X141724285Y-62831009D02*
X141676666Y-62783390D01*
X141676666Y-62783390D02*
X141581428Y-62735771D01*
X141581428Y-62735771D02*
X141390952Y-62735771D01*
X141390952Y-62735771D02*
X141295714Y-62783390D01*
X141295714Y-62783390D02*
X141248095Y-62831009D01*
X141248095Y-62831009D02*
X141200476Y-62926247D01*
X126259642Y-77479580D02*
X126212023Y-77527200D01*
X126212023Y-77527200D02*
X126069166Y-77574819D01*
X126069166Y-77574819D02*
X125973928Y-77574819D01*
X125973928Y-77574819D02*
X125831071Y-77527200D01*
X125831071Y-77527200D02*
X125735833Y-77431961D01*
X125735833Y-77431961D02*
X125688214Y-77336723D01*
X125688214Y-77336723D02*
X125640595Y-77146247D01*
X125640595Y-77146247D02*
X125640595Y-77003390D01*
X125640595Y-77003390D02*
X125688214Y-76812914D01*
X125688214Y-76812914D02*
X125735833Y-76717676D01*
X125735833Y-76717676D02*
X125831071Y-76622438D01*
X125831071Y-76622438D02*
X125973928Y-76574819D01*
X125973928Y-76574819D02*
X126069166Y-76574819D01*
X126069166Y-76574819D02*
X126212023Y-76622438D01*
X126212023Y-76622438D02*
X126259642Y-76670057D01*
X126640595Y-76670057D02*
X126688214Y-76622438D01*
X126688214Y-76622438D02*
X126783452Y-76574819D01*
X126783452Y-76574819D02*
X127021547Y-76574819D01*
X127021547Y-76574819D02*
X127116785Y-76622438D01*
X127116785Y-76622438D02*
X127164404Y-76670057D01*
X127164404Y-76670057D02*
X127212023Y-76765295D01*
X127212023Y-76765295D02*
X127212023Y-76860533D01*
X127212023Y-76860533D02*
X127164404Y-77003390D01*
X127164404Y-77003390D02*
X126592976Y-77574819D01*
X126592976Y-77574819D02*
X127212023Y-77574819D01*
X128116785Y-76574819D02*
X127640595Y-76574819D01*
X127640595Y-76574819D02*
X127592976Y-77051009D01*
X127592976Y-77051009D02*
X127640595Y-77003390D01*
X127640595Y-77003390D02*
X127735833Y-76955771D01*
X127735833Y-76955771D02*
X127973928Y-76955771D01*
X127973928Y-76955771D02*
X128069166Y-77003390D01*
X128069166Y-77003390D02*
X128116785Y-77051009D01*
X128116785Y-77051009D02*
X128164404Y-77146247D01*
X128164404Y-77146247D02*
X128164404Y-77384342D01*
X128164404Y-77384342D02*
X128116785Y-77479580D01*
X128116785Y-77479580D02*
X128069166Y-77527200D01*
X128069166Y-77527200D02*
X127973928Y-77574819D01*
X127973928Y-77574819D02*
X127735833Y-77574819D01*
X127735833Y-77574819D02*
X127640595Y-77527200D01*
X127640595Y-77527200D02*
X127592976Y-77479580D01*
X134166666Y-36134819D02*
X134166666Y-36849104D01*
X134166666Y-36849104D02*
X134119047Y-36991961D01*
X134119047Y-36991961D02*
X134023809Y-37087200D01*
X134023809Y-37087200D02*
X133880952Y-37134819D01*
X133880952Y-37134819D02*
X133785714Y-37134819D01*
X134595238Y-36230057D02*
X134642857Y-36182438D01*
X134642857Y-36182438D02*
X134738095Y-36134819D01*
X134738095Y-36134819D02*
X134976190Y-36134819D01*
X134976190Y-36134819D02*
X135071428Y-36182438D01*
X135071428Y-36182438D02*
X135119047Y-36230057D01*
X135119047Y-36230057D02*
X135166666Y-36325295D01*
X135166666Y-36325295D02*
X135166666Y-36420533D01*
X135166666Y-36420533D02*
X135119047Y-36563390D01*
X135119047Y-36563390D02*
X134547619Y-37134819D01*
X134547619Y-37134819D02*
X135166666Y-37134819D01*
X137753333Y-47229580D02*
X137705714Y-47277200D01*
X137705714Y-47277200D02*
X137562857Y-47324819D01*
X137562857Y-47324819D02*
X137467619Y-47324819D01*
X137467619Y-47324819D02*
X137324762Y-47277200D01*
X137324762Y-47277200D02*
X137229524Y-47181961D01*
X137229524Y-47181961D02*
X137181905Y-47086723D01*
X137181905Y-47086723D02*
X137134286Y-46896247D01*
X137134286Y-46896247D02*
X137134286Y-46753390D01*
X137134286Y-46753390D02*
X137181905Y-46562914D01*
X137181905Y-46562914D02*
X137229524Y-46467676D01*
X137229524Y-46467676D02*
X137324762Y-46372438D01*
X137324762Y-46372438D02*
X137467619Y-46324819D01*
X137467619Y-46324819D02*
X137562857Y-46324819D01*
X137562857Y-46324819D02*
X137705714Y-46372438D01*
X137705714Y-46372438D02*
X137753333Y-46420057D01*
X138229524Y-47324819D02*
X138420000Y-47324819D01*
X138420000Y-47324819D02*
X138515238Y-47277200D01*
X138515238Y-47277200D02*
X138562857Y-47229580D01*
X138562857Y-47229580D02*
X138658095Y-47086723D01*
X138658095Y-47086723D02*
X138705714Y-46896247D01*
X138705714Y-46896247D02*
X138705714Y-46515295D01*
X138705714Y-46515295D02*
X138658095Y-46420057D01*
X138658095Y-46420057D02*
X138610476Y-46372438D01*
X138610476Y-46372438D02*
X138515238Y-46324819D01*
X138515238Y-46324819D02*
X138324762Y-46324819D01*
X138324762Y-46324819D02*
X138229524Y-46372438D01*
X138229524Y-46372438D02*
X138181905Y-46420057D01*
X138181905Y-46420057D02*
X138134286Y-46515295D01*
X138134286Y-46515295D02*
X138134286Y-46753390D01*
X138134286Y-46753390D02*
X138181905Y-46848628D01*
X138181905Y-46848628D02*
X138229524Y-46896247D01*
X138229524Y-46896247D02*
X138324762Y-46943866D01*
X138324762Y-46943866D02*
X138515238Y-46943866D01*
X138515238Y-46943866D02*
X138610476Y-46896247D01*
X138610476Y-46896247D02*
X138658095Y-46848628D01*
X138658095Y-46848628D02*
X138705714Y-46753390D01*
X126397142Y-53019580D02*
X126349523Y-53067200D01*
X126349523Y-53067200D02*
X126206666Y-53114819D01*
X126206666Y-53114819D02*
X126111428Y-53114819D01*
X126111428Y-53114819D02*
X125968571Y-53067200D01*
X125968571Y-53067200D02*
X125873333Y-52971961D01*
X125873333Y-52971961D02*
X125825714Y-52876723D01*
X125825714Y-52876723D02*
X125778095Y-52686247D01*
X125778095Y-52686247D02*
X125778095Y-52543390D01*
X125778095Y-52543390D02*
X125825714Y-52352914D01*
X125825714Y-52352914D02*
X125873333Y-52257676D01*
X125873333Y-52257676D02*
X125968571Y-52162438D01*
X125968571Y-52162438D02*
X126111428Y-52114819D01*
X126111428Y-52114819D02*
X126206666Y-52114819D01*
X126206666Y-52114819D02*
X126349523Y-52162438D01*
X126349523Y-52162438D02*
X126397142Y-52210057D01*
X127349523Y-53114819D02*
X126778095Y-53114819D01*
X127063809Y-53114819D02*
X127063809Y-52114819D01*
X127063809Y-52114819D02*
X126968571Y-52257676D01*
X126968571Y-52257676D02*
X126873333Y-52352914D01*
X126873333Y-52352914D02*
X126778095Y-52400533D01*
X127825714Y-53114819D02*
X128016190Y-53114819D01*
X128016190Y-53114819D02*
X128111428Y-53067200D01*
X128111428Y-53067200D02*
X128159047Y-53019580D01*
X128159047Y-53019580D02*
X128254285Y-52876723D01*
X128254285Y-52876723D02*
X128301904Y-52686247D01*
X128301904Y-52686247D02*
X128301904Y-52305295D01*
X128301904Y-52305295D02*
X128254285Y-52210057D01*
X128254285Y-52210057D02*
X128206666Y-52162438D01*
X128206666Y-52162438D02*
X128111428Y-52114819D01*
X128111428Y-52114819D02*
X127920952Y-52114819D01*
X127920952Y-52114819D02*
X127825714Y-52162438D01*
X127825714Y-52162438D02*
X127778095Y-52210057D01*
X127778095Y-52210057D02*
X127730476Y-52305295D01*
X127730476Y-52305295D02*
X127730476Y-52543390D01*
X127730476Y-52543390D02*
X127778095Y-52638628D01*
X127778095Y-52638628D02*
X127825714Y-52686247D01*
X127825714Y-52686247D02*
X127920952Y-52733866D01*
X127920952Y-52733866D02*
X128111428Y-52733866D01*
X128111428Y-52733866D02*
X128206666Y-52686247D01*
X128206666Y-52686247D02*
X128254285Y-52638628D01*
X128254285Y-52638628D02*
X128301904Y-52543390D01*
X120853333Y-51794819D02*
X120520000Y-51318628D01*
X120281905Y-51794819D02*
X120281905Y-50794819D01*
X120281905Y-50794819D02*
X120662857Y-50794819D01*
X120662857Y-50794819D02*
X120758095Y-50842438D01*
X120758095Y-50842438D02*
X120805714Y-50890057D01*
X120805714Y-50890057D02*
X120853333Y-50985295D01*
X120853333Y-50985295D02*
X120853333Y-51128152D01*
X120853333Y-51128152D02*
X120805714Y-51223390D01*
X120805714Y-51223390D02*
X120758095Y-51271009D01*
X120758095Y-51271009D02*
X120662857Y-51318628D01*
X120662857Y-51318628D02*
X120281905Y-51318628D01*
X121710476Y-50794819D02*
X121520000Y-50794819D01*
X121520000Y-50794819D02*
X121424762Y-50842438D01*
X121424762Y-50842438D02*
X121377143Y-50890057D01*
X121377143Y-50890057D02*
X121281905Y-51032914D01*
X121281905Y-51032914D02*
X121234286Y-51223390D01*
X121234286Y-51223390D02*
X121234286Y-51604342D01*
X121234286Y-51604342D02*
X121281905Y-51699580D01*
X121281905Y-51699580D02*
X121329524Y-51747200D01*
X121329524Y-51747200D02*
X121424762Y-51794819D01*
X121424762Y-51794819D02*
X121615238Y-51794819D01*
X121615238Y-51794819D02*
X121710476Y-51747200D01*
X121710476Y-51747200D02*
X121758095Y-51699580D01*
X121758095Y-51699580D02*
X121805714Y-51604342D01*
X121805714Y-51604342D02*
X121805714Y-51366247D01*
X121805714Y-51366247D02*
X121758095Y-51271009D01*
X121758095Y-51271009D02*
X121710476Y-51223390D01*
X121710476Y-51223390D02*
X121615238Y-51175771D01*
X121615238Y-51175771D02*
X121424762Y-51175771D01*
X121424762Y-51175771D02*
X121329524Y-51223390D01*
X121329524Y-51223390D02*
X121281905Y-51271009D01*
X121281905Y-51271009D02*
X121234286Y-51366247D01*
X106013333Y-39714819D02*
X105680000Y-39238628D01*
X105441905Y-39714819D02*
X105441905Y-38714819D01*
X105441905Y-38714819D02*
X105822857Y-38714819D01*
X105822857Y-38714819D02*
X105918095Y-38762438D01*
X105918095Y-38762438D02*
X105965714Y-38810057D01*
X105965714Y-38810057D02*
X106013333Y-38905295D01*
X106013333Y-38905295D02*
X106013333Y-39048152D01*
X106013333Y-39048152D02*
X105965714Y-39143390D01*
X105965714Y-39143390D02*
X105918095Y-39191009D01*
X105918095Y-39191009D02*
X105822857Y-39238628D01*
X105822857Y-39238628D02*
X105441905Y-39238628D01*
X106918095Y-38714819D02*
X106441905Y-38714819D01*
X106441905Y-38714819D02*
X106394286Y-39191009D01*
X106394286Y-39191009D02*
X106441905Y-39143390D01*
X106441905Y-39143390D02*
X106537143Y-39095771D01*
X106537143Y-39095771D02*
X106775238Y-39095771D01*
X106775238Y-39095771D02*
X106870476Y-39143390D01*
X106870476Y-39143390D02*
X106918095Y-39191009D01*
X106918095Y-39191009D02*
X106965714Y-39286247D01*
X106965714Y-39286247D02*
X106965714Y-39524342D01*
X106965714Y-39524342D02*
X106918095Y-39619580D01*
X106918095Y-39619580D02*
X106870476Y-39667200D01*
X106870476Y-39667200D02*
X106775238Y-39714819D01*
X106775238Y-39714819D02*
X106537143Y-39714819D01*
X106537143Y-39714819D02*
X106441905Y-39667200D01*
X106441905Y-39667200D02*
X106394286Y-39619580D01*
X186217142Y-49459580D02*
X186169523Y-49507200D01*
X186169523Y-49507200D02*
X186026666Y-49554819D01*
X186026666Y-49554819D02*
X185931428Y-49554819D01*
X185931428Y-49554819D02*
X185788571Y-49507200D01*
X185788571Y-49507200D02*
X185693333Y-49411961D01*
X185693333Y-49411961D02*
X185645714Y-49316723D01*
X185645714Y-49316723D02*
X185598095Y-49126247D01*
X185598095Y-49126247D02*
X185598095Y-48983390D01*
X185598095Y-48983390D02*
X185645714Y-48792914D01*
X185645714Y-48792914D02*
X185693333Y-48697676D01*
X185693333Y-48697676D02*
X185788571Y-48602438D01*
X185788571Y-48602438D02*
X185931428Y-48554819D01*
X185931428Y-48554819D02*
X186026666Y-48554819D01*
X186026666Y-48554819D02*
X186169523Y-48602438D01*
X186169523Y-48602438D02*
X186217142Y-48650057D01*
X186598095Y-48650057D02*
X186645714Y-48602438D01*
X186645714Y-48602438D02*
X186740952Y-48554819D01*
X186740952Y-48554819D02*
X186979047Y-48554819D01*
X186979047Y-48554819D02*
X187074285Y-48602438D01*
X187074285Y-48602438D02*
X187121904Y-48650057D01*
X187121904Y-48650057D02*
X187169523Y-48745295D01*
X187169523Y-48745295D02*
X187169523Y-48840533D01*
X187169523Y-48840533D02*
X187121904Y-48983390D01*
X187121904Y-48983390D02*
X186550476Y-49554819D01*
X186550476Y-49554819D02*
X187169523Y-49554819D01*
X188026666Y-48888152D02*
X188026666Y-49554819D01*
X187788571Y-48507200D02*
X187550476Y-49221485D01*
X187550476Y-49221485D02*
X188169523Y-49221485D01*
X145367142Y-33047319D02*
X145033809Y-32571128D01*
X144795714Y-33047319D02*
X144795714Y-32047319D01*
X144795714Y-32047319D02*
X145176666Y-32047319D01*
X145176666Y-32047319D02*
X145271904Y-32094938D01*
X145271904Y-32094938D02*
X145319523Y-32142557D01*
X145319523Y-32142557D02*
X145367142Y-32237795D01*
X145367142Y-32237795D02*
X145367142Y-32380652D01*
X145367142Y-32380652D02*
X145319523Y-32475890D01*
X145319523Y-32475890D02*
X145271904Y-32523509D01*
X145271904Y-32523509D02*
X145176666Y-32571128D01*
X145176666Y-32571128D02*
X144795714Y-32571128D01*
X146319523Y-33047319D02*
X145748095Y-33047319D01*
X146033809Y-33047319D02*
X146033809Y-32047319D01*
X146033809Y-32047319D02*
X145938571Y-32190176D01*
X145938571Y-32190176D02*
X145843333Y-32285414D01*
X145843333Y-32285414D02*
X145748095Y-32333033D01*
X146938571Y-32047319D02*
X147033809Y-32047319D01*
X147033809Y-32047319D02*
X147129047Y-32094938D01*
X147129047Y-32094938D02*
X147176666Y-32142557D01*
X147176666Y-32142557D02*
X147224285Y-32237795D01*
X147224285Y-32237795D02*
X147271904Y-32428271D01*
X147271904Y-32428271D02*
X147271904Y-32666366D01*
X147271904Y-32666366D02*
X147224285Y-32856842D01*
X147224285Y-32856842D02*
X147176666Y-32952080D01*
X147176666Y-32952080D02*
X147129047Y-32999700D01*
X147129047Y-32999700D02*
X147033809Y-33047319D01*
X147033809Y-33047319D02*
X146938571Y-33047319D01*
X146938571Y-33047319D02*
X146843333Y-32999700D01*
X146843333Y-32999700D02*
X146795714Y-32952080D01*
X146795714Y-32952080D02*
X146748095Y-32856842D01*
X146748095Y-32856842D02*
X146700476Y-32666366D01*
X146700476Y-32666366D02*
X146700476Y-32428271D01*
X146700476Y-32428271D02*
X146748095Y-32237795D01*
X146748095Y-32237795D02*
X146795714Y-32142557D01*
X146795714Y-32142557D02*
X146843333Y-32094938D01*
X146843333Y-32094938D02*
X146938571Y-32047319D01*
X135706667Y-36087200D02*
X135849524Y-36134819D01*
X135849524Y-36134819D02*
X136087619Y-36134819D01*
X136087619Y-36134819D02*
X136182857Y-36087200D01*
X136182857Y-36087200D02*
X136230476Y-36039580D01*
X136230476Y-36039580D02*
X136278095Y-35944342D01*
X136278095Y-35944342D02*
X136278095Y-35849104D01*
X136278095Y-35849104D02*
X136230476Y-35753866D01*
X136230476Y-35753866D02*
X136182857Y-35706247D01*
X136182857Y-35706247D02*
X136087619Y-35658628D01*
X136087619Y-35658628D02*
X135897143Y-35611009D01*
X135897143Y-35611009D02*
X135801905Y-35563390D01*
X135801905Y-35563390D02*
X135754286Y-35515771D01*
X135754286Y-35515771D02*
X135706667Y-35420533D01*
X135706667Y-35420533D02*
X135706667Y-35325295D01*
X135706667Y-35325295D02*
X135754286Y-35230057D01*
X135754286Y-35230057D02*
X135801905Y-35182438D01*
X135801905Y-35182438D02*
X135897143Y-35134819D01*
X135897143Y-35134819D02*
X136135238Y-35134819D01*
X136135238Y-35134819D02*
X136278095Y-35182438D01*
X136611429Y-35134819D02*
X136849524Y-36134819D01*
X136849524Y-36134819D02*
X137040000Y-35420533D01*
X137040000Y-35420533D02*
X137230476Y-36134819D01*
X137230476Y-36134819D02*
X137468572Y-35134819D01*
X138373333Y-36134819D02*
X137801905Y-36134819D01*
X138087619Y-36134819D02*
X138087619Y-35134819D01*
X138087619Y-35134819D02*
X137992381Y-35277676D01*
X137992381Y-35277676D02*
X137897143Y-35372914D01*
X137897143Y-35372914D02*
X137801905Y-35420533D01*
X152587142Y-51989580D02*
X152539523Y-52037200D01*
X152539523Y-52037200D02*
X152396666Y-52084819D01*
X152396666Y-52084819D02*
X152301428Y-52084819D01*
X152301428Y-52084819D02*
X152158571Y-52037200D01*
X152158571Y-52037200D02*
X152063333Y-51941961D01*
X152063333Y-51941961D02*
X152015714Y-51846723D01*
X152015714Y-51846723D02*
X151968095Y-51656247D01*
X151968095Y-51656247D02*
X151968095Y-51513390D01*
X151968095Y-51513390D02*
X152015714Y-51322914D01*
X152015714Y-51322914D02*
X152063333Y-51227676D01*
X152063333Y-51227676D02*
X152158571Y-51132438D01*
X152158571Y-51132438D02*
X152301428Y-51084819D01*
X152301428Y-51084819D02*
X152396666Y-51084819D01*
X152396666Y-51084819D02*
X152539523Y-51132438D01*
X152539523Y-51132438D02*
X152587142Y-51180057D01*
X153539523Y-52084819D02*
X152968095Y-52084819D01*
X153253809Y-52084819D02*
X153253809Y-51084819D01*
X153253809Y-51084819D02*
X153158571Y-51227676D01*
X153158571Y-51227676D02*
X153063333Y-51322914D01*
X153063333Y-51322914D02*
X152968095Y-51370533D01*
X154444285Y-51084819D02*
X153968095Y-51084819D01*
X153968095Y-51084819D02*
X153920476Y-51561009D01*
X153920476Y-51561009D02*
X153968095Y-51513390D01*
X153968095Y-51513390D02*
X154063333Y-51465771D01*
X154063333Y-51465771D02*
X154301428Y-51465771D01*
X154301428Y-51465771D02*
X154396666Y-51513390D01*
X154396666Y-51513390D02*
X154444285Y-51561009D01*
X154444285Y-51561009D02*
X154491904Y-51656247D01*
X154491904Y-51656247D02*
X154491904Y-51894342D01*
X154491904Y-51894342D02*
X154444285Y-51989580D01*
X154444285Y-51989580D02*
X154396666Y-52037200D01*
X154396666Y-52037200D02*
X154301428Y-52084819D01*
X154301428Y-52084819D02*
X154063333Y-52084819D01*
X154063333Y-52084819D02*
X153968095Y-52037200D01*
X153968095Y-52037200D02*
X153920476Y-51989580D01*
X134056309Y-46518628D02*
X134056309Y-46994819D01*
X133722976Y-45994819D02*
X134056309Y-46518628D01*
X134056309Y-46518628D02*
X134389642Y-45994819D01*
X135246785Y-46994819D02*
X134675357Y-46994819D01*
X134961071Y-46994819D02*
X134961071Y-45994819D01*
X134961071Y-45994819D02*
X134865833Y-46137676D01*
X134865833Y-46137676D02*
X134770595Y-46232914D01*
X134770595Y-46232914D02*
X134675357Y-46280533D01*
X127524583Y-62424819D02*
X127048393Y-62424819D01*
X127048393Y-62424819D02*
X127048393Y-61424819D01*
X127810298Y-61520057D02*
X127857917Y-61472438D01*
X127857917Y-61472438D02*
X127953155Y-61424819D01*
X127953155Y-61424819D02*
X128191250Y-61424819D01*
X128191250Y-61424819D02*
X128286488Y-61472438D01*
X128286488Y-61472438D02*
X128334107Y-61520057D01*
X128334107Y-61520057D02*
X128381726Y-61615295D01*
X128381726Y-61615295D02*
X128381726Y-61710533D01*
X128381726Y-61710533D02*
X128334107Y-61853390D01*
X128334107Y-61853390D02*
X127762679Y-62424819D01*
X127762679Y-62424819D02*
X128381726Y-62424819D01*
X152567142Y-54079580D02*
X152519523Y-54127200D01*
X152519523Y-54127200D02*
X152376666Y-54174819D01*
X152376666Y-54174819D02*
X152281428Y-54174819D01*
X152281428Y-54174819D02*
X152138571Y-54127200D01*
X152138571Y-54127200D02*
X152043333Y-54031961D01*
X152043333Y-54031961D02*
X151995714Y-53936723D01*
X151995714Y-53936723D02*
X151948095Y-53746247D01*
X151948095Y-53746247D02*
X151948095Y-53603390D01*
X151948095Y-53603390D02*
X151995714Y-53412914D01*
X151995714Y-53412914D02*
X152043333Y-53317676D01*
X152043333Y-53317676D02*
X152138571Y-53222438D01*
X152138571Y-53222438D02*
X152281428Y-53174819D01*
X152281428Y-53174819D02*
X152376666Y-53174819D01*
X152376666Y-53174819D02*
X152519523Y-53222438D01*
X152519523Y-53222438D02*
X152567142Y-53270057D01*
X153519523Y-54174819D02*
X152948095Y-54174819D01*
X153233809Y-54174819D02*
X153233809Y-53174819D01*
X153233809Y-53174819D02*
X153138571Y-53317676D01*
X153138571Y-53317676D02*
X153043333Y-53412914D01*
X153043333Y-53412914D02*
X152948095Y-53460533D01*
X153852857Y-53174819D02*
X154471904Y-53174819D01*
X154471904Y-53174819D02*
X154138571Y-53555771D01*
X154138571Y-53555771D02*
X154281428Y-53555771D01*
X154281428Y-53555771D02*
X154376666Y-53603390D01*
X154376666Y-53603390D02*
X154424285Y-53651009D01*
X154424285Y-53651009D02*
X154471904Y-53746247D01*
X154471904Y-53746247D02*
X154471904Y-53984342D01*
X154471904Y-53984342D02*
X154424285Y-54079580D01*
X154424285Y-54079580D02*
X154376666Y-54127200D01*
X154376666Y-54127200D02*
X154281428Y-54174819D01*
X154281428Y-54174819D02*
X153995714Y-54174819D01*
X153995714Y-54174819D02*
X153900476Y-54127200D01*
X153900476Y-54127200D02*
X153852857Y-54079580D01*
X139150833Y-58664819D02*
X138817500Y-58188628D01*
X138579405Y-58664819D02*
X138579405Y-57664819D01*
X138579405Y-57664819D02*
X138960357Y-57664819D01*
X138960357Y-57664819D02*
X139055595Y-57712438D01*
X139055595Y-57712438D02*
X139103214Y-57760057D01*
X139103214Y-57760057D02*
X139150833Y-57855295D01*
X139150833Y-57855295D02*
X139150833Y-57998152D01*
X139150833Y-57998152D02*
X139103214Y-58093390D01*
X139103214Y-58093390D02*
X139055595Y-58141009D01*
X139055595Y-58141009D02*
X138960357Y-58188628D01*
X138960357Y-58188628D02*
X138579405Y-58188628D01*
X139627024Y-58664819D02*
X139817500Y-58664819D01*
X139817500Y-58664819D02*
X139912738Y-58617200D01*
X139912738Y-58617200D02*
X139960357Y-58569580D01*
X139960357Y-58569580D02*
X140055595Y-58426723D01*
X140055595Y-58426723D02*
X140103214Y-58236247D01*
X140103214Y-58236247D02*
X140103214Y-57855295D01*
X140103214Y-57855295D02*
X140055595Y-57760057D01*
X140055595Y-57760057D02*
X140007976Y-57712438D01*
X140007976Y-57712438D02*
X139912738Y-57664819D01*
X139912738Y-57664819D02*
X139722262Y-57664819D01*
X139722262Y-57664819D02*
X139627024Y-57712438D01*
X139627024Y-57712438D02*
X139579405Y-57760057D01*
X139579405Y-57760057D02*
X139531786Y-57855295D01*
X139531786Y-57855295D02*
X139531786Y-58093390D01*
X139531786Y-58093390D02*
X139579405Y-58188628D01*
X139579405Y-58188628D02*
X139627024Y-58236247D01*
X139627024Y-58236247D02*
X139722262Y-58283866D01*
X139722262Y-58283866D02*
X139912738Y-58283866D01*
X139912738Y-58283866D02*
X140007976Y-58236247D01*
X140007976Y-58236247D02*
X140055595Y-58188628D01*
X140055595Y-58188628D02*
X140103214Y-58093390D01*
X131283333Y-47309580D02*
X131235714Y-47357200D01*
X131235714Y-47357200D02*
X131092857Y-47404819D01*
X131092857Y-47404819D02*
X130997619Y-47404819D01*
X130997619Y-47404819D02*
X130854762Y-47357200D01*
X130854762Y-47357200D02*
X130759524Y-47261961D01*
X130759524Y-47261961D02*
X130711905Y-47166723D01*
X130711905Y-47166723D02*
X130664286Y-46976247D01*
X130664286Y-46976247D02*
X130664286Y-46833390D01*
X130664286Y-46833390D02*
X130711905Y-46642914D01*
X130711905Y-46642914D02*
X130759524Y-46547676D01*
X130759524Y-46547676D02*
X130854762Y-46452438D01*
X130854762Y-46452438D02*
X130997619Y-46404819D01*
X130997619Y-46404819D02*
X131092857Y-46404819D01*
X131092857Y-46404819D02*
X131235714Y-46452438D01*
X131235714Y-46452438D02*
X131283333Y-46500057D01*
X131854762Y-46833390D02*
X131759524Y-46785771D01*
X131759524Y-46785771D02*
X131711905Y-46738152D01*
X131711905Y-46738152D02*
X131664286Y-46642914D01*
X131664286Y-46642914D02*
X131664286Y-46595295D01*
X131664286Y-46595295D02*
X131711905Y-46500057D01*
X131711905Y-46500057D02*
X131759524Y-46452438D01*
X131759524Y-46452438D02*
X131854762Y-46404819D01*
X131854762Y-46404819D02*
X132045238Y-46404819D01*
X132045238Y-46404819D02*
X132140476Y-46452438D01*
X132140476Y-46452438D02*
X132188095Y-46500057D01*
X132188095Y-46500057D02*
X132235714Y-46595295D01*
X132235714Y-46595295D02*
X132235714Y-46642914D01*
X132235714Y-46642914D02*
X132188095Y-46738152D01*
X132188095Y-46738152D02*
X132140476Y-46785771D01*
X132140476Y-46785771D02*
X132045238Y-46833390D01*
X132045238Y-46833390D02*
X131854762Y-46833390D01*
X131854762Y-46833390D02*
X131759524Y-46881009D01*
X131759524Y-46881009D02*
X131711905Y-46928628D01*
X131711905Y-46928628D02*
X131664286Y-47023866D01*
X131664286Y-47023866D02*
X131664286Y-47214342D01*
X131664286Y-47214342D02*
X131711905Y-47309580D01*
X131711905Y-47309580D02*
X131759524Y-47357200D01*
X131759524Y-47357200D02*
X131854762Y-47404819D01*
X131854762Y-47404819D02*
X132045238Y-47404819D01*
X132045238Y-47404819D02*
X132140476Y-47357200D01*
X132140476Y-47357200D02*
X132188095Y-47309580D01*
X132188095Y-47309580D02*
X132235714Y-47214342D01*
X132235714Y-47214342D02*
X132235714Y-47023866D01*
X132235714Y-47023866D02*
X132188095Y-46928628D01*
X132188095Y-46928628D02*
X132140476Y-46881009D01*
X132140476Y-46881009D02*
X132045238Y-46833390D01*
X136068095Y-50894819D02*
X136068095Y-51704342D01*
X136068095Y-51704342D02*
X136115714Y-51799580D01*
X136115714Y-51799580D02*
X136163333Y-51847200D01*
X136163333Y-51847200D02*
X136258571Y-51894819D01*
X136258571Y-51894819D02*
X136449047Y-51894819D01*
X136449047Y-51894819D02*
X136544285Y-51847200D01*
X136544285Y-51847200D02*
X136591904Y-51799580D01*
X136591904Y-51799580D02*
X136639523Y-51704342D01*
X136639523Y-51704342D02*
X136639523Y-50894819D01*
X137591904Y-50894819D02*
X137115714Y-50894819D01*
X137115714Y-50894819D02*
X137068095Y-51371009D01*
X137068095Y-51371009D02*
X137115714Y-51323390D01*
X137115714Y-51323390D02*
X137210952Y-51275771D01*
X137210952Y-51275771D02*
X137449047Y-51275771D01*
X137449047Y-51275771D02*
X137544285Y-51323390D01*
X137544285Y-51323390D02*
X137591904Y-51371009D01*
X137591904Y-51371009D02*
X137639523Y-51466247D01*
X137639523Y-51466247D02*
X137639523Y-51704342D01*
X137639523Y-51704342D02*
X137591904Y-51799580D01*
X137591904Y-51799580D02*
X137544285Y-51847200D01*
X137544285Y-51847200D02*
X137449047Y-51894819D01*
X137449047Y-51894819D02*
X137210952Y-51894819D01*
X137210952Y-51894819D02*
X137115714Y-51847200D01*
X137115714Y-51847200D02*
X137068095Y-51799580D01*
X129773333Y-43819580D02*
X129725714Y-43867200D01*
X129725714Y-43867200D02*
X129582857Y-43914819D01*
X129582857Y-43914819D02*
X129487619Y-43914819D01*
X129487619Y-43914819D02*
X129344762Y-43867200D01*
X129344762Y-43867200D02*
X129249524Y-43771961D01*
X129249524Y-43771961D02*
X129201905Y-43676723D01*
X129201905Y-43676723D02*
X129154286Y-43486247D01*
X129154286Y-43486247D02*
X129154286Y-43343390D01*
X129154286Y-43343390D02*
X129201905Y-43152914D01*
X129201905Y-43152914D02*
X129249524Y-43057676D01*
X129249524Y-43057676D02*
X129344762Y-42962438D01*
X129344762Y-42962438D02*
X129487619Y-42914819D01*
X129487619Y-42914819D02*
X129582857Y-42914819D01*
X129582857Y-42914819D02*
X129725714Y-42962438D01*
X129725714Y-42962438D02*
X129773333Y-43010057D01*
X130630476Y-43248152D02*
X130630476Y-43914819D01*
X130392381Y-42867200D02*
X130154286Y-43581485D01*
X130154286Y-43581485D02*
X130773333Y-43581485D01*
X125223333Y-46909580D02*
X125175714Y-46957200D01*
X125175714Y-46957200D02*
X125032857Y-47004819D01*
X125032857Y-47004819D02*
X124937619Y-47004819D01*
X124937619Y-47004819D02*
X124794762Y-46957200D01*
X124794762Y-46957200D02*
X124699524Y-46861961D01*
X124699524Y-46861961D02*
X124651905Y-46766723D01*
X124651905Y-46766723D02*
X124604286Y-46576247D01*
X124604286Y-46576247D02*
X124604286Y-46433390D01*
X124604286Y-46433390D02*
X124651905Y-46242914D01*
X124651905Y-46242914D02*
X124699524Y-46147676D01*
X124699524Y-46147676D02*
X124794762Y-46052438D01*
X124794762Y-46052438D02*
X124937619Y-46004819D01*
X124937619Y-46004819D02*
X125032857Y-46004819D01*
X125032857Y-46004819D02*
X125175714Y-46052438D01*
X125175714Y-46052438D02*
X125223333Y-46100057D01*
X126128095Y-46004819D02*
X125651905Y-46004819D01*
X125651905Y-46004819D02*
X125604286Y-46481009D01*
X125604286Y-46481009D02*
X125651905Y-46433390D01*
X125651905Y-46433390D02*
X125747143Y-46385771D01*
X125747143Y-46385771D02*
X125985238Y-46385771D01*
X125985238Y-46385771D02*
X126080476Y-46433390D01*
X126080476Y-46433390D02*
X126128095Y-46481009D01*
X126128095Y-46481009D02*
X126175714Y-46576247D01*
X126175714Y-46576247D02*
X126175714Y-46814342D01*
X126175714Y-46814342D02*
X126128095Y-46909580D01*
X126128095Y-46909580D02*
X126080476Y-46957200D01*
X126080476Y-46957200D02*
X125985238Y-47004819D01*
X125985238Y-47004819D02*
X125747143Y-47004819D01*
X125747143Y-47004819D02*
X125651905Y-46957200D01*
X125651905Y-46957200D02*
X125604286Y-46909580D01*
X112373333Y-41369580D02*
X112325714Y-41417200D01*
X112325714Y-41417200D02*
X112182857Y-41464819D01*
X112182857Y-41464819D02*
X112087619Y-41464819D01*
X112087619Y-41464819D02*
X111944762Y-41417200D01*
X111944762Y-41417200D02*
X111849524Y-41321961D01*
X111849524Y-41321961D02*
X111801905Y-41226723D01*
X111801905Y-41226723D02*
X111754286Y-41036247D01*
X111754286Y-41036247D02*
X111754286Y-40893390D01*
X111754286Y-40893390D02*
X111801905Y-40702914D01*
X111801905Y-40702914D02*
X111849524Y-40607676D01*
X111849524Y-40607676D02*
X111944762Y-40512438D01*
X111944762Y-40512438D02*
X112087619Y-40464819D01*
X112087619Y-40464819D02*
X112182857Y-40464819D01*
X112182857Y-40464819D02*
X112325714Y-40512438D01*
X112325714Y-40512438D02*
X112373333Y-40560057D01*
X112706667Y-40464819D02*
X113373333Y-40464819D01*
X113373333Y-40464819D02*
X112944762Y-41464819D01*
X139919642Y-64829580D02*
X139872023Y-64877200D01*
X139872023Y-64877200D02*
X139729166Y-64924819D01*
X139729166Y-64924819D02*
X139633928Y-64924819D01*
X139633928Y-64924819D02*
X139491071Y-64877200D01*
X139491071Y-64877200D02*
X139395833Y-64781961D01*
X139395833Y-64781961D02*
X139348214Y-64686723D01*
X139348214Y-64686723D02*
X139300595Y-64496247D01*
X139300595Y-64496247D02*
X139300595Y-64353390D01*
X139300595Y-64353390D02*
X139348214Y-64162914D01*
X139348214Y-64162914D02*
X139395833Y-64067676D01*
X139395833Y-64067676D02*
X139491071Y-63972438D01*
X139491071Y-63972438D02*
X139633928Y-63924819D01*
X139633928Y-63924819D02*
X139729166Y-63924819D01*
X139729166Y-63924819D02*
X139872023Y-63972438D01*
X139872023Y-63972438D02*
X139919642Y-64020057D01*
X140872023Y-64924819D02*
X140300595Y-64924819D01*
X140586309Y-64924819D02*
X140586309Y-63924819D01*
X140586309Y-63924819D02*
X140491071Y-64067676D01*
X140491071Y-64067676D02*
X140395833Y-64162914D01*
X140395833Y-64162914D02*
X140300595Y-64210533D01*
X141491071Y-63924819D02*
X141586309Y-63924819D01*
X141586309Y-63924819D02*
X141681547Y-63972438D01*
X141681547Y-63972438D02*
X141729166Y-64020057D01*
X141729166Y-64020057D02*
X141776785Y-64115295D01*
X141776785Y-64115295D02*
X141824404Y-64305771D01*
X141824404Y-64305771D02*
X141824404Y-64543866D01*
X141824404Y-64543866D02*
X141776785Y-64734342D01*
X141776785Y-64734342D02*
X141729166Y-64829580D01*
X141729166Y-64829580D02*
X141681547Y-64877200D01*
X141681547Y-64877200D02*
X141586309Y-64924819D01*
X141586309Y-64924819D02*
X141491071Y-64924819D01*
X141491071Y-64924819D02*
X141395833Y-64877200D01*
X141395833Y-64877200D02*
X141348214Y-64829580D01*
X141348214Y-64829580D02*
X141300595Y-64734342D01*
X141300595Y-64734342D02*
X141252976Y-64543866D01*
X141252976Y-64543866D02*
X141252976Y-64305771D01*
X141252976Y-64305771D02*
X141300595Y-64115295D01*
X141300595Y-64115295D02*
X141348214Y-64020057D01*
X141348214Y-64020057D02*
X141395833Y-63972438D01*
X141395833Y-63972438D02*
X141491071Y-63924819D01*
X140153333Y-61744819D02*
X139820000Y-61268628D01*
X139581905Y-61744819D02*
X139581905Y-60744819D01*
X139581905Y-60744819D02*
X139962857Y-60744819D01*
X139962857Y-60744819D02*
X140058095Y-60792438D01*
X140058095Y-60792438D02*
X140105714Y-60840057D01*
X140105714Y-60840057D02*
X140153333Y-60935295D01*
X140153333Y-60935295D02*
X140153333Y-61078152D01*
X140153333Y-61078152D02*
X140105714Y-61173390D01*
X140105714Y-61173390D02*
X140058095Y-61221009D01*
X140058095Y-61221009D02*
X139962857Y-61268628D01*
X139962857Y-61268628D02*
X139581905Y-61268628D01*
X140724762Y-61173390D02*
X140629524Y-61125771D01*
X140629524Y-61125771D02*
X140581905Y-61078152D01*
X140581905Y-61078152D02*
X140534286Y-60982914D01*
X140534286Y-60982914D02*
X140534286Y-60935295D01*
X140534286Y-60935295D02*
X140581905Y-60840057D01*
X140581905Y-60840057D02*
X140629524Y-60792438D01*
X140629524Y-60792438D02*
X140724762Y-60744819D01*
X140724762Y-60744819D02*
X140915238Y-60744819D01*
X140915238Y-60744819D02*
X141010476Y-60792438D01*
X141010476Y-60792438D02*
X141058095Y-60840057D01*
X141058095Y-60840057D02*
X141105714Y-60935295D01*
X141105714Y-60935295D02*
X141105714Y-60982914D01*
X141105714Y-60982914D02*
X141058095Y-61078152D01*
X141058095Y-61078152D02*
X141010476Y-61125771D01*
X141010476Y-61125771D02*
X140915238Y-61173390D01*
X140915238Y-61173390D02*
X140724762Y-61173390D01*
X140724762Y-61173390D02*
X140629524Y-61221009D01*
X140629524Y-61221009D02*
X140581905Y-61268628D01*
X140581905Y-61268628D02*
X140534286Y-61363866D01*
X140534286Y-61363866D02*
X140534286Y-61554342D01*
X140534286Y-61554342D02*
X140581905Y-61649580D01*
X140581905Y-61649580D02*
X140629524Y-61697200D01*
X140629524Y-61697200D02*
X140724762Y-61744819D01*
X140724762Y-61744819D02*
X140915238Y-61744819D01*
X140915238Y-61744819D02*
X141010476Y-61697200D01*
X141010476Y-61697200D02*
X141058095Y-61649580D01*
X141058095Y-61649580D02*
X141105714Y-61554342D01*
X141105714Y-61554342D02*
X141105714Y-61363866D01*
X141105714Y-61363866D02*
X141058095Y-61268628D01*
X141058095Y-61268628D02*
X141010476Y-61221009D01*
X141010476Y-61221009D02*
X140915238Y-61173390D01*
X108792142Y-78509580D02*
X108744523Y-78557200D01*
X108744523Y-78557200D02*
X108601666Y-78604819D01*
X108601666Y-78604819D02*
X108506428Y-78604819D01*
X108506428Y-78604819D02*
X108363571Y-78557200D01*
X108363571Y-78557200D02*
X108268333Y-78461961D01*
X108268333Y-78461961D02*
X108220714Y-78366723D01*
X108220714Y-78366723D02*
X108173095Y-78176247D01*
X108173095Y-78176247D02*
X108173095Y-78033390D01*
X108173095Y-78033390D02*
X108220714Y-77842914D01*
X108220714Y-77842914D02*
X108268333Y-77747676D01*
X108268333Y-77747676D02*
X108363571Y-77652438D01*
X108363571Y-77652438D02*
X108506428Y-77604819D01*
X108506428Y-77604819D02*
X108601666Y-77604819D01*
X108601666Y-77604819D02*
X108744523Y-77652438D01*
X108744523Y-77652438D02*
X108792142Y-77700057D01*
X109173095Y-77700057D02*
X109220714Y-77652438D01*
X109220714Y-77652438D02*
X109315952Y-77604819D01*
X109315952Y-77604819D02*
X109554047Y-77604819D01*
X109554047Y-77604819D02*
X109649285Y-77652438D01*
X109649285Y-77652438D02*
X109696904Y-77700057D01*
X109696904Y-77700057D02*
X109744523Y-77795295D01*
X109744523Y-77795295D02*
X109744523Y-77890533D01*
X109744523Y-77890533D02*
X109696904Y-78033390D01*
X109696904Y-78033390D02*
X109125476Y-78604819D01*
X109125476Y-78604819D02*
X109744523Y-78604819D01*
X110125476Y-77700057D02*
X110173095Y-77652438D01*
X110173095Y-77652438D02*
X110268333Y-77604819D01*
X110268333Y-77604819D02*
X110506428Y-77604819D01*
X110506428Y-77604819D02*
X110601666Y-77652438D01*
X110601666Y-77652438D02*
X110649285Y-77700057D01*
X110649285Y-77700057D02*
X110696904Y-77795295D01*
X110696904Y-77795295D02*
X110696904Y-77890533D01*
X110696904Y-77890533D02*
X110649285Y-78033390D01*
X110649285Y-78033390D02*
X110077857Y-78604819D01*
X110077857Y-78604819D02*
X110696904Y-78604819D01*
X119483333Y-37124819D02*
X119150000Y-36648628D01*
X118911905Y-37124819D02*
X118911905Y-36124819D01*
X118911905Y-36124819D02*
X119292857Y-36124819D01*
X119292857Y-36124819D02*
X119388095Y-36172438D01*
X119388095Y-36172438D02*
X119435714Y-36220057D01*
X119435714Y-36220057D02*
X119483333Y-36315295D01*
X119483333Y-36315295D02*
X119483333Y-36458152D01*
X119483333Y-36458152D02*
X119435714Y-36553390D01*
X119435714Y-36553390D02*
X119388095Y-36601009D01*
X119388095Y-36601009D02*
X119292857Y-36648628D01*
X119292857Y-36648628D02*
X118911905Y-36648628D01*
X119864286Y-36220057D02*
X119911905Y-36172438D01*
X119911905Y-36172438D02*
X120007143Y-36124819D01*
X120007143Y-36124819D02*
X120245238Y-36124819D01*
X120245238Y-36124819D02*
X120340476Y-36172438D01*
X120340476Y-36172438D02*
X120388095Y-36220057D01*
X120388095Y-36220057D02*
X120435714Y-36315295D01*
X120435714Y-36315295D02*
X120435714Y-36410533D01*
X120435714Y-36410533D02*
X120388095Y-36553390D01*
X120388095Y-36553390D02*
X119816667Y-37124819D01*
X119816667Y-37124819D02*
X120435714Y-37124819D01*
X114023333Y-53189580D02*
X113975714Y-53237200D01*
X113975714Y-53237200D02*
X113832857Y-53284819D01*
X113832857Y-53284819D02*
X113737619Y-53284819D01*
X113737619Y-53284819D02*
X113594762Y-53237200D01*
X113594762Y-53237200D02*
X113499524Y-53141961D01*
X113499524Y-53141961D02*
X113451905Y-53046723D01*
X113451905Y-53046723D02*
X113404286Y-52856247D01*
X113404286Y-52856247D02*
X113404286Y-52713390D01*
X113404286Y-52713390D02*
X113451905Y-52522914D01*
X113451905Y-52522914D02*
X113499524Y-52427676D01*
X113499524Y-52427676D02*
X113594762Y-52332438D01*
X113594762Y-52332438D02*
X113737619Y-52284819D01*
X113737619Y-52284819D02*
X113832857Y-52284819D01*
X113832857Y-52284819D02*
X113975714Y-52332438D01*
X113975714Y-52332438D02*
X114023333Y-52380057D01*
X114975714Y-53284819D02*
X114404286Y-53284819D01*
X114690000Y-53284819D02*
X114690000Y-52284819D01*
X114690000Y-52284819D02*
X114594762Y-52427676D01*
X114594762Y-52427676D02*
X114499524Y-52522914D01*
X114499524Y-52522914D02*
X114404286Y-52570533D01*
X121244761Y-42167557D02*
X121149523Y-42119938D01*
X121149523Y-42119938D02*
X121054285Y-42024700D01*
X121054285Y-42024700D02*
X120911428Y-41881842D01*
X120911428Y-41881842D02*
X120816190Y-41834223D01*
X120816190Y-41834223D02*
X120720952Y-41834223D01*
X120768571Y-42072319D02*
X120673333Y-42024700D01*
X120673333Y-42024700D02*
X120578095Y-41929461D01*
X120578095Y-41929461D02*
X120530476Y-41738985D01*
X120530476Y-41738985D02*
X120530476Y-41405652D01*
X120530476Y-41405652D02*
X120578095Y-41215176D01*
X120578095Y-41215176D02*
X120673333Y-41119938D01*
X120673333Y-41119938D02*
X120768571Y-41072319D01*
X120768571Y-41072319D02*
X120959047Y-41072319D01*
X120959047Y-41072319D02*
X121054285Y-41119938D01*
X121054285Y-41119938D02*
X121149523Y-41215176D01*
X121149523Y-41215176D02*
X121197142Y-41405652D01*
X121197142Y-41405652D02*
X121197142Y-41738985D01*
X121197142Y-41738985D02*
X121149523Y-41929461D01*
X121149523Y-41929461D02*
X121054285Y-42024700D01*
X121054285Y-42024700D02*
X120959047Y-42072319D01*
X120959047Y-42072319D02*
X120768571Y-42072319D01*
X122149523Y-42072319D02*
X121578095Y-42072319D01*
X121863809Y-42072319D02*
X121863809Y-41072319D01*
X121863809Y-41072319D02*
X121768571Y-41215176D01*
X121768571Y-41215176D02*
X121673333Y-41310414D01*
X121673333Y-41310414D02*
X121578095Y-41358033D01*
X126884761Y-66490057D02*
X126789523Y-66442438D01*
X126789523Y-66442438D02*
X126694285Y-66347200D01*
X126694285Y-66347200D02*
X126551428Y-66204342D01*
X126551428Y-66204342D02*
X126456190Y-66156723D01*
X126456190Y-66156723D02*
X126360952Y-66156723D01*
X126408571Y-66394819D02*
X126313333Y-66347200D01*
X126313333Y-66347200D02*
X126218095Y-66251961D01*
X126218095Y-66251961D02*
X126170476Y-66061485D01*
X126170476Y-66061485D02*
X126170476Y-65728152D01*
X126170476Y-65728152D02*
X126218095Y-65537676D01*
X126218095Y-65537676D02*
X126313333Y-65442438D01*
X126313333Y-65442438D02*
X126408571Y-65394819D01*
X126408571Y-65394819D02*
X126599047Y-65394819D01*
X126599047Y-65394819D02*
X126694285Y-65442438D01*
X126694285Y-65442438D02*
X126789523Y-65537676D01*
X126789523Y-65537676D02*
X126837142Y-65728152D01*
X126837142Y-65728152D02*
X126837142Y-66061485D01*
X126837142Y-66061485D02*
X126789523Y-66251961D01*
X126789523Y-66251961D02*
X126694285Y-66347200D01*
X126694285Y-66347200D02*
X126599047Y-66394819D01*
X126599047Y-66394819D02*
X126408571Y-66394819D01*
X127741904Y-65394819D02*
X127265714Y-65394819D01*
X127265714Y-65394819D02*
X127218095Y-65871009D01*
X127218095Y-65871009D02*
X127265714Y-65823390D01*
X127265714Y-65823390D02*
X127360952Y-65775771D01*
X127360952Y-65775771D02*
X127599047Y-65775771D01*
X127599047Y-65775771D02*
X127694285Y-65823390D01*
X127694285Y-65823390D02*
X127741904Y-65871009D01*
X127741904Y-65871009D02*
X127789523Y-65966247D01*
X127789523Y-65966247D02*
X127789523Y-66204342D01*
X127789523Y-66204342D02*
X127741904Y-66299580D01*
X127741904Y-66299580D02*
X127694285Y-66347200D01*
X127694285Y-66347200D02*
X127599047Y-66394819D01*
X127599047Y-66394819D02*
X127360952Y-66394819D01*
X127360952Y-66394819D02*
X127265714Y-66347200D01*
X127265714Y-66347200D02*
X127218095Y-66299580D01*
X127614819Y-42459404D02*
X128424342Y-42459404D01*
X128424342Y-42459404D02*
X128519580Y-42411785D01*
X128519580Y-42411785D02*
X128567200Y-42364166D01*
X128567200Y-42364166D02*
X128614819Y-42268928D01*
X128614819Y-42268928D02*
X128614819Y-42078452D01*
X128614819Y-42078452D02*
X128567200Y-41983214D01*
X128567200Y-41983214D02*
X128519580Y-41935595D01*
X128519580Y-41935595D02*
X128424342Y-41887976D01*
X128424342Y-41887976D02*
X127614819Y-41887976D01*
X127948152Y-40983214D02*
X128614819Y-40983214D01*
X127567200Y-41221309D02*
X128281485Y-41459404D01*
X128281485Y-41459404D02*
X128281485Y-40840357D01*
X133285892Y-63899580D02*
X133238273Y-63947200D01*
X133238273Y-63947200D02*
X133095416Y-63994819D01*
X133095416Y-63994819D02*
X133000178Y-63994819D01*
X133000178Y-63994819D02*
X132857321Y-63947200D01*
X132857321Y-63947200D02*
X132762083Y-63851961D01*
X132762083Y-63851961D02*
X132714464Y-63756723D01*
X132714464Y-63756723D02*
X132666845Y-63566247D01*
X132666845Y-63566247D02*
X132666845Y-63423390D01*
X132666845Y-63423390D02*
X132714464Y-63232914D01*
X132714464Y-63232914D02*
X132762083Y-63137676D01*
X132762083Y-63137676D02*
X132857321Y-63042438D01*
X132857321Y-63042438D02*
X133000178Y-62994819D01*
X133000178Y-62994819D02*
X133095416Y-62994819D01*
X133095416Y-62994819D02*
X133238273Y-63042438D01*
X133238273Y-63042438D02*
X133285892Y-63090057D01*
X134238273Y-63994819D02*
X133666845Y-63994819D01*
X133952559Y-63994819D02*
X133952559Y-62994819D01*
X133952559Y-62994819D02*
X133857321Y-63137676D01*
X133857321Y-63137676D02*
X133762083Y-63232914D01*
X133762083Y-63232914D02*
X133666845Y-63280533D01*
X134619226Y-63090057D02*
X134666845Y-63042438D01*
X134666845Y-63042438D02*
X134762083Y-62994819D01*
X134762083Y-62994819D02*
X135000178Y-62994819D01*
X135000178Y-62994819D02*
X135095416Y-63042438D01*
X135095416Y-63042438D02*
X135143035Y-63090057D01*
X135143035Y-63090057D02*
X135190654Y-63185295D01*
X135190654Y-63185295D02*
X135190654Y-63280533D01*
X135190654Y-63280533D02*
X135143035Y-63423390D01*
X135143035Y-63423390D02*
X134571607Y-63994819D01*
X134571607Y-63994819D02*
X135190654Y-63994819D01*
X125591905Y-32054819D02*
X125591905Y-31054819D01*
X125591905Y-31054819D02*
X125830000Y-31054819D01*
X125830000Y-31054819D02*
X125972857Y-31102438D01*
X125972857Y-31102438D02*
X126068095Y-31197676D01*
X126068095Y-31197676D02*
X126115714Y-31292914D01*
X126115714Y-31292914D02*
X126163333Y-31483390D01*
X126163333Y-31483390D02*
X126163333Y-31626247D01*
X126163333Y-31626247D02*
X126115714Y-31816723D01*
X126115714Y-31816723D02*
X126068095Y-31911961D01*
X126068095Y-31911961D02*
X125972857Y-32007200D01*
X125972857Y-32007200D02*
X125830000Y-32054819D01*
X125830000Y-32054819D02*
X125591905Y-32054819D01*
X127115714Y-32054819D02*
X126544286Y-32054819D01*
X126830000Y-32054819D02*
X126830000Y-31054819D01*
X126830000Y-31054819D02*
X126734762Y-31197676D01*
X126734762Y-31197676D02*
X126639524Y-31292914D01*
X126639524Y-31292914D02*
X126544286Y-31340533D01*
X144761905Y-31537319D02*
X144761905Y-30537319D01*
X144761905Y-30537319D02*
X145000000Y-30537319D01*
X145000000Y-30537319D02*
X145142857Y-30584938D01*
X145142857Y-30584938D02*
X145238095Y-30680176D01*
X145238095Y-30680176D02*
X145285714Y-30775414D01*
X145285714Y-30775414D02*
X145333333Y-30965890D01*
X145333333Y-30965890D02*
X145333333Y-31108747D01*
X145333333Y-31108747D02*
X145285714Y-31299223D01*
X145285714Y-31299223D02*
X145238095Y-31394461D01*
X145238095Y-31394461D02*
X145142857Y-31489700D01*
X145142857Y-31489700D02*
X145000000Y-31537319D01*
X145000000Y-31537319D02*
X144761905Y-31537319D01*
X145666667Y-30537319D02*
X146285714Y-30537319D01*
X146285714Y-30537319D02*
X145952381Y-30918271D01*
X145952381Y-30918271D02*
X146095238Y-30918271D01*
X146095238Y-30918271D02*
X146190476Y-30965890D01*
X146190476Y-30965890D02*
X146238095Y-31013509D01*
X146238095Y-31013509D02*
X146285714Y-31108747D01*
X146285714Y-31108747D02*
X146285714Y-31346842D01*
X146285714Y-31346842D02*
X146238095Y-31442080D01*
X146238095Y-31442080D02*
X146190476Y-31489700D01*
X146190476Y-31489700D02*
X146095238Y-31537319D01*
X146095238Y-31537319D02*
X145809524Y-31537319D01*
X145809524Y-31537319D02*
X145714286Y-31489700D01*
X145714286Y-31489700D02*
X145666667Y-31442080D01*
X184441905Y-59924819D02*
X184441905Y-58924819D01*
X184441905Y-58924819D02*
X184680000Y-58924819D01*
X184680000Y-58924819D02*
X184822857Y-58972438D01*
X184822857Y-58972438D02*
X184918095Y-59067676D01*
X184918095Y-59067676D02*
X184965714Y-59162914D01*
X184965714Y-59162914D02*
X185013333Y-59353390D01*
X185013333Y-59353390D02*
X185013333Y-59496247D01*
X185013333Y-59496247D02*
X184965714Y-59686723D01*
X184965714Y-59686723D02*
X184918095Y-59781961D01*
X184918095Y-59781961D02*
X184822857Y-59877200D01*
X184822857Y-59877200D02*
X184680000Y-59924819D01*
X184680000Y-59924819D02*
X184441905Y-59924819D01*
X185870476Y-59258152D02*
X185870476Y-59924819D01*
X185632381Y-58877200D02*
X185394286Y-59591485D01*
X185394286Y-59591485D02*
X186013333Y-59591485D01*
X189514819Y-50504285D02*
X189514819Y-51075713D01*
X189514819Y-50789999D02*
X188514819Y-50789999D01*
X188514819Y-50789999D02*
X188657676Y-50885237D01*
X188657676Y-50885237D02*
X188752914Y-50980475D01*
X188752914Y-50980475D02*
X188800533Y-51075713D01*
X122151905Y-38264819D02*
X122151905Y-37264819D01*
X122151905Y-37264819D02*
X122390000Y-37264819D01*
X122390000Y-37264819D02*
X122532857Y-37312438D01*
X122532857Y-37312438D02*
X122628095Y-37407676D01*
X122628095Y-37407676D02*
X122675714Y-37502914D01*
X122675714Y-37502914D02*
X122723333Y-37693390D01*
X122723333Y-37693390D02*
X122723333Y-37836247D01*
X122723333Y-37836247D02*
X122675714Y-38026723D01*
X122675714Y-38026723D02*
X122628095Y-38121961D01*
X122628095Y-38121961D02*
X122532857Y-38217200D01*
X122532857Y-38217200D02*
X122390000Y-38264819D01*
X122390000Y-38264819D02*
X122151905Y-38264819D01*
X123104286Y-37360057D02*
X123151905Y-37312438D01*
X123151905Y-37312438D02*
X123247143Y-37264819D01*
X123247143Y-37264819D02*
X123485238Y-37264819D01*
X123485238Y-37264819D02*
X123580476Y-37312438D01*
X123580476Y-37312438D02*
X123628095Y-37360057D01*
X123628095Y-37360057D02*
X123675714Y-37455295D01*
X123675714Y-37455295D02*
X123675714Y-37550533D01*
X123675714Y-37550533D02*
X123628095Y-37693390D01*
X123628095Y-37693390D02*
X123056667Y-38264819D01*
X123056667Y-38264819D02*
X123675714Y-38264819D01*
X152617142Y-60769580D02*
X152569523Y-60817200D01*
X152569523Y-60817200D02*
X152426666Y-60864819D01*
X152426666Y-60864819D02*
X152331428Y-60864819D01*
X152331428Y-60864819D02*
X152188571Y-60817200D01*
X152188571Y-60817200D02*
X152093333Y-60721961D01*
X152093333Y-60721961D02*
X152045714Y-60626723D01*
X152045714Y-60626723D02*
X151998095Y-60436247D01*
X151998095Y-60436247D02*
X151998095Y-60293390D01*
X151998095Y-60293390D02*
X152045714Y-60102914D01*
X152045714Y-60102914D02*
X152093333Y-60007676D01*
X152093333Y-60007676D02*
X152188571Y-59912438D01*
X152188571Y-59912438D02*
X152331428Y-59864819D01*
X152331428Y-59864819D02*
X152426666Y-59864819D01*
X152426666Y-59864819D02*
X152569523Y-59912438D01*
X152569523Y-59912438D02*
X152617142Y-59960057D01*
X153569523Y-60864819D02*
X152998095Y-60864819D01*
X153283809Y-60864819D02*
X153283809Y-59864819D01*
X153283809Y-59864819D02*
X153188571Y-60007676D01*
X153188571Y-60007676D02*
X153093333Y-60102914D01*
X153093333Y-60102914D02*
X152998095Y-60150533D01*
X153902857Y-59864819D02*
X154569523Y-59864819D01*
X154569523Y-59864819D02*
X154140952Y-60864819D01*
X126126667Y-33742295D02*
X125860000Y-33361342D01*
X125669524Y-33742295D02*
X125669524Y-32942295D01*
X125669524Y-32942295D02*
X125974286Y-32942295D01*
X125974286Y-32942295D02*
X126050476Y-32980390D01*
X126050476Y-32980390D02*
X126088571Y-33018485D01*
X126088571Y-33018485D02*
X126126667Y-33094676D01*
X126126667Y-33094676D02*
X126126667Y-33208961D01*
X126126667Y-33208961D02*
X126088571Y-33285152D01*
X126088571Y-33285152D02*
X126050476Y-33323247D01*
X126050476Y-33323247D02*
X125974286Y-33361342D01*
X125974286Y-33361342D02*
X125669524Y-33361342D01*
X126888571Y-33742295D02*
X126431428Y-33742295D01*
X126660000Y-33742295D02*
X126660000Y-32942295D01*
X126660000Y-32942295D02*
X126583809Y-33056580D01*
X126583809Y-33056580D02*
X126507619Y-33132771D01*
X126507619Y-33132771D02*
X126431428Y-33170866D01*
X117523333Y-53229580D02*
X117475714Y-53277200D01*
X117475714Y-53277200D02*
X117332857Y-53324819D01*
X117332857Y-53324819D02*
X117237619Y-53324819D01*
X117237619Y-53324819D02*
X117094762Y-53277200D01*
X117094762Y-53277200D02*
X116999524Y-53181961D01*
X116999524Y-53181961D02*
X116951905Y-53086723D01*
X116951905Y-53086723D02*
X116904286Y-52896247D01*
X116904286Y-52896247D02*
X116904286Y-52753390D01*
X116904286Y-52753390D02*
X116951905Y-52562914D01*
X116951905Y-52562914D02*
X116999524Y-52467676D01*
X116999524Y-52467676D02*
X117094762Y-52372438D01*
X117094762Y-52372438D02*
X117237619Y-52324819D01*
X117237619Y-52324819D02*
X117332857Y-52324819D01*
X117332857Y-52324819D02*
X117475714Y-52372438D01*
X117475714Y-52372438D02*
X117523333Y-52420057D01*
X118380476Y-52324819D02*
X118190000Y-52324819D01*
X118190000Y-52324819D02*
X118094762Y-52372438D01*
X118094762Y-52372438D02*
X118047143Y-52420057D01*
X118047143Y-52420057D02*
X117951905Y-52562914D01*
X117951905Y-52562914D02*
X117904286Y-52753390D01*
X117904286Y-52753390D02*
X117904286Y-53134342D01*
X117904286Y-53134342D02*
X117951905Y-53229580D01*
X117951905Y-53229580D02*
X117999524Y-53277200D01*
X117999524Y-53277200D02*
X118094762Y-53324819D01*
X118094762Y-53324819D02*
X118285238Y-53324819D01*
X118285238Y-53324819D02*
X118380476Y-53277200D01*
X118380476Y-53277200D02*
X118428095Y-53229580D01*
X118428095Y-53229580D02*
X118475714Y-53134342D01*
X118475714Y-53134342D02*
X118475714Y-52896247D01*
X118475714Y-52896247D02*
X118428095Y-52801009D01*
X118428095Y-52801009D02*
X118380476Y-52753390D01*
X118380476Y-52753390D02*
X118285238Y-52705771D01*
X118285238Y-52705771D02*
X118094762Y-52705771D01*
X118094762Y-52705771D02*
X117999524Y-52753390D01*
X117999524Y-52753390D02*
X117951905Y-52801009D01*
X117951905Y-52801009D02*
X117904286Y-52896247D01*
X109367142Y-76119580D02*
X109319523Y-76167200D01*
X109319523Y-76167200D02*
X109176666Y-76214819D01*
X109176666Y-76214819D02*
X109081428Y-76214819D01*
X109081428Y-76214819D02*
X108938571Y-76167200D01*
X108938571Y-76167200D02*
X108843333Y-76071961D01*
X108843333Y-76071961D02*
X108795714Y-75976723D01*
X108795714Y-75976723D02*
X108748095Y-75786247D01*
X108748095Y-75786247D02*
X108748095Y-75643390D01*
X108748095Y-75643390D02*
X108795714Y-75452914D01*
X108795714Y-75452914D02*
X108843333Y-75357676D01*
X108843333Y-75357676D02*
X108938571Y-75262438D01*
X108938571Y-75262438D02*
X109081428Y-75214819D01*
X109081428Y-75214819D02*
X109176666Y-75214819D01*
X109176666Y-75214819D02*
X109319523Y-75262438D01*
X109319523Y-75262438D02*
X109367142Y-75310057D01*
X109748095Y-75310057D02*
X109795714Y-75262438D01*
X109795714Y-75262438D02*
X109890952Y-75214819D01*
X109890952Y-75214819D02*
X110129047Y-75214819D01*
X110129047Y-75214819D02*
X110224285Y-75262438D01*
X110224285Y-75262438D02*
X110271904Y-75310057D01*
X110271904Y-75310057D02*
X110319523Y-75405295D01*
X110319523Y-75405295D02*
X110319523Y-75500533D01*
X110319523Y-75500533D02*
X110271904Y-75643390D01*
X110271904Y-75643390D02*
X109700476Y-76214819D01*
X109700476Y-76214819D02*
X110319523Y-76214819D01*
X110652857Y-75214819D02*
X111271904Y-75214819D01*
X111271904Y-75214819D02*
X110938571Y-75595771D01*
X110938571Y-75595771D02*
X111081428Y-75595771D01*
X111081428Y-75595771D02*
X111176666Y-75643390D01*
X111176666Y-75643390D02*
X111224285Y-75691009D01*
X111224285Y-75691009D02*
X111271904Y-75786247D01*
X111271904Y-75786247D02*
X111271904Y-76024342D01*
X111271904Y-76024342D02*
X111224285Y-76119580D01*
X111224285Y-76119580D02*
X111176666Y-76167200D01*
X111176666Y-76167200D02*
X111081428Y-76214819D01*
X111081428Y-76214819D02*
X110795714Y-76214819D01*
X110795714Y-76214819D02*
X110700476Y-76167200D01*
X110700476Y-76167200D02*
X110652857Y-76119580D01*
D12*
%TO.C,U3*%
X119892500Y-30820000D02*
X119092500Y-30820000D01*
X119892500Y-30820000D02*
X120692500Y-30820000D01*
X119892500Y-33940000D02*
X119092500Y-33940000D01*
X119892500Y-33940000D02*
X120692500Y-33940000D01*
X121432500Y-34220000D02*
X120952500Y-34220000D01*
X121192500Y-33890000D01*
X121432500Y-34220000D01*
G36*
X121432500Y-34220000D02*
G01*
X120952500Y-34220000D01*
X121192500Y-33890000D01*
X121432500Y-34220000D01*
G37*
%TO.C,C21*%
X129900580Y-55810000D02*
X129619420Y-55810000D01*
X129900580Y-56830000D02*
X129619420Y-56830000D01*
%TO.C,ANT1*%
X142000000Y-35000000D02*
X142000000Y-75000000D01*
X142000000Y-75000000D02*
X182000000Y-75000000D01*
X182000000Y-35000000D02*
X142000000Y-35000000D01*
X182000000Y-75000000D02*
X182000000Y-35000000D01*
X153346824Y-46406787D02*
G75*
G02*
X170661400Y-46364000I8678682J-8635897D01*
G01*
X154748289Y-47722889D02*
G75*
G02*
X169315200Y-47735600I7277111J-7277111D01*
G01*
X155802247Y-48751754D02*
G75*
G02*
X168248399Y-48751601I6223153J-6248244D01*
G01*
X156820994Y-49739633D02*
G75*
G02*
X167232400Y-49742200I5204406J-5260366D01*
G01*
X158024957Y-50923601D02*
G75*
G02*
X166063999Y-50961401I4000442J-4076398D01*
G01*
X159173239Y-52130826D02*
G75*
G02*
X164808169Y-52179920I2789703J-3210981D01*
G01*
X164794000Y-57794000D02*
G75*
G02*
X159244071Y-57781329I-2768600J2794000D01*
G01*
X166013199Y-59013199D02*
G75*
G02*
X158037848Y-59013445I-3987799J4013201D01*
G01*
X167156200Y-60181600D02*
G75*
G02*
X156906911Y-60193761I-5130800J5181601D01*
G01*
X168248399Y-61222999D02*
G75*
G02*
X155840853Y-61261215I-6222999J6222999D01*
G01*
X169264399Y-62238999D02*
G75*
G02*
X154773778Y-62226355I-7239000J7238999D01*
G01*
X170661400Y-63610600D02*
G75*
G02*
X153414800Y-63636000I-8636000J8610600D01*
G01*
%TO.C,C20*%
X129960580Y-54000000D02*
X129679420Y-54000000D01*
X129960580Y-55020000D02*
X129679420Y-55020000D01*
%TO.C,C11*%
X133801920Y-59930000D02*
X134083080Y-59930000D01*
X133801920Y-60950000D02*
X134083080Y-60950000D01*
%TO.C,R11*%
X116797258Y-75217500D02*
X116322742Y-75217500D01*
X116797258Y-76262500D02*
X116322742Y-76262500D01*
%TO.C,Q2*%
X121240000Y-46657500D02*
X120590000Y-46657500D01*
X121240000Y-46657500D02*
X121890000Y-46657500D01*
X121240000Y-49777500D02*
X120590000Y-49777500D01*
X121240000Y-49777500D02*
X121890000Y-49777500D01*
X120077500Y-46707500D02*
X119837500Y-46377500D01*
X120317500Y-46377500D01*
X120077500Y-46707500D01*
G36*
X120077500Y-46707500D02*
G01*
X119837500Y-46377500D01*
X120317500Y-46377500D01*
X120077500Y-46707500D01*
G37*
%TO.C,R7*%
X119802742Y-75297500D02*
X120277258Y-75297500D01*
X119802742Y-76342500D02*
X120277258Y-76342500D01*
%TO.C,J1*%
X106920000Y-31240000D02*
X106920000Y-30290000D01*
X106920000Y-35215000D02*
X106920000Y-34360000D01*
X116080000Y-30290000D02*
X106920000Y-30290000D01*
X116080000Y-31240000D02*
X116080000Y-30290000D01*
X116080000Y-35215000D02*
X116080000Y-34360000D01*
%TO.C,U2*%
X107245000Y-46405000D02*
X107245000Y-44455000D01*
X107245000Y-46405000D02*
X107245000Y-48355000D01*
X117365000Y-46405000D02*
X117365000Y-44455000D01*
X117365000Y-46405000D02*
X117365000Y-48355000D01*
X117640000Y-43945000D02*
X117310000Y-43705000D01*
X117640000Y-43465000D01*
X117640000Y-43945000D01*
G36*
X117640000Y-43945000D02*
G01*
X117310000Y-43705000D01*
X117640000Y-43465000D01*
X117640000Y-43945000D01*
G37*
%TO.C,Q3*%
X119477500Y-37390000D02*
X118827500Y-37390000D01*
X119477500Y-37390000D02*
X120127500Y-37390000D01*
X119477500Y-40510000D02*
X118827500Y-40510000D01*
X119477500Y-40510000D02*
X120127500Y-40510000D01*
X118315000Y-37440000D02*
X118075000Y-37110000D01*
X118555000Y-37110000D01*
X118315000Y-37440000D01*
G36*
X118315000Y-37440000D02*
G01*
X118075000Y-37110000D01*
X118555000Y-37110000D01*
X118315000Y-37440000D01*
G37*
%TO.C,U1*%
X99890000Y-54880000D02*
X106305000Y-54880000D01*
X99890000Y-73120000D02*
X99890000Y-54880000D01*
X99890000Y-73120000D02*
X106050000Y-73120000D01*
X124850000Y-54880000D02*
X125630000Y-54880000D01*
X124850000Y-73120000D02*
X125630000Y-73120000D01*
X125630000Y-54880000D02*
X125630000Y-55880000D01*
X125630000Y-73120000D02*
X125630000Y-72120000D01*
X106775000Y-73625000D02*
X106275000Y-73125000D01*
X106775000Y-73125000D01*
X106775000Y-73625000D01*
G36*
X106775000Y-73625000D02*
G01*
X106275000Y-73125000D01*
X106775000Y-73125000D01*
X106775000Y-73625000D01*
G37*
%TO.C,C18*%
X150149420Y-55410000D02*
X150430580Y-55410000D01*
X150149420Y-56430000D02*
X150430580Y-56430000D01*
%TO.C,L1*%
X130281233Y-59950000D02*
X130623767Y-59950000D01*
X130281233Y-60970000D02*
X130623767Y-60970000D01*
%TO.C,C2*%
X125029420Y-47720000D02*
X125310580Y-47720000D01*
X125029420Y-48740000D02*
X125310580Y-48740000D01*
%TO.C,LS1*%
X128479216Y-74509999D02*
G75*
G02*
X128479216Y-71510000I6400000J1499999D01*
G01*
X141109216Y-73010000D02*
G75*
G02*
X128649216Y-73010000I-6230000J0D01*
G01*
X128649216Y-73010000D02*
G75*
G02*
X141109216Y-73010000I6230000J0D01*
G01*
%TO.C,R3*%
X125942258Y-38122500D02*
X125467742Y-38122500D01*
X125942258Y-39167500D02*
X125467742Y-39167500D01*
%TO.C,C14*%
X150390580Y-48980000D02*
X150109420Y-48980000D01*
X150390580Y-50000000D02*
X150109420Y-50000000D01*
%TO.C,R4*%
X114932742Y-38747500D02*
X115407258Y-38747500D01*
X114932742Y-39792500D02*
X115407258Y-39792500D01*
%TO.C,C16*%
X150171920Y-57640000D02*
X150453080Y-57640000D01*
X150171920Y-58660000D02*
X150453080Y-58660000D01*
%TO.C,C26*%
X137779420Y-62370000D02*
X138060580Y-62370000D01*
X137779420Y-63390000D02*
X138060580Y-63390000D01*
%TO.C,C25*%
X127043080Y-75180000D02*
X126761920Y-75180000D01*
X127043080Y-76200000D02*
X126761920Y-76200000D01*
%TO.C,J2*%
X132710000Y-37640000D02*
X132710000Y-43860000D01*
X132710000Y-43860000D02*
X133560000Y-43860000D01*
X133560000Y-37640000D02*
X132710000Y-37640000D01*
X135980000Y-37640000D02*
X138930000Y-37640000D01*
X135980000Y-43860000D02*
X138930000Y-43860000D01*
X138930000Y-37640000D02*
X138930000Y-39390000D01*
X138930000Y-39390000D02*
X139820000Y-39390000D01*
X138930000Y-43860000D02*
X138930000Y-42110000D01*
%TO.C,C9*%
X137112500Y-49120580D02*
X137112500Y-48839420D01*
X138132500Y-49120580D02*
X138132500Y-48839420D01*
%TO.C,C19*%
X130060580Y-52180000D02*
X129779420Y-52180000D01*
X130060580Y-53200000D02*
X129779420Y-53200000D01*
%TO.C,R6*%
X120782742Y-52247500D02*
X121257258Y-52247500D01*
X120782742Y-53292500D02*
X121257258Y-53292500D01*
%TO.C,R5*%
X108987258Y-38777500D02*
X108512742Y-38777500D01*
X108987258Y-39822500D02*
X108512742Y-39822500D01*
%TO.C,C24*%
X186900580Y-50170000D02*
X186619420Y-50170000D01*
X186900580Y-51190000D02*
X186619420Y-51190000D01*
%TO.C,R10*%
X143237258Y-32000000D02*
X142762742Y-32000000D01*
X143237258Y-33045000D02*
X142762742Y-33045000D01*
%TO.C,SW1*%
X130630000Y-30170000D02*
X128330000Y-30170000D01*
X136930000Y-30170000D02*
X134730000Y-30170000D01*
X136930000Y-34770000D02*
X128330000Y-34770000D01*
%TO.C,C15*%
X150430580Y-51140000D02*
X150149420Y-51140000D01*
X150430580Y-52160000D02*
X150149420Y-52160000D01*
%TO.C,Y1*%
X132532500Y-47340000D02*
X132532500Y-50640000D01*
X132532500Y-50640000D02*
X136532500Y-50640000D01*
%TO.C,L2*%
X130277483Y-61570000D02*
X130620017Y-61570000D01*
X130277483Y-62590000D02*
X130620017Y-62590000D01*
%TO.C,C13*%
X150159420Y-53250000D02*
X150440580Y-53250000D01*
X150159420Y-54270000D02*
X150440580Y-54270000D01*
%TO.C,R9*%
X137672742Y-59252500D02*
X138147258Y-59252500D01*
X137672742Y-60297500D02*
X138147258Y-60297500D01*
%TO.C,C8*%
X130962500Y-49120580D02*
X130962500Y-48839420D01*
X131982500Y-49120580D02*
X131982500Y-48839420D01*
%TO.C,U5*%
X132290000Y-52935000D02*
X132290000Y-52700000D01*
X132290000Y-57680000D02*
X132290000Y-57205000D01*
X132765000Y-52460000D02*
X132590000Y-52460000D01*
X132765000Y-57680000D02*
X132290000Y-57680000D01*
X137035000Y-52460000D02*
X137510000Y-52460000D01*
X137035000Y-57680000D02*
X137510000Y-57680000D01*
X137510000Y-52460000D02*
X137510000Y-52935000D01*
X137510000Y-57680000D02*
X137510000Y-57205000D01*
X132290000Y-52460000D02*
X132050000Y-52130000D01*
X132530000Y-52130000D01*
X132290000Y-52460000D01*
G36*
X132290000Y-52460000D02*
G01*
X132050000Y-52130000D01*
X132530000Y-52130000D01*
X132290000Y-52460000D01*
G37*
%TO.C,C4*%
X129638748Y-44335000D02*
X130161252Y-44335000D01*
X129638748Y-45805000D02*
X130161252Y-45805000D01*
%TO.C,C5*%
X125530580Y-44610000D02*
X125249420Y-44610000D01*
X125530580Y-45630000D02*
X125249420Y-45630000D01*
%TO.C,C7*%
X114889420Y-40440000D02*
X115170580Y-40440000D01*
X114889420Y-41460000D02*
X115170580Y-41460000D01*
%TO.C,C10*%
X137764420Y-63940000D02*
X138045580Y-63940000D01*
X137764420Y-64960000D02*
X138045580Y-64960000D01*
%TO.C,R8*%
X138157258Y-60797500D02*
X137682742Y-60797500D01*
X138157258Y-61842500D02*
X137682742Y-61842500D01*
%TO.C,C22*%
X113181252Y-77415000D02*
X112658748Y-77415000D01*
X113181252Y-78885000D02*
X112658748Y-78885000D01*
%TO.C,R2*%
X119152742Y-34857500D02*
X119627258Y-34857500D01*
X119152742Y-35902500D02*
X119627258Y-35902500D01*
%TO.C,C1*%
X114330580Y-50890000D02*
X114049420Y-50890000D01*
X114330580Y-51910000D02*
X114049420Y-51910000D01*
%TO.C,Q1*%
X121340000Y-42457500D02*
X120690000Y-42457500D01*
X121340000Y-42457500D02*
X121990000Y-42457500D01*
X121340000Y-45577500D02*
X120690000Y-45577500D01*
X121340000Y-45577500D02*
X121990000Y-45577500D01*
X120177500Y-42507500D02*
X119937500Y-42177500D01*
X120417500Y-42177500D01*
X120177500Y-42507500D01*
G36*
X120177500Y-42507500D02*
G01*
X119937500Y-42177500D01*
X120417500Y-42177500D01*
X120177500Y-42507500D01*
G37*
%TO.C,Q5*%
X130052500Y-63440000D02*
X129402500Y-63440000D01*
X130052500Y-63440000D02*
X130702500Y-63440000D01*
X130052500Y-66560000D02*
X129402500Y-66560000D01*
X130052500Y-66560000D02*
X130702500Y-66560000D01*
X128890000Y-63490000D02*
X128650000Y-63160000D01*
X129130000Y-63160000D01*
X128890000Y-63490000D01*
G36*
X128890000Y-63490000D02*
G01*
X128650000Y-63160000D01*
X129130000Y-63160000D01*
X128890000Y-63490000D01*
G37*
%TO.C,U4*%
X124200000Y-41697500D02*
X124200000Y-40897500D01*
X124200000Y-41697500D02*
X124200000Y-42497500D01*
X127320000Y-41697500D02*
X127320000Y-40897500D01*
X127320000Y-41697500D02*
X127320000Y-42497500D01*
X127600000Y-40637500D02*
X127270000Y-40397500D01*
X127600000Y-40157500D01*
X127600000Y-40637500D01*
G36*
X127600000Y-40637500D02*
G01*
X127270000Y-40397500D01*
X127600000Y-40157500D01*
X127600000Y-40637500D01*
G37*
%TO.C,C12*%
X134069330Y-61600000D02*
X133788170Y-61600000D01*
X134069330Y-62620000D02*
X133788170Y-62620000D01*
%TO.C,D1*%
X122435000Y-30885000D02*
X122435000Y-32355000D01*
X122435000Y-32355000D02*
X124720000Y-32355000D01*
X124720000Y-30885000D02*
X122435000Y-30885000D01*
%TO.C,D3*%
X142172500Y-31757500D02*
X144457500Y-31757500D01*
X144457500Y-30287500D02*
X142172500Y-30287500D01*
X144457500Y-31757500D02*
X144457500Y-30287500D01*
%TO.C,D4*%
X184050000Y-51350000D02*
X184050000Y-58650000D01*
X184050000Y-58650000D02*
X185200000Y-58650000D01*
X189550000Y-51350000D02*
X189550000Y-58650000D01*
%TO.C,D2*%
X126047500Y-34990000D02*
X122037500Y-34990000D01*
X126047500Y-36990000D02*
X122037500Y-36990000D01*
X126047500Y-36990000D02*
X126047500Y-34990000D01*
%TO.C,C17*%
X150179420Y-59880000D02*
X150460580Y-59880000D01*
X150179420Y-60900000D02*
X150460580Y-60900000D01*
%TO.C,R1*%
X124107258Y-32757500D02*
X123632742Y-32757500D01*
X124107258Y-33802500D02*
X123632742Y-33802500D01*
%TO.C,C6*%
X117559420Y-50900000D02*
X117840580Y-50900000D01*
X117559420Y-51920000D02*
X117840580Y-51920000D01*
%TO.C,C3*%
X129738748Y-35625000D02*
X130261252Y-35625000D01*
X129738748Y-37095000D02*
X130261252Y-37095000D01*
%TO.C,C23*%
X113108080Y-75220000D02*
X112826920Y-75220000D01*
X113108080Y-76240000D02*
X112826920Y-76240000D01*
%TD*%
%LPC*%
D13*
%TO.C,U3*%
X121030000Y-33330000D03*
X121030000Y-32380000D03*
X121030000Y-31430000D03*
X118755000Y-31430000D03*
X118755000Y-33330000D03*
%TD*%
D14*
%TO.C,C21*%
X130535000Y-56320000D03*
X128985000Y-56320000D03*
%TD*%
%TO.C,C20*%
X130595000Y-54510000D03*
X129045000Y-54510000D03*
%TD*%
D15*
%TO.C,C11*%
X133167500Y-60440000D03*
X134717500Y-60440000D03*
%TD*%
D16*
%TO.C,R11*%
X117385000Y-75740000D03*
X115735000Y-75740000D03*
%TD*%
D17*
%TO.C,H1*%
X103000000Y-33000000D03*
%TD*%
D18*
%TO.C,Q2*%
X120302500Y-47267500D03*
X120302500Y-49167500D03*
X122177500Y-48217500D03*
%TD*%
D19*
%TO.C,R7*%
X119215000Y-75820000D03*
X120865000Y-75820000D03*
%TD*%
D20*
%TO.C,J1*%
X114500000Y-35950000D03*
D21*
X112900000Y-32850000D03*
X110100000Y-32850000D03*
D22*
X108500000Y-35950000D03*
D23*
X114600000Y-37050000D03*
X113850000Y-37050000D03*
D24*
X113250000Y-37050000D03*
X111750000Y-37050000D03*
X110750000Y-37050000D03*
X109750000Y-37050000D03*
D23*
X109150000Y-37050000D03*
X108400000Y-37050000D03*
X108400000Y-37050000D03*
X109150000Y-37050000D03*
D24*
X110250000Y-37050000D03*
X111250000Y-37050000D03*
X112250000Y-37050000D03*
X112750000Y-37050000D03*
D23*
X113850000Y-37050000D03*
X114600000Y-37050000D03*
D25*
X115820000Y-36675000D03*
D26*
X115820000Y-32850000D03*
D25*
X107180000Y-36675000D03*
D26*
X107180000Y-32850000D03*
%TD*%
D27*
%TO.C,U2*%
X116750000Y-43930000D03*
X115480000Y-43930000D03*
X114210000Y-43930000D03*
X112940000Y-43930000D03*
X111670000Y-43930000D03*
X110400000Y-43930000D03*
X109130000Y-43930000D03*
X107860000Y-43930000D03*
X107860000Y-48880000D03*
X109130000Y-48880000D03*
X110400000Y-48880000D03*
X111670000Y-48880000D03*
X112940000Y-48880000D03*
X114210000Y-48880000D03*
X115480000Y-48880000D03*
X116750000Y-48880000D03*
%TD*%
D18*
%TO.C,Q3*%
X118540000Y-38000000D03*
X118540000Y-39900000D03*
X120415000Y-38950000D03*
%TD*%
D28*
%TO.C,U1*%
X107500000Y-72750000D03*
X108770000Y-72750000D03*
X110040000Y-72750000D03*
X111310000Y-72750000D03*
X112580000Y-72750000D03*
X113850000Y-72750000D03*
X115120000Y-72750000D03*
X116390000Y-72750000D03*
X117660000Y-72750000D03*
X118930000Y-72750000D03*
X120200000Y-72750000D03*
X121470000Y-72750000D03*
X122740000Y-72750000D03*
X124010000Y-72750000D03*
D29*
X125260000Y-69710000D03*
X125260000Y-68440000D03*
X125260000Y-67170000D03*
X125260000Y-65900000D03*
X125260000Y-64630000D03*
X125260000Y-63360000D03*
X125260000Y-62090000D03*
X125260000Y-60820000D03*
X125260000Y-59550000D03*
X125260000Y-58280000D03*
D28*
X124010000Y-55250000D03*
X122740000Y-55250000D03*
X121470000Y-55250000D03*
X120200000Y-55250000D03*
X118930000Y-55250000D03*
X117660000Y-55250000D03*
X116390000Y-55250000D03*
X115120000Y-55250000D03*
X113850000Y-55250000D03*
X112580000Y-55250000D03*
X111310000Y-55250000D03*
X110040000Y-55250000D03*
X108770000Y-55250000D03*
X107500000Y-55250000D03*
D20*
X114450000Y-66400000D03*
X115930000Y-66400000D03*
D30*
X115220000Y-65500000D03*
D20*
X114450000Y-64700000D03*
X115920000Y-64700000D03*
%TD*%
D15*
%TO.C,C18*%
X149515000Y-55920000D03*
X151065000Y-55920000D03*
%TD*%
D31*
%TO.C,L1*%
X129577500Y-60460000D03*
X131327500Y-60460000D03*
%TD*%
D15*
%TO.C,C2*%
X124395000Y-48230000D03*
X125945000Y-48230000D03*
%TD*%
D32*
%TO.C,LS1*%
X132379216Y-73010000D03*
D33*
X137379216Y-73010000D03*
%TD*%
D16*
%TO.C,R3*%
X126530000Y-38645000D03*
X124880000Y-38645000D03*
%TD*%
D14*
%TO.C,C14*%
X151025000Y-49490000D03*
X149475000Y-49490000D03*
%TD*%
D19*
%TO.C,R4*%
X114345000Y-39270000D03*
X115995000Y-39270000D03*
%TD*%
D15*
%TO.C,C16*%
X149537500Y-58150000D03*
X151087500Y-58150000D03*
%TD*%
%TO.C,C26*%
X137145000Y-62880000D03*
X138695000Y-62880000D03*
%TD*%
D17*
%TO.C,H4*%
X103000000Y-77000000D03*
%TD*%
D14*
%TO.C,C25*%
X127677500Y-75690000D03*
X126127500Y-75690000D03*
%TD*%
D17*
%TO.C,H3*%
X187000000Y-77000000D03*
%TD*%
D34*
%TO.C,J2*%
X138470000Y-40000000D03*
X138470000Y-41500000D03*
D35*
X134770000Y-38050000D03*
X134770000Y-43450000D03*
%TD*%
D36*
%TO.C,C9*%
X137622500Y-49755000D03*
X137622500Y-48205000D03*
%TD*%
D14*
%TO.C,C19*%
X130695000Y-52690000D03*
X129145000Y-52690000D03*
%TD*%
D19*
%TO.C,R6*%
X120195000Y-52770000D03*
X121845000Y-52770000D03*
%TD*%
D16*
%TO.C,R5*%
X109575000Y-39300000D03*
X107925000Y-39300000D03*
%TD*%
D14*
%TO.C,C24*%
X187535000Y-50680000D03*
X185985000Y-50680000D03*
%TD*%
D16*
%TO.C,R10*%
X143825000Y-32522500D03*
X142175000Y-32522500D03*
%TD*%
D37*
%TO.C,SW1*%
X136730000Y-32470000D03*
X128530000Y-32470000D03*
D38*
X134630000Y-32470000D03*
D39*
X132630000Y-32470000D03*
X130630000Y-32470000D03*
%TD*%
D14*
%TO.C,C15*%
X151065000Y-51650000D03*
X149515000Y-51650000D03*
%TD*%
D40*
%TO.C,Y1*%
X133432500Y-49840000D03*
X135632500Y-49840000D03*
X135632500Y-48140000D03*
X133432500Y-48140000D03*
%TD*%
D31*
%TO.C,L2*%
X129573750Y-62080000D03*
X131323750Y-62080000D03*
%TD*%
D15*
%TO.C,C13*%
X149525000Y-53760000D03*
X151075000Y-53760000D03*
%TD*%
D19*
%TO.C,R9*%
X137085000Y-59775000D03*
X138735000Y-59775000D03*
%TD*%
D36*
%TO.C,C8*%
X131472500Y-49755000D03*
X131472500Y-48205000D03*
%TD*%
D41*
%TO.C,U5*%
X132462500Y-53320000D03*
X132462500Y-53820000D03*
X132462500Y-54320000D03*
X132462500Y-54820000D03*
X132462500Y-55320000D03*
X132462500Y-55820000D03*
X132462500Y-56320000D03*
X132462500Y-56820000D03*
D42*
X133150000Y-57507500D03*
X133650000Y-57507500D03*
X134150000Y-57507500D03*
X134650000Y-57507500D03*
X135150000Y-57507500D03*
X135650000Y-57507500D03*
X136150000Y-57507500D03*
X136650000Y-57507500D03*
D41*
X137337500Y-56820000D03*
X137337500Y-56320000D03*
X137337500Y-55820000D03*
X137337500Y-55320000D03*
X137337500Y-54820000D03*
X137337500Y-54320000D03*
X137337500Y-53820000D03*
X137337500Y-53320000D03*
D42*
X136650000Y-52632500D03*
X136150000Y-52632500D03*
X135650000Y-52632500D03*
X135150000Y-52632500D03*
X134650000Y-52632500D03*
X134150000Y-52632500D03*
X133650000Y-52632500D03*
X133150000Y-52632500D03*
D43*
X134900000Y-55070000D03*
%TD*%
D44*
%TO.C,C4*%
X128862500Y-45070000D03*
X130937500Y-45070000D03*
%TD*%
D14*
%TO.C,C5*%
X126165000Y-45120000D03*
X124615000Y-45120000D03*
%TD*%
D15*
%TO.C,C7*%
X114255000Y-40950000D03*
X115805000Y-40950000D03*
%TD*%
%TO.C,C10*%
X137130000Y-64450000D03*
X138680000Y-64450000D03*
%TD*%
D16*
%TO.C,R8*%
X138745000Y-61320000D03*
X137095000Y-61320000D03*
%TD*%
D45*
%TO.C,C22*%
X113957500Y-78150000D03*
X111882500Y-78150000D03*
%TD*%
D19*
%TO.C,R2*%
X118565000Y-35380000D03*
X120215000Y-35380000D03*
%TD*%
D14*
%TO.C,C1*%
X114965000Y-51400000D03*
X113415000Y-51400000D03*
%TD*%
D18*
%TO.C,Q1*%
X120402500Y-43067500D03*
X120402500Y-44967500D03*
X122277500Y-44017500D03*
%TD*%
%TO.C,Q5*%
X129115000Y-64050000D03*
X129115000Y-65950000D03*
X130990000Y-65000000D03*
%TD*%
D46*
%TO.C,U4*%
X126710000Y-40560000D03*
X125760000Y-40560000D03*
X124810000Y-40560000D03*
X124810000Y-42835000D03*
X126710000Y-42835000D03*
%TD*%
D14*
%TO.C,C12*%
X134703750Y-62110000D03*
X133153750Y-62110000D03*
%TD*%
D47*
%TO.C,D1*%
X123132500Y-31620000D03*
X124707500Y-31620000D03*
%TD*%
D48*
%TO.C,D3*%
X143760000Y-31022500D03*
X142185000Y-31022500D03*
%TD*%
D28*
%TO.C,D4*%
X188450000Y-52550000D03*
X185150000Y-52550000D03*
X185150000Y-57450000D03*
X188450000Y-57450000D03*
%TD*%
D17*
%TO.C,H2*%
X187000000Y-33000000D03*
%TD*%
D49*
%TO.C,D2*%
X125337500Y-35990000D03*
X122037500Y-35990000D03*
%TD*%
D15*
%TO.C,C17*%
X149545000Y-60390000D03*
X151095000Y-60390000D03*
%TD*%
D16*
%TO.C,R1*%
X124695000Y-33280000D03*
X123045000Y-33280000D03*
%TD*%
D15*
%TO.C,C6*%
X116925000Y-51410000D03*
X118475000Y-51410000D03*
%TD*%
D44*
%TO.C,C3*%
X128962500Y-36360000D03*
X131037500Y-36360000D03*
%TD*%
D14*
%TO.C,C23*%
X113742500Y-75730000D03*
X112192500Y-75730000D03*
%TD*%
%LPD*%
M02*
